#
# Bunkspeed OBJ File
# http://www.bunkspeed.com
#
mtllib octagon.mtl

##########################
g Root|Octagon_(Predeterminado)|Predeterminado|Barrer1|Barrer1_-_Part
##########################
v 0.5567583 0.3092199 1.344133
v 0.5569105 0.308475 1.344501
v -0.5569105 0.308475 1.344501
v -0.5565581 0.31165 1.34365
v -0.5565805 0.3124788 1.343704
v 0.5566477 0.3132935 1.343866
v -0.5566477 0.3132935 1.343866
v 0.5567583 0.31408 1.344133
v 0.5567583 0.31408 1.344133
v -0.5566477 0.3132935 1.343866
v 0.5569105 0.314825 1.344501
v -0.5567583 0.31408 1.344133
v -0.5569105 0.314825 1.344501
v -0.5571016 0.3155156 1.344962
v 0.5573285 0.3161401 1.34551
v -0.5569105 0.314825 1.344501
v 0.5571016 0.3155156 1.344962
v 0.5569105 0.314825 1.344501
v -0.5571016 0.3155156 1.344962
v -0.5573285 0.3161401 1.34551
v 0.5573285 0.3161401 1.34551
v -0.5578732 0.3171493 1.346825
v 0.5578732 0.3171493 1.346825
v -0.5585076 0.3177836 1.348356
v 0.5585076 0.3177836 1.348356
v -0.5591883 0.318 1.35
v 0.5591883 0.318 1.35
v -0.5598691 0.3177836 1.351643
v 0.5598691 0.3177836 1.351643
v -0.5605034 0.3171493 1.353175
v 0.5605034 0.3171493 1.353175
v -0.5610482 0.3161401 1.35449
v 0.5610482 0.3161401 1.35449
v -0.561275 0.3155156 1.355038
v 0.561275 0.3155156 1.355038
v -0.5614662 0.314825 1.355499
v 0.5614662 0.314825 1.355499
v -0.5616183 0.31408 1.355867
v 0.5616183 0.31408 1.355867
v -0.561729 0.3132935 1.356134
v 0.561729 0.3132935 1.356134
v 0.561729 0.3132935 1.356134
v -0.561729 0.3132935 1.356134
v 0.5617961 0.3124788 1.356296
v -0.5617961 0.3124788 1.356296
v 0.5618185 0.31165 1.35635
v -0.5617961 0.3124788 1.356296
v -0.5618185 0.31165 1.35635
v 0.5618185 0.31165 1.35635
v -0.5617961 0.3108211 1.356296
v 0.5617961 0.3108211 1.356296
v -0.561729 0.3100065 1.356134
v 0.561729 0.3100065 1.356134
v 0.561729 0.3100065 1.356134
v -0.561729 0.3100065 1.356134
v 0.5616183 0.3092199 1.355867
v -0.5616183 0.3092199 1.355867
v 0.5614662 0.308475 1.355499
v -0.5614662 0.308475 1.355499
v 0.561275 0.3077843 1.355038
v -0.561275 0.3077843 1.355038
v 0.5610482 0.3071598 1.35449
v -0.561275 0.3077843 1.355038
v -0.5610482 0.3071598 1.35449
v 0.5610482 0.3071598 1.35449
v -0.5605034 0.3061507 1.353175
v 0.5605034 0.3061507 1.353175
v -0.5598691 0.3055164 1.351643
v 0.5598691 0.3055164 1.351643
v -0.5591883 0.3053 1.35
v 0.5591883 0.3053 1.35
v -0.5585076 0.3055164 1.348356
v 0.5585076 0.3055164 1.348356
v -0.5578732 0.3061507 1.346825
v 0.5578732 0.3061507 1.346825
v -0.5573285 0.3071598 1.34551
v 0.5573285 0.3071598 1.34551
v -0.5569105 0.308475 1.344501
v 0.5569105 0.308475 1.344501
v -0.5571016 0.3077843 1.344962
v -0.5571016 0.3077843 1.344962
v 0.5569105 0.308475 1.344501
v -0.5573285 0.3071598 1.34551
v 0.5571016 0.3077843 1.344962
v 0.5573285 0.3071598 1.34551
v 0.5567583 0.3092199 1.344133
v -0.5569105 0.308475 1.344501
v 0.5566477 0.3100065 1.343866
v -0.5567583 0.3092199 1.344133
v -0.5566477 0.3100065 1.343866
v 0.5566477 0.3132935 1.343866
v 0.5565805 0.3124788 1.343704
v -0.5565581 0.31165 1.34365
v 0.5565581 0.31165 1.34365
v -0.5565805 0.3108211 1.343704
v -0.5565805 0.3108211 1.343704
v 0.5565581 0.31165 1.34365
v -0.5566477 0.3100065 1.343866
v 0.5565805 0.3108211 1.343704
v 0.5566477 0.3100065 1.343866
v 0.5565581 0.31165 1.34365
v 0.5565805 0.3124788 1.343704
v 1.343866 0.3132935 0.5566477
v 0.5566477 0.3132935 1.343866
v 1.344133 0.31408 0.5567583
v 1.344501 0.314825 0.5569105
v 0.5569105 0.314825 1.344501
v 0.5571016 0.3155156 1.344962
v 1.34551 0.3161401 0.5573285
v 0.5566477 0.3132935 1.343866
v 0.5567583 0.31408 1.344133
v 1.344501 0.314825 0.5569105
v 0.5569105 0.314825 1.344501
v 1.344962 0.3155156 0.5571016
v 1.34551 0.3161401 0.5573285
v 0.5571016 0.3155156 1.344962
v 0.5573285 0.3161401 1.34551
v 1.34551 0.3161401 0.5573285
v 0.5578732 0.3171493 1.346825
v 1.346825 0.3171493 0.5578732
v 0.5585076 0.3177836 1.348356
v 1.348356 0.3177836 0.5585076
v 0.5591883 0.318 1.35
v 1.35 0.318 0.5591883
v 0.5598691 0.3177836 1.351643
v 1.351643 0.3177836 0.5598691
v 0.5605034 0.3171493 1.353175
v 1.353175 0.3171493 0.5605034
v 0.5610482 0.3161401 1.35449
v 1.35449 0.3161401 0.5610482
v 1.35449 0.3161401 0.5610482
v 0.5610482 0.3161401 1.35449
v 1.355038 0.3155156 0.561275
v 0.561275 0.3155156 1.355038
v 1.355499 0.314825 0.5614662
v 0.5614662 0.314825 1.355499
v 1.355867 0.31408 0.5616183
v 0.5616183 0.31408 1.355867
v 1.356134 0.3132935 0.561729
v 0.5616183 0.31408 1.355867
v 0.561729 0.3132935 1.356134
v 1.356134 0.3132935 0.561729
v 0.5617961 0.3124788 1.356296
v 1.356296 0.3124788 0.5617961
v 0.5618185 0.31165 1.35635
v 1.35635 0.31165 0.5618185
v 1.35635 0.31165 0.5618185
v 0.5618185 0.31165 1.35635
v 1.356296 0.3108211 0.5617961
v 0.5617961 0.3108211 1.356296
v 1.356134 0.3100065 0.561729
v 0.5617961 0.3108211 1.356296
v 0.561729 0.3100065 1.356134
v 1.356134 0.3100065 0.561729
v 0.5616183 0.3092199 1.355867
v 1.355867 0.3092199 0.5616183
v 0.5614662 0.308475 1.355499
v 1.355499 0.308475 0.5614662
v 1.355499 0.308475 0.5614662
v 0.5614662 0.308475 1.355499
v 1.355038 0.3077843 0.561275
v 0.561275 0.3077843 1.355038
v 1.35449 0.3071598 0.5610482
v 0.561275 0.3077843 1.355038
v 0.5610482 0.3071598 1.35449
v 1.35449 0.3071598 0.5610482
v 0.5605034 0.3061507 1.353175
v 1.353175 0.3061507 0.5605034
v 0.5598691 0.3055164 1.351643
v 1.351643 0.3055164 0.5598691
v 0.5591883 0.3053 1.35
v 1.35 0.3053 0.5591883
v 0.5585076 0.3055164 1.348356
v 1.348356 0.3055164 0.5585076
v 0.5578732 0.3061507 1.346825
v 1.346825 0.3061507 0.5578732
v 0.5573285 0.3071598 1.34551
v 1.34551 0.3071598 0.5573285
v 0.5571016 0.3077843 1.344962
v 0.5569105 0.308475 1.344501
v 1.344501 0.308475 0.5569105
v 0.5571016 0.3077843 1.344962
v 1.344501 0.308475 0.5569105
v 0.5573285 0.3071598 1.34551
v 1.344962 0.3077843 0.5571016
v 1.34551 0.3071598 0.5573285
v 0.5567583 0.3092199 1.344133
v 0.5566477 0.3100065 1.343866
v 1.343866 0.3100065 0.5566477
v 0.5567583 0.3092199 1.344133
v 1.343866 0.3100065 0.5566477
v 0.5569105 0.308475 1.344501
v 1.344133 0.3092199 0.5567583
v 1.344501 0.308475 0.5569105
v 1.343866 0.3132935 0.5566477
v 1.343704 0.3124788 0.5565805
v 0.5565581 0.31165 1.34365
v 1.34365 0.31165 0.5565581
v 0.5565805 0.3108211 1.343704
v 0.5565805 0.3108211 1.343704
v 1.34365 0.31165 0.5565581
v 0.5566477 0.3100065 1.343866
v 1.343704 0.3108211 0.5565805
v 1.343866 0.3100065 0.5566477
v -0.5617961 0.3108211 1.356296
v -1.35635 0.31165 0.5618185
v -1.356296 0.3108211 0.5617961
v -0.5617961 0.3108211 1.356296
v -1.356296 0.3108211 0.5617961
v -0.561729 0.3100065 1.356134
v -1.34551 0.3071598 0.5573285
v -0.5578732 0.3061507 1.346825
v -1.346825 0.3061507 0.5578732
v -0.5585076 0.3055164 1.348356
v -1.348356 0.3055164 0.5585076
v -0.5591883 0.3053 1.35
v -1.35 0.3053 0.5591883
v -0.5598691 0.3055164 1.351643
v -1.351643 0.3055164 0.5598691
v -0.5605034 0.3061507 1.353175
v -1.353175 0.3061507 0.5605034
v -0.5610482 0.3071598 1.35449
v -1.35449 0.3071598 0.5610482
v -0.561275 0.3077843 1.355038
v -1.355038 0.3077843 0.561275
v -0.5614662 0.308475 1.355499
v -1.355499 0.308475 0.5614662
v -0.5616183 0.3092199 1.355867
v -1.355867 0.3092199 0.5616183
v -0.561729 0.3100065 1.356134
v -1.356134 0.3100065 0.561729
v -1.356296 0.3108211 0.5617961
v -0.5569105 0.308475 1.344501
v -0.5571016 0.3077843 1.344962
v -1.34551 0.3071598 0.5573285
v -0.5573285 0.3071598 1.34551
v -0.5578732 0.3061507 1.346825
v -1.34551 0.3071598 0.5573285
v -1.344962 0.3077843 0.5571016
v -0.5569105 0.308475 1.344501
v -1.344501 0.308475 0.5569105
v -0.5567583 0.3092199 1.344133
v -0.5566477 0.3100065 1.343866
v -1.344501 0.308475 0.5569105
v -1.344133 0.3092199 0.5567583
v -0.5566477 0.3100065 1.343866
v -1.343866 0.3100065 0.5566477
v -0.5565805 0.3108211 1.343704
v -0.5565581 0.31165 1.34365
v -1.343866 0.3100065 0.5566477
v -1.343704 0.3108211 0.5565805
v -0.5565581 0.31165 1.34365
v -1.34365 0.31165 0.5565581
v -0.5565805 0.3124788 1.343704
v -0.5566477 0.3132935 1.343866
v -1.34365 0.31165 0.5565581
v -1.343704 0.3124788 0.5565805
v -0.5566477 0.3132935 1.343866
v -1.343866 0.3132935 0.5566477
v -0.5567583 0.31408 1.344133
v -0.5569105 0.314825 1.344501
v -1.344501 0.314825 0.5569105
v -1.344962 0.3155156 0.5571016
v -0.5573285 0.3161401 1.34551
v -1.343866 0.3132935 0.5566477
v -1.344133 0.31408 0.5567583
v -0.5569105 0.314825 1.344501
v -1.344501 0.314825 0.5569105
v -0.5571016 0.3155156 1.344962
v -0.5573285 0.3161401 1.34551
v -1.344962 0.3155156 0.5571016
v -1.34551 0.3161401 0.5573285
v -0.5573285 0.3161401 1.34551
v -1.346825 0.3171493 0.5578732
v -0.5578732 0.3171493 1.346825
v -1.348356 0.3177836 0.5585076
v -0.5585076 0.3177836 1.348356
v -1.35 0.318 0.5591883
v -0.5591883 0.318 1.35
v -1.351643 0.3177836 0.5598691
v -0.5598691 0.3177836 1.351643
v -1.353175 0.3171493 0.5605034
v -0.5605034 0.3171493 1.353175
v -1.35449 0.3161401 0.5610482
v -0.5610482 0.3161401 1.35449
v -1.355038 0.3155156 0.561275
v -0.561275 0.3155156 1.355038
v -1.355499 0.314825 0.5614662
v -0.5614662 0.314825 1.355499
v -0.5614662 0.314825 1.355499
v -1.355499 0.314825 0.5614662
v -0.5616183 0.31408 1.355867
v -1.355867 0.31408 0.5616183
v -0.561729 0.3132935 1.356134
v -0.5617961 0.3108211 1.356296
v -0.5618185 0.31165 1.35635
v -1.35635 0.31165 0.5618185
v -0.5617961 0.3124788 1.356296
v -1.356296 0.3124788 0.5617961
v -0.561729 0.3132935 1.356134
v -1.356134 0.3132935 0.561729
v -1.355867 0.31408 0.5616183
v 1.34365 0.31165 0.5565581
v 1.343704 0.3124788 0.5565805
v 1.343866 0.3132935 -0.5566477
v 1.343866 0.3132935 0.5566477
v 1.344133 0.31408 -0.5567583
v 1.344501 0.314825 -0.5569105
v 1.344501 0.314825 0.5569105
v 1.344962 0.3155156 0.5571016
v 1.34551 0.3161401 -0.5573285
v 1.343866 0.3132935 0.5566477
v 1.344133 0.31408 0.5567583
v 1.344501 0.314825 -0.5569105
v 1.344501 0.314825 0.5569105
v 1.344962 0.3155156 -0.5571016
v 1.34551 0.3161401 -0.5573285
v 1.344962 0.3155156 0.5571016
v 1.34551 0.3161401 0.5573285
v 1.34551 0.3161401 -0.5573285
v 1.346825 0.3171493 0.5578732
v 1.346825 0.3171493 -0.5578732
v 1.348356 0.3177836 0.5585076
v 1.348356 0.3177836 -0.5585076
v 1.35 0.318 0.5591883
v 1.35 0.318 -0.5591883
v 1.351643 0.3177836 0.5598691
v 1.351643 0.3177836 -0.5598691
v 1.353175 0.3171493 0.5605034
v 1.353175 0.3171493 -0.5605034
v 1.35449 0.3161401 0.5610482
v 1.35449 0.3161401 -0.5610482
v 1.355038 0.3155156 0.561275
v 1.355038 0.3155156 -0.561275
v 1.355499 0.314825 0.5614662
v 1.355499 0.314825 -0.5614662
v 1.355867 0.31408 0.5616183
v 1.355867 0.31408 -0.5616183
v 1.356134 0.3132935 0.561729
v 1.356134 0.3132935 -0.561729
v 1.356296 0.3124788 0.5617961
v 1.356296 0.3124788 -0.5617961
v 1.35635 0.31165 0.5618185
v 1.35635 0.31165 -0.5618185
v 1.35635 0.31165 -0.5618185
v 1.35635 0.31165 0.5618185
v 1.356296 0.3108211 -0.5617961
v 1.356296 0.3108211 0.5617961
v 1.356134 0.3100065 -0.561729
v 1.356134 0.3100065 0.561729
v 1.355867 0.3092199 -0.5616183
v 1.355867 0.3092199 0.5616183
v 1.355499 0.308475 -0.5614662
v 1.355499 0.308475 0.5614662
v 1.355038 0.3077843 -0.561275
v 1.355038 0.3077843 0.561275
v 1.35449 0.3071598 -0.5610482
v 1.355038 0.3077843 0.561275
v 1.35449 0.3071598 0.5610482
v 1.35449 0.3071598 -0.5610482
v 1.353175 0.3061507 0.5605034
v 1.353175 0.3061507 -0.5605034
v 1.351643 0.3055164 0.5598691
v 1.351643 0.3055164 -0.5598691
v 1.35 0.3053 0.5591883
v 1.35 0.3053 -0.5591883
v 1.348356 0.3055164 0.5585076
v 1.348356 0.3055164 -0.5585076
v 1.346825 0.3061507 0.5578732
v 1.346825 0.3061507 -0.5578732
v 1.34551 0.3071598 0.5573285
v 1.34551 0.3071598 -0.5573285
v 1.344962 0.3077843 0.5571016
v 1.344501 0.308475 0.5569105
v 1.344501 0.308475 -0.5569105
v 1.344962 0.3077843 0.5571016
v 1.344501 0.308475 -0.5569105
v 1.34551 0.3071598 0.5573285
v 1.344962 0.3077843 -0.5571016
v 1.34551 0.3071598 -0.5573285
v 1.344133 0.3092199 0.5567583
v 1.343866 0.3100065 0.5566477
v 1.343866 0.3100065 -0.5566477
v 1.344133 0.3092199 0.5567583
v 1.343866 0.3100065 -0.5566477
v 1.344501 0.308475 0.5569105
v 1.344133 0.3092199 -0.5567583
v 1.344501 0.308475 -0.5569105
v 1.343866 0.3132935 -0.5566477
v 1.343704 0.3124788 -0.5565805
v 1.34365 0.31165 0.5565581
v 1.34365 0.31165 -0.5565581
v 1.343704 0.3108211 0.5565805
v 1.343704 0.3108211 0.5565805
v 1.34365 0.31165 -0.5565581
v 1.343866 0.3100065 0.5566477
v 1.343704 0.3108211 -0.5565805
v 1.343866 0.3100065 -0.5566477
v -1.34551 0.3071598 -0.5573285
v -1.346825 0.3061507 0.5578732
v -1.346825 0.3061507 -0.5578732
v -1.348356 0.3055164 0.5585076
v -1.348356 0.3055164 -0.5585076
v -1.35 0.3053 0.5591883
v -1.35 0.3053 -0.5591883
v -1.351643 0.3055164 0.5598691
v -1.351643 0.3055164 -0.5598691
v -1.353175 0.3061507 0.5605034
v -1.353175 0.3061507 -0.5605034
v -1.35449 0.3071598 0.5610482
v -1.35449 0.3071598 -0.5610482
v -1.355038 0.3077843 0.561275
v -1.355038 0.3077843 -0.561275
v -1.355499 0.308475 0.5614662
v -1.355499 0.308475 -0.5614662
v -1.355867 0.3092199 0.5616183
v -1.355867 0.3092199 -0.5616183
v -1.356134 0.3100065 0.561729
v -1.356134 0.3100065 -0.561729
v -1.356296 0.3108211 0.5617961
v -1.356296 0.3108211 -0.5617961
v -1.35635 0.31165 0.5618185
v -1.344501 0.308475 0.5569105
v -1.344962 0.3077843 0.5571016
v -1.34551 0.3071598 -0.5573285
v -1.34551 0.3071598 0.5573285
v -1.346825 0.3061507 0.5578732
v -1.34551 0.3071598 -0.5573285
v -1.344962 0.3077843 -0.5571016
v -1.344501 0.308475 0.5569105
v -1.344501 0.308475 -0.5569105
v -1.344133 0.3092199 0.5567583
v -1.343866 0.3100065 0.5566477
v -1.344501 0.308475 -0.5569105
v -1.344133 0.3092199 -0.5567583
v -1.343866 0.3100065 0.5566477
v -1.343866 0.3100065 -0.5566477
v -1.343704 0.3108211 0.5565805
v -1.34365 0.31165 0.5565581
v -1.343866 0.3100065 -0.5566477
v -1.343704 0.3108211 -0.5565805
v -1.34365 0.31165 0.5565581
v -1.34365 0.31165 -0.5565581
v -1.343704 0.3124788 0.5565805
v -1.343866 0.3132935 0.5566477
v -1.34365 0.31165 -0.5565581
v -1.343704 0.3124788 -0.5565805
v -1.343866 0.3132935 0.5566477
v -1.343866 0.3132935 -0.5566477
v -1.344133 0.31408 0.5567583
v -1.344133 0.31408 0.5567583
v -1.343866 0.3132935 -0.5566477
v -1.344501 0.314825 0.5569105
v -1.344133 0.31408 -0.5567583
v -1.344501 0.314825 -0.5569105
v -1.344962 0.3155156 -0.5571016
v -1.34551 0.3161401 0.5573285
v -1.344501 0.314825 -0.5569105
v -1.344962 0.3155156 0.5571016
v -1.344501 0.314825 0.5569105
v -1.344962 0.3155156 -0.5571016
v -1.34551 0.3161401 -0.5573285
v -1.34551 0.3161401 0.5573285
v -1.346825 0.3171493 -0.5578732
v -1.346825 0.3171493 0.5578732
v -1.348356 0.3177836 -0.5585076
v -1.348356 0.3177836 0.5585076
v -1.35 0.318 -0.5591883
v -1.35 0.318 0.5591883
v -1.351643 0.3177836 -0.5598691
v -1.351643 0.3177836 0.5598691
v -1.353175 0.3171493 -0.5605034
v -1.353175 0.3171493 0.5605034
v -1.35449 0.3161401 -0.5610482
v -1.35449 0.3161401 0.5610482
v -1.35449 0.3161401 0.5610482
v -1.35449 0.3161401 -0.5610482
v -1.355038 0.3155156 0.561275
v -1.355038 0.3155156 -0.561275
v -1.355499 0.314825 0.5614662
v -1.355499 0.314825 -0.5614662
v -1.355867 0.31408 0.5616183
v -1.355867 0.31408 -0.5616183
v -1.356134 0.3132935 0.561729
v -1.356134 0.3132935 -0.561729
v -1.356296 0.3124788 0.5617961
v -1.356296 0.3124788 -0.5617961
v -1.35635 0.31165 0.5618185
v -1.35635 0.31165 -0.5618185
v -1.356296 0.3108211 -0.5617961
v 0.5565805 0.3108211 -1.343704
v 0.5566477 0.3100065 -1.343866
v 1.343866 0.3100065 -0.5566477
v 0.5565805 0.3124788 -1.343704
v 0.5565581 0.31165 -1.34365
v 1.34365 0.31165 -0.5565581
v 0.5565805 0.3124788 -1.343704
v 1.34365 0.31165 -0.5565581
v 0.5566477 0.3132935 -1.343866
v 1.34365 0.31165 -0.5565581
v 1.343704 0.3124788 -0.5565805
v 0.5566477 0.3132935 -1.343866
v 1.343866 0.3132935 -0.5566477
v 0.5567583 0.31408 -1.344133
v 0.5569105 0.314825 -1.344501
v 1.344501 0.314825 -0.5569105
v 1.344962 0.3155156 -0.5571016
v 0.5573285 0.3161401 -1.34551
v 1.343866 0.3132935 -0.5566477
v 1.344133 0.31408 -0.5567583
v 0.5569105 0.314825 -1.344501
v 1.344501 0.314825 -0.5569105
v 0.5571016 0.3155156 -1.344962
v 0.5573285 0.3161401 -1.34551
v 1.344962 0.3155156 -0.5571016
v 1.34551 0.3161401 -0.5573285
v 0.5573285 0.3161401 -1.34551
v 1.346825 0.3171493 -0.5578732
v 0.5578732 0.3171493 -1.346825
v 1.348356 0.3177836 -0.5585076
v 0.5585076 0.3177836 -1.348356
v 1.35 0.318 -0.5591883
v 0.5591883 0.318 -1.35
v 1.351643 0.3177836 -0.5598691
v 0.5598691 0.3177836 -1.351643
v 1.353175 0.3171493 -0.5605034
v 0.5605034 0.3171493 -1.353175
v 1.35449 0.3161401 -0.5610482
v 0.5610482 0.3161401 -1.35449
v 1.355038 0.3155156 -0.561275
v 0.561275 0.3155156 -1.355038
v 1.355499 0.314825 -0.5614662
v 0.5614662 0.314825 -1.355499
v 1.355867 0.31408 -0.5616183
v 0.5616183 0.31408 -1.355867
v 1.356134 0.3132935 -0.561729
v 0.561729 0.3132935 -1.356134
v 1.356296 0.3124788 -0.5617961
v 0.5617961 0.3124788 -1.356296
v 1.35635 0.31165 -0.5618185
v 0.5618185 0.31165 -1.35635
v 0.5618185 0.31165 -1.35635
v 1.35635 0.31165 -0.5618185
v 0.5617961 0.3108211 -1.356296
v 1.356296 0.3108211 -0.5617961
v 0.561729 0.3100065 -1.356134
v 1.356296 0.3108211 -0.5617961
v 1.356134 0.3100065 -0.561729
v 0.561729 0.3100065 -1.356134
v 1.355867 0.3092199 -0.5616183
v 0.5616183 0.3092199 -1.355867
v 1.355499 0.308475 -0.5614662
v 0.5614662 0.308475 -1.355499
v 0.5614662 0.308475 -1.355499
v 1.355499 0.308475 -0.5614662
v 0.561275 0.3077843 -1.355038
v 1.355038 0.3077843 -0.561275
v 0.5610482 0.3071598 -1.35449
v 1.355038 0.3077843 -0.561275
v 1.35449 0.3071598 -0.5610482
v 0.5610482 0.3071598 -1.35449
v 1.353175 0.3061507 -0.5605034
v 0.5605034 0.3061507 -1.353175
v 1.351643 0.3055164 -0.5598691
v 0.5598691 0.3055164 -1.351643
v 1.35 0.3053 -0.5591883
v 0.5591883 0.3053 -1.35
v 1.348356 0.3055164 -0.5585076
v 0.5585076 0.3055164 -1.348356
v 1.346825 0.3061507 -0.5578732
v 0.5578732 0.3061507 -1.346825
v 1.34551 0.3071598 -0.5573285
v 0.5573285 0.3071598 -1.34551
v 1.344962 0.3077843 -0.5571016
v 1.344501 0.308475 -0.5569105
v 0.5569105 0.308475 -1.344501
v 1.344962 0.3077843 -0.5571016
v 0.5569105 0.308475 -1.344501
v 1.34551 0.3071598 -0.5573285
v 0.5571016 0.3077843 -1.344962
v 0.5573285 0.3071598 -1.34551
v 1.343866 0.3100065 -0.5566477
v 0.5566477 0.3100065 -1.343866
v 1.344133 0.3092199 -0.5567583
v 1.344133 0.3092199 -0.5567583
v 0.5566477 0.3100065 -1.343866
v 1.344501 0.308475 -0.5569105
v 0.5567583 0.3092199 -1.344133
v 0.5569105 0.308475 -1.344501
v 0.5565805 0.3108211 -1.343704
v 1.343866 0.3100065 -0.5566477
v 0.5565581 0.31165 -1.34365
v 1.343704 0.3108211 -0.5565805
v 1.34365 0.31165 -0.5565581
v -1.356296 0.3108211 -0.5617961
v -0.5618185 0.31165 -1.35635
v -0.5617961 0.3108211 -1.356296
v -1.356296 0.3108211 -0.5617961
v -0.5617961 0.3108211 -1.356296
v -1.356134 0.3100065 -0.561729
v -0.5573285 0.3071598 -1.34551
v -1.346825 0.3061507 -0.5578732
v -0.5578732 0.3061507 -1.346825
v -1.348356 0.3055164 -0.5585076
v -0.5585076 0.3055164 -1.348356
v -1.35 0.3053 -0.5591883
v -0.5591883 0.3053 -1.35
v -1.351643 0.3055164 -0.5598691
v -0.5598691 0.3055164 -1.351643
v -1.353175 0.3061507 -0.5605034
v -0.5605034 0.3061507 -1.353175
v -1.35449 0.3071598 -0.5610482
v -0.5610482 0.3071598 -1.35449
v -1.355038 0.3077843 -0.561275
v -0.561275 0.3077843 -1.355038
v -1.355499 0.308475 -0.5614662
v -0.5614662 0.308475 -1.355499
v -1.355867 0.3092199 -0.5616183
v -0.5616183 0.3092199 -1.355867
v -1.356134 0.3100065 -0.561729
v -0.561729 0.3100065 -1.356134
v -0.5617961 0.3108211 -1.356296
v -1.344501 0.308475 -0.5569105
v -1.344962 0.3077843 -0.5571016
v -0.5573285 0.3071598 -1.34551
v -1.34551 0.3071598 -0.5573285
v -1.346825 0.3061507 -0.5578732
v -0.5573285 0.3071598 -1.34551
v -0.5571016 0.3077843 -1.344962
v -1.344501 0.308475 -0.5569105
v -0.5569105 0.308475 -1.344501
v -1.344133 0.3092199 -0.5567583
v -1.343866 0.3100065 -0.5566477
v -0.5569105 0.308475 -1.344501
v -0.5567583 0.3092199 -1.344133
v -1.343866 0.3100065 -0.5566477
v -0.5566477 0.3100065 -1.343866
v -1.343704 0.3108211 -0.5565805
v -1.34365 0.31165 -0.5565581
v -0.5566477 0.3100065 -1.343866
v -0.5565805 0.3108211 -1.343704
v -1.34365 0.31165 -0.5565581
v -0.5565581 0.31165 -1.34365
v -1.343704 0.3124788 -0.5565805
v -1.343866 0.3132935 -0.5566477
v -0.5565581 0.31165 -1.34365
v -0.5565805 0.3124788 -1.343704
v -1.343866 0.3132935 -0.5566477
v -0.5566477 0.3132935 -1.343866
v -1.344133 0.31408 -0.5567583
v -1.344501 0.314825 -0.5569105
v -0.5569105 0.314825 -1.344501
v -0.5571016 0.3155156 -1.344962
v -1.34551 0.3161401 -0.5573285
v -0.5566477 0.3132935 -1.343866
v -0.5567583 0.31408 -1.344133
v -1.344501 0.314825 -0.5569105
v -0.5569105 0.314825 -1.344501
v -1.344962 0.3155156 -0.5571016
v -1.34551 0.3161401 -0.5573285
v -0.5571016 0.3155156 -1.344962
v -0.5573285 0.3161401 -1.34551
v -1.34551 0.3161401 -0.5573285
v -0.5578732 0.3171493 -1.346825
v -1.346825 0.3171493 -0.5578732
v -0.5585076 0.3177836 -1.348356
v -1.348356 0.3177836 -0.5585076
v -0.5591883 0.318 -1.35
v -1.35 0.318 -0.5591883
v -0.5598691 0.3177836 -1.351643
v -1.351643 0.3177836 -0.5598691
v -0.5605034 0.3171493 -1.353175
v -1.353175 0.3171493 -0.5605034
v -0.5610482 0.3161401 -1.35449
v -1.35449 0.3161401 -0.5610482
v -1.35449 0.3161401 -0.5610482
v -0.5610482 0.3161401 -1.35449
v -1.355038 0.3155156 -0.561275
v -0.561275 0.3155156 -1.355038
v -1.355499 0.314825 -0.5614662
v -0.5614662 0.314825 -1.355499
v -1.355867 0.31408 -0.5616183
v -0.5616183 0.31408 -1.355867
v -1.356134 0.3132935 -0.561729
v -1.356296 0.3108211 -0.5617961
v -1.35635 0.31165 -0.5618185
v -0.5618185 0.31165 -1.35635
v -1.356296 0.3124788 -0.5617961
v -0.5617961 0.3124788 -1.356296
v -1.356134 0.3132935 -0.561729
v -0.561729 0.3132935 -1.356134
v -0.5616183 0.31408 -1.355867
v 0.5573285 0.3071598 -1.34551
v -0.5578732 0.3061507 -1.346825
v 0.5578732 0.3061507 -1.346825
v -0.5585076 0.3055164 -1.348356
v 0.5585076 0.3055164 -1.348356
v -0.5591883 0.3053 -1.35
v 0.5591883 0.3053 -1.35
v -0.5598691 0.3055164 -1.351643
v 0.5598691 0.3055164 -1.351643
v -0.5605034 0.3061507 -1.353175
v 0.5605034 0.3061507 -1.353175
v -0.5610482 0.3071598 -1.35449
v 0.5610482 0.3071598 -1.35449
v -0.561275 0.3077843 -1.355038
v 0.561275 0.3077843 -1.355038
v -0.5614662 0.308475 -1.355499
v 0.5614662 0.308475 -1.355499
v -0.5616183 0.3092199 -1.355867
v 0.5616183 0.3092199 -1.355867
v -0.561729 0.3100065 -1.356134
v 0.561729 0.3100065 -1.356134
v -0.5617961 0.3108211 -1.356296
v 0.5617961 0.3108211 -1.356296
v -0.5618185 0.31165 -1.35635
v -0.5569105 0.308475 -1.344501
v -0.5571016 0.3077843 -1.344962
v 0.5573285 0.3071598 -1.34551
v -0.5573285 0.3071598 -1.34551
v -0.5578732 0.3061507 -1.346825
v 0.5573285 0.3071598 -1.34551
v 0.5571016 0.3077843 -1.344962
v -0.5569105 0.308475 -1.344501
v 0.5569105 0.308475 -1.344501
v -0.5567583 0.3092199 -1.344133
v -0.5566477 0.3100065 -1.343866
v 0.5569105 0.308475 -1.344501
v 0.5567583 0.3092199 -1.344133
v -0.5566477 0.3100065 -1.343866
v 0.5566477 0.3100065 -1.343866
v -0.5565805 0.3108211 -1.343704
v -0.5565581 0.31165 -1.34365
v 0.5566477 0.3100065 -1.343866
v 0.5565805 0.3108211 -1.343704
v -0.5565581 0.31165 -1.34365
v 0.5565581 0.31165 -1.34365
v -0.5565805 0.3124788 -1.343704
v -0.5566477 0.3132935 -1.343866
v 0.5565581 0.31165 -1.34365
v 0.5565805 0.3124788 -1.343704
v -0.5566477 0.3132935 -1.343866
v 0.5566477 0.3132935 -1.343866
v -0.5567583 0.31408 -1.344133
v -0.5567583 0.31408 -1.344133
v 0.5566477 0.3132935 -1.343866
v -0.5569105 0.314825 -1.344501
v 0.5567583 0.31408 -1.344133
v 0.5569105 0.314825 -1.344501
v 0.5571016 0.3155156 -1.344962
v -0.5573285 0.3161401 -1.34551
v 0.5569105 0.314825 -1.344501
v -0.5571016 0.3155156 -1.344962
v -0.5569105 0.314825 -1.344501
v 0.5571016 0.3155156 -1.344962
v 0.5573285 0.3161401 -1.34551
v -0.5573285 0.3161401 -1.34551
v 0.5578732 0.3171493 -1.346825
v -0.5578732 0.3171493 -1.346825
v 0.5585076 0.3177836 -1.348356
v -0.5585076 0.3177836 -1.348356
v 0.5591883 0.318 -1.35
v -0.5591883 0.318 -1.35
v 0.5598691 0.3177836 -1.351643
v -0.5598691 0.3177836 -1.351643
v 0.5605034 0.3171493 -1.353175
v -0.5605034 0.3171493 -1.353175
v 0.5610482 0.3161401 -1.35449
v -0.5610482 0.3161401 -1.35449
v -0.5610482 0.3161401 -1.35449
v 0.5610482 0.3161401 -1.35449
v -0.561275 0.3155156 -1.355038
v 0.561275 0.3155156 -1.355038
v -0.5614662 0.314825 -1.355499
v 0.5614662 0.314825 -1.355499
v -0.5616183 0.31408 -1.355867
v 0.5616183 0.31408 -1.355867
v -0.561729 0.3132935 -1.356134
v 0.561729 0.3132935 -1.356134
v -0.5617961 0.3124788 -1.356296
v 0.5617961 0.3124788 -1.356296
v -0.5618185 0.31165 -1.35635
v 0.5618185 0.31165 -1.35635
v 0.5617961 0.3108211 -1.356296
vt 1.477654 -42.48857
vt 1.444817 -42.49458
vt 1.444817 1.506505
vt 0 1.492585
vt 0.03283686 1.493472
vt 0.06567331 -42.4842
vt 0.06567331 1.496124
vt 0.09851048 -42.48857
vt 0.09851048 -42.48857
vt 0.06567331 1.496124
vt 0.1313479 -42.49458
vt 0.09851048 1.500494
vt 0.1313479 1.506505
vt 0.1641846 1.514057
vt 0.197021 -42.51109
vt 0.1313479 1.506505
vt 0.1641846 -42.50213
vt 0.1313479 -42.49458
vt 0.1641846 1.514057
vt 0.197021 1.523019
vt 0.197021 -42.51109
vt 0.2626943 1.544538
vt 0.2626943 -42.53261
vt 0.3283672 1.569599
vt 0.3283672 -42.55767
vt 0.3940421 1.596491
vt 0.3940421 -42.58457
vt 0.4597125 1.623384
vt 0.4597125 -42.61146
vt 0.5253898 1.648444
vt 0.5253898 -42.63652
vt 0.5910627 1.669966
vt 0.5910627 -42.65804
vt 0.6238989 1.678925
vt 0.6238989 -42.667
vt 0.6567355 1.686477
vt 0.6567355 -42.67455
vt 0.6895726 1.692488
vt 0.6895726 -42.68056
vt 0.7224084 1.696858
vt 0.7224084 -42.68494
vt 0.7224084 -42.68494
vt 0.7224084 1.696858
vt 0.7552458 -42.68759
vt 0.7552458 1.69951
vt 0.7880825 -42.68847
vt 0.7552458 1.69951
vt 0.7880825 1.700397
vt 0.7880825 -42.68847
vt 0.820919 1.69951
vt 0.820919 -42.68759
vt 0.8537564 1.696858
vt 0.8537564 -42.68494
vt 0.8537564 -42.68494
vt 0.8537564 1.696858
vt 0.8865922 -42.68056
vt 0.8865922 1.692488
vt 0.9194294 -42.67455
vt 0.9194294 1.686477
vt 0.9522659 -42.667
vt 0.9522659 1.678925
vt 0.9851021 -42.65804
vt 0.9522659 1.678925
vt 0.9851021 1.669966
vt 0.9851021 -42.65804
vt 1.050775 1.648444
vt 1.050775 -42.63652
vt 1.116452 1.623384
vt 1.116452 -42.61146
vt 1.182123 1.596491
vt 1.182123 -42.58457
vt 1.247798 1.569599
vt 1.247798 -42.55767
vt 1.31347 1.544538
vt 1.31347 -42.53261
vt 1.379144 1.523019
vt 1.379144 -42.51109
vt 1.444817 1.506505
vt 1.444817 -42.49458
vt 1.41198 1.514057
vt 1.41198 1.514057
vt 1.444817 -42.49458
vt 1.379144 1.523019
vt 1.41198 -42.50213
vt 1.379144 -42.51109
vt 1.477654 -42.48857
vt 1.444817 1.506505
vt 1.510491 -42.4842
vt 1.477654 1.500494
vt 1.510491 1.496124
vt 0.06567331 -42.4842
vt 0.03283686 -42.48155
vt 0 1.492585
vt 0 -42.48066
vt 1.543328 1.493472
vt 1.543328 1.493472
vt 0 -42.48066
vt 1.510491 1.496124
vt 1.543328 -42.48155
vt 1.510491 -42.4842
vt 0 1.492583
vt 0.03283679 1.493474
vt 0.06567324 -42.4842
vt 0.06567324 1.496124
vt 0.09851059 -42.48857
vt 0.1313478 -42.49459
vt 0.1313478 1.506505
vt 0.1641847 1.514056
vt 0.1970214 -42.51109
vt 0.06567324 1.496124
vt 0.09851059 1.500493
vt 0.1313478 -42.49459
vt 0.1313478 1.506505
vt 0.1641847 -42.50213
vt 0.1970214 -42.51109
vt 0.1641847 1.514056
vt 0.1970214 1.523017
vt 0.1970214 -42.51109
vt 0.2626944 1.544537
vt 0.2626944 -42.53261
vt 0.3283676 1.569597
vt 0.3283676 -42.55767
vt 0.3940418 1.596492
vt 0.3940418 -42.58457
vt 0.4597127 1.623383
vt 0.4597127 -42.61146
vt 0.525389 1.648447
vt 0.525389 -42.63652
vt 0.591063 1.669965
vt 0.591063 -42.65804
vt 0.591063 -42.65804
vt 0.591063 1.669965
vt 0.6238984 -42.667
vt 0.6238984 1.678928
vt 0.6567352 -42.67456
vt 0.6567352 1.686478
vt 0.6895723 -42.68057
vt 0.6895723 1.692491
vt 0.7224086 -42.68494
vt 0.6895723 1.692491
vt 0.7224086 1.696856
vt 0.7224086 -42.68494
vt 0.7552458 1.69951
vt 0.7552458 -42.68759
vt 0.7880825 1.700398
vt 0.7880825 -42.68848
vt 0.7880825 -42.68848
vt 0.7880825 1.700398
vt 0.820919 -42.68759
vt 0.820919 1.69951
vt 0.8537562 -42.68494
vt 0.820919 1.69951
vt 0.8537562 1.696856
vt 0.8537562 -42.68494
vt 0.8865926 1.692491
vt 0.8865926 -42.68057
vt 0.9194297 1.686478
vt 0.9194297 -42.67456
vt 0.9194297 -42.67456
vt 0.9194297 1.686478
vt 0.9522664 -42.667
vt 0.9522664 1.678928
vt 0.9851018 -42.65804
vt 0.9522664 1.678928
vt 0.9851018 1.669965
vt 0.9851018 -42.65804
vt 1.050776 1.648447
vt 1.050776 -42.63652
vt 1.116452 1.623383
vt 1.116452 -42.61146
vt 1.182123 1.596492
vt 1.182123 -42.58457
vt 1.247797 1.569597
vt 1.247797 -42.55767
vt 1.31347 1.544537
vt 1.31347 -42.53261
vt 1.379143 1.523017
vt 1.379143 -42.51109
vt 1.41198 1.514056
vt 1.444817 1.506505
vt 1.444817 -42.49459
vt 1.41198 1.514056
vt 1.444817 -42.49459
vt 1.379143 1.523017
vt 1.41198 -42.50213
vt 1.379143 -42.51109
vt 1.477654 1.500493
vt 1.510492 1.496124
vt 1.510492 -42.4842
vt 1.477654 1.500493
vt 1.510492 -42.4842
vt 1.444817 1.506505
vt 1.477654 -42.48857
vt 1.444817 -42.49459
vt 0.06567324 -42.4842
vt 0.03283679 -42.48155
vt 0 1.492583
vt 0 -42.48066
vt 1.543328 1.493474
vt 1.543328 1.493474
vt 0 -42.48066
vt 1.510492 1.496124
vt 1.543328 -42.48155
vt 1.510492 -42.4842
vt 0.820919 -42.68759
vt 0.7880825 1.700398
vt 0.820919 1.69951
vt 0.820919 -42.68759
vt 0.820919 1.69951
vt 0.8537562 -42.68494
vt 1.379143 1.523017
vt 1.31347 -42.53261
vt 1.31347 1.544537
vt 1.247797 -42.55767
vt 1.247797 1.569597
vt 1.182123 -42.58457
vt 1.182123 1.596492
vt 1.116452 -42.61146
vt 1.116452 1.623383
vt 1.050776 -42.63652
vt 1.050776 1.648447
vt 0.9851018 -42.65804
vt 0.9851018 1.669965
vt 0.9522664 -42.667
vt 0.9522664 1.678928
vt 0.9194297 -42.67456
vt 0.9194297 1.686478
vt 0.8865926 -42.68057
vt 0.8865926 1.692491
vt 0.8537562 -42.68494
vt 0.8537562 1.696856
vt 0.820919 1.69951
vt 1.444817 -42.49459
vt 1.41198 -42.50213
vt 1.379143 1.523017
vt 1.379143 -42.51109
vt 1.31347 -42.53261
vt 1.379143 1.523017
vt 1.41198 1.514056
vt 1.444817 -42.49459
vt 1.444817 1.506505
vt 1.477654 -42.48857
vt 1.510492 -42.4842
vt 1.444817 1.506505
vt 1.477654 1.500493
vt 1.510492 -42.4842
vt 1.510492 1.496124
vt 1.543328 -42.48155
vt 0 -42.48066
vt 1.510492 1.496124
vt 1.543328 1.493474
vt 0 -42.48066
vt 0 1.492583
vt 0.03283679 -42.48155
vt 0.06567324 -42.4842
vt 0 1.492583
vt 0.03283679 1.493474
vt 0.06567324 -42.4842
vt 0.06567324 1.496124
vt 0.09851059 -42.48857
vt 0.1313478 -42.49459
vt 0.1313478 1.506505
vt 0.1641847 1.514056
vt 0.1970214 -42.51109
vt 0.06567324 1.496124
vt 0.09851059 1.500493
vt 0.1313478 -42.49459
vt 0.1313478 1.506505
vt 0.1641847 -42.50213
vt 0.1970214 -42.51109
vt 0.1641847 1.514056
vt 0.1970214 1.523017
vt 0.1970214 -42.51109
vt 0.2626944 1.544537
vt 0.2626944 -42.53261
vt 0.3283676 1.569597
vt 0.3283676 -42.55767
vt 0.3940418 1.596492
vt 0.3940418 -42.58457
vt 0.4597127 1.623383
vt 0.4597127 -42.61146
vt 0.525389 1.648447
vt 0.525389 -42.63652
vt 0.591063 1.669965
vt 0.591063 -42.65804
vt 0.6238984 1.678928
vt 0.6238984 -42.667
vt 0.6567352 1.686478
vt 0.6567352 -42.67456
vt 0.6567352 -42.67456
vt 0.6567352 1.686478
vt 0.6895723 -42.68057
vt 0.6895723 1.692491
vt 0.7224086 -42.68494
vt 0.820919 -42.68759
vt 0.7880825 -42.68848
vt 0.7880825 1.700398
vt 0.7552458 -42.68759
vt 0.7552458 1.69951
vt 0.7224086 -42.68494
vt 0.7224086 1.696856
vt 0.6895723 1.692491
vt 0 1.492585
vt 0.03283686 1.493472
vt 0.06567331 -42.4842
vt 0.06567331 1.496124
vt 0.09851048 -42.48857
vt 0.1313479 -42.49458
vt 0.1313479 1.506505
vt 0.1641846 1.514057
vt 0.197021 -42.51109
vt 0.06567331 1.496124
vt 0.09851048 1.500494
vt 0.1313479 -42.49458
vt 0.1313479 1.506505
vt 0.1641846 -42.50213
vt 0.197021 -42.51109
vt 0.1641846 1.514057
vt 0.197021 1.523019
vt 0.197021 -42.51109
vt 0.2626943 1.544538
vt 0.2626943 -42.53261
vt 0.3283672 1.569599
vt 0.3283672 -42.55767
vt 0.3940421 1.596491
vt 0.3940421 -42.58457
vt 0.4597125 1.623384
vt 0.4597125 -42.61146
vt 0.5253898 1.648444
vt 0.5253898 -42.63652
vt 0.5910627 1.669966
vt 0.5910627 -42.65804
vt 0.6238989 1.678925
vt 0.6238989 -42.667
vt 0.6567355 1.686477
vt 0.6567355 -42.67455
vt 0.6895726 1.692488
vt 0.6895726 -42.68056
vt 0.7224084 1.696858
vt 0.7224084 -42.68494
vt 0.7552458 1.69951
vt 0.7552458 -42.68759
vt 0.7880825 1.700397
vt 0.7880825 -42.68847
vt 0.7880825 -42.68847
vt 0.7880825 1.700397
vt 0.820919 -42.68759
vt 0.820919 1.69951
vt 0.8537564 -42.68494
vt 0.8537564 1.696858
vt 0.8865922 -42.68056
vt 0.8865922 1.692488
vt 0.9194294 -42.67455
vt 0.9194294 1.686477
vt 0.9522659 -42.667
vt 0.9522659 1.678925
vt 0.9851021 -42.65804
vt 0.9522659 1.678925
vt 0.9851021 1.669966
vt 0.9851021 -42.65804
vt 1.050775 1.648444
vt 1.050775 -42.63652
vt 1.116452 1.623384
vt 1.116452 -42.61146
vt 1.182123 1.596491
vt 1.182123 -42.58457
vt 1.247798 1.569599
vt 1.247798 -42.55767
vt 1.31347 1.544538
vt 1.31347 -42.53261
vt 1.379144 1.523019
vt 1.379144 -42.51109
vt 1.41198 1.514057
vt 1.444817 1.506505
vt 1.444817 -42.49458
vt 1.41198 1.514057
vt 1.444817 -42.49458
vt 1.379144 1.523019
vt 1.41198 -42.50213
vt 1.379144 -42.51109
vt 1.477654 1.500494
vt 1.510491 1.496124
vt 1.510491 -42.4842
vt 1.477654 1.500494
vt 1.510491 -42.4842
vt 1.444817 1.506505
vt 1.477654 -42.48857
vt 1.444817 -42.49458
vt 0.06567331 -42.4842
vt 0.03283686 -42.48155
vt 0 1.492585
vt 0 -42.48066
vt 1.543328 1.493472
vt 1.543328 1.493472
vt 0 -42.48066
vt 1.510491 1.496124
vt 1.543328 -42.48155
vt 1.510491 -42.4842
vt 1.379144 1.523019
vt 1.31347 -42.53261
vt 1.31347 1.544538
vt 1.247798 -42.55767
vt 1.247798 1.569599
vt 1.182123 -42.58457
vt 1.182123 1.596491
vt 1.116452 -42.61146
vt 1.116452 1.623384
vt 1.050775 -42.63652
vt 1.050775 1.648444
vt 0.9851021 -42.65804
vt 0.9851021 1.669966
vt 0.9522659 -42.667
vt 0.9522659 1.678925
vt 0.9194294 -42.67455
vt 0.9194294 1.686477
vt 0.8865922 -42.68056
vt 0.8865922 1.692488
vt 0.8537564 -42.68494
vt 0.8537564 1.696858
vt 0.820919 -42.68759
vt 0.820919 1.69951
vt 0.7880825 -42.68847
vt 1.444817 -42.49458
vt 1.41198 -42.50213
vt 1.379144 1.523019
vt 1.379144 -42.51109
vt 1.31347 -42.53261
vt 1.379144 1.523019
vt 1.41198 1.514057
vt 1.444817 -42.49458
vt 1.444817 1.506505
vt 1.477654 -42.48857
vt 1.510491 -42.4842
vt 1.444817 1.506505
vt 1.477654 1.500494
vt 1.510491 -42.4842
vt 1.510491 1.496124
vt 1.543328 -42.48155
vt 0 -42.48066
vt 1.510491 1.496124
vt 1.543328 1.493472
vt 0 -42.48066
vt 0 1.492585
vt 0.03283686 -42.48155
vt 0.06567331 -42.4842
vt 0 1.492585
vt 0.03283686 1.493472
vt 0.06567331 -42.4842
vt 0.06567331 1.496124
vt 0.09851048 -42.48857
vt 0.09851048 -42.48857
vt 0.06567331 1.496124
vt 0.1313479 -42.49458
vt 0.09851048 1.500494
vt 0.1313479 1.506505
vt 0.1641846 1.514057
vt 0.197021 -42.51109
vt 0.1313479 1.506505
vt 0.1641846 -42.50213
vt 0.1313479 -42.49458
vt 0.1641846 1.514057
vt 0.197021 1.523019
vt 0.197021 -42.51109
vt 0.2626943 1.544538
vt 0.2626943 -42.53261
vt 0.3283672 1.569599
vt 0.3283672 -42.55767
vt 0.3940421 1.596491
vt 0.3940421 -42.58457
vt 0.4597125 1.623384
vt 0.4597125 -42.61146
vt 0.5253898 1.648444
vt 0.5253898 -42.63652
vt 0.5910627 1.669966
vt 0.5910627 -42.65804
vt 0.5910627 -42.65804
vt 0.5910627 1.669966
vt 0.6238989 -42.667
vt 0.6238989 1.678925
vt 0.6567355 -42.67455
vt 0.6567355 1.686477
vt 0.6895726 -42.68056
vt 0.6895726 1.692488
vt 0.7224084 -42.68494
vt 0.7224084 1.696858
vt 0.7552458 -42.68759
vt 0.7552458 1.69951
vt 0.7880825 -42.68847
vt 0.7880825 1.700397
vt 0.820919 1.69951
vt 1.543328 -42.48155
vt 1.510492 -42.4842
vt 1.510492 1.496124
vt 0.03283679 -42.48155
vt 0 -42.48066
vt 0 1.492583
vt 0.03283679 -42.48155
vt 0 1.492583
vt 0.06567324 -42.4842
vt 0 1.492583
vt 0.03283679 1.493474
vt 0.06567324 -42.4842
vt 0.06567324 1.496124
vt 0.09851059 -42.48857
vt 0.1313478 -42.49459
vt 0.1313478 1.506505
vt 0.1641847 1.514056
vt 0.1970214 -42.51109
vt 0.06567324 1.496124
vt 0.09851059 1.500493
vt 0.1313478 -42.49459
vt 0.1313478 1.506505
vt 0.1641847 -42.50213
vt 0.1970214 -42.51109
vt 0.1641847 1.514056
vt 0.1970214 1.523017
vt 0.1970214 -42.51109
vt 0.2626944 1.544537
vt 0.2626944 -42.53261
vt 0.3283676 1.569597
vt 0.3283676 -42.55767
vt 0.3940418 1.596492
vt 0.3940418 -42.58457
vt 0.4597127 1.623383
vt 0.4597127 -42.61146
vt 0.525389 1.648447
vt 0.525389 -42.63652
vt 0.591063 1.669965
vt 0.591063 -42.65804
vt 0.6238984 1.678928
vt 0.6238984 -42.667
vt 0.6567352 1.686478
vt 0.6567352 -42.67456
vt 0.6895723 1.692491
vt 0.6895723 -42.68057
vt 0.7224086 1.696856
vt 0.7224086 -42.68494
vt 0.7552458 1.69951
vt 0.7552458 -42.68759
vt 0.7880825 1.700398
vt 0.7880825 -42.68848
vt 0.7880825 -42.68848
vt 0.7880825 1.700398
vt 0.820919 -42.68759
vt 0.820919 1.69951
vt 0.8537562 -42.68494
vt 0.820919 1.69951
vt 0.8537562 1.696856
vt 0.8537562 -42.68494
vt 0.8865926 1.692491
vt 0.8865926 -42.68057
vt 0.9194297 1.686478
vt 0.9194297 -42.67456
vt 0.9194297 -42.67456
vt 0.9194297 1.686478
vt 0.9522664 -42.667
vt 0.9522664 1.678928
vt 0.9851018 -42.65804
vt 0.9522664 1.678928
vt 0.9851018 1.669965
vt 0.9851018 -42.65804
vt 1.050776 1.648447
vt 1.050776 -42.63652
vt 1.116452 1.623383
vt 1.116452 -42.61146
vt 1.182123 1.596492
vt 1.182123 -42.58457
vt 1.247797 1.569597
vt 1.247797 -42.55767
vt 1.31347 1.544537
vt 1.31347 -42.53261
vt 1.379143 1.523017
vt 1.379143 -42.51109
vt 1.41198 1.514056
vt 1.444817 1.506505
vt 1.444817 -42.49459
vt 1.41198 1.514056
vt 1.444817 -42.49459
vt 1.379143 1.523017
vt 1.41198 -42.50213
vt 1.379143 -42.51109
vt 1.510492 1.496124
vt 1.510492 -42.4842
vt 1.477654 1.500493
vt 1.477654 1.500493
vt 1.510492 -42.4842
vt 1.444817 1.506505
vt 1.477654 -42.48857
vt 1.444817 -42.49459
vt 1.543328 -42.48155
vt 1.510492 1.496124
vt 0 -42.48066
vt 1.543328 1.493474
vt 0 1.492583
vt 0.820919 -42.68759
vt 0.7880825 1.700398
vt 0.820919 1.69951
vt 0.820919 -42.68759
vt 0.820919 1.69951
vt 0.8537562 -42.68494
vt 1.379143 1.523017
vt 1.31347 -42.53261
vt 1.31347 1.544537
vt 1.247797 -42.55767
vt 1.247797 1.569597
vt 1.182123 -42.58457
vt 1.182123 1.596492
vt 1.116452 -42.61146
vt 1.116452 1.623383
vt 1.050776 -42.63652
vt 1.050776 1.648447
vt 0.9851018 -42.65804
vt 0.9851018 1.669965
vt 0.9522664 -42.667
vt 0.9522664 1.678928
vt 0.9194297 -42.67456
vt 0.9194297 1.686478
vt 0.8865926 -42.68057
vt 0.8865926 1.692491
vt 0.8537562 -42.68494
vt 0.8537562 1.696856
vt 0.820919 1.69951
vt 1.444817 -42.49459
vt 1.41198 -42.50213
vt 1.379143 1.523017
vt 1.379143 -42.51109
vt 1.31347 -42.53261
vt 1.379143 1.523017
vt 1.41198 1.514056
vt 1.444817 -42.49459
vt 1.444817 1.506505
vt 1.477654 -42.48857
vt 1.510492 -42.4842
vt 1.444817 1.506505
vt 1.477654 1.500493
vt 1.510492 -42.4842
vt 1.510492 1.496124
vt 1.543328 -42.48155
vt 0 -42.48066
vt 1.510492 1.496124
vt 1.543328 1.493474
vt 0 -42.48066
vt 0 1.492583
vt 0.03283679 -42.48155
vt 0.06567324 -42.4842
vt 0 1.492583
vt 0.03283679 1.493474
vt 0.06567324 -42.4842
vt 0.06567324 1.496124
vt 0.09851059 -42.48857
vt 0.1313478 -42.49459
vt 0.1313478 1.506505
vt 0.1641847 1.514056
vt 0.1970214 -42.51109
vt 0.06567324 1.496124
vt 0.09851059 1.500493
vt 0.1313478 -42.49459
vt 0.1313478 1.506505
vt 0.1641847 -42.50213
vt 0.1970214 -42.51109
vt 0.1641847 1.514056
vt 0.1970214 1.523017
vt 0.1970214 -42.51109
vt 0.2626944 1.544537
vt 0.2626944 -42.53261
vt 0.3283676 1.569597
vt 0.3283676 -42.55767
vt 0.3940418 1.596492
vt 0.3940418 -42.58457
vt 0.4597127 1.623383
vt 0.4597127 -42.61146
vt 0.525389 1.648447
vt 0.525389 -42.63652
vt 0.591063 1.669965
vt 0.591063 -42.65804
vt 0.591063 -42.65804
vt 0.591063 1.669965
vt 0.6238984 -42.667
vt 0.6238984 1.678928
vt 0.6567352 -42.67456
vt 0.6567352 1.686478
vt 0.6895723 -42.68057
vt 0.6895723 1.692491
vt 0.7224086 -42.68494
vt 0.820919 -42.68759
vt 0.7880825 -42.68848
vt 0.7880825 1.700398
vt 0.7552458 -42.68759
vt 0.7552458 1.69951
vt 0.7224086 -42.68494
vt 0.7224086 1.696856
vt 0.6895723 1.692491
vt 1.379144 1.523019
vt 1.31347 -42.53261
vt 1.31347 1.544538
vt 1.247798 -42.55767
vt 1.247798 1.569599
vt 1.182123 -42.58457
vt 1.182123 1.596491
vt 1.116452 -42.61146
vt 1.116452 1.623384
vt 1.050775 -42.63652
vt 1.050775 1.648444
vt 0.9851021 -42.65804
vt 0.9851021 1.669966
vt 0.9522659 -42.667
vt 0.9522659 1.678925
vt 0.9194294 -42.67455
vt 0.9194294 1.686477
vt 0.8865922 -42.68056
vt 0.8865922 1.692488
vt 0.8537564 -42.68494
vt 0.8537564 1.696858
vt 0.820919 -42.68759
vt 0.820919 1.69951
vt 0.7880825 -42.68847
vt 1.444817 -42.49458
vt 1.41198 -42.50213
vt 1.379144 1.523019
vt 1.379144 -42.51109
vt 1.31347 -42.53261
vt 1.379144 1.523019
vt 1.41198 1.514057
vt 1.444817 -42.49458
vt 1.444817 1.506505
vt 1.477654 -42.48857
vt 1.510491 -42.4842
vt 1.444817 1.506505
vt 1.477654 1.500494
vt 1.510491 -42.4842
vt 1.510491 1.496124
vt 1.543328 -42.48155
vt 0 -42.48066
vt 1.510491 1.496124
vt 1.543328 1.493472
vt 0 -42.48066
vt 0 1.492585
vt 0.03283686 -42.48155
vt 0.06567331 -42.4842
vt 0 1.492585
vt 0.03283686 1.493472
vt 0.06567331 -42.4842
vt 0.06567331 1.496124
vt 0.09851048 -42.48857
vt 0.09851048 -42.48857
vt 0.06567331 1.496124
vt 0.1313479 -42.49458
vt 0.09851048 1.500494
vt 0.1313479 1.506505
vt 0.1641846 1.514057
vt 0.197021 -42.51109
vt 0.1313479 1.506505
vt 0.1641846 -42.50213
vt 0.1313479 -42.49458
vt 0.1641846 1.514057
vt 0.197021 1.523019
vt 0.197021 -42.51109
vt 0.2626943 1.544538
vt 0.2626943 -42.53261
vt 0.3283672 1.569599
vt 0.3283672 -42.55767
vt 0.3940421 1.596491
vt 0.3940421 -42.58457
vt 0.4597125 1.623384
vt 0.4597125 -42.61146
vt 0.5253898 1.648444
vt 0.5253898 -42.63652
vt 0.5910627 1.669966
vt 0.5910627 -42.65804
vt 0.5910627 -42.65804
vt 0.5910627 1.669966
vt 0.6238989 -42.667
vt 0.6238989 1.678925
vt 0.6567355 -42.67455
vt 0.6567355 1.686477
vt 0.6895726 -42.68056
vt 0.6895726 1.692488
vt 0.7224084 -42.68494
vt 0.7224084 1.696858
vt 0.7552458 -42.68759
vt 0.7552458 1.69951
vt 0.7880825 -42.68847
vt 0.7880825 1.700397
vt 0.820919 1.69951
vn 6.993532E-14 -0.3826835 -0.9238796
vn 6.993531E-14 -0.5 -0.8660254
vn 1.365924E-16 -0.5 -0.8660254
vn 1.365924E-16 0 -1
vn 1.365924E-16 0.1305262 -0.9914449
vn 6.993532E-14 0.2588191 -0.9659259
vn 1.365924E-16 0.2588191 -0.9659259
vn 6.993532E-14 0.3826835 -0.9238796
vn 6.993532E-14 0.3826835 -0.9238796
vn 1.365924E-16 0.2588191 -0.9659259
vn 6.993531E-14 0.5 -0.8660254
vn 1.365924E-16 0.3826835 -0.9238796
vn 1.365924E-16 0.5 -0.8660254
vn 1.365924E-16 0.6087614 -0.7933533
vn 6.993532E-14 0.7071068 -0.7071068
vn 1.365924E-16 0.5 -0.8660254
vn 6.993531E-14 0.6087614 -0.7933533
vn 6.993531E-14 0.5 -0.8660254
vn 1.365924E-16 0.6087614 -0.7933533
vn 1.365924E-16 0.7071068 -0.7071068
vn 6.993532E-14 0.7071068 -0.7071068
vn 1.365924E-16 0.8660254 -0.5
vn 6.993531E-14 0.8660254 -0.5
vn 6.829621E-17 0.9659259 -0.2588191
vn 6.993532E-14 0.9659259 -0.2588191
vn 1.365924E-16 1 -1.39777E-13
vn 6.993531E-14 1 9.358926E-17
vn 2.048886E-16 0.9659259 0.2588191
vn 6.993532E-14 0.9659259 0.2588191
vn 1.707405E-16 0.8660254 0.5
vn 6.993531E-14 0.8660254 0.5
vn 2.048886E-16 0.7071068 0.7071068
vn 6.993532E-14 0.7071068 0.7071068
vn 1.878145E-16 0.6087614 0.7933533
vn 6.993531E-14 0.6087614 0.7933533
vn 2.048886E-16 0.5 0.8660254
vn 6.993531E-14 0.5 0.8660254
vn 2.219627E-16 0.3826835 0.9238796
vn 6.993532E-14 0.3826835 0.9238796
vn 2.048886E-16 0.2588191 0.9659259
vn 6.993532E-14 0.2588191 0.9659259
vn 6.993532E-14 0.2588191 0.9659259
vn 2.048886E-16 0.2588191 0.9659259
vn 6.993531E-14 0.1305262 0.9914449
vn 2.134256E-16 0.1305262 0.9914449
vn 6.993531E-14 5.665539E-16 1
vn 2.134256E-16 0.1305262 0.9914449
vn 2.134256E-16 1.224647E-16 1
vn 6.993531E-14 5.665539E-16 1
vn 2.134256E-16 -0.1305262 0.9914449
vn 6.993531E-14 -0.1305262 0.9914449
vn 2.048886E-16 -0.2588191 0.9659259
vn 6.993532E-14 -0.2588191 0.9659259
vn 6.993532E-14 -0.2588191 0.9659259
vn 2.048886E-16 -0.2588191 0.9659259
vn 6.993532E-14 -0.3826835 0.9238796
vn 2.219627E-16 -0.3826835 0.9238796
vn 6.993531E-14 -0.5 0.8660254
vn 2.048886E-16 -0.5 0.8660254
vn 6.993531E-14 -0.6087614 0.7933533
vn 1.878145E-16 -0.6087614 0.7933533
vn 6.993532E-14 -0.7071068 0.7071068
vn 1.878145E-16 -0.6087614 0.7933533
vn 2.048886E-16 -0.7071068 0.7071068
vn 6.993532E-14 -0.7071068 0.7071068
vn 1.707405E-16 -0.8660254 0.5
vn 6.993531E-14 -0.8660254 0.5
vn 2.048886E-16 -0.9659259 0.2588191
vn 6.993532E-14 -0.9659259 0.2588191
vn 1.365924E-16 -1 9.358926E-17
vn 6.993531E-14 -1 9.358926E-17
vn 6.829621E-17 -0.9659259 -0.2588191
vn 6.993532E-14 -0.9659259 -0.2588191
vn 1.365924E-16 -0.8660254 -0.5
vn 6.993531E-14 -0.8660254 -0.5
vn 1.365924E-16 -0.7071068 -0.7071068
vn 6.993532E-14 -0.7071068 -0.7071068
vn 1.365924E-16 -0.5 -0.8660254
vn 6.993531E-14 -0.5 -0.8660254
vn 1.365924E-16 -0.6087614 -0.7933533
vn 1.365924E-16 -0.6087614 -0.7933533
vn 6.993531E-14 -0.5 -0.8660254
vn 1.365924E-16 -0.7071068 -0.7071068
vn 6.993531E-14 -0.6087614 -0.7933533
vn 6.993532E-14 -0.7071068 -0.7071068
vn 6.993532E-14 -0.3826835 -0.9238796
vn 1.365924E-16 -0.5 -0.8660254
vn 6.993532E-14 -0.2588191 -0.9659259
vn 1.365924E-16 -0.3826835 -0.9238796
vn 1.365924E-16 -0.2588191 -0.9659259
vn 6.993532E-14 0.2588191 -0.9659259
vn 6.993531E-14 0.1305262 -0.9914449
vn 1.365924E-16 0 -1
vn 6.993531E-14 0 -1
vn 1.365924E-16 -0.1305262 -0.9914449
vn 1.365924E-16 -0.1305262 -0.9914449
vn 6.993531E-14 0 -1
vn 1.365924E-16 -0.2588191 -0.9659259
vn 6.993531E-14 -0.1305262 -0.9914449
vn 6.993532E-14 -0.2588191 -0.9659259
vn -0.7071068 0 -0.7071068
vn -0.7010574 0.1305262 -0.7010574
vn -0.6830127 0.258819 -0.6830127
vn -0.6830127 0.258819 -0.6830127
vn -0.6532815 0.3826834 -0.6532815
vn -0.6123725 0.5 -0.6123725
vn -0.6123725 0.5 -0.6123725
vn -0.5609855 0.6087614 -0.5609855
vn -0.5 0.7071068 -0.5
vn -0.6830127 0.258819 -0.6830127
vn -0.6532815 0.3826834 -0.6532815
vn -0.6123725 0.5 -0.6123725
vn -0.6123725 0.5 -0.6123725
vn -0.5609855 0.6087614 -0.5609855
vn -0.5 0.7071068 -0.5
vn -0.5609855 0.6087614 -0.5609855
vn -0.5 0.7071068 -0.5
vn -0.5 0.7071068 -0.5
vn -0.3535534 0.8660254 -0.3535534
vn -0.3535534 0.8660254 -0.3535534
vn -0.1830127 0.9659259 -0.1830127
vn -0.1830127 0.9659259 -0.1830127
vn -8.673617E-15 1 -8.605321E-15
vn -1.748383E-14 1 0
vn 0.1830127 0.9659259 0.1830127
vn 0.1830127 0.9659259 0.1830127
vn 0.3535534 0.8660254 0.3535534
vn 0.3535534 0.8660254 0.3535534
vn 0.5 0.7071068 0.5
vn 0.5 0.7071068 0.5
vn 0.5 0.7071068 0.5
vn 0.5 0.7071068 0.5
vn 0.5609855 0.6087614 0.5609855
vn 0.5609855 0.6087614 0.5609855
vn 0.6123725 0.5 0.6123725
vn 0.6123725 0.5 0.6123725
vn 0.6532815 0.3826834 0.6532815
vn 0.6532815 0.3826834 0.6532815
vn 0.6830127 0.258819 0.6830127
vn 0.6532815 0.3826834 0.6532815
vn 0.6830127 0.258819 0.6830127
vn 0.6830127 0.258819 0.6830127
vn 0.7010574 0.1305262 0.7010574
vn 0.7010574 0.1305262 0.7010574
vn 0.7071068 5.665539E-16 0.7071068
vn 0.7071068 5.665539E-16 0.7071068
vn 0.7071068 5.665539E-16 0.7071068
vn 0.7071068 5.665539E-16 0.7071068
vn 0.7010574 -0.1305262 0.7010574
vn 0.7010574 -0.1305262 0.7010574
vn 0.6830127 -0.258819 0.6830127
vn 0.7010574 -0.1305262 0.7010574
vn 0.6830127 -0.258819 0.6830127
vn 0.6830127 -0.258819 0.6830127
vn 0.6532815 -0.3826834 0.6532815
vn 0.6532815 -0.3826834 0.6532815
vn 0.6123725 -0.5 0.6123725
vn 0.6123725 -0.5 0.6123725
vn 0.6123725 -0.5 0.6123725
vn 0.6123725 -0.5 0.6123725
vn 0.5609855 -0.6087614 0.5609855
vn 0.5609855 -0.6087614 0.5609855
vn 0.5 -0.7071068 0.5
vn 0.5609855 -0.6087614 0.5609855
vn 0.5 -0.7071068 0.5
vn 0.5 -0.7071068 0.5
vn 0.3535534 -0.8660254 0.3535534
vn 0.3535534 -0.8660254 0.3535534
vn 0.1830127 -0.9659259 0.1830127
vn 0.1830127 -0.9659259 0.1830127
vn -8.673617E-15 -1 -8.605321E-15
vn -1.748383E-14 -1 0
vn -0.1830127 -0.9659259 -0.1830127
vn -0.1830127 -0.9659259 -0.1830127
vn -0.3535534 -0.8660254 -0.3535534
vn -0.3535534 -0.8660254 -0.3535534
vn -0.5 -0.7071068 -0.5
vn -0.5 -0.7071068 -0.5
vn -0.5609855 -0.6087614 -0.5609855
vn -0.6123725 -0.5 -0.6123725
vn -0.6123725 -0.5 -0.6123725
vn -0.5609855 -0.6087614 -0.5609855
vn -0.6123725 -0.5 -0.6123725
vn -0.5 -0.7071068 -0.5
vn -0.5609855 -0.6087614 -0.5609855
vn -0.5 -0.7071068 -0.5
vn -0.6532815 -0.3826834 -0.6532815
vn -0.6830127 -0.258819 -0.6830127
vn -0.6830127 -0.258819 -0.6830127
vn -0.6532815 -0.3826834 -0.6532815
vn -0.6830127 -0.258819 -0.6830127
vn -0.6123725 -0.5 -0.6123725
vn -0.6532815 -0.3826834 -0.6532815
vn -0.6123725 -0.5 -0.6123725
vn -0.6830127 0.258819 -0.6830127
vn -0.7010574 0.1305262 -0.7010574
vn -0.7071068 0 -0.7071068
vn -0.7071068 0 -0.7071068
vn -0.7010574 -0.1305262 -0.7010574
vn -0.7010574 -0.1305262 -0.7010574
vn -0.7071068 0 -0.7071068
vn -0.6830127 -0.258819 -0.6830127
vn -0.7010574 -0.1305262 -0.7010574
vn -0.6830127 -0.258819 -0.6830127
vn -0.7010574 -0.1305262 0.7010574
vn -0.7071068 1.224647E-16 0.7071068
vn -0.7010574 -0.1305262 0.7010574
vn -0.7010574 -0.1305262 0.7010574
vn -0.7010574 -0.1305262 0.7010574
vn -0.6830127 -0.258819 0.6830127
vn 0.5 -0.7071068 -0.5
vn 0.3535534 -0.8660254 -0.3535534
vn 0.3535534 -0.8660254 -0.3535534
vn 0.1830127 -0.9659259 -0.1830127
vn 0.1830127 -0.9659259 -0.1830127
vn -8.741913E-14 -1 8.741913E-14
vn -8.946802E-15 -1 8.946802E-15
vn -0.1830127 -0.9659259 0.1830127
vn -0.1830127 -0.9659259 0.1830127
vn -0.3535534 -0.8660254 0.3535534
vn -0.3535534 -0.8660254 0.3535534
vn -0.5 -0.7071068 0.5
vn -0.5 -0.7071068 0.5
vn -0.5609855 -0.6087614 0.5609855
vn -0.5609855 -0.6087614 0.5609855
vn -0.6123725 -0.5 0.6123725
vn -0.6123725 -0.5 0.6123725
vn -0.6532815 -0.3826834 0.6532815
vn -0.6532815 -0.3826834 0.6532815
vn -0.6830127 -0.258819 0.6830127
vn -0.6830127 -0.258819 0.6830127
vn -0.7010574 -0.1305262 0.7010574
vn 0.6123725 -0.5 -0.6123725
vn 0.5609855 -0.6087614 -0.5609855
vn 0.5 -0.7071068 -0.5
vn 0.5 -0.7071068 -0.5
vn 0.3535534 -0.8660254 -0.3535534
vn 0.5 -0.7071068 -0.5
vn 0.5609855 -0.6087614 -0.5609855
vn 0.6123725 -0.5 -0.6123725
vn 0.6123725 -0.5 -0.6123725
vn 0.6532815 -0.3826834 -0.6532815
vn 0.6830127 -0.258819 -0.6830127
vn 0.6123725 -0.5 -0.6123725
vn 0.6532815 -0.3826834 -0.6532815
vn 0.6830127 -0.258819 -0.6830127
vn 0.6830127 -0.258819 -0.6830127
vn 0.7010574 -0.1305262 -0.7010574
vn 0.7071068 0 -0.7071068
vn 0.6830127 -0.258819 -0.6830127
vn 0.7010574 -0.1305262 -0.7010574
vn 0.7071068 0 -0.7071068
vn 0.7071068 0 -0.7071068
vn 0.7010574 0.1305262 -0.7010574
vn 0.6830127 0.258819 -0.6830127
vn 0.7071068 0 -0.7071068
vn 0.7010574 0.1305262 -0.7010574
vn 0.6830127 0.258819 -0.6830127
vn 0.6830127 0.258819 -0.6830127
vn 0.6532815 0.3826834 -0.6532815
vn 0.6123725 0.5 -0.6123725
vn 0.6123725 0.5 -0.6123725
vn 0.5609855 0.6087614 -0.5609855
vn 0.5 0.7071068 -0.5
vn 0.6830127 0.258819 -0.6830127
vn 0.6532815 0.3826834 -0.6532815
vn 0.6123725 0.5 -0.6123725
vn 0.6123725 0.5 -0.6123725
vn 0.5609855 0.6087614 -0.5609855
vn 0.5 0.7071068 -0.5
vn 0.5609855 0.6087614 -0.5609855
vn 0.5 0.7071068 -0.5
vn 0.5 0.7071068 -0.5
vn 0.3535534 0.8660254 -0.3535534
vn 0.3535534 0.8660254 -0.3535534
vn 0.1830127 0.9659259 -0.1830127
vn 0.1830127 0.9659259 -0.1830127
vn -8.946802E-15 1 8.946802E-15
vn 0 1 0
vn -0.1830127 0.9659259 0.1830127
vn -0.1830127 0.9659259 0.1830127
vn -0.3535534 0.8660254 0.3535534
vn -0.3535534 0.8660254 0.3535534
vn -0.5 0.7071068 0.5
vn -0.5 0.7071068 0.5
vn -0.5609855 0.6087614 0.5609855
vn -0.5609855 0.6087614 0.5609855
vn -0.6123725 0.5 0.6123725
vn -0.6123725 0.5 0.6123725
vn -0.6123725 0.5 0.6123725
vn -0.6123725 0.5 0.6123725
vn -0.6532815 0.3826834 0.6532815
vn -0.6532815 0.3826834 0.6532815
vn -0.6830127 0.258819 0.6830127
vn -0.7010574 -0.1305262 0.7010574
vn -0.7071068 1.224647E-16 0.7071068
vn -0.7071068 1.224647E-16 0.7071068
vn -0.7010574 0.1305262 0.7010574
vn -0.7010574 0.1305262 0.7010574
vn -0.6830127 0.258819 0.6830127
vn -0.6830127 0.258819 0.6830127
vn -0.6532815 0.3826834 0.6532815
vn -1 0 1.365924E-16
vn -0.9914449 0.1305262 1.365924E-16
vn -0.9659259 0.2588191 -6.993532E-14
vn -0.9659259 0.2588191 1.365924E-16
vn -0.9238796 0.3826835 -6.993532E-14
vn -0.8660254 0.5 -6.993531E-14
vn -0.8660254 0.5 1.365924E-16
vn -0.7933533 0.6087614 0
vn -0.7071068 0.7071068 -6.993532E-14
vn -0.9659259 0.2588191 1.365924E-16
vn -0.9238796 0.3826835 1.365924E-16
vn -0.8660254 0.5 -6.993531E-14
vn -0.8660254 0.5 1.365924E-16
vn -0.7933533 0.6087614 -6.993531E-14
vn -0.7071068 0.7071068 -6.993532E-14
vn -0.7933533 0.6087614 0
vn -0.7071068 0.7071068 0
vn -0.7071068 0.7071068 -6.993532E-14
vn -0.5 0.8660254 -1.365924E-16
vn -0.5 0.8660254 -6.993531E-14
vn -0.2588191 0.9659259 0
vn -0.2588191 0.9659259 -6.993532E-14
vn 1.871785E-16 1 -1.365924E-16
vn 1.871785E-16 1 -6.993531E-14
vn 0.2588191 0.9659259 -2.731848E-16
vn 0.2588191 0.9659259 -6.993532E-14
vn 0.5 0.8660254 -2.731848E-16
vn 0.5 0.8660254 -6.993531E-14
vn 0.7071068 0.7071068 -3.41481E-16
vn 0.7071068 0.7071068 -6.993532E-14
vn 0.7933533 0.6087614 -3.41481E-16
vn 0.7933533 0.6087614 -6.993531E-14
vn 0.8660254 0.5 -3.756291E-16
vn 0.8660254 0.5 -6.993531E-14
vn 0.9238796 0.3826835 -3.927032E-16
vn 0.9238796 0.3826835 -6.993532E-14
vn 0.9659259 0.2588191 -4.012402E-16
vn 0.9659259 0.2588191 -6.993532E-14
vn 0.9914449 0.1305262 -4.097772E-16
vn 0.9914449 0.1305262 -6.993531E-14
vn 1 5.665539E-16 -4.183142E-16
vn 1 5.665539E-16 -6.993531E-14
vn 1 5.665539E-16 -6.993531E-14
vn 1 5.665539E-16 -4.183142E-16
vn 0.9914449 -0.1305262 -6.993531E-14
vn 0.9914449 -0.1305262 -4.097772E-16
vn 0.9659259 -0.2588191 -6.993532E-14
vn 0.9659259 -0.2588191 -4.012402E-16
vn 0.9238796 -0.3826835 -6.993532E-14
vn 0.9238796 -0.3826835 -3.927032E-16
vn 0.8660254 -0.5 -6.993531E-14
vn 0.8660254 -0.5 -3.756291E-16
vn 0.7933533 -0.6087614 -6.993531E-14
vn 0.7933533 -0.6087614 -3.41481E-16
vn 0.7071068 -0.7071068 -6.993532E-14
vn 0.7933533 -0.6087614 -3.41481E-16
vn 0.7071068 -0.7071068 -3.41481E-16
vn 0.7071068 -0.7071068 -6.993532E-14
vn 0.5 -0.8660254 -2.731848E-16
vn 0.5 -0.8660254 -6.993531E-14
vn 0.2588191 -0.9659259 -2.731848E-16
vn 0.2588191 -0.9659259 -6.993532E-14
vn 1.871785E-16 -1 -1.365924E-16
vn 3.515483E-14 -1 -6.993531E-14
vn -0.2588191 -0.9659259 0
vn -0.2588191 -0.9659259 -6.993532E-14
vn -0.5 -0.8660254 -1.365924E-16
vn -0.5 -0.8660254 -6.993531E-14
vn -0.7071068 -0.7071068 0
vn -0.7071068 -0.7071068 -6.993532E-14
vn -0.7933533 -0.6087614 0
vn -0.8660254 -0.5 1.365924E-16
vn -0.8660254 -0.5 -6.993531E-14
vn -0.7933533 -0.6087614 0
vn -0.8660254 -0.5 -6.993531E-14
vn -0.7071068 -0.7071068 0
vn -0.7933533 -0.6087614 -6.993531E-14
vn -0.7071068 -0.7071068 -6.993532E-14
vn -0.9238796 -0.3826835 1.365924E-16
vn -0.9659259 -0.2588191 1.365924E-16
vn -0.9659259 -0.2588191 -6.993532E-14
vn -0.9238796 -0.3826835 1.365924E-16
vn -0.9659259 -0.2588191 -6.993532E-14
vn -0.8660254 -0.5 1.365924E-16
vn -0.9238796 -0.3826835 -6.993532E-14
vn -0.8660254 -0.5 -6.993531E-14
vn -0.9659259 0.2588191 -6.993532E-14
vn -0.9914449 0.1305262 -6.993531E-14
vn -1 0 1.365924E-16
vn -1 0 -6.993531E-14
vn -0.9914449 -0.1305262 1.365924E-16
vn -0.9914449 -0.1305262 1.365924E-16
vn -1 0 -6.993531E-14
vn -0.9659259 -0.2588191 1.365924E-16
vn -0.9914449 -0.1305262 -6.993531E-14
vn -0.9659259 -0.2588191 -6.993532E-14
vn 0.7071068 -0.7071068 2.731848E-16
vn 0.5 -0.8660254 6.993531E-14
vn 0.5 -0.8660254 2.731848E-16
vn 0.2588191 -0.9659259 6.993532E-14
vn 0.2588191 -0.9659259 1.365924E-16
vn 0 -1 6.993531E-14
vn 0 -1 1.365924E-16
vn -0.2588191 -0.9659259 6.993532E-14
vn -0.2588191 -0.9659259 1.365924E-16
vn -0.5 -0.8660254 6.993531E-14
vn -0.5 -0.8660254 6.82962E-17
vn -0.7071068 -0.7071068 6.993532E-14
vn -0.7071068 -0.7071068 6.829621E-17
vn -0.7933533 -0.6087614 6.993531E-14
vn -0.7933533 -0.6087614 3.41481E-17
vn -0.8660254 -0.5 6.993531E-14
vn -0.8660254 -0.5 3.41481E-17
vn -0.9238796 -0.3826835 6.993532E-14
vn -0.9238796 -0.3826835 3.41481E-17
vn -0.9659259 -0.2588191 6.993532E-14
vn -0.9659259 -0.2588191 1.707405E-17
vn -0.9914449 -0.1305262 6.993531E-14
vn -0.9914449 -0.1305262 1.707405E-17
vn -1 1.224647E-16 6.993531E-14
vn 0.8660254 -0.5 6.993531E-14
vn 0.7933533 -0.6087614 6.993531E-14
vn 0.7071068 -0.7071068 2.731848E-16
vn 0.7071068 -0.7071068 6.993532E-14
vn 0.5 -0.8660254 6.993531E-14
vn 0.7071068 -0.7071068 2.731848E-16
vn 0.7933533 -0.6087614 2.731848E-16
vn 0.8660254 -0.5 6.993531E-14
vn 0.8660254 -0.5 2.731848E-16
vn 0.9238796 -0.3826835 6.993532E-14
vn 0.9659259 -0.2588191 6.993532E-14
vn 0.8660254 -0.5 2.731848E-16
vn 0.9238796 -0.3826835 2.731848E-16
vn 0.9659259 -0.2588191 6.993532E-14
vn 0.9659259 -0.2588191 2.731848E-16
vn 0.9914449 -0.1305262 6.993531E-14
vn 1 0 6.993531E-14
vn 0.9659259 -0.2588191 2.731848E-16
vn 0.9914449 -0.1305262 2.731848E-16
vn 1 0 6.993531E-14
vn 1 0 2.731848E-16
vn 0.9914449 0.1305262 6.993531E-14
vn 0.9659259 0.2588191 6.993532E-14
vn 1 0 2.731848E-16
vn 0.9914449 0.1305262 2.731848E-16
vn 0.9659259 0.2588191 6.993532E-14
vn 0.9659259 0.2588191 2.731848E-16
vn 0.9238796 0.3826835 6.993532E-14
vn 0.9238796 0.3826835 6.993532E-14
vn 0.9659259 0.2588191 2.731848E-16
vn 0.8660254 0.5 6.993531E-14
vn 0.9238796 0.3826835 2.731848E-16
vn 0.8660254 0.5 2.731848E-16
vn 0.7933533 0.6087614 2.731848E-16
vn 0.7071068 0.7071068 6.993532E-14
vn 0.8660254 0.5 2.731848E-16
vn 0.7933533 0.6087614 6.993531E-14
vn 0.8660254 0.5 6.993531E-14
vn 0.7933533 0.6087614 2.731848E-16
vn 0.7071068 0.7071068 2.731848E-16
vn 0.7071068 0.7071068 6.993532E-14
vn 0.5 0.8660254 2.731848E-16
vn 0.5 0.8660254 6.993531E-14
vn 0.2588191 0.9659259 1.365924E-16
vn 0.2588191 0.9659259 6.993532E-14
vn 0 1 1.365924E-16
vn 0 1 6.993531E-14
vn -0.2588191 0.9659259 1.365924E-16
vn -0.2588191 0.9659259 6.993532E-14
vn -0.5 0.8660254 6.82962E-17
vn -0.5 0.8660254 6.993531E-14
vn -0.7071068 0.7071068 6.829621E-17
vn -0.7071068 0.7071068 6.993532E-14
vn -0.7071068 0.7071068 6.993532E-14
vn -0.7071068 0.7071068 6.829621E-17
vn -0.7933533 0.6087614 6.993531E-14
vn -0.7933533 0.6087614 3.41481E-17
vn -0.8660254 0.5 6.993531E-14
vn -0.8660254 0.5 3.41481E-17
vn -0.9238796 0.3826835 6.993532E-14
vn -0.9238796 0.3826835 3.41481E-17
vn -0.9659259 0.2588191 6.993532E-14
vn -0.9659259 0.2588191 1.707405E-17
vn -0.9914449 0.1305262 6.993531E-14
vn -0.9914449 0.1305262 1.707405E-17
vn -1 1.224647E-16 6.993531E-14
vn -1 1.224647E-16 1.707405E-17
vn -0.9914449 -0.1305262 1.707405E-17
vn -0.7010574 -0.1305262 0.7010574
vn -0.6830127 -0.258819 0.6830127
vn -0.6830127 -0.258819 0.6830127
vn -0.7010574 0.1305262 0.7010574
vn -0.7071068 0 0.7071068
vn -0.7071068 0 0.7071068
vn -0.7010574 0.1305262 0.7010574
vn -0.7071068 0 0.7071068
vn -0.6830127 0.258819 0.6830127
vn -0.7071068 0 0.7071068
vn -0.7010574 0.1305262 0.7010574
vn -0.6830127 0.258819 0.6830127
vn -0.6830127 0.258819 0.6830127
vn -0.6532815 0.3826834 0.6532815
vn -0.6123725 0.5 0.6123725
vn -0.6123725 0.5 0.6123725
vn -0.5609855 0.6087614 0.5609855
vn -0.5 0.7071068 0.5
vn -0.6830127 0.258819 0.6830127
vn -0.6532815 0.3826834 0.6532815
vn -0.6123725 0.5 0.6123725
vn -0.6123725 0.5 0.6123725
vn -0.5609855 0.6087614 0.5609855
vn -0.5 0.7071068 0.5
vn -0.5609855 0.6087614 0.5609855
vn -0.5 0.7071068 0.5
vn -0.5 0.7071068 0.5
vn -0.3535534 0.8660254 0.3535534
vn -0.3535534 0.8660254 0.3535534
vn -0.1830127 0.9659259 0.1830127
vn -0.1830127 0.9659259 0.1830127
vn -2.595256E-14 1 2.615744E-14
vn 1.748383E-14 1 6.993531E-14
vn 0.1830127 0.9659259 -0.1830127
vn 0.1830127 0.9659259 -0.1830127
vn 0.3535534 0.8660254 -0.3535534
vn 0.3535534 0.8660254 -0.3535534
vn 0.5 0.7071068 -0.5
vn 0.5 0.7071068 -0.5
vn 0.5609855 0.6087614 -0.5609855
vn 0.5609855 0.6087614 -0.5609855
vn 0.6123725 0.5 -0.6123725
vn 0.6123725 0.5 -0.6123725
vn 0.6532815 0.3826834 -0.6532815
vn 0.6532815 0.3826834 -0.6532815
vn 0.6830127 0.258819 -0.6830127
vn 0.6830127 0.258819 -0.6830127
vn 0.7010574 0.1305262 -0.7010574
vn 0.7010574 0.1305262 -0.7010574
vn 0.7071068 5.665539E-16 -0.7071068
vn 0.7071068 5.665539E-16 -0.7071068
vn 0.7071068 5.665539E-16 -0.7071068
vn 0.7071068 5.665539E-16 -0.7071068
vn 0.7010574 -0.1305262 -0.7010574
vn 0.7010574 -0.1305262 -0.7010574
vn 0.6830127 -0.258819 -0.6830127
vn 0.7010574 -0.1305262 -0.7010574
vn 0.6830127 -0.258819 -0.6830127
vn 0.6830127 -0.258819 -0.6830127
vn 0.6532815 -0.3826834 -0.6532815
vn 0.6532815 -0.3826834 -0.6532815
vn 0.6123725 -0.5 -0.6123725
vn 0.6123725 -0.5 -0.6123725
vn 0.6123725 -0.5 -0.6123725
vn 0.6123725 -0.5 -0.6123725
vn 0.5609855 -0.6087614 -0.5609855
vn 0.5609855 -0.6087614 -0.5609855
vn 0.5 -0.7071068 -0.5
vn 0.5609855 -0.6087614 -0.5609855
vn 0.5 -0.7071068 -0.5
vn 0.5 -0.7071068 -0.5
vn 0.3535534 -0.8660254 -0.3535534
vn 0.3535534 -0.8660254 -0.3535534
vn 0.1830127 -0.9659259 -0.1830127
vn 0.1830127 -0.9659259 -0.1830127
vn 2.731848E-16 -1 -6.82962E-17
vn 5.245148E-14 -1 1.748383E-14
vn -0.1830127 -0.9659259 0.1830127
vn -0.1830127 -0.9659259 0.1830127
vn -0.3535534 -0.8660254 0.3535534
vn -0.3535534 -0.8660254 0.3535534
vn -0.5 -0.7071068 0.5
vn -0.5 -0.7071068 0.5
vn -0.5609855 -0.6087614 0.5609855
vn -0.6123725 -0.5 0.6123725
vn -0.6123725 -0.5 0.6123725
vn -0.5609855 -0.6087614 0.5609855
vn -0.6123725 -0.5 0.6123725
vn -0.5 -0.7071068 0.5
vn -0.5609855 -0.6087614 0.5609855
vn -0.5 -0.7071068 0.5
vn -0.6830127 -0.258819 0.6830127
vn -0.6830127 -0.258819 0.6830127
vn -0.6532815 -0.3826834 0.6532815
vn -0.6532815 -0.3826834 0.6532815
vn -0.6830127 -0.258819 0.6830127
vn -0.6123725 -0.5 0.6123725
vn -0.6532815 -0.3826834 0.6532815
vn -0.6123725 -0.5 0.6123725
vn -0.7010574 -0.1305262 0.7010574
vn -0.6830127 -0.258819 0.6830127
vn -0.7071068 0 0.7071068
vn -0.7010574 -0.1305262 0.7010574
vn -0.7071068 0 0.7071068
vn -0.7010574 -0.1305262 -0.7010574
vn -0.7071068 1.224647E-16 -0.7071068
vn -0.7010574 -0.1305262 -0.7010574
vn -0.7010574 -0.1305262 -0.7010574
vn -0.7010574 -0.1305262 -0.7010574
vn -0.6830127 -0.258819 -0.6830127
vn 0.5 -0.7071068 0.5
vn 0.3535534 -0.8660254 0.3535534
vn 0.3535534 -0.8660254 0.3535534
vn 0.1830127 -0.9659259 0.1830127
vn 0.1830127 -0.9659259 0.1830127
vn -1.748383E-14 -1 1.748383E-14
vn -6.82962E-17 -1 6.82962E-17
vn -0.1830127 -0.9659259 -0.1830127
vn -0.1830127 -0.9659259 -0.1830127
vn -0.3535534 -0.8660254 -0.3535534
vn -0.3535534 -0.8660254 -0.3535534
vn -0.5 -0.7071068 -0.5
vn -0.5 -0.7071068 -0.5
vn -0.5609855 -0.6087614 -0.5609855
vn -0.5609855 -0.6087614 -0.5609855
vn -0.6123725 -0.5 -0.6123725
vn -0.6123725 -0.5 -0.6123725
vn -0.6532815 -0.3826834 -0.6532815
vn -0.6532815 -0.3826834 -0.6532815
vn -0.6830127 -0.258819 -0.6830127
vn -0.6830127 -0.258819 -0.6830127
vn -0.7010574 -0.1305262 -0.7010574
vn 0.6123725 -0.5 0.6123725
vn 0.5609855 -0.6087614 0.5609855
vn 0.5 -0.7071068 0.5
vn 0.5 -0.7071068 0.5
vn 0.3535534 -0.8660254 0.3535534
vn 0.5 -0.7071068 0.5
vn 0.5609855 -0.6087614 0.5609855
vn 0.6123725 -0.5 0.6123725
vn 0.6123725 -0.5 0.6123725
vn 0.6532815 -0.3826834 0.6532815
vn 0.6830127 -0.258819 0.6830127
vn 0.6123725 -0.5 0.6123725
vn 0.6532815 -0.3826834 0.6532815
vn 0.6830127 -0.258819 0.6830127
vn 0.6830127 -0.258819 0.6830127
vn 0.7010574 -0.1305262 0.7010574
vn 0.7071068 0 0.7071068
vn 0.6830127 -0.258819 0.6830127
vn 0.7010574 -0.1305262 0.7010574
vn 0.7071068 0 0.7071068
vn 0.7071068 0 0.7071068
vn 0.7010574 0.1305262 0.7010574
vn 0.6830127 0.258819 0.6830127
vn 0.7071068 0 0.7071068
vn 0.7010574 0.1305262 0.7010574
vn 0.6830127 0.258819 0.6830127
vn 0.6830127 0.258819 0.6830127
vn 0.6532815 0.3826834 0.6532815
vn 0.6123725 0.5 0.6123725
vn 0.6123725 0.5 0.6123725
vn 0.5609855 0.6087614 0.5609855
vn 0.5 0.7071068 0.5
vn 0.6830127 0.258819 0.6830127
vn 0.6532815 0.3826834 0.6532815
vn 0.6123725 0.5 0.6123725
vn 0.6123725 0.5 0.6123725
vn 0.5609855 0.6087614 0.5609855
vn 0.5 0.7071068 0.5
vn 0.5609855 0.6087614 0.5609855
vn 0.5 0.7071068 0.5
vn 0.5 0.7071068 0.5
vn 0.3535534 0.8660254 0.3535534
vn 0.3535534 0.8660254 0.3535534
vn 0.1830127 0.9659259 0.1830127
vn 0.1830127 0.9659259 0.1830127
vn -6.82962E-17 1 6.82962E-17
vn -1.748383E-14 1 1.748383E-14
vn -0.1830127 0.9659259 -0.1830127
vn -0.1830127 0.9659259 -0.1830127
vn -0.3535534 0.8660254 -0.3535534
vn -0.3535534 0.8660254 -0.3535534
vn -0.5 0.7071068 -0.5
vn -0.5 0.7071068 -0.5
vn -0.5 0.7071068 -0.5
vn -0.5 0.7071068 -0.5
vn -0.5609855 0.6087614 -0.5609855
vn -0.5609855 0.6087614 -0.5609855
vn -0.6123725 0.5 -0.6123725
vn -0.6123725 0.5 -0.6123725
vn -0.6532815 0.3826834 -0.6532815
vn -0.6532815 0.3826834 -0.6532815
vn -0.6830127 0.258819 -0.6830127
vn -0.7010574 -0.1305262 -0.7010574
vn -0.7071068 1.224647E-16 -0.7071068
vn -0.7071068 1.224647E-16 -0.7071068
vn -0.7010574 0.1305262 -0.7010574
vn -0.7010574 0.1305262 -0.7010574
vn -0.6830127 0.258819 -0.6830127
vn -0.6830127 0.258819 -0.6830127
vn -0.6532815 0.3826834 -0.6532815
vn 1.365924E-16 -0.7071068 0.7071068
vn 0 -0.8660254 0.5
vn 1.365924E-16 -0.8660254 0.5
vn 0 -0.9659259 0.2588191
vn 6.829621E-17 -0.9659259 0.2588191
vn 0 -1 -9.358926E-17
vn 0 -1 -7.00289E-14
vn 0 -0.9659259 -0.2588191
vn -6.829621E-17 -0.9659259 -0.2588191
vn 0 -0.8660254 -0.5
vn -1.024443E-16 -0.8660254 -0.5
vn 0 -0.7071068 -0.7071068
vn -1.365924E-16 -0.7071068 -0.7071068
vn 0 -0.6087614 -0.7933533
vn -1.536665E-16 -0.6087614 -0.7933533
vn 0 -0.5 -0.8660254
vn -1.707405E-16 -0.5 -0.8660254
vn 0 -0.3826835 -0.9238796
vn -1.878146E-16 -0.3826835 -0.9238796
vn 0 -0.2588191 -0.9659259
vn -1.878146E-16 -0.2588191 -0.9659259
vn 0 -0.1305262 -0.9914449
vn -1.963516E-16 -0.1305262 -0.9914449
vn 0 1.224647E-16 -1
vn 0 -0.5 0.8660254
vn 0 -0.6087614 0.7933533
vn 1.365924E-16 -0.7071068 0.7071068
vn 0 -0.7071068 0.7071068
vn 0 -0.8660254 0.5
vn 1.365924E-16 -0.7071068 0.7071068
vn 1.365924E-16 -0.6087614 0.7933533
vn 0 -0.5 0.8660254
vn 1.365924E-16 -0.5 0.8660254
vn 0 -0.3826835 0.9238796
vn 0 -0.2588191 0.9659259
vn 1.365924E-16 -0.5 0.8660254
vn 1.365924E-16 -0.3826835 0.9238796
vn 0 -0.2588191 0.9659259
vn 1.365924E-16 -0.2588191 0.9659259
vn 0 -0.1305262 0.9914449
vn 0 0 1
vn 1.365924E-16 -0.2588191 0.9659259
vn 1.365924E-16 -0.1305262 0.9914449
vn 0 0 1
vn 1.365924E-16 0 1
vn 0 0.1305262 0.9914449
vn 0 0.2588191 0.9659259
vn 1.365924E-16 0 1
vn 1.365924E-16 0.1305262 0.9914449
vn 0 0.2588191 0.9659259
vn 1.365924E-16 0.2588191 0.9659259
vn 0 0.3826835 0.9238796
vn 0 0.3826835 0.9238796
vn 1.365924E-16 0.2588191 0.9659259
vn 0 0.5 0.8660254
vn 1.365924E-16 0.3826835 0.9238796
vn 1.365924E-16 0.5 0.8660254
vn 1.365924E-16 0.6087614 0.7933533
vn 0 0.7071068 0.7071068
vn 1.365924E-16 0.5 0.8660254
vn 0 0.6087614 0.7933533
vn 0 0.5 0.8660254
vn 1.365924E-16 0.6087614 0.7933533
vn 1.365924E-16 0.7071068 0.7071068
vn 0 0.7071068 0.7071068
vn 1.365924E-16 0.8660254 0.5
vn 0 0.8660254 0.5
vn 6.829621E-17 0.9659259 0.2588191
vn 0 0.9659259 0.2588191
vn 0 1 -9.358926E-17
vn 0 1 -9.358926E-17
vn -6.829621E-17 0.9659259 -0.2588191
vn 0 0.9659259 -0.2588191
vn -1.024443E-16 0.8660254 -0.5
vn 0 0.8660254 -0.5
vn -1.365924E-16 0.7071068 -0.7071068
vn 0 0.7071068 -0.7071068
vn 0 0.7071068 -0.7071068
vn -1.365924E-16 0.7071068 -0.7071068
vn 0 0.6087614 -0.7933533
vn -1.536665E-16 0.6087614 -0.7933533
vn 0 0.5 -0.8660254
vn -1.707405E-16 0.5 -0.8660254
vn 0 0.3826835 -0.9238796
vn -1.878146E-16 0.3826835 -0.9238796
vn 0 0.2588191 -0.9659259
vn -1.878146E-16 0.2588191 -0.9659259
vn 0 0.1305262 -0.9914449
vn -1.963516E-16 0.1305262 -0.9914449
vn 0 1.224647E-16 -1
vn -1.963516E-16 5.665539E-16 -1
vn -1.963516E-16 -0.1305262 -0.9914449
usemtl white_low_gloss_plastic
f 1/1/1 2/2/2 3/3/3
f 4/4/4 5/5/5 6/6/6
f 5/5/5 7/7/7 6/6/6
f 6/6/6 7/7/7 8/8/8
f 9/9/9 10/10/10 11/11/11
f 10/10/10 12/12/12 11/11/11
f 11/11/11 12/12/12 13/13/13
f 14/14/14 15/15/15 16/16/16
f 15/15/15 17/17/17 16/16/16
f 16/16/16 17/17/17 18/18/18
f 19/19/19 20/20/20 21/21/21
f 20/20/20 22/22/22 21/21/21
f 21/21/21 22/22/22 23/23/23
f 22/22/22 24/24/24 23/23/23
f 23/23/23 24/24/24 25/25/25
f 24/24/24 26/26/26 25/25/25
f 25/25/25 26/26/26 27/27/27
f 26/26/26 28/28/28 27/27/27
f 27/27/27 28/28/28 29/29/29
f 28/28/28 30/30/30 29/29/29
f 29/29/29 30/30/30 31/31/31
f 30/30/30 32/32/32 31/31/31
f 31/31/31 32/32/32 33/33/33
f 32/32/32 34/34/34 33/33/33
f 33/33/33 34/34/34 35/35/35
f 34/34/34 36/36/36 35/35/35
f 35/35/35 36/36/36 37/37/37
f 36/36/36 38/38/38 37/37/37
f 37/37/37 38/38/38 39/39/39
f 38/38/38 40/40/40 39/39/39
f 39/39/39 40/40/40 41/41/41
f 42/42/42 43/43/43 44/44/44
f 43/43/43 45/45/45 44/44/44
f 44/44/44 45/45/45 46/46/46
f 47/47/47 48/48/48 49/49/49
f 48/48/48 50/50/50 49/49/49
f 49/49/49 50/50/50 51/51/51
f 50/50/50 52/52/52 51/51/51
f 51/51/51 52/52/52 53/53/53
f 54/54/54 55/55/55 56/56/56
f 55/55/55 57/57/57 56/56/56
f 56/56/56 57/57/57 58/58/58
f 57/57/57 59/59/59 58/58/58
f 58/58/58 59/59/59 60/60/60
f 59/59/59 61/61/61 60/60/60
f 60/60/60 61/61/61 62/62/62
f 63/63/63 64/64/64 65/65/65
f 64/64/64 66/66/66 65/65/65
f 65/65/65 66/66/66 67/67/67
f 66/66/66 68/68/68 67/67/67
f 67/67/67 68/68/68 69/69/69
f 68/68/68 70/70/70 69/69/69
f 69/69/69 70/70/70 71/71/71
f 70/70/70 72/72/72 71/71/71
f 71/71/71 72/72/72 73/73/73
f 72/72/72 74/74/74 73/73/73
f 73/73/73 74/74/74 75/75/75
f 74/74/74 76/76/76 75/75/75
f 75/75/75 76/76/76 77/77/77
f 78/78/78 79/79/79 80/80/80
f 81/81/81 82/82/82 83/83/83
f 82/82/82 84/84/84 83/83/83
f 83/83/83 84/84/84 85/85/85
f 86/86/86 87/87/87 88/88/88
f 87/87/87 89/89/89 88/88/88
f 88/88/88 89/89/89 90/90/90
f 91/91/91 92/92/92 93/93/93
f 92/92/92 94/94/94 93/93/93
f 93/93/93 94/94/94 95/95/95
f 96/96/96 97/97/97 98/98/98
f 97/97/97 99/99/99 98/98/98
f 98/98/98 99/99/99 100/100/100
f 101/101/101 102/102/102 103/103/103
f 102/102/102 104/104/104 103/103/103
f 103/103/103 104/104/104 105/105/105
f 104/104/104 106/106/106 105/105/105
f 107/107/107 108/108/108 109/109/109
f 110/110/110 111/111/111 112/112/112
f 111/111/111 113/113/113 112/112/112
f 112/112/112 113/113/113 114/114/114
f 113/113/113 115/115/115 114/114/114
f 116/116/116 117/117/117 118/118/118
f 117/117/117 119/119/119 118/118/118
f 118/118/118 119/119/119 120/120/120
f 119/119/119 121/121/121 120/120/120
f 120/120/120 121/121/121 122/122/122
f 121/121/121 123/123/123 122/122/122
f 122/122/122 123/123/123 124/124/124
f 123/123/123 125/125/125 124/124/124
f 124/124/124 125/125/125 126/126/126
f 125/125/125 127/127/127 126/126/126
f 126/126/126 127/127/127 128/128/128
f 127/127/127 129/129/129 128/128/128
f 128/128/128 129/129/129 130/130/130
f 131/131/131 132/132/132 133/133/133
f 132/132/132 134/134/134 133/133/133
f 133/133/133 134/134/134 135/135/135
f 134/134/134 136/136/136 135/135/135
f 135/135/135 136/136/136 137/137/137
f 136/136/136 138/138/138 137/137/137
f 137/137/137 138/138/138 139/139/139
f 140/140/140 141/141/141 142/142/142
f 141/141/141 143/143/143 142/142/142
f 142/142/142 143/143/143 144/144/144
f 143/143/143 145/145/145 144/144/144
f 144/144/144 145/145/145 146/146/146
f 147/147/147 148/148/148 149/149/149
f 148/148/148 150/150/150 149/149/149
f 149/149/149 150/150/150 151/151/151
f 152/152/152 153/153/153 154/154/154
f 153/153/153 155/155/155 154/154/154
f 154/154/154 155/155/155 156/156/156
f 155/155/155 157/157/157 156/156/156
f 156/156/156 157/157/157 158/158/158
f 159/159/159 160/160/160 161/161/161
f 160/160/160 162/162/162 161/161/161
f 161/161/161 162/162/162 163/163/163
f 164/164/164 165/165/165 166/166/166
f 165/165/165 167/167/167 166/166/166
f 166/166/166 167/167/167 168/168/168
f 167/167/167 169/169/169 168/168/168
f 168/168/168 169/169/169 170/170/170
f 169/169/169 171/171/171 170/170/170
f 170/170/170 171/171/171 172/172/172
f 171/171/171 173/173/173 172/172/172
f 172/172/172 173/173/173 174/174/174
f 173/173/173 175/175/175 174/174/174
f 174/174/174 175/175/175 176/176/176
f 175/175/175 177/177/177 176/176/176
f 176/176/176 177/177/177 178/178/178
f 179/179/179 180/180/180 181/181/181
f 182/182/182 183/183/183 184/184/184
f 183/183/183 185/185/185 184/184/184
f 184/184/184 185/185/185 186/186/186
f 187/187/187 188/188/188 189/189/189
f 190/190/190 191/191/191 192/192/192
f 191/191/191 193/193/193 192/192/192
f 192/192/192 193/193/193 194/194/194
f 195/195/195 196/196/196 197/197/197
f 196/196/196 198/198/198 197/197/197
f 197/197/197 198/198/198 199/199/199
f 200/200/200 201/201/201 202/202/202
f 201/201/201 203/203/203 202/202/202
f 202/202/202 203/203/203 204/204/204
f 205/205/205 206/206/206 207/207/207
f 208/208/208 209/209/209 210/210/210
f 211/211/211 212/212/212 213/213/213
f 212/212/212 214/214/214 213/213/213
f 213/213/213 214/214/214 215/215/215
f 214/214/214 216/216/216 215/215/215
f 215/215/215 216/216/216 217/217/217
f 216/216/216 218/218/218 217/217/217
f 217/217/217 218/218/218 219/219/219
f 218/218/218 220/220/220 219/219/219
f 219/219/219 220/220/220 221/221/221
f 220/220/220 222/222/222 221/221/221
f 221/221/221 222/222/222 223/223/223
f 222/222/222 224/224/224 223/223/223
f 223/223/223 224/224/224 225/225/225
f 224/224/224 226/226/226 225/225/225
f 225/225/225 226/226/226 227/227/227
f 226/226/226 228/228/228 227/227/227
f 227/227/227 228/228/228 229/229/229
f 228/228/228 230/230/230 229/229/229
f 229/229/229 230/230/230 231/231/231
f 230/230/230 232/232/232 231/231/231
f 233/233/233 234/234/234 235/235/235
f 234/234/234 236/236/236 235/235/235
f 235/235/235 236/236/236 237/237/237
f 238/238/238 239/239/239 240/240/240
f 239/239/239 241/241/241 240/240/240
f 240/240/240 241/241/241 242/242/242
f 241/241/241 243/243/243 242/242/242
f 244/244/244 245/245/245 246/246/246
f 245/245/245 247/247/247 246/246/246
f 246/246/246 247/247/247 248/248/248
f 247/247/247 249/249/249 248/248/248
f 250/250/250 251/251/251 252/252/252
f 251/251/251 253/253/253 252/252/252
f 252/252/252 253/253/253 254/254/254
f 253/253/253 255/255/255 254/254/254
f 256/256/256 257/257/257 258/258/258
f 257/257/257 259/259/259 258/258/258
f 258/258/258 259/259/259 260/260/260
f 259/259/259 261/261/261 260/260/260
f 262/262/262 263/263/263 264/264/264
f 265/265/265 266/266/266 267/267/267
f 266/266/266 268/268/268 267/267/267
f 267/267/267 268/268/268 269/269/269
f 268/268/268 270/270/270 269/269/269
f 271/271/271 272/272/272 273/273/273
f 272/272/272 274/274/274 273/273/273
f 273/273/273 274/274/274 275/275/275
f 274/274/274 276/276/276 275/275/275
f 275/275/275 276/276/276 277/277/277
f 276/276/276 278/278/278 277/277/277
f 277/277/277 278/278/278 279/279/279
f 278/278/278 280/280/280 279/279/279
f 279/279/279 280/280/280 281/281/281
f 280/280/280 282/282/282 281/281/281
f 281/281/281 282/282/282 283/283/283
f 282/282/282 284/284/284 283/283/283
f 283/283/283 284/284/284 285/285/285
f 284/284/284 286/286/286 285/285/285
f 285/285/285 286/286/286 287/287/287
f 286/286/286 288/288/288 287/287/287
f 287/287/287 288/288/288 289/289/289
f 290/290/290 291/291/291 292/292/292
f 291/291/291 293/293/293 292/292/292
f 292/292/292 293/293/293 294/294/294
f 295/295/295 296/296/296 297/297/297
f 296/296/296 298/298/298 297/297/297
f 297/297/297 298/298/298 299/299/299
f 298/298/298 300/300/300 299/299/299
f 299/299/299 300/300/300 301/301/301
f 300/300/300 302/302/302 301/301/301
f 303/303/303 304/304/304 305/305/305
f 304/304/304 306/306/306 305/305/305
f 305/305/305 306/306/306 307/307/307
f 306/306/306 308/308/308 307/307/307
f 309/309/309 310/310/310 311/311/311
f 312/312/312 313/313/313 314/314/314
f 313/313/313 315/315/315 314/314/314
f 314/314/314 315/315/315 316/316/316
f 315/315/315 317/317/317 316/316/316
f 318/318/318 319/319/319 320/320/320
f 319/319/319 321/321/321 320/320/320
f 320/320/320 321/321/321 322/322/322
f 321/321/321 323/323/323 322/322/322
f 322/322/322 323/323/323 324/324/324
f 323/323/323 325/325/325 324/324/324
f 324/324/324 325/325/325 326/326/326
f 325/325/325 327/327/327 326/326/326
f 326/326/326 327/327/327 328/328/328
f 327/327/327 329/329/329 328/328/328
f 328/328/328 329/329/329 330/330/330
f 329/329/329 331/331/331 330/330/330
f 330/330/330 331/331/331 332/332/332
f 331/331/331 333/333/333 332/332/332
f 332/332/332 333/333/333 334/334/334
f 333/333/333 335/335/335 334/334/334
f 334/334/334 335/335/335 336/336/336
f 335/335/335 337/337/337 336/336/336
f 336/336/336 337/337/337 338/338/338
f 337/337/337 339/339/339 338/338/338
f 338/338/338 339/339/339 340/340/340
f 339/339/339 341/341/341 340/340/340
f 340/340/340 341/341/341 342/342/342
f 341/341/341 343/343/343 342/342/342
f 342/342/342 343/343/343 344/344/344
f 345/345/345 346/346/346 347/347/347
f 346/346/346 348/348/348 347/347/347
f 347/347/347 348/348/348 349/349/349
f 348/348/348 350/350/350 349/349/349
f 349/349/349 350/350/350 351/351/351
f 350/350/350 352/352/352 351/351/351
f 351/351/351 352/352/352 353/353/353
f 352/352/352 354/354/354 353/353/353
f 353/353/353 354/354/354 355/355/355
f 354/354/354 356/356/356 355/355/355
f 355/355/355 356/356/356 357/357/357
f 358/358/358 359/359/359 360/360/360
f 359/359/359 361/361/361 360/360/360
f 360/360/360 361/361/361 362/362/362
f 361/361/361 363/363/363 362/362/362
f 362/362/362 363/363/363 364/364/364
f 363/363/363 365/365/365 364/364/364
f 364/364/364 365/365/365 366/366/366
f 365/365/365 367/367/367 366/366/366
f 366/366/366 367/367/367 368/368/368
f 367/367/367 369/369/369 368/368/368
f 368/368/368 369/369/369 370/370/370
f 369/369/369 371/371/371 370/370/370
f 370/370/370 371/371/371 372/372/372
f 373/373/373 374/374/374 375/375/375
f 376/376/376 377/377/377 378/378/378
f 377/377/377 379/379/379 378/378/378
f 378/378/378 379/379/379 380/380/380
f 381/381/381 382/382/382 383/383/383
f 384/384/384 385/385/385 386/386/386
f 385/385/385 387/387/387 386/386/386
f 386/386/386 387/387/387 388/388/388
f 389/389/389 390/390/390 391/391/391
f 390/390/390 392/392/392 391/391/391
f 391/391/391 392/392/392 393/393/393
f 394/394/394 395/395/395 396/396/396
f 395/395/395 397/397/397 396/396/396
f 396/396/396 397/397/397 398/398/398
f 399/399/399 400/400/400 401/401/401
f 400/400/400 402/402/402 401/401/401
f 401/401/401 402/402/402 403/403/403
f 402/402/402 404/404/404 403/403/403
f 403/403/403 404/404/404 405/405/405
f 404/404/404 406/406/406 405/405/405
f 405/405/405 406/406/406 407/407/407
f 406/406/406 408/408/408 407/407/407
f 407/407/407 408/408/408 409/409/409
f 408/408/408 410/410/410 409/409/409
f 409/409/409 410/410/410 411/411/411
f 410/410/410 412/412/412 411/411/411
f 411/411/411 412/412/412 413/413/413
f 412/412/412 414/414/414 413/413/413
f 413/413/413 414/414/414 415/415/415
f 414/414/414 416/416/416 415/415/415
f 415/415/415 416/416/416 417/417/417
f 416/416/416 418/418/418 417/417/417
f 417/417/417 418/418/418 419/419/419
f 418/418/418 420/420/420 419/419/419
f 419/419/419 420/420/420 421/421/421
f 420/420/420 422/422/422 421/421/421
f 423/423/423 424/424/424 425/425/425
f 424/424/424 426/426/426 425/425/425
f 425/425/425 426/426/426 427/427/427
f 428/428/428 429/429/429 430/430/430
f 429/429/429 431/431/431 430/430/430
f 430/430/430 431/431/431 432/432/432
f 431/431/431 433/433/433 432/432/432
f 434/434/434 435/435/435 436/436/436
f 435/435/435 437/437/437 436/436/436
f 436/436/436 437/437/437 438/438/438
f 437/437/437 439/439/439 438/438/438
f 440/440/440 441/441/441 442/442/442
f 441/441/441 443/443/443 442/442/442
f 442/442/442 443/443/443 444/444/444
f 443/443/443 445/445/445 444/444/444
f 446/446/446 447/447/447 448/448/448
f 447/447/447 449/449/449 448/448/448
f 448/448/448 449/449/449 450/450/450
f 451/451/451 452/452/452 453/453/453
f 452/452/452 454/454/454 453/453/453
f 453/453/453 454/454/454 455/455/455
f 456/456/456 457/457/457 458/458/458
f 457/457/457 459/459/459 458/458/458
f 458/458/458 459/459/459 460/460/460
f 461/461/461 462/462/462 463/463/463
f 462/462/462 464/464/464 463/463/463
f 463/463/463 464/464/464 465/465/465
f 464/464/464 466/466/466 465/465/465
f 465/465/465 466/466/466 467/467/467
f 466/466/466 468/468/468 467/467/467
f 467/467/467 468/468/468 469/469/469
f 468/468/468 470/470/470 469/469/469
f 469/469/469 470/470/470 471/471/471
f 470/470/470 472/472/472 471/471/471
f 471/471/471 472/472/472 473/473/473
f 472/472/472 474/474/474 473/473/473
f 473/473/473 474/474/474 475/475/475
f 476/476/476 477/477/477 478/478/478
f 477/477/477 479/479/479 478/478/478
f 478/478/478 479/479/479 480/480/480
f 479/479/479 481/481/481 480/480/480
f 480/480/480 481/481/481 482/482/482
f 481/481/481 483/483/483 482/482/482
f 482/482/482 483/483/483 484/484/484
f 483/483/483 485/485/485 484/484/484
f 484/484/484 485/485/485 486/486/486
f 485/485/485 487/487/487 486/486/486
f 486/486/486 487/487/487 488/488/488
f 487/487/487 489/489/489 488/488/488
f 488/488/488 489/489/489 490/490/490
f 491/491/491 492/492/492 493/493/493
f 494/494/494 495/495/495 496/496/496
f 497/497/497 498/498/498 499/499/499
f 500/500/500 501/501/501 502/502/502
f 501/501/501 503/503/503 502/502/502
f 502/502/502 503/503/503 504/504/504
f 503/503/503 505/505/505 504/504/504
f 506/506/506 507/507/507 508/508/508
f 509/509/509 510/510/510 511/511/511
f 510/510/510 512/512/512 511/511/511
f 511/511/511 512/512/512 513/513/513
f 512/512/512 514/514/514 513/513/513
f 515/515/515 516/516/516 517/517/517
f 516/516/516 518/518/518 517/517/517
f 517/517/517 518/518/518 519/519/519
f 518/518/518 520/520/520 519/519/519
f 519/519/519 520/520/520 521/521/521
f 520/520/520 522/522/522 521/521/521
f 521/521/521 522/522/522 523/523/523
f 522/522/522 524/524/524 523/523/523
f 523/523/523 524/524/524 525/525/525
f 524/524/524 526/526/526 525/525/525
f 525/525/525 526/526/526 527/527/527
f 526/526/526 528/528/528 527/527/527
f 527/527/527 528/528/528 529/529/529
f 528/528/528 530/530/530 529/529/529
f 529/529/529 530/530/530 531/531/531
f 530/530/530 532/532/532 531/531/531
f 531/531/531 532/532/532 533/533/533
f 532/532/532 534/534/534 533/533/533
f 533/533/533 534/534/534 535/535/535
f 534/534/534 536/536/536 535/535/535
f 535/535/535 536/536/536 537/537/537
f 536/536/536 538/538/538 537/537/537
f 537/537/537 538/538/538 539/539/539
f 538/538/538 540/540/540 539/539/539
f 539/539/539 540/540/540 541/541/541
f 542/542/542 543/543/543 544/544/544
f 543/543/543 545/545/545 544/544/544
f 544/544/544 545/545/545 546/546/546
f 547/547/547 548/548/548 549/549/549
f 548/548/548 550/550/550 549/549/549
f 549/549/549 550/550/550 551/551/551
f 550/550/550 552/552/552 551/551/551
f 551/551/551 552/552/552 553/553/553
f 554/554/554 555/555/555 556/556/556
f 555/555/555 557/557/557 556/556/556
f 556/556/556 557/557/557 558/558/558
f 559/559/559 560/560/560 561/561/561
f 560/560/560 562/562/562 561/561/561
f 561/561/561 562/562/562 563/563/563
f 562/562/562 564/564/564 563/563/563
f 563/563/563 564/564/564 565/565/565
f 564/564/564 566/566/566 565/565/565
f 565/565/565 566/566/566 567/567/567
f 566/566/566 568/568/568 567/567/567
f 567/567/567 568/568/568 569/569/569
f 568/568/568 570/570/570 569/569/569
f 569/569/569 570/570/570 571/571/571
f 570/570/570 572/572/572 571/571/571
f 571/571/571 572/572/572 573/573/573
f 574/574/574 575/575/575 576/576/576
f 577/577/577 578/578/578 579/579/579
f 578/578/578 580/580/580 579/579/579
f 579/579/579 580/580/580 581/581/581
f 582/582/582 583/583/583 584/584/584
f 585/585/585 586/586/586 587/587/587
f 586/586/586 588/588/588 587/587/587
f 587/587/587 588/588/588 589/589/589
f 590/590/590 591/591/591 592/592/592
f 591/591/591 593/593/593 592/592/592
f 592/592/592 593/593/593 594/594/594
f 595/595/595 596/596/596 597/597/597
f 598/598/598 599/599/599 600/600/600
f 601/601/601 602/602/602 603/603/603
f 602/602/602 604/604/604 603/603/603
f 603/603/603 604/604/604 605/605/605
f 604/604/604 606/606/606 605/605/605
f 605/605/605 606/606/606 607/607/607
f 606/606/606 608/608/608 607/607/607
f 607/607/607 608/608/608 609/609/609
f 608/608/608 610/610/610 609/609/609
f 609/609/609 610/610/610 611/611/611
f 610/610/610 612/612/612 611/611/611
f 611/611/611 612/612/612 613/613/613
f 612/612/612 614/614/614 613/613/613
f 613/613/613 614/614/614 615/615/615
f 614/614/614 616/616/616 615/615/615
f 615/615/615 616/616/616 617/617/617
f 616/616/616 618/618/618 617/617/617
f 617/617/617 618/618/618 619/619/619
f 618/618/618 620/620/620 619/619/619
f 619/619/619 620/620/620 621/621/621
f 620/620/620 622/622/622 621/621/621
f 623/623/623 624/624/624 625/625/625
f 624/624/624 626/626/626 625/625/625
f 625/625/625 626/626/626 627/627/627
f 628/628/628 629/629/629 630/630/630
f 629/629/629 631/631/631 630/630/630
f 630/630/630 631/631/631 632/632/632
f 631/631/631 633/633/633 632/632/632
f 634/634/634 635/635/635 636/636/636
f 635/635/635 637/637/637 636/636/636
f 636/636/636 637/637/637 638/638/638
f 637/637/637 639/639/639 638/638/638
f 640/640/640 641/641/641 642/642/642
f 641/641/641 643/643/643 642/642/642
f 642/642/642 643/643/643 644/644/644
f 643/643/643 645/645/645 644/644/644
f 646/646/646 647/647/647 648/648/648
f 647/647/647 649/649/649 648/648/648
f 648/648/648 649/649/649 650/650/650
f 649/649/649 651/651/651 650/650/650
f 652/652/652 653/653/653 654/654/654
f 655/655/655 656/656/656 657/657/657
f 656/656/656 658/658/658 657/657/657
f 657/657/657 658/658/658 659/659/659
f 658/658/658 660/660/660 659/659/659
f 661/661/661 662/662/662 663/663/663
f 662/662/662 664/664/664 663/663/663
f 663/663/663 664/664/664 665/665/665
f 664/664/664 666/666/666 665/665/665
f 665/665/665 666/666/666 667/667/667
f 666/666/666 668/668/668 667/667/667
f 667/667/667 668/668/668 669/669/669
f 668/668/668 670/670/670 669/669/669
f 669/669/669 670/670/670 671/671/671
f 670/670/670 672/672/672 671/671/671
f 671/671/671 672/672/672 673/673/673
f 672/672/672 674/674/674 673/673/673
f 673/673/673 674/674/674 675/675/675
f 676/676/676 677/677/677 678/678/678
f 677/677/677 679/679/679 678/678/678
f 678/678/678 679/679/679 680/680/680
f 679/679/679 681/681/681 680/680/680
f 680/680/680 681/681/681 682/682/682
f 681/681/681 683/683/683 682/682/682
f 682/682/682 683/683/683 684/684/684
f 685/685/685 686/686/686 687/687/687
f 686/686/686 688/688/688 687/687/687
f 687/687/687 688/688/688 689/689/689
f 688/688/688 690/690/690 689/689/689
f 689/689/689 690/690/690 691/691/691
f 690/690/690 692/692/692 691/691/691
f 693/693/693 694/694/694 695/695/695
f 694/694/694 696/696/696 695/695/695
f 695/695/695 696/696/696 697/697/697
f 696/696/696 698/698/698 697/697/697
f 697/697/697 698/698/698 699/699/699
f 698/698/698 700/700/700 699/699/699
f 699/699/699 700/700/700 701/701/701
f 700/700/700 702/702/702 701/701/701
f 701/701/701 702/702/702 703/703/703
f 702/702/702 704/704/704 703/703/703
f 703/703/703 704/704/704 705/705/705
f 704/704/704 706/706/706 705/705/705
f 705/705/705 706/706/706 707/707/707
f 706/706/706 708/708/708 707/707/707
f 707/707/707 708/708/708 709/709/709
f 708/708/708 710/710/710 709/709/709
f 709/709/709 710/710/710 711/711/711
f 710/710/710 712/712/712 711/711/711
f 711/711/711 712/712/712 713/713/713
f 712/712/712 714/714/714 713/713/713
f 713/713/713 714/714/714 715/715/715
f 714/714/714 716/716/716 715/715/715
f 717/717/717 718/718/718 719/719/719
f 718/718/718 720/720/720 719/719/719
f 719/719/719 720/720/720 721/721/721
f 722/722/722 723/723/723 724/724/724
f 723/723/723 725/725/725 724/724/724
f 724/724/724 725/725/725 726/726/726
f 725/725/725 727/727/727 726/726/726
f 728/728/728 729/729/729 730/730/730
f 729/729/729 731/731/731 730/730/730
f 730/730/730 731/731/731 732/732/732
f 731/731/731 733/733/733 732/732/732
f 734/734/734 735/735/735 736/736/736
f 735/735/735 737/737/737 736/736/736
f 736/736/736 737/737/737 738/738/738
f 737/737/737 739/739/739 738/738/738
f 740/740/740 741/741/741 742/742/742
f 741/741/741 743/743/743 742/742/742
f 742/742/742 743/743/743 744/744/744
f 745/745/745 746/746/746 747/747/747
f 746/746/746 748/748/748 747/747/747
f 747/747/747 748/748/748 749/749/749
f 750/750/750 751/751/751 752/752/752
f 751/751/751 753/753/753 752/752/752
f 752/752/752 753/753/753 754/754/754
f 755/755/755 756/756/756 757/757/757
f 756/756/756 758/758/758 757/757/757
f 757/757/757 758/758/758 759/759/759
f 758/758/758 760/760/760 759/759/759
f 759/759/759 760/760/760 761/761/761
f 760/760/760 762/762/762 761/761/761
f 761/761/761 762/762/762 763/763/763
f 762/762/762 764/764/764 763/763/763
f 763/763/763 764/764/764 765/765/765
f 764/764/764 766/766/766 765/765/765
f 765/765/765 766/766/766 767/767/767
f 766/766/766 768/768/768 767/767/767
f 767/767/767 768/768/768 769/769/769
f 770/770/770 771/771/771 772/772/772
f 771/771/771 773/773/773 772/772/772
f 772/772/772 773/773/773 774/774/774
f 773/773/773 775/775/775 774/774/774
f 774/774/774 775/775/775 776/776/776
f 775/775/775 777/777/777 776/776/776
f 776/776/776 777/777/777 778/778/778
f 777/777/777 779/779/779 778/778/778
f 778/778/778 779/779/779 780/780/780
f 779/779/779 781/781/781 780/780/780
f 780/780/780 781/781/781 782/782/782
f 781/781/781 783/783/783 782/782/782
f 782/782/782 783/783/783 784/784/784
##########################


##########################
g Root|Octagon_(Predeterminado)|Predeterminado|Saliente-Extruir1|Saliente-Extruir1_-_Part
##########################
v -1.3475 0.0002999902 0.1525
v -1.3475 0.3053 0.1525
v -1.3525 0.0002999902 0.1525
v -1.3525 0.3053 0.1525
v -1.3475 0.0002999902 -0.1525
v -1.3475 0.0002999902 0.1525
v -1.3525 0.0002999902 -0.1525
v -1.3525 0.0002999902 0.1525
v -1.3475 0.3053 -0.1525
v -1.3475 0.0002999902 -0.1525
v -1.3525 0.3053 -0.1525
v -1.3525 0.0002999902 -0.1525
v -1.3475 0.3053 0.1525
v -1.3475 0.3053 -0.1525
v -1.3525 0.3053 0.1525
v -1.3525 0.3053 -0.1525
v -1.3525 0.3053 -0.1525
v -1.3525 0.0002999902 -0.1525
v -1.3525 0.3053 0.1525
v -1.3525 0.0002999902 0.1525
vt 1.756669 0.9999958
vt 1.756669 -106.1576
vt -1.172712E-05 0.9999958
vt -1.172712E-05 -106.1576
vt 0.9989242 1.000001
vt 0.9989242 -106.1576
vt -0.7577562 1.000001
vt -0.7577562 -106.1576
vt 0.9989242 0.9999958
vt 0.9989242 -106.1576
vt -0.7577562 0.9999958
vt -0.7577562 -106.1576
vt -0.7577562 -59.93366
vt -0.7577562 47.22395
vt 0.9989242 -59.93366
vt 0.9989242 47.22395
vt -47.18631 24.11197
vt 59.97129 24.11197
vt -47.18631 -83.04564
vt 59.97129 -83.04564
vn 0 0 1
vn 0 0 1
vn 0 0 1
vn 0 0 1
vn 0 -1 1.820038E-16
vn 0 -1 1.820038E-16
vn 0 -1 1.820038E-16
vn 0 -1 1.820038E-16
vn 0 0 -1
vn 0 0 -1
vn 0 0 -1
vn 0 0 -1
vn 0 1 1.820038E-16
vn 0 1 1.820038E-16
vn 0 1 1.820038E-16
vn 0 1 1.820038E-16
vn -1 0 0
vn -1 0 0
vn -1 0 0
vn -1 0 0
usemtl white_low_gloss_plastic
f 785/785/785 786/786/786 787/787/787
f 786/786/786 788/788/788 787/787/787
f 789/789/789 790/790/790 791/791/791
f 790/790/790 792/792/792 791/791/791
f 793/793/793 794/794/794 795/795/795
f 794/794/794 796/796/796 795/795/795
f 797/797/797 798/798/798 799/799/799
f 798/798/798 800/800/800 799/799/799
f 801/801/801 802/802/802 803/803/803
f 802/802/802 804/804/804 803/803/803
##########################


##########################
g Root|Octagon_(Predeterminado)|Predeterminado|Saliente-Extruir1|Saliente-Extruir1_-_Part_2
##########################
v -1.3475 0.0002999902 -0.1525
v -1.3475 0.3053 -0.1525
v -1.3475 0.0002999902 0.1525
v -1.3475 0.3053 0.1525
vt -47.18631 24.11197
vt 59.97129 24.11197
vt -47.18631 -83.04564
vt 59.97129 -83.04564
vn 1 0 0
vn 1 0 0
vn 1 0 0
vn 1 0 0
usemtl white_low_gloss_plastic
f 805/805/805 806/806/806 807/807/807
f 806/806/806 808/808/808 807/807/807
##########################


##########################
g Root|Octagon_(Predeterminado)|Predeterminado|Saliente-Extruir2|Saliente-Extruir2_-_Part
##########################
v 1.3525 0.0002999902 0.1525
v 1.3525 0.3053 0.1525
v 1.3475 0.0002999902 0.1525
v 1.3475 0.3053 0.1525
v 1.3525 0.0002999902 -0.1525
v 1.3525 0.0002999902 0.1525
v 1.3475 0.0002999902 -0.1525
v 1.3475 0.0002999902 0.1525
v 1.3525 0.3053 -0.1525
v 1.3525 0.0002999902 -0.1525
v 1.3475 0.3053 -0.1525
v 1.3475 0.0002999902 -0.1525
v 1.3525 0.3053 0.1525
v 1.3525 0.3053 -0.1525
v 1.3475 0.3053 0.1525
v 1.3475 0.3053 -0.1525
v 1.3525 0.0002999902 -0.1525
v 1.3525 0.3053 -0.1525
v 1.3525 0.0002999902 0.1525
v 1.3525 0.3053 0.1525
vt 0.998899 48.18631
vt 0.998899 -58.97129
vt -0.7577814 48.18631
vt -0.7577814 -58.97129
vt 0.998899 24.11197
vt 0.998899 -83.04564
vt -0.7577814 24.11197
vt -0.7577814 -83.04564
vt 0.998899 48.18631
vt 0.998899 -58.97129
vt -0.7577814 48.18631
vt -0.7577814 -58.97129
vt -0.7577814 -83.04564
vt -0.7577814 24.11197
vt 0.998899 -83.04564
vt 0.998899 24.11197
vt -47.18631 24.11197
vt 59.97129 24.11197
vt -47.18631 -83.04564
vt 59.97129 -83.04564
vn 0 0 1
vn 0 0 1
vn 0 0 1
vn 0 0 1
vn 0 -1 -1.820038E-16
vn 0 -1 -1.820038E-16
vn 0 -1 -1.820038E-16
vn 0 -1 -1.820038E-16
vn 0 0 -1
vn 0 0 -1
vn 0 0 -1
vn 0 0 -1
vn 0 1 0
vn 0 1 0
vn 0 1 0
vn 0 1 0
vn 1 0 0
vn 1 0 0
vn 1 0 0
vn 1 0 0
usemtl white_low_gloss_plastic
f 809/809/809 810/810/810 811/811/811
f 810/810/810 812/812/812 811/811/811
f 813/813/813 814/814/814 815/815/815
f 814/814/814 816/816/816 815/815/815
f 817/817/817 818/818/818 819/819/819
f 818/818/818 820/820/820 819/819/819
f 821/821/821 822/822/822 823/823/823
f 822/822/822 824/824/824 823/823/823
f 825/825/825 826/826/826 827/827/827
f 826/826/826 828/828/828 827/827/827
##########################


##########################
g Root|Octagon_(Predeterminado)|Predeterminado|Saliente-Extruir2|Saliente-Extruir2_-_Part_2
##########################
v 1.3475 0.3053 -0.1525
v 1.3475 0.0002999902 -0.1525
v 1.3475 0.3053 0.1525
v 1.3475 0.0002999902 0.1525
vt -47.18631 24.11197
vt 59.97129 24.11197
vt -47.18631 -83.04564
vt 59.97129 -83.04564
vn -1 0 0
vn -1 0 0
vn -1 0 0
vn -1 0 0
usemtl white_low_gloss_plastic
f 829/829/829 830/830/830 831/831/831
f 830/830/830 832/832/832 831/831/831
##########################

