<?xml version="1.0" encoding="UTF-8"?>
<COLLADA xmlns="http://www.collada.org/2005/11/COLLADASchema" version="1.4.1">
<!--
# File generated by ImageToStl.com - Free Image and 3D model conversion tools
-->
  <asset>
    <contributor>
      <author>ImageToStl.com</author>
      <authoring_tool>ImageToStl.com</authoring_tool>
    </contributor>
    <created>2026-01-03T05:21:41</created>
    <modified>2026-01-03T05:21:41</modified>
    <up_axis>Y_UP</up_axis>
  </asset>
  <library_effects>
    <effect id="effect_0">
        <profile_COMMON>
          <technique sid="common">
            <phong>
              <diffuse>
                <color>1 0.86714 0.01266 1</color>
              </diffuse>
              <specular>
                <color>0.04 0.04 0.04 1</color>
              </specular>
              <shininess>
                <float>38.4</float>
              </shininess>
              <transparency>
                <float>1</float>
              </transparency>
            </phong>
          </technique>
        </profile_COMMON>
    </effect>
    <effect id="effect_1">
        <profile_COMMON>
          <technique sid="common">
            <phong>
              <diffuse>
                <color>0.57955 0.0104 1 1</color>
              </diffuse>
              <specular>
                <color>0.04 0.04 0.04 1</color>
              </specular>
              <shininess>
                <float>106.24</float>
              </shininess>
              <transparency>
                <float>1</float>
              </transparency>
            </phong>
          </technique>
        </profile_COMMON>
    </effect>
    <effect id="effect_2">
        <profile_COMMON>
          <technique sid="common">
            <phong>
              <diffuse>
                <color>1 1 1 1</color>
              </diffuse>
              <specular>
                <color>0.04 0.04 0.04 1</color>
              </specular>
              <shininess>
                <float>38.4</float>
              </shininess>
              <transparency>
                <float>1</float>
              </transparency>
            </phong>
          </technique>
        </profile_COMMON>
    </effect>
  </library_effects>
  <library_materials>
    <material id="mat_0">
      <instance_effect url="#effect_0"/>
    </material>
    <material id="mat_1">
      <instance_effect url="#effect_1"/>
    </material>
    <material id="mat_2">
      <instance_effect url="#effect_2"/>
    </material>
  </library_materials>
  <library_geometries>
    <geometry id="geometry_d9a8c58c_de3f_4fae_bb49_0c71db78e62e">
      <mesh>
        <source id="pos_0">
          <float_array id="pos_0-array" count="108">0.04985895 0.00662233 0.40599999 0.05985895 0.00662233 0.41600001 0.04985895 0.00662233 0.31 0.05985895 0.00662233 0.30000001 -0.04985895 0.00662233 0.31 -0.05985895 0.00662233 0.30000001 -0.04985895 0.00662233 0.40599999 -0.05985895 0.00662233 0.41600001 0.05985895 -0.005 0.30000001 0.05985895 -0.06428355 0.30000001 -0.05985895 -0.005 0.30000001 -0.05985895 -0.06428355 0.30000001 0.05985895 -0.06428355 0.41600001 -0.05985895 -0.06428355 0.41600001 0.05985895 0.005 0.30000001 -0.05985895 0.005 0.30000001 0.04985895 -0.05428355 0.31 -0.04985895 -0.05428355 0.31 -0.04985895 -0.05428355 0.40599999 0.04985895 -0.05428355 0.40599999 -0.07517735 0.0299 0.0771555 -0.16182077 0.0299 0.00701656 -0.07517735 0.005 0.0771555 -0.16182077 0.005 0.00701656 -0.04549157 0.0299 0.04048432 -0.04549157 0.005 0.04048432 -0.13213497 0.0299 -0.02965462 -0.13213497 0.005 -0.02965462 0.05412994 0.0299 0.10314632 0.05412994 0.0299 0.13856599 0.05412994 0.005 0.10314632 0.05412994 0.005 0.13856599 -0.04549157 0.0299 0.10314632 -0.04549157 0.005 0.10314632 -0.04549157 0.0299 0.13856599 -0.04549157 0.005 0.13856599</float_array>
          <technique_common>
            <accessor source="#pos_0-array" count="108" stride="3">
              <param name="X" type="float"/>
              <param name="Y" type="float"/>
              <param name="Z" type="float"/>
            </accessor>
          </technique_common>
        </source>
        <source id="norm_0">
          <float_array id="norm_0-array" count="48">-0 1 0 0 0 -1 0 -1 0 1 -0 0 -1 0 0 0 0 1 -0 1 0 -1 0 0 1 -0 0 -0.62919 0 0.77725 0.77725 0 0.62919 0.62919 0 -0.77725 -0.77725 0 -0.62919 0 1 0 1 0 0 -1 0 0</float_array>
          <technique_common>
            <accessor source="#norm_0-array" count="48" stride="3">
              <param name="X" type="float"/>
              <param name="Y" type="float"/>
              <param name="Z" type="float"/>
            </accessor>
          </technique_common>
        </source>
        <vertices id="vert_0">
          <input semantic="POSITION" source="#pos_0"/>
        </vertices>
        <triangles count="54" material="mat_0">
          <input semantic="VERTEX" source="#vert_0" offset="0"/>
          <input semantic="NORMAL" source="#norm_0" offset="1"/>
          <p>0 0 1 0 2 0 2 0 1 0 3 0 2 0 3 0 4 0 4 0 3 0 5 0 4 0 5 0 6 0 6 0 5 0 7 0 6 0 7 0 0 0 0 0 7 0 1 0 8 1 9 1 10 1 10 1 9 1 11 1 12 2 13 2 9 2 9 2 13 2 11 2 1 3 12 3 9 3 9 3 8 3 1 3 1 3 8 3 14 3 1 3 14 3 3 3 11 4 13 4 10 4 10 4 13 4 7 4 10 4 7 4 15 4 15 4 7 4 5 4 1 5 7 5 12 5 12 5 7 5 13 5 5 1 3 1 15 1 15 1 3 1 14 1 2 5 4 5 16 5 16 5 4 5 17 5 18 6 19 6 17 6 17 6 19 6 16 6 19 7 0 7 16 7 16 7 0 7 2 7 6 8 18 8 4 8 4 8 18 8 17 8 6 1 0 1 18 1 18 1 0 1 19 1 20 9 21 9 22 9 22 9 21 9 23 9 24 10 20 10 25 10 25 10 20 10 22 10 26 11 24 11 27 11 27 11 24 11 25 11 21 12 26 12 23 12 23 12 26 12 27 12 24 13 26 13 20 13 20 13 26 13 21 13 28 14 29 14 30 14 30 14 29 14 31 14 32 1 28 1 33 1 33 1 28 1 30 1 34 15 32 15 35 15 35 15 32 15 33 15 29 5 34 5 31 5 31 5 34 5 35 5 32 13 34 13 28 13 28 13 34 13 29 13</p>
        </triangles>
      </mesh>
    </geometry>
    <geometry id="geometry_3f841f31_aee3_465c_a076_e4312ffe026f">
      <mesh>
        <source id="pos_1">
          <float_array id="pos_1-array" count="108">-0.05985895 -0.005 -0.30000001 -0.05985895 -0.06428355 -0.30000001 0.05985895 -0.005 -0.30000001 0.05985895 -0.06428355 -0.30000001 0.05985895 -0.06428355 -0.41600001 0.05985895 0.00662233 -0.41600001 0.05985895 0.005 -0.30000001 0.05985895 0.00662233 -0.30000001 -0.05985895 -0.06428355 -0.41600001 -0.05985895 0.00662233 -0.41600001 -0.05985895 0.005 -0.30000001 -0.05985895 0.00662233 -0.30000001 -0.04985895 0.00662233 -0.40599999 -0.04985895 0.00662233 -0.31 0.04985895 0.00662233 -0.31 0.04985895 0.00662233 -0.40599999 0.04985895 -0.05427767 -0.40599999 0.04985895 -0.05427767 -0.31 -0.04985895 -0.05427767 -0.31 -0.04985895 -0.05427767 -0.40599999 0.10463575 0.0299 -0.17758733 0.10463575 0.0299 -0.12839335 0.10463575 0.005 -0.17758733 0.10463575 0.005 -0.12839335 -0.00621468 0.0299 -0.17758733 -0.00621468 0.005 -0.17758733 -0.00621468 0.0299 -0.12839335 -0.00621468 0.005 -0.12839335 -0.1368715 0.0299 -0.2277206 -0.1368715 0.0299 -0.18802895 -0.1368715 0.005 -0.2277206 -0.1368715 0.005 -0.18802895 -0.21755618 0.0299 -0.2277206 -0.21755618 0.005 -0.2277206 -0.21755618 0.0299 -0.18802895 -0.21755618 0.005 -0.18802895</float_array>
          <technique_common>
            <accessor source="#pos_1-array" count="108" stride="3">
              <param name="X" type="float"/>
              <param name="Y" type="float"/>
              <param name="Z" type="float"/>
            </accessor>
          </technique_common>
        </source>
        <source id="norm_1">
          <float_array id="norm_1-array" count="18">0 0 1 1 0 0 0 -1 0 -1 0 0 0 1 0 0 0 -1</float_array>
          <technique_common>
            <accessor source="#norm_1-array" count="18" stride="3">
              <param name="X" type="float"/>
              <param name="Y" type="float"/>
              <param name="Z" type="float"/>
            </accessor>
          </technique_common>
        </source>
        <vertices id="vert_1">
          <input semantic="POSITION" source="#pos_1"/>
        </vertices>
        <triangles count="54" material="mat_1">
          <input semantic="VERTEX" source="#vert_1" offset="0"/>
          <input semantic="NORMAL" source="#norm_1" offset="1"/>
          <p>0 0 1 0 2 0 2 0 1 0 3 0 3 1 4 1 2 1 2 1 4 1 5 1 2 1 5 1 6 1 6 1 5 1 7 1 8 2 4 2 1 2 1 2 4 2 3 2 9 3 8 3 1 3 1 3 0 3 9 3 9 3 0 3 10 3 9 3 10 3 11 3 12 4 9 4 13 4 13 4 9 4 11 4 13 4 11 4 14 4 14 4 11 4 7 4 14 4 7 4 15 4 15 4 7 4 5 4 15 4 5 4 12 4 12 4 5 4 9 4 8 5 9 5 4 5 4 5 9 5 5 5 7 0 11 0 6 0 6 0 11 0 10 0 16 3 17 3 15 3 15 3 17 3 14 3 17 5 18 5 14 5 14 5 18 5 13 5 18 1 19 1 13 1 13 1 19 1 12 1 19 0 16 0 12 0 12 0 16 0 15 0 19 4 18 4 16 4 16 4 18 4 17 4 20 1 21 1 22 1 22 1 21 1 23 1 24 5 20 5 25 5 25 5 20 5 22 5 26 3 24 3 27 3 27 3 24 3 25 3 21 0 26 0 23 0 23 0 26 0 27 0 24 4 26 4 20 4 20 4 26 4 21 4 28 1 29 1 30 1 30 1 29 1 31 1 32 5 28 5 33 5 33 5 28 5 30 5 34 3 32 3 35 3 35 3 32 3 33 3 29 0 34 0 31 0 31 0 34 0 35 0 32 4 34 4 28 4 28 4 34 4 29 4</p>
        </triangles>
      </mesh>
    </geometry>
    <geometry id="geometry_351dc3cf_d310_4043_8286_1389b8e08fef">
      <mesh>
        <source id="pos_2">
          <float_array id="pos_2-array" count="684">-0.16182077 0.005 0.00701656 -0.13213497 0.005 -0.02965462 -0.1368715 0.005 -0.18802895 0.10463575 0.005 -0.17758733 0.10463575 0.005 -0.12839335 0.30000001 0.005 0.30000001 -0.00621468 0.005 -0.12839335 -0.00621468 0.005 -0.17758733 -0.1368715 0.005 -0.2277206 -0.30000001 0.005 0.30000001 -0.21755618 0.005 -0.18802895 -0.30000001 0.005 -0.30000001 -0.21755618 0.005 -0.2277206 -0.05985895 0.005 -0.30000001 0.05412994 0.005 0.10314632 -0.04549157 0.005 0.04048432 -0.04549157 0.005 0.10314632 -0.07517735 0.005 0.0771555 -0.04549157 0.005 0.13856599 0.05985895 0.005 -0.30000001 0.30000001 0.005 -0.30000001 -0.05985895 0.005 0.30000001 0.05985895 0.005 0.30000001 0.05412994 0.005 0.13856599 0.30000001 -0.005 -0.30000001 0.05985895 -0.005 -0.30000001 -0.30000001 -0.005 -0.30000001 -0.05985895 -0.005 -0.30000001 -0.30000001 -0.005 0.30000001 -0.05985895 -0.005 0.30000001 0.30000001 -0.005 0.30000001 0.05985895 -0.005 0.30000001 0.196825 -0.005 0.20549926 0.19835649 -0.005 0.20613363 0.2 -0.005 -0.20635 0.19835649 -0.005 -0.20613363 -0.19835649 -0.005 0.19386637 -0.2 -0.005 0.19365001 -0.2016435 -0.005 -0.19386637 0.2 -0.005 0.19365001 -0.196825 -0.005 0.20549926 -0.19550987 -0.005 0.20449013 -0.19365001 -0.005 0.2 -0.19386637 -0.005 0.19835649 0.19550987 -0.005 -0.20449013 -0.19450074 -0.005 0.196825 -0.19550987 -0.005 0.19550987 -0.20549926 -0.005 -0.196825 -0.20449013 -0.005 -0.19550987 -0.20317499 -0.005 -0.19450074 0.19550987 -0.005 0.19550987 0.19450074 -0.005 0.196825 -0.2 -0.005 0.20635 0.19450074 -0.005 -0.20317499 -0.19450074 -0.005 0.20317499 -0.19386637 -0.005 0.2016435 -0.19365001 -0.005 -0.2 -0.19386637 -0.005 -0.2016435 -0.19450074 -0.005 -0.20317499 -0.19550987 -0.005 -0.20449013 -0.2 -0.005 -0.20635 -0.19835649 -0.005 -0.20613363 -0.196825 -0.005 -0.20549926 -0.19835649 -0.005 0.20613363 0.19835649 -0.005 0.19386637 0.196825 -0.005 0.19450074 -0.2016435 -0.005 -0.20613363 -0.20317499 -0.005 -0.20549926 -0.20449013 -0.005 -0.20449013 -0.20549926 -0.005 -0.20317499 -0.20613363 -0.005 -0.2016435 -0.20635 -0.005 -0.2 -0.196825 -0.005 0.19450074 -0.2 -0.005 -0.19365001 -0.19835649 -0.005 -0.19386637 -0.196825 -0.005 -0.19450074 -0.20317499 -0.005 0.19450074 -0.2016435 -0.005 0.19386637 -0.20613363 -0.005 -0.19835649 0.2016435 -0.005 0.19386637 0.20317499 -0.005 0.19450074 0.20449013 -0.005 0.19550987 0.19450074 -0.005 -0.196825 0.19550987 -0.005 -0.19550987 0.196825 -0.005 -0.19450074 0.19835649 -0.005 -0.19386637 0.196825 -0.005 -0.20549926 -0.19550987 -0.005 -0.19550987 -0.19450074 -0.005 -0.196825 -0.19386637 -0.005 -0.19835649 -0.20449013 -0.005 0.19550987 -0.20549926 -0.005 0.196825 -0.20613363 -0.005 0.19835649 -0.20635 -0.005 0.2 -0.20613363 -0.005 0.2016435 -0.20549926 -0.005 0.20317499 -0.20449013 -0.005 0.20449013 -0.20317499 -0.005 0.20549926 -0.2016435 -0.005 0.20613363 0.2 -0.005 0.20635 0.2016435 -0.005 0.20613363 0.20317499 -0.005 0.20549926 0.20449013 -0.005 0.20449013 0.20549926 -0.005 0.20317499 0.20613363 -0.005 0.2016435 0.20635 -0.005 0.2 0.20613363 -0.005 0.19835649 0.20549926 -0.005 0.196825 0.19386637 -0.005 -0.2016435 0.19365001 -0.005 -0.2 0.19386637 -0.005 -0.19835649 0.19386637 -0.005 0.2016435 0.19450074 -0.005 0.20317499 0.19550987 -0.005 0.20449013 0.20635 -0.005 -0.2 0.20613363 -0.005 -0.2016435 0.20549926 -0.005 -0.20317499 0.20449013 -0.005 -0.20449013 0.20317499 -0.005 -0.20549926 0.2016435 -0.005 -0.20613363 0.19386637 -0.005 0.19835649 0.19365001 -0.005 0.2 0.2 -0.005 -0.19365001 0.2016435 -0.005 -0.19386637 0.20317499 -0.005 -0.19450074 0.20449013 -0.005 -0.19550987 0.20549926 -0.005 -0.196825 0.20613363 -0.005 -0.19835649 -0.19835649 -0.60500002 0.20613363 -0.196825 -0.60500002 0.20549926 -0.19550987 -0.60500002 0.20449013 -0.19450074 -0.60500002 0.20317499 -0.19386637 -0.60500002 0.2016435 -0.19365001 -0.60500002 0.2 -0.19386637 -0.60500002 0.19835649 -0.19450074 -0.60500002 0.196825 -0.19550987 -0.60500002 0.19550987 -0.196825 -0.60500002 0.19450074 -0.19835649 -0.60500002 0.19386637 -0.2 -0.60500002 0.19365001 -0.2016435 -0.60500002 0.19386637 -0.20317499 -0.60500002 0.19450074 -0.20449013 -0.60500002 0.19550987 -0.20549926 -0.60500002 0.196825 -0.20613363 -0.60500002 0.19835649 -0.20635 -0.60500002 0.2 -0.20613363 -0.60500002 0.2016435 -0.20549926 -0.60500002 0.20317499 -0.20449013 -0.60500002 0.20449013 -0.20317499 -0.60500002 0.20549926 -0.2016435 -0.60500002 0.20613363 -0.2 -0.60500002 0.20635 -0.2 -0.60500002 0.2 0.2016435 -0.60500002 0.20613363 0.20317499 -0.60500002 0.20549926 0.20449013 -0.60500002 0.20449013 0.20549926 -0.60500002 0.20317499 0.20613363 -0.60500002 0.2016435 0.20635 -0.60500002 0.2 0.20613363 -0.60500002 0.19835649 0.20549926 -0.60500002 0.196825 0.20449013 -0.60500002 0.19550987 0.20317499 -0.60500002 0.19450074 0.2016435 -0.60500002 0.19386637 0.2 -0.60500002 0.19365001 0.19835649 -0.60500002 0.19386637 0.196825 -0.60500002 0.19450074 0.19550987 -0.60500002 0.19550987 0.19450074 -0.60500002 0.196825 0.19386637 -0.60500002 0.19835649 0.19365001 -0.60500002 0.2 0.19386637 -0.60500002 0.2016435 0.19450074 -0.60500002 0.20317499 0.19550987 -0.60500002 0.20449013 0.196825 -0.60500002 0.20549926 0.19835649 -0.60500002 0.20613363 0.2 -0.60500002 0.20635 0.2 -0.60500002 0.2 0.2016435 -0.60500002 -0.19386637 0.20317499 -0.60500002 -0.19450074 0.20449013 -0.60500002 -0.19550987 0.20549926 -0.60500002 -0.196825 0.20613363 -0.60500002 -0.19835649 0.20635 -0.60500002 -0.2 0.20613363 -0.60500002 -0.2016435 0.20549926 -0.60500002 -0.20317499 0.20449013 -0.60500002 -0.20449013 0.20317499 -0.60500002 -0.20549926 0.2016435 -0.60500002 -0.20613363 0.2 -0.60500002 -0.20635 0.19835649 -0.60500002 -0.20613363 0.196825 -0.60500002 -0.20549926 0.19550987 -0.60500002 -0.20449013 0.19450074 -0.60500002 -0.20317499 0.19386637 -0.60500002 -0.2016435 0.19365001 -0.60500002 -0.2 0.19386637 -0.60500002 -0.19835649 0.19450074 -0.60500002 -0.196825 0.19550987 -0.60500002 -0.19550987 0.196825 -0.60500002 -0.19450074 0.19835649 -0.60500002 -0.19386637 0.2 -0.60500002 -0.19365001 0.2 -0.60500002 -0.2 -0.19835649 -0.60500002 -0.19386637 -0.196825 -0.60500002 -0.19450074 -0.19550987 -0.60500002 -0.19550987 -0.19450074 -0.60500002 -0.196825 -0.19386637 -0.60500002 -0.19835649 -0.19365001 -0.60500002 -0.2 -0.19386637 -0.60500002 -0.2016435 -0.19450074 -0.60500002 -0.20317499 -0.19550987 -0.60500002 -0.20449013 -0.196825 -0.60500002 -0.20549926 -0.19835649 -0.60500002 -0.20613363 -0.2 -0.60500002 -0.20635 -0.2016435 -0.60500002 -0.20613363 -0.20317499 -0.60500002 -0.20549926 -0.20449013 -0.60500002 -0.20449013 -0.20549926 -0.60500002 -0.20317499 -0.20613363 -0.60500002 -0.2016435 -0.20635 -0.60500002 -0.2 -0.20613363 -0.60500002 -0.19835649 -0.20549926 -0.60500002 -0.196825 -0.20449013 -0.60500002 -0.19550987 -0.20317499 -0.60500002 -0.19450074 -0.2016435 -0.60500002 -0.19386637 -0.2 -0.60500002 -0.19365001 -0.2 -0.60500002 -0.2</float_array>
          <technique_common>
            <accessor source="#pos_2-array" count="684" stride="3">
              <param name="X" type="float"/>
              <param name="Y" type="float"/>
              <param name="Z" type="float"/>
            </accessor>
          </technique_common>
        </source>
        <source id="norm_2">
          <float_array id="norm_2-array" count="90">0 1 0 0 0 -1 0 0 1 -1 0 0 1 0 0 0 -1 0 0 0 1 0.25882 0 0.96593 0.5 0 0.86603 0.70711 0 0.70711 0.86603 0 0.5 0.96593 0 0.25882 1 0 0 0.96593 0 -0.25882 0.86603 0 -0.5 0.70711 0 -0.70711 0.5 0 -0.86603 0.25882 0 -0.96593 0 0 -1 -0.25882 0 -0.96593 -0.5 0 -0.86603 -0.70711 0 -0.70711 -0.86603 0 -0.5 -0.96593 0 -0.25882 -1 0 -0 -0.96593 0 0.25882 -0.86603 0 0.5 -0.70711 0 0.70711 -0.5 0 0.86603 -0.25882 0 0.96593</float_array>
          <technique_common>
            <accessor source="#norm_2-array" count="90" stride="3">
              <param name="X" type="float"/>
              <param name="Y" type="float"/>
              <param name="Z" type="float"/>
            </accessor>
          </technique_common>
        </source>
        <vertices id="vert_2">
          <input semantic="POSITION" source="#pos_2"/>
        </vertices>
        <triangles count="440" material="mat_2">
          <input semantic="VERTEX" source="#vert_2" offset="0"/>
          <input semantic="NORMAL" source="#norm_2" offset="1"/>
          <p>0 0 1 0 2 0 3 0 4 0 5 0 5 0 4 0 6 0 5 0 6 0 2 0 2 0 6 0 7 0 2 0 7 0 8 0 9 0 10 0 11 0 11 0 10 0 12 0 11 0 12 0 13 0 14 0 15 0 16 0 16 0 15 0 17 0 16 0 17 0 18 0 12 0 8 0 13 0 13 0 8 0 7 0 13 0 7 0 19 0 19 0 7 0 3 0 19 0 3 0 20 0 20 0 3 0 5 0 2 0 10 0 0 0 0 0 10 0 9 0 0 0 9 0 17 0 17 0 9 0 21 0 17 0 21 0 18 0 18 0 21 0 22 0 18 0 22 0 23 0 23 0 22 0 5 0 23 0 5 0 14 0 14 0 5 0 2 0 14 0 2 0 15 0 15 0 2 0 1 0 20 1 24 1 19 1 19 1 24 1 25 1 26 1 11 1 27 1 27 1 11 1 13 1 9 2 28 2 21 2 21 2 28 2 29 2 30 2 5 2 31 2 31 2 5 2 22 2 9 3 11 3 28 3 28 3 11 3 26 3 20 4 5 4 24 4 24 4 5 4 30 4 32 5 33 5 31 5 24 5 34 5 25 5 25 5 34 5 35 5 36 5 37 5 38 5 39 5 40 5 41 5 42 5 43 5 44 5 44 5 43 5 45 5 44 5 45 5 46 5 47 5 48 5 37 5 37 5 48 5 49 5 37 5 49 5 38 5 50 5 51 5 52 5 31 5 33 5 30 5 53 5 41 5 54 5 53 5 54 5 44 5 44 5 54 5 55 5 44 5 55 5 42 5 56 5 57 5 27 5 27 5 57 5 58 5 27 5 58 5 59 5 60 5 26 5 61 5 61 5 26 5 27 5 61 5 27 5 62 5 62 5 27 5 59 5 40 5 39 5 63 5 63 5 39 5 64 5 63 5 64 5 52 5 52 5 64 5 65 5 52 5 65 5 50 5 60 5 66 5 26 5 26 5 66 5 67 5 26 5 67 5 68 5 68 5 69 5 26 5 26 5 69 5 70 5 26 5 70 5 71 5 36 5 27 5 72 5 72 5 27 5 25 5 38 5 73 5 36 5 36 5 73 5 74 5 36 5 74 5 75 5 76 5 26 5 77 5 77 5 26 5 71 5 77 5 71 5 37 5 37 5 71 5 78 5 37 5 78 5 47 5 79 5 24 5 80 5 80 5 24 5 81 5 82 5 83 5 39 5 83 5 84 5 39 5 39 5 84 5 85 5 39 5 85 5 79 5 46 5 72 5 44 5 44 5 72 5 25 5 44 5 25 5 86 5 86 5 25 5 35 5 75 5 87 5 36 5 36 5 87 5 88 5 36 5 88 5 27 5 27 5 88 5 89 5 27 5 89 5 56 5 76 5 90 5 26 5 26 5 90 5 91 5 26 5 91 5 28 5 28 5 91 5 92 5 28 5 92 5 93 5 93 5 94 5 28 5 28 5 94 5 95 5 28 5 95 5 96 5 96 5 97 5 28 5 28 5 97 5 98 5 28 5 98 5 52 5 33 5 99 5 30 5 30 5 99 5 100 5 30 5 100 5 101 5 101 5 102 5 30 5 30 5 102 5 103 5 30 5 103 5 104 5 104 5 105 5 30 5 30 5 105 5 106 5 30 5 106 5 24 5 24 5 106 5 107 5 24 5 107 5 81 5 53 5 108 5 41 5 41 5 108 5 109 5 41 5 109 5 39 5 39 5 109 5 110 5 39 5 110 5 82 5 111 5 112 5 31 5 31 5 112 5 113 5 31 5 113 5 32 5 114 5 115 5 24 5 24 5 115 5 116 5 24 5 116 5 117 5 117 5 118 5 24 5 24 5 118 5 119 5 24 5 119 5 34 5 51 5 120 5 52 5 52 5 120 5 121 5 52 5 121 5 28 5 28 5 121 5 111 5 28 5 111 5 29 5 29 5 111 5 31 5 85 5 122 5 79 5 79 5 122 5 123 5 79 5 123 5 124 5 124 5 125 5 79 5 79 5 125 5 126 5 79 5 126 5 24 5 24 5 126 5 127 5 24 5 127 5 114 5 52 6 128 7 63 7 63 7 128 7 129 8 63 7 129 8 40 8 40 8 129 8 130 9 40 8 130 9 41 9 41 9 130 9 131 10 41 9 131 10 54 10 54 10 131 10 132 11 54 10 132 11 55 11 55 11 132 11 133 12 55 11 133 12 42 12 42 12 133 12 134 13 42 12 134 13 43 13 43 13 134 13 135 14 43 13 135 14 45 14 45 14 135 14 136 15 45 14 136 15 46 15 46 15 136 15 137 16 46 15 137 16 72 16 72 16 137 16 138 17 72 16 138 17 36 17 36 17 138 17 139 18 36 17 139 18 37 18 37 18 139 18 140 19 37 18 140 19 77 19 77 19 140 19 141 20 77 19 141 20 76 20 76 20 141 20 142 21 76 20 142 21 90 21 90 21 142 21 143 22 90 21 143 22 91 22 91 22 143 22 144 23 91 22 144 23 92 23 92 23 144 23 145 24 92 23 145 24 93 24 93 24 145 24 146 25 93 24 146 25 94 25 94 25 146 25 147 26 94 25 147 26 95 26 95 26 147 26 148 27 95 26 148 27 96 27 96 27 148 27 149 28 96 27 149 28 97 28 97 28 149 28 150 29 97 28 150 29 98 29 98 29 150 29 151 6 98 29 151 6 52 6 52 6 151 6 128 7 141 5 140 5 152 5 152 5 140 5 139 5 152 5 139 5 138 5 144 5 143 5 152 5 152 5 143 5 142 5 152 5 142 5 141 5 147 5 146 5 152 5 152 5 146 5 145 5 152 5 145 5 144 5 150 5 149 5 152 5 152 5 149 5 148 5 152 5 148 5 147 5 129 5 128 5 152 5 152 5 128 5 151 5 152 5 151 5 150 5 132 5 131 5 152 5 152 5 131 5 130 5 152 5 130 5 129 5 135 5 134 5 152 5 152 5 134 5 133 5 152 5 133 5 132 5 138 5 137 5 152 5 152 5 137 5 136 5 152 5 136 5 135 5 99 6 153 7 100 7 100 7 153 7 154 8 100 7 154 8 101 8 101 8 154 8 155 9 101 8 155 9 102 9 102 9 155 9 156 10 102 9 156 10 103 10 103 10 156 10 157 11 103 10 157 11 104 11 104 11 157 11 158 12 104 11 158 12 105 12 105 12 158 12 159 13 105 12 159 13 106 13 106 13 159 13 160 14 106 13 160 14 107 14 107 14 160 14 161 15 107 14 161 15 81 15 81 15 161 15 162 16 81 15 162 16 80 16 80 16 162 16 163 17 80 16 163 17 79 17 79 17 163 17 164 18 79 17 164 18 39 18 39 18 164 18 165 19 39 18 165 19 64 19 64 19 165 19 166 20 64 19 166 20 65 20 65 20 166 20 167 21 65 20 167 21 50 21 50 21 167 21 168 22 50 21 168 22 51 22 51 22 168 22 169 23 51 22 169 23 120 23 120 23 169 23 170 24 120 23 170 24 121 24 121 24 170 24 171 25 121 24 171 25 111 25 111 25 171 25 172 26 111 25 172 26 112 26 112 26 172 26 173 27 112 26 173 27 113 27 113 27 173 27 174 28 113 27 174 28 32 28 32 28 174 28 175 29 32 28 175 29 33 29 33 29 175 29 176 6 33 29 176 6 99 6 99 6 176 6 153 7 166 5 165 5 177 5 177 5 165 5 164 5 177 5 164 5 163 5 169 5 168 5 177 5 177 5 168 5 167 5 177 5 167 5 166 5 172 5 171 5 177 5 177 5 171 5 170 5 177 5 170 5 169 5 175 5 174 5 177 5 177 5 174 5 173 5 177 5 173 5 172 5 154 5 153 5 177 5 177 5 153 5 176 5 177 5 176 5 175 5 157 5 156 5 177 5 177 5 156 5 155 5 177 5 155 5 154 5 160 5 159 5 177 5 177 5 159 5 158 5 177 5 158 5 157 5 163 5 162 5 177 5 177 5 162 5 161 5 177 5 161 5 160 5 122 6 178 7 123 7 123 7 178 7 179 8 123 7 179 8 124 8 124 8 179 8 180 9 124 8 180 9 125 9 125 9 180 9 181 10 125 9 181 10 126 10 126 10 181 10 182 11 126 10 182 11 127 11 127 11 182 11 183 12 127 11 183 12 114 12 114 12 183 12 184 13 114 12 184 13 115 13 115 13 184 13 185 14 115 13 185 14 116 14 116 14 185 14 186 15 116 14 186 15 117 15 117 15 186 15 187 16 117 15 187 16 118 16 118 16 187 16 188 17 118 16 188 17 119 17 119 17 188 17 189 18 119 17 189 18 34 18 34 18 189 18 190 19 34 18 190 19 35 19 35 19 190 19 191 20 35 19 191 20 86 20 86 20 191 20 192 21 86 20 192 21 44 21 44 21 192 21 193 22 44 21 193 22 53 22 53 22 193 22 194 23 53 22 194 23 108 23 108 23 194 23 195 24 108 23 195 24 109 24 109 24 195 24 196 25 109 24 196 25 110 25 110 25 196 25 197 26 110 25 197 26 82 26 82 26 197 26 198 27 82 26 198 27 83 27 83 27 198 27 199 28 83 27 199 28 84 28 84 28 199 28 200 29 84 28 200 29 85 29 85 29 200 29 201 6 85 29 201 6 122 6 122 6 201 6 178 7 191 5 190 5 202 5 202 5 190 5 189 5 202 5 189 5 188 5 194 5 193 5 202 5 202 5 193 5 192 5 202 5 192 5 191 5 197 5 196 5 202 5 202 5 196 5 195 5 202 5 195 5 194 5 200 5 199 5 202 5 202 5 199 5 198 5 202 5 198 5 197 5 179 5 178 5 202 5 202 5 178 5 201 5 202 5 201 5 200 5 182 5 181 5 202 5 202 5 181 5 180 5 202 5 180 5 179 5 185 5 184 5 202 5 202 5 184 5 183 5 202 5 183 5 182 5 188 5 187 5 202 5 202 5 187 5 186 5 202 5 186 5 185 5 73 6 203 7 74 7 74 7 203 7 204 8 74 7 204 8 75 8 75 8 204 8 205 9 75 8 205 9 87 9 87 9 205 9 206 10 87 9 206 10 88 10 88 10 206 10 207 11 88 10 207 11 89 11 89 11 207 11 208 12 89 11 208 12 56 12 56 12 208 12 209 13 56 12 209 13 57 13 57 13 209 13 210 14 57 13 210 14 58 14 58 14 210 14 211 15 58 14 211 15 59 15 59 15 211 15 212 16 59 15 212 16 62 16 62 16 212 16 213 17 62 16 213 17 61 17 61 17 213 17 214 18 61 17 214 18 60 18 60 18 214 18 215 19 60 18 215 19 66 19 66 19 215 19 216 20 66 19 216 20 67 20 67 20 216 20 217 21 67 20 217 21 68 21 68 21 217 21 218 22 68 21 218 22 69 22 69 22 218 22 219 23 69 22 219 23 70 23 70 23 219 23 220 24 70 23 220 24 71 24 71 24 220 24 221 25 71 24 221 25 78 25 78 25 221 25 222 26 78 25 222 26 47 26 47 26 222 26 223 27 47 26 223 27 48 27 48 27 223 27 224 28 48 27 224 28 49 28 49 28 224 28 225 29 49 28 225 29 38 29 38 29 225 29 226 6 38 29 226 6 73 6 73 6 226 6 203 7 216 5 215 5 227 5 227 5 215 5 214 5 227 5 214 5 213 5 219 5 218 5 227 5 227 5 218 5 217 5 227 5 217 5 216 5 222 5 221 5 227 5 227 5 221 5 220 5 227 5 220 5 219 5 225 5 224 5 227 5 227 5 224 5 223 5 227 5 223 5 222 5 204 5 203 5 227 5 227 5 203 5 226 5 227 5 226 5 225 5 207 5 206 5 227 5 227 5 206 5 205 5 227 5 205 5 204 5 210 5 209 5 227 5 227 5 209 5 208 5 227 5 208 5 207 5 213 5 212 5 227 5 227 5 212 5 211 5 227 5 211 5 210 5</p>
        </triangles>
      </mesh>
    </geometry>
  </library_geometries>
  <library_visual_scenes>
    <visual_scene id="DefaultScene">
      <node id="node_eac96a93_bcdb_4a99_96e5_c1f7f854272e" type="NODE">
        <matrix>1 0 0 0 0 1 0 0 0 0 1 0 0 0 0 1</matrix>
        <node id="node_dc4e7dac_fa3c_42f7_9ff6_a740b9a33a5c" type="NODE">
          <matrix>1 0 0 0 0 1 0 0 0 0 1 0 0 0 0 1</matrix>
          <node id="node_31bb63ad_6134_424e_ba4f_bab0319da715" type="NODE">
            <matrix>0.9664479494094849 -0.1763169765472412 0.18679052591323853 0.5204757452011108 0.04371177777647972 0.8294867277145386 0.5568132400512695 1.2639623880386353 -0.2531158924102783 -0.5299661159515381 0.8093628883361816 2.2552201747894287 0 0 0 1</matrix>
          </node>
          <node id="node_d07c4db0_5beb_42dd_b869_9fc465ded134" type="NODE">
            <matrix>1 0 0 0 0 1 0 0 0 0 1 0 0 0 0 1</matrix>
            <node id="node_d07c4db0_5beb_42dd_b869_9fc465ded134_mesh0" type="NODE">
              <matrix>1 0 0 0 0 1 0 0 0 0 1 0 0 0 0 1</matrix>
              <instance_geometry url="#geometry_d9a8c58c_de3f_4fae_bb49_0c71db78e62e">
                <bind_material>
                  <technique_common>
                    <instance_material symbol="mat_0" target="#mat_0"/>
                  </technique_common>
                </bind_material>
              </instance_geometry>
            </node>
            <node id="node_d07c4db0_5beb_42dd_b869_9fc465ded134_mesh1" type="NODE">
              <matrix>1 0 0 0 0 1 0 0 0 0 1 0 0 0 0 1</matrix>
              <instance_geometry url="#geometry_3f841f31_aee3_465c_a076_e4312ffe026f">
                <bind_material>
                  <technique_common>
                    <instance_material symbol="mat_1" target="#mat_1"/>
                  </technique_common>
                </bind_material>
              </instance_geometry>
            </node>
            <node id="node_d07c4db0_5beb_42dd_b869_9fc465ded134_mesh2" type="NODE">
              <matrix>1 0 0 0 0 1 0 0 0 0 1 0 0 0 0 1</matrix>
              <instance_geometry url="#geometry_351dc3cf_d310_4043_8286_1389b8e08fef">
                <bind_material>
                  <technique_common>
                    <instance_material symbol="mat_2" target="#mat_2"/>
                  </technique_common>
                </bind_material>
              </instance_geometry>
            </node>
          </node>
        </node>
      </node>
    </visual_scene>
  </library_visual_scenes>
  <scene>
    <instance_visual_scene url="#DefaultScene"/>
  </scene>
</COLLADA>
