#
# Bunkspeed OBJ File
# http://www.bunkspeed.com
#
mtllib mesa.mtl

##########################
g Root|Mesa_(Predeterminado)|Predeterminado|Predeterminado_-_Part
##########################
v -0.1618208 0.6103 0.007016558
v -0.132135 0.6103 -0.02965462
v -0.1368715 0.6103 -0.1880289
v 0.1046358 0.6103 -0.1775873
v 0.1046358 0.6103 -0.1283934
v 0.3 0.6103 0.3
v -0.006214681 0.6103 -0.1283934
v -0.1368715 0.6103 -0.1880289
v -0.006214681 0.6103 -0.1775873
v -0.1368715 0.6103 -0.2277206
v -0.3 0.6103 0.3
v -0.2175562 0.6103 -0.1880289
v -0.3 0.6103 -0.3
v -0.2175562 0.6103 -0.2277206
v -0.05985895 0.6103 -0.3
v 0.05412994 0.6103 0.1031463
v -0.04549157 0.6103 0.04048432
v -0.04549157 0.6103 0.1031463
v -0.07517735 0.6103 0.0771555
v -0.04549157 0.6103 0.138566
v -0.2175562 0.6103 -0.2277206
v -0.1368715 0.6103 -0.2277206
v -0.05985895 0.6103 -0.3
v -0.006214681 0.6103 -0.1775873
v 0.05985895 0.6103 -0.3
v 0.1046358 0.6103 -0.1775873
v 0.3 0.6103 -0.3
v 0.3 0.6103 0.3
v -0.1368715 0.6103 -0.1880289
v -0.2175562 0.6103 -0.1880289
v -0.1618208 0.6103 0.007016558
v -0.3 0.6103 0.3
v -0.07517735 0.6103 0.0771555
v -0.05985895 0.6103 0.3
v -0.04549157 0.6103 0.138566
v 0.05985895 0.6103 0.3
v 0.05412994 0.6103 0.138566
v 0.3 0.6103 0.3
v 0.05412994 0.6103 0.1031463
v -0.1368715 0.6103 -0.1880289
v -0.04549157 0.6103 0.04048432
v -0.132135 0.6103 -0.02965462
v 0.3 0.6103 -0.3
v 0.3 0.6003 -0.3
v 0.05985895 0.6103 -0.3
v 0.05985895 0.6003 -0.3
v -0.3 0.6003 -0.3
v -0.3 0.6103 -0.3
v -0.05985895 0.6003 -0.3
v -0.05985895 0.6103 -0.3
v -0.3 0.6103 0.3
v -0.3 0.6003 0.3
v -0.05985895 0.6103 0.3
v -0.05985895 0.6003 0.3
v 0.3 0.6003 0.3
v 0.3 0.6103 0.3
v 0.05985895 0.6003 0.3
v 0.05985895 0.6103 0.3
v -0.3 0.6103 0.3
v -0.3 0.6103 -0.3
v -0.3 0.6003 0.3
v -0.3 0.6003 -0.3
v 0.3 0.6103 -0.3
v 0.3 0.6103 0.3
v 0.3 0.6003 -0.3
v 0.3 0.6003 0.3
v 0.196825 0.6003 0.2054993
v 0.1983565 0.6003 0.2061336
v 0.05985895 0.6003 0.3
v 0.3 0.6003 -0.3
v 0.2 0.6003 -0.20635
v 0.05985895 0.6003 -0.3
v 0.1983565 0.6003 -0.2061336
v -0.1983565 0.6003 0.1938664
v -0.2 0.6003 0.19365
v -0.2016435 0.6003 -0.1938664
v 0.2 0.6003 0.19365
v -0.196825 0.6003 0.2054993
v -0.1955099 0.6003 0.2044901
v -0.19365 0.6003 0.2
v -0.1938664 0.6003 0.1983565
v 0.1955099 0.6003 -0.2044901
v -0.1945007 0.6003 0.196825
v -0.1955099 0.6003 0.1955099
v -0.2054993 0.6003 -0.196825
v -0.2044901 0.6003 -0.1955099
v -0.2 0.6003 0.19365
v -0.203175 0.6003 -0.1945007
v -0.2016435 0.6003 -0.1938664
v 0.1955099 0.6003 0.1955099
v 0.1945007 0.6003 0.196825
v -0.2 0.6003 0.20635
v 0.05985895 0.6003 0.3
v 0.1983565 0.6003 0.2061336
v 0.3 0.6003 0.3
v 0.1945007 0.6003 -0.203175
v -0.1955099 0.6003 0.2044901
v -0.1945007 0.6003 0.203175
v 0.1945007 0.6003 -0.203175
v -0.1945007 0.6003 0.203175
v 0.1955099 0.6003 -0.2044901
v -0.1938664 0.6003 0.2016435
v -0.19365 0.6003 0.2
v -0.19365 0.6003 -0.2
v -0.1938664 0.6003 -0.2016435
v -0.05985895 0.6003 -0.3
v -0.1945007 0.6003 -0.203175
v -0.1955099 0.6003 -0.2044901
v -0.2 0.6003 -0.20635
v -0.3 0.6003 -0.3
v -0.1983565 0.6003 -0.2061336
v -0.05985895 0.6003 -0.3
v -0.196825 0.6003 -0.2054993
v -0.1955099 0.6003 -0.2044901
v -0.196825 0.6003 0.2054993
v 0.2 0.6003 0.19365
v -0.1983565 0.6003 0.2061336
v 0.1983565 0.6003 0.1938664
v -0.2 0.6003 0.20635
v 0.196825 0.6003 0.1945007
v 0.1955099 0.6003 0.1955099
v -0.2 0.6003 -0.20635
v -0.2016435 0.6003 -0.2061336
v -0.3 0.6003 -0.3
v -0.203175 0.6003 -0.2054993
v -0.2044901 0.6003 -0.2044901
v -0.2044901 0.6003 -0.2044901
v -0.2054993 0.6003 -0.203175
v -0.3 0.6003 -0.3
v -0.2061336 0.6003 -0.2016435
v -0.20635 0.6003 -0.2
v -0.1983565 0.6003 0.1938664
v -0.05985895 0.6003 -0.3
v -0.196825 0.6003 0.1945007
v 0.05985895 0.6003 -0.3
v -0.2016435 0.6003 -0.1938664
v -0.2 0.6003 -0.19365
v -0.1983565 0.6003 0.1938664
v -0.1983565 0.6003 -0.1938664
v -0.196825 0.6003 -0.1945007
v -0.203175 0.6003 0.1945007
v -0.3 0.6003 -0.3
v -0.2016435 0.6003 0.1938664
v -0.20635 0.6003 -0.2
v -0.2 0.6003 0.19365
v -0.2061336 0.6003 -0.1983565
v -0.2054993 0.6003 -0.196825
v 0.2016435 0.6003 0.1938664
v 0.3 0.6003 -0.3
v 0.203175 0.6003 0.1945007
v 0.2044901 0.6003 0.1955099
v 0.1945007 0.6003 -0.196825
v 0.1955099 0.6003 -0.1955099
v 0.2 0.6003 0.19365
v 0.1955099 0.6003 -0.1955099
v 0.196825 0.6003 -0.1945007
v 0.2 0.6003 0.19365
v 0.1983565 0.6003 -0.1938664
v 0.2016435 0.6003 0.1938664
v -0.1955099 0.6003 0.1955099
v -0.196825 0.6003 0.1945007
v 0.1955099 0.6003 -0.2044901
v 0.05985895 0.6003 -0.3
v 0.196825 0.6003 -0.2054993
v 0.1983565 0.6003 -0.2061336
v -0.196825 0.6003 -0.1945007
v -0.1955099 0.6003 -0.1955099
v -0.1983565 0.6003 0.1938664
v -0.1945007 0.6003 -0.196825
v -0.05985895 0.6003 -0.3
v -0.1938664 0.6003 -0.1983565
v -0.19365 0.6003 -0.2
v -0.203175 0.6003 0.1945007
v -0.2044901 0.6003 0.1955099
v -0.3 0.6003 -0.3
v -0.2054993 0.6003 0.196825
v -0.3 0.6003 0.3
v -0.2061336 0.6003 0.1983565
v -0.20635 0.6003 0.2
v -0.20635 0.6003 0.2
v -0.2061336 0.6003 0.2016435
v -0.3 0.6003 0.3
v -0.2054993 0.6003 0.203175
v -0.2044901 0.6003 0.2044901
v -0.2044901 0.6003 0.2044901
v -0.203175 0.6003 0.2054993
v -0.3 0.6003 0.3
v -0.2016435 0.6003 0.2061336
v -0.2 0.6003 0.20635
v 0.1983565 0.6003 0.2061336
v 0.2 0.6003 0.20635
v 0.3 0.6003 0.3
v 0.2016435 0.6003 0.2061336
v 0.203175 0.6003 0.2054993
v 0.203175 0.6003 0.2054993
v 0.2044901 0.6003 0.2044901
v 0.3 0.6003 0.3
v 0.2054993 0.6003 0.203175
v 0.2061336 0.6003 0.2016435
v 0.2061336 0.6003 0.2016435
v 0.20635 0.6003 0.2
v 0.3 0.6003 0.3
v 0.2061336 0.6003 0.1983565
v 0.3 0.6003 -0.3
v 0.2054993 0.6003 0.196825
v 0.2044901 0.6003 0.1955099
v 0.1945007 0.6003 -0.203175
v 0.1938664 0.6003 -0.2016435
v -0.1955099 0.6003 0.2044901
v 0.19365 0.6003 -0.2
v 0.2 0.6003 0.19365
v 0.1938664 0.6003 -0.1983565
v 0.1945007 0.6003 -0.196825
v 0.1938664 0.6003 0.2016435
v 0.1945007 0.6003 0.203175
v 0.05985895 0.6003 0.3
v 0.1955099 0.6003 0.2044901
v 0.196825 0.6003 0.2054993
v 0.20635 0.6003 -0.2
v 0.2061336 0.6003 -0.2016435
v 0.3 0.6003 -0.3
v 0.2054993 0.6003 -0.203175
v 0.2044901 0.6003 -0.2044901
v 0.2044901 0.6003 -0.2044901
v 0.203175 0.6003 -0.2054993
v 0.3 0.6003 -0.3
v 0.2016435 0.6003 -0.2061336
v 0.2 0.6003 -0.20635
v 0.1945007 0.6003 0.196825
v 0.1938664 0.6003 0.1983565
v -0.2 0.6003 0.20635
v 0.19365 0.6003 0.2
v -0.3 0.6003 0.3
v 0.1938664 0.6003 0.2016435
v -0.05985895 0.6003 0.3
v 0.05985895 0.6003 0.3
v 0.1983565 0.6003 -0.1938664
v 0.2 0.6003 -0.19365
v 0.2016435 0.6003 0.1938664
v 0.2016435 0.6003 -0.1938664
v 0.203175 0.6003 -0.1945007
v 0.203175 0.6003 -0.1945007
v 0.2044901 0.6003 -0.1955099
v 0.2016435 0.6003 0.1938664
v 0.2054993 0.6003 -0.196825
v 0.3 0.6003 -0.3
v 0.2061336 0.6003 -0.1983565
v 0.20635 0.6003 -0.2
v -0.2 0.6003 0.20635
v -0.1983565 0.0002999902 0.2061336
v -0.1983565 0.6003 0.2061336
v -0.196825 0.0002999902 0.2054993
v -0.196825 0.6003 0.2054993
v -0.1955099 0.0002999902 0.2044901
v -0.1955099 0.6003 0.2044901
v -0.1945007 0.0002999902 0.203175
v -0.1945007 0.6003 0.203175
v -0.1938664 0.0002999902 0.2016435
v -0.1938664 0.6003 0.2016435
v -0.19365 0.0002999902 0.2
v -0.19365 0.6003 0.2
v -0.1938664 0.0002999902 0.1983565
v -0.1938664 0.6003 0.1983565
v -0.1945007 0.0002999902 0.196825
v -0.1945007 0.6003 0.196825
v -0.1955099 0.0002999902 0.1955099
v -0.1955099 0.6003 0.1955099
v -0.196825 0.0002999902 0.1945007
v -0.196825 0.6003 0.1945007
v -0.1983565 0.0002999902 0.1938664
v -0.1983565 0.6003 0.1938664
v -0.2 0.0002999902 0.19365
v -0.2 0.6003 0.19365
v -0.2016435 0.0002999902 0.1938664
v -0.2016435 0.6003 0.1938664
v -0.203175 0.0002999902 0.1945007
v -0.203175 0.6003 0.1945007
v -0.2044901 0.0002999902 0.1955099
v -0.2044901 0.6003 0.1955099
v -0.2054993 0.0002999902 0.196825
v -0.2054993 0.6003 0.196825
v -0.2061336 0.0002999902 0.1983565
v -0.2061336 0.6003 0.1983565
v -0.20635 0.0002999902 0.2
v -0.20635 0.6003 0.2
v -0.2061336 0.0002999902 0.2016435
v -0.2061336 0.6003 0.2016435
v -0.2054993 0.0002999902 0.203175
v -0.2054993 0.6003 0.203175
v -0.2044901 0.0002999902 0.2044901
v -0.2044901 0.6003 0.2044901
v -0.203175 0.0002999902 0.2054993
v -0.203175 0.6003 0.2054993
v -0.2016435 0.0002999902 0.2061336
v -0.2016435 0.6003 0.2061336
v -0.2 0.0002999902 0.20635
v -0.2 0.6003 0.20635
v -0.1983565 0.0002999902 0.2061336
v -0.203175 0.0002999902 0.1945007
v -0.2016435 0.0002999902 0.1938664
v -0.2 0.0002999902 0.2
v -0.2 0.0002999902 0.19365
v -0.1983565 0.0002999902 0.1938664
v -0.2061336 0.0002999902 0.1983565
v -0.2054993 0.0002999902 0.196825
v -0.2 0.0002999902 0.2
v -0.2044901 0.0002999902 0.1955099
v -0.203175 0.0002999902 0.1945007
v -0.2054993 0.0002999902 0.203175
v -0.2061336 0.0002999902 0.2016435
v -0.2 0.0002999902 0.2
v -0.20635 0.0002999902 0.2
v -0.2061336 0.0002999902 0.1983565
v -0.2016435 0.0002999902 0.2061336
v -0.203175 0.0002999902 0.2054993
v -0.2 0.0002999902 0.2
v -0.2044901 0.0002999902 0.2044901
v -0.2054993 0.0002999902 0.203175
v -0.196825 0.0002999902 0.2054993
v -0.1983565 0.0002999902 0.2061336
v -0.2 0.0002999902 0.2
v -0.2 0.0002999902 0.20635
v -0.2016435 0.0002999902 0.2061336
v -0.1938664 0.0002999902 0.2016435
v -0.1945007 0.0002999902 0.203175
v -0.2 0.0002999902 0.2
v -0.1955099 0.0002999902 0.2044901
v -0.196825 0.0002999902 0.2054993
v -0.1945007 0.0002999902 0.196825
v -0.1938664 0.0002999902 0.1983565
v -0.2 0.0002999902 0.2
v -0.19365 0.0002999902 0.2
v -0.1938664 0.0002999902 0.2016435
v -0.1983565 0.0002999902 0.1938664
v -0.196825 0.0002999902 0.1945007
v -0.2 0.0002999902 0.2
v -0.1955099 0.0002999902 0.1955099
v -0.1945007 0.0002999902 0.196825
v 0.2 0.6003 0.20635
v 0.2016435 0.0002999902 0.2061336
v 0.2016435 0.6003 0.2061336
v 0.203175 0.0002999902 0.2054993
v 0.203175 0.6003 0.2054993
v 0.2044901 0.0002999902 0.2044901
v 0.2044901 0.6003 0.2044901
v 0.2054993 0.0002999902 0.203175
v 0.2054993 0.6003 0.203175
v 0.2061336 0.0002999902 0.2016435
v 0.2061336 0.6003 0.2016435
v 0.20635 0.0002999902 0.2
v 0.20635 0.6003 0.2
v 0.2061336 0.0002999902 0.1983565
v 0.2061336 0.6003 0.1983565
v 0.2054993 0.0002999902 0.196825
v 0.2054993 0.6003 0.196825
v 0.2044901 0.0002999902 0.1955099
v 0.2044901 0.6003 0.1955099
v 0.203175 0.0002999902 0.1945007
v 0.203175 0.6003 0.1945007
v 0.2016435 0.0002999902 0.1938664
v 0.2016435 0.6003 0.1938664
v 0.2 0.0002999902 0.19365
v 0.2 0.6003 0.19365
v 0.1983565 0.0002999902 0.1938664
v 0.1983565 0.6003 0.1938664
v 0.196825 0.0002999902 0.1945007
v 0.196825 0.6003 0.1945007
v 0.1955099 0.0002999902 0.1955099
v 0.1955099 0.6003 0.1955099
v 0.1945007 0.0002999902 0.196825
v 0.1945007 0.6003 0.196825
v 0.1938664 0.0002999902 0.1983565
v 0.1938664 0.6003 0.1983565
v 0.19365 0.0002999902 0.2
v 0.19365 0.6003 0.2
v 0.1938664 0.0002999902 0.2016435
v 0.1938664 0.6003 0.2016435
v 0.1945007 0.0002999902 0.203175
v 0.1945007 0.6003 0.203175
v 0.1955099 0.0002999902 0.2044901
v 0.1955099 0.6003 0.2044901
v 0.196825 0.0002999902 0.2054993
v 0.196825 0.6003 0.2054993
v 0.1983565 0.0002999902 0.2061336
v 0.1983565 0.6003 0.2061336
v 0.2 0.0002999902 0.20635
v 0.2 0.6003 0.20635
v 0.2016435 0.0002999902 0.2061336
v 0.196825 0.0002999902 0.1945007
v 0.1983565 0.0002999902 0.1938664
v 0.2 0.0002999902 0.2
v 0.2 0.0002999902 0.19365
v 0.2016435 0.0002999902 0.1938664
v 0.1938664 0.0002999902 0.1983565
v 0.1945007 0.0002999902 0.196825
v 0.2 0.0002999902 0.2
v 0.1955099 0.0002999902 0.1955099
v 0.196825 0.0002999902 0.1945007
v 0.1945007 0.0002999902 0.203175
v 0.1938664 0.0002999902 0.2016435
v 0.2 0.0002999902 0.2
v 0.19365 0.0002999902 0.2
v 0.1938664 0.0002999902 0.1983565
v 0.1983565 0.0002999902 0.2061336
v 0.196825 0.0002999902 0.2054993
v 0.2 0.0002999902 0.2
v 0.1955099 0.0002999902 0.2044901
v 0.1945007 0.0002999902 0.203175
v 0.203175 0.0002999902 0.2054993
v 0.2016435 0.0002999902 0.2061336
v 0.2 0.0002999902 0.2
v 0.2 0.0002999902 0.20635
v 0.1983565 0.0002999902 0.2061336
v 0.2061336 0.0002999902 0.2016435
v 0.2054993 0.0002999902 0.203175
v 0.2 0.0002999902 0.2
v 0.2044901 0.0002999902 0.2044901
v 0.203175 0.0002999902 0.2054993
v 0.2054993 0.0002999902 0.196825
v 0.2061336 0.0002999902 0.1983565
v 0.2 0.0002999902 0.2
v 0.20635 0.0002999902 0.2
v 0.2061336 0.0002999902 0.2016435
v 0.2016435 0.0002999902 0.1938664
v 0.203175 0.0002999902 0.1945007
v 0.2 0.0002999902 0.2
v 0.2044901 0.0002999902 0.1955099
v 0.2054993 0.0002999902 0.196825
v 0.2 0.6003 -0.19365
v 0.2016435 0.0002999902 -0.1938664
v 0.2016435 0.6003 -0.1938664
v 0.203175 0.0002999902 -0.1945007
v 0.203175 0.6003 -0.1945007
v 0.2044901 0.0002999902 -0.1955099
v 0.2044901 0.6003 -0.1955099
v 0.2054993 0.0002999902 -0.196825
v 0.2054993 0.6003 -0.196825
v 0.2061336 0.0002999902 -0.1983565
v 0.2061336 0.6003 -0.1983565
v 0.20635 0.0002999902 -0.2
v 0.20635 0.6003 -0.2
v 0.2061336 0.0002999902 -0.2016435
v 0.2061336 0.6003 -0.2016435
v 0.2054993 0.0002999902 -0.203175
v 0.2054993 0.6003 -0.203175
v 0.2044901 0.0002999902 -0.2044901
v 0.2044901 0.6003 -0.2044901
v 0.203175 0.0002999902 -0.2054993
v 0.203175 0.6003 -0.2054993
v 0.2016435 0.0002999902 -0.2061336
v 0.2016435 0.6003 -0.2061336
v 0.2 0.0002999902 -0.20635
v 0.2 0.6003 -0.20635
v 0.1983565 0.0002999902 -0.2061336
v 0.1983565 0.6003 -0.2061336
v 0.196825 0.0002999902 -0.2054993
v 0.196825 0.6003 -0.2054993
v 0.1955099 0.0002999902 -0.2044901
v 0.1955099 0.6003 -0.2044901
v 0.1945007 0.0002999902 -0.203175
v 0.1945007 0.6003 -0.203175
v 0.1938664 0.0002999902 -0.2016435
v 0.1938664 0.6003 -0.2016435
v 0.19365 0.0002999902 -0.2
v 0.19365 0.6003 -0.2
v 0.1938664 0.0002999902 -0.1983565
v 0.1938664 0.6003 -0.1983565
v 0.1945007 0.0002999902 -0.196825
v 0.1945007 0.6003 -0.196825
v 0.1955099 0.0002999902 -0.1955099
v 0.1955099 0.6003 -0.1955099
v 0.196825 0.0002999902 -0.1945007
v 0.196825 0.6003 -0.1945007
v 0.1983565 0.0002999902 -0.1938664
v 0.1983565 0.6003 -0.1938664
v 0.2 0.0002999902 -0.19365
v 0.2 0.6003 -0.19365
v 0.2016435 0.0002999902 -0.1938664
v 0.196825 0.0002999902 -0.2054993
v 0.1983565 0.0002999902 -0.2061336
v 0.2 0.0002999902 -0.2
v 0.2 0.0002999902 -0.20635
v 0.2016435 0.0002999902 -0.2061336
v 0.1938664 0.0002999902 -0.2016435
v 0.1945007 0.0002999902 -0.203175
v 0.2 0.0002999902 -0.2
v 0.1955099 0.0002999902 -0.2044901
v 0.196825 0.0002999902 -0.2054993
v 0.1945007 0.0002999902 -0.196825
v 0.1938664 0.0002999902 -0.1983565
v 0.2 0.0002999902 -0.2
v 0.19365 0.0002999902 -0.2
v 0.1938664 0.0002999902 -0.2016435
v 0.1983565 0.0002999902 -0.1938664
v 0.196825 0.0002999902 -0.1945007
v 0.2 0.0002999902 -0.2
v 0.1955099 0.0002999902 -0.1955099
v 0.1945007 0.0002999902 -0.196825
v 0.203175 0.0002999902 -0.1945007
v 0.2016435 0.0002999902 -0.1938664
v 0.2 0.0002999902 -0.2
v 0.2 0.0002999902 -0.19365
v 0.1983565 0.0002999902 -0.1938664
v 0.2061336 0.0002999902 -0.1983565
v 0.2054993 0.0002999902 -0.196825
v 0.2 0.0002999902 -0.2
v 0.2044901 0.0002999902 -0.1955099
v 0.203175 0.0002999902 -0.1945007
v 0.2054993 0.0002999902 -0.203175
v 0.2061336 0.0002999902 -0.2016435
v 0.2 0.0002999902 -0.2
v 0.20635 0.0002999902 -0.2
v 0.2061336 0.0002999902 -0.1983565
v 0.2016435 0.0002999902 -0.2061336
v 0.203175 0.0002999902 -0.2054993
v 0.2 0.0002999902 -0.2
v 0.2044901 0.0002999902 -0.2044901
v 0.2054993 0.0002999902 -0.203175
v -0.2 0.6003 -0.19365
v -0.1983565 0.0002999902 -0.1938664
v -0.1983565 0.6003 -0.1938664
v -0.196825 0.0002999902 -0.1945007
v -0.196825 0.6003 -0.1945007
v -0.1955099 0.0002999902 -0.1955099
v -0.1955099 0.6003 -0.1955099
v -0.1945007 0.0002999902 -0.196825
v -0.1945007 0.6003 -0.196825
v -0.1938664 0.0002999902 -0.1983565
v -0.1938664 0.6003 -0.1983565
v -0.19365 0.0002999902 -0.2
v -0.19365 0.6003 -0.2
v -0.1938664 0.0002999902 -0.2016435
v -0.1938664 0.6003 -0.2016435
v -0.1945007 0.0002999902 -0.203175
v -0.1945007 0.6003 -0.203175
v -0.1955099 0.0002999902 -0.2044901
v -0.1955099 0.6003 -0.2044901
v -0.196825 0.0002999902 -0.2054993
v -0.196825 0.6003 -0.2054993
v -0.1983565 0.0002999902 -0.2061336
v -0.1983565 0.6003 -0.2061336
v -0.2 0.0002999902 -0.20635
v -0.2 0.6003 -0.20635
v -0.2016435 0.0002999902 -0.2061336
v -0.2016435 0.6003 -0.2061336
v -0.203175 0.0002999902 -0.2054993
v -0.203175 0.6003 -0.2054993
v -0.2044901 0.0002999902 -0.2044901
v -0.2044901 0.6003 -0.2044901
v -0.2054993 0.0002999902 -0.203175
v -0.2054993 0.6003 -0.203175
v -0.2061336 0.0002999902 -0.2016435
v -0.2061336 0.6003 -0.2016435
v -0.20635 0.0002999902 -0.2
v -0.20635 0.6003 -0.2
v -0.2061336 0.0002999902 -0.1983565
v -0.2061336 0.6003 -0.1983565
v -0.2054993 0.0002999902 -0.196825
v -0.2054993 0.6003 -0.196825
v -0.2044901 0.0002999902 -0.1955099
v -0.2044901 0.6003 -0.1955099
v -0.203175 0.0002999902 -0.1945007
v -0.203175 0.6003 -0.1945007
v -0.2016435 0.0002999902 -0.1938664
v -0.2016435 0.6003 -0.1938664
v -0.2 0.0002999902 -0.19365
v -0.2 0.6003 -0.19365
v -0.1983565 0.0002999902 -0.1938664
v -0.203175 0.0002999902 -0.2054993
v -0.2016435 0.0002999902 -0.2061336
v -0.2 0.0002999902 -0.2
v -0.2 0.0002999902 -0.20635
v -0.1983565 0.0002999902 -0.2061336
v -0.2061336 0.0002999902 -0.2016435
v -0.2054993 0.0002999902 -0.203175
v -0.2 0.0002999902 -0.2
v -0.2044901 0.0002999902 -0.2044901
v -0.203175 0.0002999902 -0.2054993
v -0.2054993 0.0002999902 -0.196825
v -0.2061336 0.0002999902 -0.1983565
v -0.2 0.0002999902 -0.2
v -0.20635 0.0002999902 -0.2
v -0.2061336 0.0002999902 -0.2016435
v -0.2016435 0.0002999902 -0.1938664
v -0.203175 0.0002999902 -0.1945007
v -0.2 0.0002999902 -0.2
v -0.2044901 0.0002999902 -0.1955099
v -0.2054993 0.0002999902 -0.196825
v -0.196825 0.0002999902 -0.1945007
v -0.1983565 0.0002999902 -0.1938664
v -0.2 0.0002999902 -0.2
v -0.2 0.0002999902 -0.19365
v -0.2016435 0.0002999902 -0.1938664
v -0.1938664 0.0002999902 -0.1983565
v -0.1945007 0.0002999902 -0.196825
v -0.2 0.0002999902 -0.2
v -0.1955099 0.0002999902 -0.1955099
v -0.196825 0.0002999902 -0.1945007
v -0.1945007 0.0002999902 -0.203175
v -0.1938664 0.0002999902 -0.2016435
v -0.2 0.0002999902 -0.2
v -0.19365 0.0002999902 -0.2
v -0.1938664 0.0002999902 -0.1983565
v -0.1983565 0.0002999902 -0.2061336
v -0.196825 0.0002999902 -0.2054993
v -0.2 0.0002999902 -0.2
v -0.1955099 0.0002999902 -0.2044901
v -0.1945007 0.0002999902 -0.203175
vt 0.2347201 0.4884974
vt 0.2833853 0.5486141
vt 0.2756205 0.8082442
vt 0.6715341 0.7911268
vt 0.6715341 0.7104809
vt 0.9918033 0.008196712
vt 0.489812 0.7104809
vt 0.2756205 0.8082442
vt 0.489812 0.7911268
vt 0.2756205 0.8733125
vt 0.008196682 0.008196712
vt 0.1433505 0.8082442
vt 0.008196682 0.9918033
vt 0.1433505 0.8733125
vt 0.4018706 0.9918033
vt 0.5887376 0.3309076
vt 0.4254237 0.4336323
vt 0.4254237 0.3309076
vt 0.3767585 0.3735155
vt 0.4254237 0.2728426
vt 0.1433505 0.8733125
vt 0.2756205 0.8733125
vt 0.4018706 0.9918033
vt 0.489812 0.7911268
vt 0.5981295 0.9918033
vt 0.6715341 0.7911268
vt 0.9918033 0.9918033
vt 0.9918033 0.008196712
vt 0.2756205 0.8082442
vt 0.1433505 0.8082442
vt 0.2347201 0.4884974
vt 0.008196682 0.008196712
vt 0.3767585 0.3735155
vt 0.4018706 0.008196712
vt 0.4254237 0.2728426
vt 0.5981295 0.008196712
vt 0.5887376 0.2728426
vt 0.9918033 0.008196712
vt 0.5887376 0.3309076
vt 0.2756205 0.8082442
vt 0.4254237 0.4336323
vt 0.2833853 0.5486141
vt 0.008196682 1
vt 0.008196682 0.9836066
vt 0.4018706 1
vt 0.4018706 0.9836066
vt 0.9918033 0.9836066
vt 0.9918033 1
vt 0.5981295 0.9836066
vt 0.5981295 1
vt 0.008196682 1
vt 0.008196682 0.9836066
vt 0.4018706 1
vt 0.4018706 0.9836066
vt 0.9918033 0.9836066
vt 0.9918033 1
vt 0.5981295 0.9836066
vt 0.5981295 1
vt 0.9918033 1
vt 0.008196682 1
vt 0.9918033 0.9836066
vt 0.008196682 0.9836066
vt 0.9918033 1
vt 0.008196682 1
vt 0.9918033 0.9836066
vt 0.008196682 0.9836066
vt 0.1773361 0.163116
vt 0.1748254 0.162076
vt 0.4018706 0.008196712
vt 0.008196682 0.9918033
vt 0.1721311 0.8382787
vt 0.4018706 0.9918033
vt 0.1748254 0.837924
vt 0.8251746 0.1821862
vt 0.8278689 0.182541
vt 0.8305631 0.8178138
vt 0.1721311 0.182541
vt 0.8226639 0.163116
vt 0.820508 0.1647702
vt 0.817459 0.1721311
vt 0.8178138 0.1748254
vt 0.179492 0.8352298
vt 0.8188537 0.1773361
vt 0.820508 0.179492
vt 0.836884 0.8226639
vt 0.8352298 0.820508
vt 0.8278689 0.182541
vt 0.8330737 0.8188537
vt 0.8305631 0.8178138
vt 0.179492 0.179492
vt 0.1811463 0.1773361
vt 0.8278689 0.1617213
vt 0.4018706 0.008196712
vt 0.1748254 0.162076
vt 0.008196682 0.008196712
vt 0.1811463 0.8330737
vt 0.820508 0.1647702
vt 0.8188537 0.1669263
vt 0.1811463 0.8330737
vt 0.8188537 0.1669263
vt 0.179492 0.8352298
vt 0.8178138 0.1694369
vt 0.817459 0.1721311
vt 0.817459 0.8278689
vt 0.8178138 0.8305631
vt 0.5981295 0.9918033
vt 0.8188537 0.8330737
vt 0.820508 0.8352298
vt 0.8278689 0.8382787
vt 0.9918033 0.9918033
vt 0.8251746 0.837924
vt 0.5981295 0.9918033
vt 0.8226639 0.836884
vt 0.820508 0.8352298
vt 0.8226639 0.163116
vt 0.1721311 0.182541
vt 0.8251746 0.162076
vt 0.1748254 0.1821862
vt 0.8278689 0.1617213
vt 0.1773361 0.1811463
vt 0.179492 0.179492
vt 0.8278689 0.8382787
vt 0.8305631 0.837924
vt 0.9918033 0.9918033
vt 0.8330737 0.836884
vt 0.8352298 0.8352298
vt 0.8352298 0.8352298
vt 0.836884 0.8330737
vt 0.9918033 0.9918033
vt 0.837924 0.8305631
vt 0.8382787 0.8278689
vt 0.8251746 0.1821862
vt 0.5981295 0.9918033
vt 0.8226639 0.1811463
vt 0.4018706 0.9918033
vt 0.8305631 0.8178138
vt 0.8278689 0.817459
vt 0.8251746 0.1821862
vt 0.8251746 0.8178138
vt 0.8226639 0.8188537
vt 0.8330737 0.1811463
vt 0.9918033 0.9918033
vt 0.8305631 0.1821862
vt 0.8382787 0.8278689
vt 0.8278689 0.182541
vt 0.837924 0.8251746
vt 0.836884 0.8226639
vt 0.1694369 0.1821862
vt 0.008196682 0.9918033
vt 0.1669262 0.1811463
vt 0.1647703 0.179492
vt 0.1811463 0.8226639
vt 0.179492 0.820508
vt 0.1721311 0.182541
vt 0.179492 0.820508
vt 0.1773361 0.8188537
vt 0.1721311 0.182541
vt 0.1748254 0.8178138
vt 0.1694369 0.1821862
vt 0.820508 0.179492
vt 0.8226639 0.1811463
vt 0.179492 0.8352298
vt 0.4018706 0.9918033
vt 0.1773361 0.836884
vt 0.1748254 0.837924
vt 0.8226639 0.8188537
vt 0.820508 0.820508
vt 0.8251746 0.1821862
vt 0.8188537 0.8226639
vt 0.5981295 0.9918033
vt 0.8178138 0.8251746
vt 0.817459 0.8278689
vt 0.8330737 0.1811463
vt 0.8352298 0.179492
vt 0.9918033 0.9918033
vt 0.836884 0.1773361
vt 0.9918033 0.008196712
vt 0.837924 0.1748254
vt 0.8382787 0.1721311
vt 0.8382787 0.1721311
vt 0.837924 0.1694369
vt 0.9918033 0.008196712
vt 0.836884 0.1669263
vt 0.8352298 0.1647702
vt 0.8352298 0.1647702
vt 0.8330737 0.163116
vt 0.9918033 0.008196712
vt 0.8305631 0.162076
vt 0.8278689 0.1617213
vt 0.1748254 0.162076
vt 0.1721311 0.1617213
vt 0.008196682 0.008196712
vt 0.1694369 0.162076
vt 0.1669262 0.163116
vt 0.1669262 0.163116
vt 0.1647703 0.1647702
vt 0.008196682 0.008196712
vt 0.1631159 0.1669263
vt 0.162076 0.1694369
vt 0.162076 0.1694369
vt 0.1617213 0.1721311
vt 0.008196682 0.008196712
vt 0.162076 0.1748254
vt 0.008196682 0.9918033
vt 0.1631159 0.1773361
vt 0.1647703 0.179492
vt 0.1811463 0.8330737
vt 0.1821863 0.8305631
vt 0.820508 0.1647702
vt 0.182541 0.8278689
vt 0.1721311 0.182541
vt 0.1821863 0.8251746
vt 0.1811463 0.8226639
vt 0.1821863 0.1694369
vt 0.1811463 0.1669263
vt 0.4018706 0.008196712
vt 0.179492 0.1647702
vt 0.1773361 0.163116
vt 0.1617213 0.8278689
vt 0.162076 0.8305631
vt 0.008196682 0.9918033
vt 0.1631159 0.8330737
vt 0.1647703 0.8352298
vt 0.1647703 0.8352298
vt 0.1669262 0.836884
vt 0.008196682 0.9918033
vt 0.1694369 0.837924
vt 0.1721311 0.8382787
vt 0.1811463 0.1773361
vt 0.1821863 0.1748254
vt 0.8278689 0.1617213
vt 0.182541 0.1721311
vt 0.9918033 0.008196712
vt 0.1821863 0.1694369
vt 0.5981295 0.008196712
vt 0.4018706 0.008196712
vt 0.1748254 0.8178138
vt 0.1721311 0.817459
vt 0.1694369 0.1821862
vt 0.1694369 0.8178138
vt 0.1669262 0.8188537
vt 0.1669262 0.8188537
vt 0.1647703 0.820508
vt 0.1694369 0.1821862
vt 0.1631159 0.8226639
vt 0.008196682 0.9918033
vt 0.162076 0.8251746
vt 0.1617213 0.8278689
vt 0.1721311 0.9836066
vt 0.1748254 0
vt 0.1748254 0.9836066
vt 0.1773361 0
vt 0.1773361 0.9836066
vt 0.179492 0
vt 0.179492 0.9836066
vt 0.1669262 0
vt 0.1669262 0.9836066
vt 0.1694369 0
vt 0.1694369 0.9836066
vt 0.1721311 0
vt 0.1721311 0.9836066
vt 0.1748254 0
vt 0.1748254 0.9836066
vt 0.1773361 0
vt 0.1773361 0.9836066
vt 0.820508 0
vt 0.820508 0.9836066
vt 0.8226639 0
vt 0.8226639 0.9836066
vt 0.8251746 0
vt 0.8251746 0.9836066
vt 0.8278689 0
vt 0.8278689 0.9836066
vt 0.8305631 0
vt 0.8305631 0.9836066
vt 0.8330737 0
vt 0.8330737 0.9836066
vt 0.8352298 0
vt 0.8352298 0.9836066
vt 0.8226639 0
vt 0.8226639 0.9836066
vt 0.8251746 0
vt 0.8251746 0.9836066
vt 0.8278689 0
vt 0.8278689 0.9836066
vt 0.8305631 0
vt 0.8305631 0.9836066
vt 0.8330737 0
vt 0.8330737 0.9836066
vt 0.1647703 0
vt 0.1647703 0.9836066
vt 0.1669262 0
vt 0.1669262 0.9836066
vt 0.1694369 0
vt 0.1694369 0.9836066
vt 0.1721311 0
vt 0.1721311 0.9836066
vt 0.1748254 0
vt 0.8330737 0.1811463
vt 0.8305631 0.1821862
vt 0.8278689 0.1721311
vt 0.8278689 0.182541
vt 0.8251746 0.1821862
vt 0.837924 0.1748254
vt 0.836884 0.1773361
vt 0.8278689 0.1721311
vt 0.8352298 0.179492
vt 0.8330737 0.1811463
vt 0.836884 0.1669263
vt 0.837924 0.1694369
vt 0.8278689 0.1721311
vt 0.8382787 0.1721311
vt 0.837924 0.1748254
vt 0.8305631 0.162076
vt 0.8330737 0.163116
vt 0.8278689 0.1721311
vt 0.8352298 0.1647702
vt 0.836884 0.1669263
vt 0.8226639 0.163116
vt 0.8251746 0.162076
vt 0.8278689 0.1721311
vt 0.8278689 0.1617213
vt 0.8305631 0.162076
vt 0.8178138 0.1694369
vt 0.8188537 0.1669263
vt 0.8278689 0.1721311
vt 0.820508 0.1647702
vt 0.8226639 0.163116
vt 0.8188537 0.1773361
vt 0.8178138 0.1748254
vt 0.8278689 0.1721311
vt 0.817459 0.1721311
vt 0.8178138 0.1694369
vt 0.8251746 0.1821862
vt 0.8226639 0.1811463
vt 0.8278689 0.1721311
vt 0.820508 0.179492
vt 0.8188537 0.1773361
vt 0.8278689 0.9836066
vt 0.8305631 0
vt 0.8305631 0.9836066
vt 0.8330737 0
vt 0.8330737 0.9836066
vt 0.8352298 0
vt 0.8352298 0.9836066
vt 0.1669262 0
vt 0.1669262 0.9836066
vt 0.1694369 0
vt 0.1694369 0.9836066
vt 0.1721311 0
vt 0.1721311 0.9836066
vt 0.1748254 0
vt 0.1748254 0.9836066
vt 0.1773361 0
vt 0.1773361 0.9836066
vt 0.1647703 0
vt 0.1647703 0.9836066
vt 0.1669262 0
vt 0.1669262 0.9836066
vt 0.1694369 0
vt 0.1694369 0.9836066
vt 0.1721311 0
vt 0.1721311 0.9836066
vt 0.1748254 0
vt 0.1748254 0.9836066
vt 0.1773361 0
vt 0.1773361 0.9836066
vt 0.179492 0
vt 0.179492 0.9836066
vt 0.8226639 0
vt 0.8226639 0.9836066
vt 0.8251746 0
vt 0.8251746 0.9836066
vt 0.8278689 0
vt 0.8278689 0.9836066
vt 0.8305631 0
vt 0.8305631 0.9836066
vt 0.8330737 0
vt 0.8330737 0.9836066
vt 0.820508 0
vt 0.820508 0.9836066
vt 0.8226639 0
vt 0.8226639 0.9836066
vt 0.8251746 0
vt 0.8251746 0.9836066
vt 0.8278689 0
vt 0.8278689 0.9836066
vt 0.8305631 0
vt 0.1773361 0.1811463
vt 0.1748254 0.1821862
vt 0.1721311 0.1721311
vt 0.1721311 0.182541
vt 0.1694369 0.1821862
vt 0.1821863 0.1748254
vt 0.1811463 0.1773361
vt 0.1721311 0.1721311
vt 0.179492 0.179492
vt 0.1773361 0.1811463
vt 0.1811463 0.1669263
vt 0.1821863 0.1694369
vt 0.1721311 0.1721311
vt 0.182541 0.1721311
vt 0.1821863 0.1748254
vt 0.1748254 0.162076
vt 0.1773361 0.163116
vt 0.1721311 0.1721311
vt 0.179492 0.1647702
vt 0.1811463 0.1669263
vt 0.1669262 0.163116
vt 0.1694369 0.162076
vt 0.1721311 0.1721311
vt 0.1721311 0.1617213
vt 0.1748254 0.162076
vt 0.162076 0.1694369
vt 0.1631159 0.1669263
vt 0.1721311 0.1721311
vt 0.1647703 0.1647702
vt 0.1669262 0.163116
vt 0.1631159 0.1773361
vt 0.162076 0.1748254
vt 0.1721311 0.1721311
vt 0.1617213 0.1721311
vt 0.162076 0.1694369
vt 0.1694369 0.1821862
vt 0.1669262 0.1811463
vt 0.1721311 0.1721311
vt 0.1647703 0.179492
vt 0.1631159 0.1773361
vt 0.8278689 0.9836066
vt 0.8305631 0
vt 0.8305631 0.9836066
vt 0.8330737 0
vt 0.8330737 0.9836066
vt 0.8352298 0
vt 0.8352298 0.9836066
vt 0.8226639 0
vt 0.8226639 0.9836066
vt 0.8251746 0
vt 0.8251746 0.9836066
vt 0.8278689 0
vt 0.8278689 0.9836066
vt 0.8305631 0
vt 0.8305631 0.9836066
vt 0.8330737 0
vt 0.8330737 0.9836066
vt 0.1647703 0
vt 0.1647703 0.9836066
vt 0.1669262 0
vt 0.1669262 0.9836066
vt 0.1694369 0
vt 0.1694369 0.9836066
vt 0.1721311 0
vt 0.1721311 0.9836066
vt 0.1748254 0
vt 0.1748254 0.9836066
vt 0.1773361 0
vt 0.1773361 0.9836066
vt 0.179492 0
vt 0.179492 0.9836066
vt 0.1669262 0
vt 0.1669262 0.9836066
vt 0.1694369 0
vt 0.1694369 0.9836066
vt 0.1721311 0
vt 0.1721311 0.9836066
vt 0.1748254 0
vt 0.1748254 0.9836066
vt 0.1773361 0
vt 0.1773361 0.9836066
vt 0.820508 0
vt 0.820508 0.9836066
vt 0.8226639 0
vt 0.8226639 0.9836066
vt 0.8251746 0
vt 0.8251746 0.9836066
vt 0.8278689 0
vt 0.8278689 0.9836066
vt 0.8305631 0
vt 0.1773361 0.836884
vt 0.1748254 0.837924
vt 0.1721311 0.8278689
vt 0.1721311 0.8382787
vt 0.1694369 0.837924
vt 0.1821863 0.8305631
vt 0.1811463 0.8330737
vt 0.1721311 0.8278689
vt 0.179492 0.8352298
vt 0.1773361 0.836884
vt 0.1811463 0.8226639
vt 0.1821863 0.8251746
vt 0.1721311 0.8278689
vt 0.182541 0.8278689
vt 0.1821863 0.8305631
vt 0.1748254 0.8178138
vt 0.1773361 0.8188537
vt 0.1721311 0.8278689
vt 0.179492 0.820508
vt 0.1811463 0.8226639
vt 0.1669262 0.8188537
vt 0.1694369 0.8178138
vt 0.1721311 0.8278689
vt 0.1721311 0.817459
vt 0.1748254 0.8178138
vt 0.162076 0.8251746
vt 0.1631159 0.8226639
vt 0.1721311 0.8278689
vt 0.1647703 0.820508
vt 0.1669262 0.8188537
vt 0.1631159 0.8330737
vt 0.162076 0.8305631
vt 0.1721311 0.8278689
vt 0.1617213 0.8278689
vt 0.162076 0.8251746
vt 0.1694369 0.837924
vt 0.1669262 0.836884
vt 0.1721311 0.8278689
vt 0.1647703 0.8352298
vt 0.1631159 0.8330737
vt 0.1721311 0.9836066
vt 0.1748254 0
vt 0.1748254 0.9836066
vt 0.1773361 0
vt 0.1773361 0.9836066
vt 0.179492 0
vt 0.179492 0.9836066
vt 0.8226639 0
vt 0.8226639 0.9836066
vt 0.8251746 0
vt 0.8251746 0.9836066
vt 0.8278689 0
vt 0.8278689 0.9836066
vt 0.8305631 0
vt 0.8305631 0.9836066
vt 0.8330737 0
vt 0.8330737 0.9836066
vt 0.820508 0
vt 0.820508 0.9836066
vt 0.8226639 0
vt 0.8226639 0.9836066
vt 0.8251746 0
vt 0.8251746 0.9836066
vt 0.8278689 0
vt 0.8278689 0.9836066
vt 0.8305631 0
vt 0.8305631 0.9836066
vt 0.8330737 0
vt 0.8330737 0.9836066
vt 0.8352298 0
vt 0.8352298 0.9836066
vt 0.1669262 0
vt 0.1669262 0.9836066
vt 0.1694369 0
vt 0.1694369 0.9836066
vt 0.1721311 0
vt 0.1721311 0.9836066
vt 0.1748254 0
vt 0.1748254 0.9836066
vt 0.1773361 0
vt 0.1773361 0.9836066
vt 0.1647703 0
vt 0.1647703 0.9836066
vt 0.1669262 0
vt 0.1669262 0.9836066
vt 0.1694369 0
vt 0.1694369 0.9836066
vt 0.1721311 0
vt 0.1721311 0.9836066
vt 0.1748254 0
vt 0.8330737 0.836884
vt 0.8305631 0.837924
vt 0.8278689 0.8278689
vt 0.8278689 0.8382787
vt 0.8251746 0.837924
vt 0.837924 0.8305631
vt 0.836884 0.8330737
vt 0.8278689 0.8278689
vt 0.8352298 0.8352298
vt 0.8330737 0.836884
vt 0.836884 0.8226639
vt 0.837924 0.8251746
vt 0.8278689 0.8278689
vt 0.8382787 0.8278689
vt 0.837924 0.8305631
vt 0.8305631 0.8178138
vt 0.8330737 0.8188537
vt 0.8278689 0.8278689
vt 0.8352298 0.820508
vt 0.836884 0.8226639
vt 0.8226639 0.8188537
vt 0.8251746 0.8178138
vt 0.8278689 0.8278689
vt 0.8278689 0.817459
vt 0.8305631 0.8178138
vt 0.8178138 0.8251746
vt 0.8188537 0.8226639
vt 0.8278689 0.8278689
vt 0.820508 0.820508
vt 0.8226639 0.8188537
vt 0.8188537 0.8330737
vt 0.8178138 0.8305631
vt 0.8278689 0.8278689
vt 0.817459 0.8278689
vt 0.8178138 0.8251746
vt 0.8251746 0.837924
vt 0.8226639 0.836884
vt 0.8278689 0.8278689
vt 0.820508 0.8352298
vt 0.8188537 0.8330737
vn 0 1 0
vn 0 1 0
vn 0 1 0
vn 0 1 0
vn 0 1 0
vn 0 1 0
vn 0 1 0
vn 0 1 0
vn 0 1 0
vn 0 1 0
vn 0 1 0
vn 0 1 0
vn 0 1 0
vn 0 1 0
vn 0 1 0
vn 0 1 0
vn 0 1 0
vn 0 1 0
vn 0 1 0
vn 0 1 0
vn 0 1 0
vn 0 1 0
vn 0 1 0
vn 0 1 0
vn 0 1 0
vn 0 1 0
vn 0 1 0
vn 0 1 0
vn 0 1 0
vn 0 1 0
vn 0 1 0
vn 0 1 0
vn 0 1 0
vn 0 1 0
vn 0 1 0
vn 0 1 0
vn 0 1 0
vn 0 1 0
vn 0 1 0
vn 0 1 0
vn 0 1 0
vn 0 1 0
vn 0 0 -1
vn 0 0 -1
vn 0 0 -1
vn 0 0 -1
vn 0 0 -1
vn 0 0 -1
vn 0 0 -1
vn 0 0 -1
vn 9.251858E-17 0 1
vn 9.251858E-17 0 1
vn 9.251858E-17 0 1
vn 9.251858E-17 0 1
vn 9.251858E-17 0 1
vn 9.251858E-17 0 1
vn 9.251858E-17 0 1
vn 9.251858E-17 0 1
vn -1 0 0
vn -1 0 0
vn -1 0 0
vn -1 0 0
vn 1 0 0
vn 1 0 0
vn 1 0 0
vn 1 0 0
vn 0 -1 0
vn 0 -1 0
vn 0 -1 0
vn 0 -1 0
vn 0 -1 0
vn 0 -1 0
vn 0 -1 0
vn 0 -1 0
vn 0 -1 0
vn 0 -1 0
vn 0 -1 0
vn 0 -1 0
vn 0 -1 0
vn 0 -1 0
vn 0 -1 0
vn 0 -1 0
vn 0 -1 0
vn 0 -1 0
vn 0 -1 0
vn 0 -1 0
vn 0 -1 0
vn 0 -1 0
vn 0 -1 0
vn 0 -1 0
vn 0 -1 0
vn 0 -1 0
vn 0 -1 0
vn 0 -1 0
vn 0 -1 0
vn 0 -1 0
vn 0 -1 0
vn 0 -1 0
vn 0 -1 0
vn 0 -1 0
vn 0 -1 0
vn 0 -1 0
vn 0 -1 0
vn 0 -1 0
vn 0 -1 0
vn 0 -1 0
vn 0 -1 0
vn 0 -1 0
vn 0 -1 0
vn 0 -1 0
vn 0 -1 0
vn 0 -1 0
vn 0 -1 0
vn 0 -1 0
vn 0 -1 0
vn 0 -1 0
vn 0 -1 0
vn 0 -1 0
vn 0 -1 0
vn 0 -1 0
vn 0 -1 0
vn 0 -1 0
vn 0 -1 0
vn 0 -1 0
vn 0 -1 0
vn 0 -1 0
vn 0 -1 0
vn 0 -1 0
vn 0 -1 0
vn 0 -1 0
vn 0 -1 0
vn 0 -1 0
vn 0 -1 0
vn 0 -1 0
vn 0 -1 0
vn 0 -1 0
vn 0 -1 0
vn 0 -1 0
vn 0 -1 0
vn 0 -1 0
vn 0 -1 0
vn 0 -1 0
vn 0 -1 0
vn 0 -1 0
vn 0 -1 0
vn 0 -1 0
vn 0 -1 0
vn 0 -1 0
vn 0 -1 0
vn 0 -1 0
vn 0 -1 0
vn 0 -1 0
vn 0 -1 0
vn 0 -1 0
vn 0 -1 0
vn 0 -1 0
vn 0 -1 0
vn 0 -1 0
vn 0 -1 0
vn 0 -1 0
vn 0 -1 0
vn 0 -1 0
vn 0 -1 0
vn 0 -1 0
vn 0 -1 0
vn 0 -1 0
vn 0 -1 0
vn 0 -1 0
vn 0 -1 0
vn 0 -1 0
vn 0 -1 0
vn 0 -1 0
vn 0 -1 0
vn 0 -1 0
vn 0 -1 0
vn 0 -1 0
vn 0 -1 0
vn 0 -1 0
vn 0 -1 0
vn 0 -1 0
vn 0 -1 0
vn 0 -1 0
vn 0 -1 0
vn 0 -1 0
vn 0 -1 0
vn 0 -1 0
vn 0 -1 0
vn 0 -1 0
vn 0 -1 0
vn 0 -1 0
vn 0 -1 0
vn 0 -1 0
vn 0 -1 0
vn 0 -1 0
vn 0 -1 0
vn 0 -1 0
vn 0 -1 0
vn 0 -1 0
vn 0 -1 0
vn 0 -1 0
vn 0 -1 0
vn 0 -1 0
vn 0 -1 0
vn 0 -1 0
vn 0 -1 0
vn 0 -1 0
vn 0 -1 0
vn 0 -1 0
vn 0 -1 0
vn 0 -1 0
vn 0 -1 0
vn 0 -1 0
vn 0 -1 0
vn 0 -1 0
vn 0 -1 0
vn 0 -1 0
vn 0 -1 0
vn 0 -1 0
vn 0 -1 0
vn 0 -1 0
vn 0 -1 0
vn 0 -1 0
vn 0 -1 0
vn 0 -1 0
vn 0 -1 0
vn 0 -1 0
vn 0 -1 0
vn 0 -1 0
vn 0 -1 0
vn 0 -1 0
vn 0 -1 0
vn 0 -1 0
vn 0 -1 0
vn 0 -1 0
vn 0 -1 0
vn 0 -1 0
vn 0 -1 0
vn 0 -1 0
vn 0 -1 0
vn 0 -1 0
vn 0 -1 0
vn 0 -1 0
vn 0 -1 0
vn 0 -1 0
vn 0 -1 0
vn 0 -1 0
vn 0 -1 0
vn 0 -1 0
vn 0 0 1
vn 0.2588191 0 0.9659259
vn 0.2588191 0 0.9659259
vn 0.5 0 0.8660254
vn 0.5 0 0.8660254
vn 0.7071068 0 0.7071068
vn 0.7071068 0 0.7071068
vn 0.8660254 0 0.5
vn 0.8660254 0 0.5
vn 0.9659259 0 0.2588191
vn 0.9659259 0 0.2588191
vn 1 0 6.123234E-17
vn 1 0 6.123234E-17
vn 0.9659259 0 -0.2588191
vn 0.9659259 0 -0.2588191
vn 0.8660254 0 -0.5
vn 0.8660254 0 -0.5
vn 0.7071068 0 -0.7071068
vn 0.7071068 0 -0.7071068
vn 0.5 0 -0.8660254
vn 0.5 0 -0.8660254
vn 0.2588191 0 -0.9659259
vn 0.2588191 0 -0.9659259
vn 1.224647E-16 0 -1
vn 1.224647E-16 0 -1
vn -0.2588191 0 -0.9659259
vn -0.2588191 0 -0.9659259
vn -0.5 0 -0.8660254
vn -0.5 0 -0.8660254
vn -0.7071068 0 -0.7071068
vn -0.7071068 0 -0.7071068
vn -0.8660254 0 -0.5
vn -0.8660254 0 -0.5
vn -0.9659259 0 -0.2588191
vn -0.9659259 0 -0.2588191
vn -1 0 -1.83697E-16
vn -1 0 -1.83697E-16
vn -0.9659259 0 0.2588191
vn -0.9659259 0 0.2588191
vn -0.8660254 0 0.5
vn -0.8660254 0 0.5
vn -0.7071068 0 0.7071068
vn -0.7071068 0 0.7071068
vn -0.5 0 0.8660254
vn -0.5 0 0.8660254
vn -0.2588191 0 0.9659259
vn -0.2588191 0 0.9659259
vn 0 0 1
vn 0 0 1
vn 0.2588191 0 0.9659259
vn 0 -1 0
vn 0 -1 0
vn 0 -1 0
vn 0 -1 0
vn 0 -1 0
vn 0 -1 0
vn 0 -1 0
vn 0 -1 0
vn 0 -1 0
vn 0 -1 0
vn 0 -1 0
vn 0 -1 0
vn 0 -1 0
vn 0 -1 0
vn 0 -1 0
vn 0 -1 0
vn 0 -1 0
vn 0 -1 0
vn 0 -1 0
vn 0 -1 0
vn 0 -1 0
vn 0 -1 0
vn 0 -1 0
vn 0 -1 0
vn 0 -1 0
vn 0 -1 0
vn 0 -1 0
vn 0 -1 0
vn 0 -1 0
vn 0 -1 0
vn 0 -1 0
vn 0 -1 0
vn 0 -1 0
vn 0 -1 0
vn 0 -1 0
vn 0 -1 0
vn 0 -1 0
vn 0 -1 0
vn 0 -1 0
vn 0 -1 0
vn 0 0 1
vn 0.2588191 0 0.9659259
vn 0.2588191 0 0.9659259
vn 0.5 0 0.8660254
vn 0.5 0 0.8660254
vn 0.7071068 0 0.7071068
vn 0.7071068 0 0.7071068
vn 0.8660254 0 0.5
vn 0.8660254 0 0.5
vn 0.9659259 0 0.2588191
vn 0.9659259 0 0.2588191
vn 1 0 6.123234E-17
vn 1 0 6.123234E-17
vn 0.9659259 0 -0.2588191
vn 0.9659259 0 -0.2588191
vn 0.8660254 0 -0.5
vn 0.8660254 0 -0.5
vn 0.7071068 0 -0.7071068
vn 0.7071068 0 -0.7071068
vn 0.5 0 -0.8660254
vn 0.5 0 -0.8660254
vn 0.2588191 0 -0.9659259
vn 0.2588191 0 -0.9659259
vn 1.224647E-16 0 -1
vn 1.224647E-16 0 -1
vn -0.2588191 0 -0.9659259
vn -0.2588191 0 -0.9659259
vn -0.5 0 -0.8660254
vn -0.5 0 -0.8660254
vn -0.7071068 0 -0.7071068
vn -0.7071068 0 -0.7071068
vn -0.8660254 0 -0.5
vn -0.8660254 0 -0.5
vn -0.9659259 0 -0.2588191
vn -0.9659259 0 -0.2588191
vn -1 0 -1.83697E-16
vn -1 0 -1.83697E-16
vn -0.9659259 0 0.2588191
vn -0.9659259 0 0.2588191
vn -0.8660254 0 0.5
vn -0.8660254 0 0.5
vn -0.7071068 0 0.7071068
vn -0.7071068 0 0.7071068
vn -0.5 0 0.8660254
vn -0.5 0 0.8660254
vn -0.2588191 0 0.9659259
vn -0.2588191 0 0.9659259
vn 0 0 1
vn 0 0 1
vn 0.2588191 0 0.9659259
vn 0 -1 0
vn 0 -1 0
vn 0 -1 0
vn 0 -1 0
vn 0 -1 0
vn 0 -1 0
vn 0 -1 0
vn 0 -1 0
vn 0 -1 0
vn 0 -1 0
vn 0 -1 0
vn 0 -1 0
vn 0 -1 0
vn 0 -1 0
vn 0 -1 0
vn 0 -1 0
vn 0 -1 0
vn 0 -1 0
vn 0 -1 0
vn 0 -1 0
vn 0 -1 0
vn 0 -1 0
vn 0 -1 0
vn 0 -1 0
vn 0 -1 0
vn 0 -1 0
vn 0 -1 0
vn 0 -1 0
vn 0 -1 0
vn 0 -1 0
vn 0 -1 0
vn 0 -1 0
vn 0 -1 0
vn 0 -1 0
vn 0 -1 0
vn 0 -1 0
vn 0 -1 0
vn 0 -1 0
vn 0 -1 0
vn 0 -1 0
vn 0 0 1
vn 0.2588191 0 0.9659259
vn 0.2588191 0 0.9659259
vn 0.5 0 0.8660254
vn 0.5 0 0.8660254
vn 0.7071068 0 0.7071068
vn 0.7071068 0 0.7071068
vn 0.8660254 0 0.5
vn 0.8660254 0 0.5
vn 0.9659259 0 0.2588191
vn 0.9659259 0 0.2588191
vn 1 0 6.123234E-17
vn 1 0 6.123234E-17
vn 0.9659259 0 -0.2588191
vn 0.9659259 0 -0.2588191
vn 0.8660254 0 -0.5
vn 0.8660254 0 -0.5
vn 0.7071068 0 -0.7071068
vn 0.7071068 0 -0.7071068
vn 0.5 0 -0.8660254
vn 0.5 0 -0.8660254
vn 0.2588191 0 -0.9659259
vn 0.2588191 0 -0.9659259
vn 1.224647E-16 0 -1
vn 1.224647E-16 0 -1
vn -0.2588191 0 -0.9659259
vn -0.2588191 0 -0.9659259
vn -0.5 0 -0.8660254
vn -0.5 0 -0.8660254
vn -0.7071068 0 -0.7071068
vn -0.7071068 0 -0.7071068
vn -0.8660254 0 -0.5
vn -0.8660254 0 -0.5
vn -0.9659259 0 -0.2588191
vn -0.9659259 0 -0.2588191
vn -1 0 -1.83697E-16
vn -1 0 -1.83697E-16
vn -0.9659259 0 0.2588191
vn -0.9659259 0 0.2588191
vn -0.8660254 0 0.5
vn -0.8660254 0 0.5
vn -0.7071068 0 0.7071068
vn -0.7071068 0 0.7071068
vn -0.5 0 0.8660254
vn -0.5 0 0.8660254
vn -0.2588191 0 0.9659259
vn -0.2588191 0 0.9659259
vn 0 0 1
vn 0 0 1
vn 0.2588191 0 0.9659259
vn 0 -1 0
vn 0 -1 0
vn 0 -1 0
vn 0 -1 0
vn 0 -1 0
vn 0 -1 0
vn 0 -1 0
vn 0 -1 0
vn 0 -1 0
vn 0 -1 0
vn 0 -1 0
vn 0 -1 0
vn 0 -1 0
vn 0 -1 0
vn 0 -1 0
vn 0 -1 0
vn 0 -1 0
vn 0 -1 0
vn 0 -1 0
vn 0 -1 0
vn 0 -1 0
vn 0 -1 0
vn 0 -1 0
vn 0 -1 0
vn 0 -1 0
vn 0 -1 0
vn 0 -1 0
vn 0 -1 0
vn 0 -1 0
vn 0 -1 0
vn 0 -1 0
vn 0 -1 0
vn 0 -1 0
vn 0 -1 0
vn 0 -1 0
vn 0 -1 0
vn 0 -1 0
vn 0 -1 0
vn 0 -1 0
vn 0 -1 0
vn 0 0 1
vn 0.2588191 0 0.9659259
vn 0.2588191 0 0.9659259
vn 0.5 0 0.8660254
vn 0.5 0 0.8660254
vn 0.7071068 0 0.7071068
vn 0.7071068 0 0.7071068
vn 0.8660254 0 0.5
vn 0.8660254 0 0.5
vn 0.9659259 0 0.2588191
vn 0.9659259 0 0.2588191
vn 1 0 6.123234E-17
vn 1 0 6.123234E-17
vn 0.9659259 0 -0.2588191
vn 0.9659259 0 -0.2588191
vn 0.8660254 0 -0.5
vn 0.8660254 0 -0.5
vn 0.7071068 0 -0.7071068
vn 0.7071068 0 -0.7071068
vn 0.5 0 -0.8660254
vn 0.5 0 -0.8660254
vn 0.2588191 0 -0.9659259
vn 0.2588191 0 -0.9659259
vn 1.224647E-16 0 -1
vn 1.224647E-16 0 -1
vn -0.2588191 0 -0.9659259
vn -0.2588191 0 -0.9659259
vn -0.5 0 -0.8660254
vn -0.5 0 -0.8660254
vn -0.7071068 0 -0.7071068
vn -0.7071068 0 -0.7071068
vn -0.8660254 0 -0.5
vn -0.8660254 0 -0.5
vn -0.9659259 0 -0.2588191
vn -0.9659259 0 -0.2588191
vn -1 0 -1.83697E-16
vn -1 0 -1.83697E-16
vn -0.9659259 0 0.2588191
vn -0.9659259 0 0.2588191
vn -0.8660254 0 0.5
vn -0.8660254 0 0.5
vn -0.7071068 0 0.7071068
vn -0.7071068 0 0.7071068
vn -0.5 0 0.8660254
vn -0.5 0 0.8660254
vn -0.2588191 0 0.9659259
vn -0.2588191 0 0.9659259
vn 0 0 1
vn 0 0 1
vn 0.2588191 0 0.9659259
vn 0 -1 0
vn 0 -1 0
vn 0 -1 0
vn 0 -1 0
vn 0 -1 0
vn 0 -1 0
vn 0 -1 0
vn 0 -1 0
vn 0 -1 0
vn 0 -1 0
vn 0 -1 0
vn 0 -1 0
vn 0 -1 0
vn 0 -1 0
vn 0 -1 0
vn 0 -1 0
vn 0 -1 0
vn 0 -1 0
vn 0 -1 0
vn 0 -1 0
vn 0 -1 0
vn 0 -1 0
vn 0 -1 0
vn 0 -1 0
vn 0 -1 0
vn 0 -1 0
vn 0 -1 0
vn 0 -1 0
vn 0 -1 0
vn 0 -1 0
vn 0 -1 0
vn 0 -1 0
vn 0 -1 0
vn 0 -1 0
vn 0 -1 0
vn 0 -1 0
vn 0 -1 0
vn 0 -1 0
vn 0 -1 0
vn 0 -1 0
usemtl white_low_gloss_plastic
f 1/1/1 2/2/2 3/3/3
f 4/4/4 5/5/5 6/6/6
f 5/5/5 7/7/7 6/6/6
f 6/6/6 7/7/7 8/8/8
f 7/7/7 9/9/9 8/8/8
f 8/8/8 9/9/9 10/10/10
f 11/11/11 12/12/12 13/13/13
f 12/12/12 14/14/14 13/13/13
f 13/13/13 14/14/14 15/15/15
f 16/16/16 17/17/17 18/18/18
f 17/17/17 19/19/19 18/18/18
f 18/18/18 19/19/19 20/20/20
f 21/21/21 22/22/22 23/23/23
f 22/22/22 24/24/24 23/23/23
f 23/23/23 24/24/24 25/25/25
f 24/24/24 26/26/26 25/25/25
f 25/25/25 26/26/26 27/27/27
f 26/26/26 28/28/28 27/27/27
f 29/29/29 30/30/30 31/31/31
f 30/30/30 32/32/32 31/31/31
f 31/31/31 32/32/32 33/33/33
f 32/32/32 34/34/34 33/33/33
f 33/33/33 34/34/34 35/35/35
f 34/34/34 36/36/36 35/35/35
f 35/35/35 36/36/36 37/37/37
f 36/36/36 38/38/38 37/37/37
f 37/37/37 38/38/38 39/39/39
f 38/38/38 40/40/40 39/39/39
f 39/39/39 40/40/40 41/41/41
f 40/40/40 42/42/42 41/41/41
f 43/43/43 44/44/44 45/45/45
f 44/44/44 46/46/46 45/45/45
f 47/47/47 48/48/48 49/49/49
f 48/48/48 50/50/50 49/49/49
f 51/51/51 52/52/52 53/53/53
f 52/52/52 54/54/54 53/53/53
f 55/55/55 56/56/56 57/57/57
f 56/56/56 58/58/58 57/57/57
f 59/59/59 60/60/60 61/61/61
f 60/60/60 62/62/62 61/61/61
f 63/63/63 64/64/64 65/65/65
f 64/64/64 66/66/66 65/65/65
f 67/67/67 68/68/68 69/69/69
f 70/70/70 71/71/71 72/72/72
f 71/71/71 73/73/73 72/72/72
f 74/74/74 75/75/75 76/76/76
f 77/77/77 78/78/78 79/79/79
f 80/80/80 81/81/81 82/82/82
f 81/81/81 83/83/83 82/82/82
f 82/82/82 83/83/83 84/84/84
f 85/85/85 86/86/86 87/87/87
f 86/86/86 88/88/88 87/87/87
f 87/87/87 88/88/88 89/89/89
f 90/90/90 91/91/91 92/92/92
f 93/93/93 94/94/94 95/95/95
f 96/96/96 97/97/97 98/98/98
f 99/99/99 100/100/100 101/101/101
f 100/100/100 102/102/102 101/101/101
f 101/101/101 102/102/102 103/103/103
f 104/104/104 105/105/105 106/106/106
f 105/105/105 107/107/107 106/106/106
f 106/106/106 107/107/107 108/108/108
f 109/109/109 110/110/110 111/111/111
f 110/110/110 112/112/112 111/111/111
f 111/111/111 112/112/112 113/113/113
f 112/112/112 114/114/114 113/113/113
f 115/115/115 116/116/116 117/117/117
f 116/116/116 118/118/118 117/117/117
f 117/117/117 118/118/118 119/119/119
f 118/118/118 120/120/120 119/119/119
f 119/119/119 120/120/120 121/121/121
f 122/122/122 123/123/123 124/124/124
f 123/123/123 125/125/125 124/124/124
f 124/124/124 125/125/125 126/126/126
f 127/127/127 128/128/128 129/129/129
f 128/128/128 130/130/130 129/129/129
f 129/129/129 130/130/130 131/131/131
f 132/132/132 133/133/133 134/134/134
f 133/133/133 135/135/135 134/134/134
f 136/136/136 137/137/137 138/138/138
f 137/137/137 139/139/139 138/138/138
f 138/138/138 139/139/139 140/140/140
f 141/141/141 142/142/142 143/143/143
f 142/142/142 144/144/144 143/143/143
f 143/143/143 144/144/144 145/145/145
f 144/144/144 146/146/146 145/145/145
f 145/145/145 146/146/146 147/147/147
f 148/148/148 149/149/149 150/150/150
f 149/149/149 151/151/151 150/150/150
f 152/152/152 153/153/153 154/154/154
f 155/155/155 156/156/156 157/157/157
f 156/156/156 158/158/158 157/157/157
f 157/157/157 158/158/158 159/159/159
f 160/160/160 161/161/161 162/162/162
f 161/161/161 163/163/163 162/162/162
f 162/162/162 163/163/163 164/164/164
f 163/163/163 165/165/165 164/164/164
f 166/166/166 167/167/167 168/168/168
f 167/167/167 169/169/169 168/168/168
f 168/168/168 169/169/169 170/170/170
f 169/169/169 171/171/171 170/170/170
f 170/170/170 171/171/171 172/172/172
f 173/173/173 174/174/174 175/175/175
f 174/174/174 176/176/176 175/175/175
f 175/175/175 176/176/176 177/177/177
f 176/176/176 178/178/178 177/177/177
f 177/177/177 178/178/178 179/179/179
f 180/180/180 181/181/181 182/182/182
f 181/181/181 183/183/183 182/182/182
f 182/182/182 183/183/183 184/184/184
f 185/185/185 186/186/186 187/187/187
f 186/186/186 188/188/188 187/187/187
f 187/187/187 188/188/188 189/189/189
f 190/190/190 191/191/191 192/192/192
f 191/191/191 193/193/193 192/192/192
f 192/192/192 193/193/193 194/194/194
f 195/195/195 196/196/196 197/197/197
f 196/196/196 198/198/198 197/197/197
f 197/197/197 198/198/198 199/199/199
f 200/200/200 201/201/201 202/202/202
f 201/201/201 203/203/203 202/202/202
f 202/202/202 203/203/203 204/204/204
f 203/203/203 205/205/205 204/204/204
f 204/204/204 205/205/205 206/206/206
f 207/207/207 208/208/208 209/209/209
f 208/208/208 210/210/210 209/209/209
f 209/209/209 210/210/210 211/211/211
f 210/210/210 212/212/212 211/211/211
f 211/211/211 212/212/212 213/213/213
f 214/214/214 215/215/215 216/216/216
f 215/215/215 217/217/217 216/216/216
f 216/216/216 217/217/217 218/218/218
f 219/219/219 220/220/220 221/221/221
f 220/220/220 222/222/222 221/221/221
f 221/221/221 222/222/222 223/223/223
f 224/224/224 225/225/225 226/226/226
f 225/225/225 227/227/227 226/226/226
f 226/226/226 227/227/227 228/228/228
f 229/229/229 230/230/230 231/231/231
f 230/230/230 232/232/232 231/231/231
f 231/231/231 232/232/232 233/233/233
f 232/232/232 234/234/234 233/233/233
f 233/233/233 234/234/234 235/235/235
f 234/234/234 236/236/236 235/235/235
f 237/237/237 238/238/238 239/239/239
f 238/238/238 240/240/240 239/239/239
f 239/239/239 240/240/240 241/241/241
f 242/242/242 243/243/243 244/244/244
f 243/243/243 245/245/245 244/244/244
f 244/244/244 245/245/245 246/246/246
f 245/245/245 247/247/247 246/246/246
f 246/246/246 247/247/247 248/248/248
f 249/249/249 250/250/250 251/251/251
f 250/250/250 252/252/252 251/251/251
f 251/251/251 252/252/252 253/253/253
f 252/252/252 254/254/254 253/253/253
f 253/253/253 254/254/254 255/255/255
f 254/254/254 256/256/256 255/255/255
f 255/255/255 256/256/256 257/257/257
f 256/256/256 258/258/258 257/257/257
f 257/257/257 258/258/258 259/259/259
f 258/258/258 260/260/260 259/259/259
f 259/259/259 260/260/260 261/261/261
f 260/260/260 262/262/262 261/261/261
f 261/261/261 262/262/262 263/263/263
f 262/262/262 264/264/264 263/263/263
f 263/263/263 264/264/264 265/265/265
f 264/264/264 266/266/266 265/265/265
f 265/265/265 266/266/266 267/267/267
f 266/266/266 268/268/268 267/267/267
f 267/267/267 268/268/268 269/269/269
f 268/268/268 270/270/270 269/269/269
f 269/269/269 270/270/270 271/271/271
f 270/270/270 272/272/272 271/271/271
f 271/271/271 272/272/272 273/273/273
f 272/272/272 274/274/274 273/273/273
f 273/273/273 274/274/274 275/275/275
f 274/274/274 276/276/276 275/275/275
f 275/275/275 276/276/276 277/277/277
f 276/276/276 278/278/278 277/277/277
f 277/277/277 278/278/278 279/279/279
f 278/278/278 280/280/280 279/279/279
f 279/279/279 280/280/280 281/281/281
f 280/280/280 282/282/282 281/281/281
f 281/281/281 282/282/282 283/283/283
f 282/282/282 284/284/284 283/283/283
f 283/283/283 284/284/284 285/285/285
f 284/284/284 286/286/286 285/285/285
f 285/285/285 286/286/286 287/287/287
f 286/286/286 288/288/288 287/287/287
f 287/287/287 288/288/288 289/289/289
f 288/288/288 290/290/290 289/289/289
f 289/289/289 290/290/290 291/291/291
f 290/290/290 292/292/292 291/291/291
f 291/291/291 292/292/292 293/293/293
f 292/292/292 294/294/294 293/293/293
f 293/293/293 294/294/294 295/295/295
f 294/294/294 296/296/296 295/295/295
f 295/295/295 296/296/296 297/297/297
f 296/296/296 298/298/298 297/297/297
f 299/299/299 300/300/300 301/301/301
f 300/300/300 302/302/302 301/301/301
f 301/301/301 302/302/302 303/303/303
f 304/304/304 305/305/305 306/306/306
f 305/305/305 307/307/307 306/306/306
f 306/306/306 307/307/307 308/308/308
f 309/309/309 310/310/310 311/311/311
f 310/310/310 312/312/312 311/311/311
f 311/311/311 312/312/312 313/313/313
f 314/314/314 315/315/315 316/316/316
f 315/315/315 317/317/317 316/316/316
f 316/316/316 317/317/317 318/318/318
f 319/319/319 320/320/320 321/321/321
f 320/320/320 322/322/322 321/321/321
f 321/321/321 322/322/322 323/323/323
f 324/324/324 325/325/325 326/326/326
f 325/325/325 327/327/327 326/326/326
f 326/326/326 327/327/327 328/328/328
f 329/329/329 330/330/330 331/331/331
f 330/330/330 332/332/332 331/331/331
f 331/331/331 332/332/332 333/333/333
f 334/334/334 335/335/335 336/336/336
f 335/335/335 337/337/337 336/336/336
f 336/336/336 337/337/337 338/338/338
f 339/339/339 340/340/340 341/341/341
f 340/340/340 342/342/342 341/341/341
f 341/341/341 342/342/342 343/343/343
f 342/342/342 344/344/344 343/343/343
f 343/343/343 344/344/344 345/345/345
f 344/344/344 346/346/346 345/345/345
f 345/345/345 346/346/346 347/347/347
f 346/346/346 348/348/348 347/347/347
f 347/347/347 348/348/348 349/349/349
f 348/348/348 350/350/350 349/349/349
f 349/349/349 350/350/350 351/351/351
f 350/350/350 352/352/352 351/351/351
f 351/351/351 352/352/352 353/353/353
f 352/352/352 354/354/354 353/353/353
f 353/353/353 354/354/354 355/355/355
f 354/354/354 356/356/356 355/355/355
f 355/355/355 356/356/356 357/357/357
f 356/356/356 358/358/358 357/357/357
f 357/357/357 358/358/358 359/359/359
f 358/358/358 360/360/360 359/359/359
f 359/359/359 360/360/360 361/361/361
f 360/360/360 362/362/362 361/361/361
f 361/361/361 362/362/362 363/363/363
f 362/362/362 364/364/364 363/363/363
f 363/363/363 364/364/364 365/365/365
f 364/364/364 366/366/366 365/365/365
f 365/365/365 366/366/366 367/367/367
f 366/366/366 368/368/368 367/367/367
f 367/367/367 368/368/368 369/369/369
f 368/368/368 370/370/370 369/369/369
f 369/369/369 370/370/370 371/371/371
f 370/370/370 372/372/372 371/371/371
f 371/371/371 372/372/372 373/373/373
f 372/372/372 374/374/374 373/373/373
f 373/373/373 374/374/374 375/375/375
f 374/374/374 376/376/376 375/375/375
f 375/375/375 376/376/376 377/377/377
f 376/376/376 378/378/378 377/377/377
f 377/377/377 378/378/378 379/379/379
f 378/378/378 380/380/380 379/379/379
f 379/379/379 380/380/380 381/381/381
f 380/380/380 382/382/382 381/381/381
f 381/381/381 382/382/382 383/383/383
f 382/382/382 384/384/384 383/383/383
f 383/383/383 384/384/384 385/385/385
f 384/384/384 386/386/386 385/385/385
f 385/385/385 386/386/386 387/387/387
f 386/386/386 388/388/388 387/387/387
f 389/389/389 390/390/390 391/391/391
f 390/390/390 392/392/392 391/391/391
f 391/391/391 392/392/392 393/393/393
f 394/394/394 395/395/395 396/396/396
f 395/395/395 397/397/397 396/396/396
f 396/396/396 397/397/397 398/398/398
f 399/399/399 400/400/400 401/401/401
f 400/400/400 402/402/402 401/401/401
f 401/401/401 402/402/402 403/403/403
f 404/404/404 405/405/405 406/406/406
f 405/405/405 407/407/407 406/406/406
f 406/406/406 407/407/407 408/408/408
f 409/409/409 410/410/410 411/411/411
f 410/410/410 412/412/412 411/411/411
f 411/411/411 412/412/412 413/413/413
f 414/414/414 415/415/415 416/416/416
f 415/415/415 417/417/417 416/416/416
f 416/416/416 417/417/417 418/418/418
f 419/419/419 420/420/420 421/421/421
f 420/420/420 422/422/422 421/421/421
f 421/421/421 422/422/422 423/423/423
f 424/424/424 425/425/425 426/426/426
f 425/425/425 427/427/427 426/426/426
f 426/426/426 427/427/427 428/428/428
f 429/429/429 430/430/430 431/431/431
f 430/430/430 432/432/432 431/431/431
f 431/431/431 432/432/432 433/433/433
f 432/432/432 434/434/434 433/433/433
f 433/433/433 434/434/434 435/435/435
f 434/434/434 436/436/436 435/435/435
f 435/435/435 436/436/436 437/437/437
f 436/436/436 438/438/438 437/437/437
f 437/437/437 438/438/438 439/439/439
f 438/438/438 440/440/440 439/439/439
f 439/439/439 440/440/440 441/441/441
f 440/440/440 442/442/442 441/441/441
f 441/441/441 442/442/442 443/443/443
f 442/442/442 444/444/444 443/443/443
f 443/443/443 444/444/444 445/445/445
f 444/444/444 446/446/446 445/445/445
f 445/445/445 446/446/446 447/447/447
f 446/446/446 448/448/448 447/447/447
f 447/447/447 448/448/448 449/449/449
f 448/448/448 450/450/450 449/449/449
f 449/449/449 450/450/450 451/451/451
f 450/450/450 452/452/452 451/451/451
f 451/451/451 452/452/452 453/453/453
f 452/452/452 454/454/454 453/453/453
f 453/453/453 454/454/454 455/455/455
f 454/454/454 456/456/456 455/455/455
f 455/455/455 456/456/456 457/457/457
f 456/456/456 458/458/458 457/457/457
f 457/457/457 458/458/458 459/459/459
f 458/458/458 460/460/460 459/459/459
f 459/459/459 460/460/460 461/461/461
f 460/460/460 462/462/462 461/461/461
f 461/461/461 462/462/462 463/463/463
f 462/462/462 464/464/464 463/463/463
f 463/463/463 464/464/464 465/465/465
f 464/464/464 466/466/466 465/465/465
f 465/465/465 466/466/466 467/467/467
f 466/466/466 468/468/468 467/467/467
f 467/467/467 468/468/468 469/469/469
f 468/468/468 470/470/470 469/469/469
f 469/469/469 470/470/470 471/471/471
f 470/470/470 472/472/472 471/471/471
f 471/471/471 472/472/472 473/473/473
f 472/472/472 474/474/474 473/473/473
f 473/473/473 474/474/474 475/475/475
f 474/474/474 476/476/476 475/475/475
f 475/475/475 476/476/476 477/477/477
f 476/476/476 478/478/478 477/477/477
f 479/479/479 480/480/480 481/481/481
f 480/480/480 482/482/482 481/481/481
f 481/481/481 482/482/482 483/483/483
f 484/484/484 485/485/485 486/486/486
f 485/485/485 487/487/487 486/486/486
f 486/486/486 487/487/487 488/488/488
f 489/489/489 490/490/490 491/491/491
f 490/490/490 492/492/492 491/491/491
f 491/491/491 492/492/492 493/493/493
f 494/494/494 495/495/495 496/496/496
f 495/495/495 497/497/497 496/496/496
f 496/496/496 497/497/497 498/498/498
f 499/499/499 500/500/500 501/501/501
f 500/500/500 502/502/502 501/501/501
f 501/501/501 502/502/502 503/503/503
f 504/504/504 505/505/505 506/506/506
f 505/505/505 507/507/507 506/506/506
f 506/506/506 507/507/507 508/508/508
f 509/509/509 510/510/510 511/511/511
f 510/510/510 512/512/512 511/511/511
f 511/511/511 512/512/512 513/513/513
f 514/514/514 515/515/515 516/516/516
f 515/515/515 517/517/517 516/516/516
f 516/516/516 517/517/517 518/518/518
f 519/519/519 520/520/520 521/521/521
f 520/520/520 522/522/522 521/521/521
f 521/521/521 522/522/522 523/523/523
f 522/522/522 524/524/524 523/523/523
f 523/523/523 524/524/524 525/525/525
f 524/524/524 526/526/526 525/525/525
f 525/525/525 526/526/526 527/527/527
f 526/526/526 528/528/528 527/527/527
f 527/527/527 528/528/528 529/529/529
f 528/528/528 530/530/530 529/529/529
f 529/529/529 530/530/530 531/531/531
f 530/530/530 532/532/532 531/531/531
f 531/531/531 532/532/532 533/533/533
f 532/532/532 534/534/534 533/533/533
f 533/533/533 534/534/534 535/535/535
f 534/534/534 536/536/536 535/535/535
f 535/535/535 536/536/536 537/537/537
f 536/536/536 538/538/538 537/537/537
f 537/537/537 538/538/538 539/539/539
f 538/538/538 540/540/540 539/539/539
f 539/539/539 540/540/540 541/541/541
f 540/540/540 542/542/542 541/541/541
f 541/541/541 542/542/542 543/543/543
f 542/542/542 544/544/544 543/543/543
f 543/543/543 544/544/544 545/545/545
f 544/544/544 546/546/546 545/545/545
f 545/545/545 546/546/546 547/547/547
f 546/546/546 548/548/548 547/547/547
f 547/547/547 548/548/548 549/549/549
f 548/548/548 550/550/550 549/549/549
f 549/549/549 550/550/550 551/551/551
f 550/550/550 552/552/552 551/551/551
f 551/551/551 552/552/552 553/553/553
f 552/552/552 554/554/554 553/553/553
f 553/553/553 554/554/554 555/555/555
f 554/554/554 556/556/556 555/555/555
f 555/555/555 556/556/556 557/557/557
f 556/556/556 558/558/558 557/557/557
f 557/557/557 558/558/558 559/559/559
f 558/558/558 560/560/560 559/559/559
f 559/559/559 560/560/560 561/561/561
f 560/560/560 562/562/562 561/561/561
f 561/561/561 562/562/562 563/563/563
f 562/562/562 564/564/564 563/563/563
f 563/563/563 564/564/564 565/565/565
f 564/564/564 566/566/566 565/565/565
f 565/565/565 566/566/566 567/567/567
f 566/566/566 568/568/568 567/567/567
f 569/569/569 570/570/570 571/571/571
f 570/570/570 572/572/572 571/571/571
f 571/571/571 572/572/572 573/573/573
f 574/574/574 575/575/575 576/576/576
f 575/575/575 577/577/577 576/576/576
f 576/576/576 577/577/577 578/578/578
f 579/579/579 580/580/580 581/581/581
f 580/580/580 582/582/582 581/581/581
f 581/581/581 582/582/582 583/583/583
f 584/584/584 585/585/585 586/586/586
f 585/585/585 587/587/587 586/586/586
f 586/586/586 587/587/587 588/588/588
f 589/589/589 590/590/590 591/591/591
f 590/590/590 592/592/592 591/591/591
f 591/591/591 592/592/592 593/593/593
f 594/594/594 595/595/595 596/596/596
f 595/595/595 597/597/597 596/596/596
f 596/596/596 597/597/597 598/598/598
f 599/599/599 600/600/600 601/601/601
f 600/600/600 602/602/602 601/601/601
f 601/601/601 602/602/602 603/603/603
f 604/604/604 605/605/605 606/606/606
f 605/605/605 607/607/607 606/606/606
f 606/606/606 607/607/607 608/608/608
##########################


##########################
g Root|Mesa_(Predeterminado)|Predeterminado|Predeterminado_-_Part_2
##########################
v 0.04985895 0.6119223 0.406
v 0.05985895 0.6119223 0.416
v 0.04985895 0.6119223 0.31
v 0.05985895 0.6119223 0.3
v -0.04985895 0.6119223 0.31
v -0.05985895 0.6119223 0.3
v -0.04985895 0.6119223 0.406
v -0.05985895 0.6119223 0.416
v 0.04985895 0.6119223 0.406
v 0.05985895 0.6119223 0.416
v 0.05985895 0.6003 0.3
v 0.05985895 0.5410165 0.3
v -0.05985895 0.6003 0.3
v -0.05985895 0.5410165 0.3
v 0.05985895 0.5410165 0.416
v -0.05985895 0.5410165 0.416
v 0.05985895 0.5410165 0.3
v -0.05985895 0.5410165 0.3
v 0.05985895 0.6119223 0.416
v 0.05985895 0.5410165 0.416
v 0.05985895 0.5410165 0.3
v 0.05985895 0.5410165 0.3
v 0.05985895 0.6003 0.3
v 0.05985895 0.6119223 0.416
v 0.05985895 0.6103 0.3
v 0.05985895 0.6119223 0.3
v -0.05985895 0.5410165 0.3
v -0.05985895 0.5410165 0.416
v -0.05985895 0.6003 0.3
v -0.05985895 0.6119223 0.416
v -0.05985895 0.6103 0.3
v -0.05985895 0.6119223 0.3
v 0.05985895 0.6119223 0.416
v -0.05985895 0.6119223 0.416
v 0.05985895 0.5410165 0.416
v -0.05985895 0.5410165 0.416
v -0.05985895 0.6119223 0.3
v 0.05985895 0.6119223 0.3
v -0.05985895 0.6103 0.3
v 0.05985895 0.6103 0.3
v -0.07517735 0.6352 0.0771555
v -0.1618208 0.6352 0.007016558
v -0.07517735 0.6103 0.0771555
v -0.1618208 0.6103 0.007016558
v -0.04549157 0.6352 0.04048432
v -0.07517735 0.6352 0.0771555
v -0.04549157 0.6103 0.04048432
v -0.07517735 0.6103 0.0771555
v -0.132135 0.6352 -0.02965462
v -0.04549157 0.6352 0.04048432
v -0.132135 0.6103 -0.02965462
v -0.04549157 0.6103 0.04048432
v -0.1618208 0.6352 0.007016558
v -0.132135 0.6352 -0.02965462
v -0.1618208 0.6103 0.007016558
v -0.132135 0.6103 -0.02965462
v -0.04549157 0.6352 0.04048432
v -0.132135 0.6352 -0.02965462
v -0.07517735 0.6352 0.0771555
v -0.1618208 0.6352 0.007016558
v 0.05412994 0.6352 0.1031463
v 0.05412994 0.6352 0.138566
v 0.05412994 0.6103 0.1031463
v 0.05412994 0.6103 0.138566
v -0.04549157 0.6352 0.1031463
v 0.05412994 0.6352 0.1031463
v -0.04549157 0.6103 0.1031463
v 0.05412994 0.6103 0.1031463
v -0.04549157 0.6352 0.138566
v -0.04549157 0.6352 0.1031463
v -0.04549157 0.6103 0.138566
v -0.04549157 0.6103 0.1031463
v 0.05412994 0.6352 0.138566
v -0.04549157 0.6352 0.138566
v 0.05412994 0.6103 0.138566
v -0.04549157 0.6103 0.138566
v -0.04549157 0.6352 0.1031463
v -0.04549157 0.6352 0.138566
v 0.05412994 0.6352 0.1031463
v 0.05412994 0.6352 0.138566
vt 0.7262735 0.022439
vt 0.7487124 0
vt 0.7262735 0.2378523
vt 0.7487124 0.2602912
vt 0.5025176 0.2378523
vt 0.4800787 0.2602912
vt 0.5025176 0.022439
vt 0.4800787 0
vt 0.7262735 0.022439
vt 0.7487124 0
vt 0.2512875 0.527357
vt 0.2512875 0.3943312
vt 0.5199213 0.527357
vt 0.5199213 0.3943312
vt 0.2512875 0
vt 0.5199213 0
vt 0.2512875 0.2602912
vt 0.5199213 0.2602912
vt 2.980232E-08 0.5534362
vt 2.980232E-08 0.3943312
vt 0.2602912 0.3943312
vt 0.2602912 0.3943312
vt 0.2602912 0.527357
vt 2.980232E-08 0.5534362
vt 0.2602912 0.5497959
vt 0.2602912 0.5534362
vt 0.7397088 0.3943312
vt 1 0.3943312
vt 0.7397088 0.527357
vt 1 0.5534362
vt 0.7397088 0.5497959
vt 0.7397088 0.5534362
vt 0.7487124 0.5534362
vt 0.4800787 0.5534362
vt 0.7487124 0.3943312
vt 0.4800787 0.3943312
vt 0.5199213 0.5534362
vt 0.2512875 0.5534362
vt 0.5199213 0.5497959
vt 0.2512875 0.5497959
vt 0.4457058 0.6056688
vt 0.2512875 0.6056688
vt 0.4457058 0.5497959
vt 0.2512875 0.5497959
vt 0.842616 0.6056688
vt 0.7603298 0.6056688
vt 0.842616 0.5497959
vt 0.7603298 0.5497959
vt 0.6821008 0.6056688
vt 0.4876825 0.6056688
vt 0.6821008 0.5497959
vt 0.4876825 0.5497959
vt 0.08228609 0.6056688
vt 0 0.6056688
vt 0.08228609 0.5497959
vt 0 0.5497959
vt 0.5123175 0.842616
vt 0.3178992 1
vt 0.4457058 0.7603298
vt 0.2512875 0.9177139
vt 0.7020093 0.6056688
vt 0.6225314 0.6056688
vt 0.7020093 0.5497959
vt 0.6225314 0.5497959
vt 0.4876825 0.6056688
vt 0.2641428 0.6056688
vt 0.4876825 0.5497959
vt 0.2641428 0.5497959
vt 0.3774686 0.6056688
vt 0.2979907 0.6056688
vt 0.3774686 0.5497959
vt 0.2979907 0.5497959
vt 0.7358572 0.6056688
vt 0.5123175 0.6056688
vt 0.7358572 0.5497959
vt 0.5123175 0.5497959
vt 0.5123175 0.7020093
vt 0.5123175 0.6225314
vt 0.7358572 0.7020093
vt 0.7358572 0.6225314
vn -5.796037E-17 1 0
vn -5.796037E-17 1 0
vn -5.796037E-17 1 0
vn -5.796037E-17 1 0
vn -5.796037E-17 1 0
vn -5.796037E-17 1 0
vn -5.796037E-17 1 0
vn -5.796037E-17 1 0
vn -5.796037E-17 1 0
vn -5.796037E-17 1 0
vn 0 0 -1
vn 0 0 -1
vn 0 0 -1
vn 0 0 -1
vn 1.159207E-16 -1 0
vn 1.159207E-16 -1 0
vn 1.159207E-16 -1 0
vn 1.159207E-16 -1 0
vn 1 -1.957213E-16 0
vn 1 -1.957213E-16 0
vn 1 -1.957213E-16 0
vn 1 -1.957213E-16 0
vn 1 -1.957213E-16 0
vn 1 -1.957213E-16 0
vn 1 -1.957213E-16 0
vn 1 -1.957213E-16 0
vn -1 9.786063E-17 0
vn -1 9.786063E-17 0
vn -1 9.786063E-17 0
vn -1 9.786063E-17 0
vn -1 9.786063E-17 0
vn -1 9.786063E-17 0
vn 0 0 1
vn 0 0 1
vn 0 0 1
vn 0 0 1
vn 0 0 -1
vn 0 0 -1
vn 0 0 -1
vn 0 0 -1
vn -0.629193 0 0.7772491
vn -0.629193 0 0.7772491
vn -0.629193 0 0.7772491
vn -0.629193 0 0.7772491
vn 0.7772491 0 0.629193
vn 0.7772491 0 0.629193
vn 0.7772491 0 0.629193
vn 0.7772491 0 0.629193
vn 0.629193 0 -0.7772491
vn 0.629193 0 -0.7772491
vn 0.629193 0 -0.7772491
vn 0.629193 0 -0.7772491
vn -0.7772491 0 -0.629193
vn -0.7772491 0 -0.629193
vn -0.7772491 0 -0.629193
vn -0.7772491 0 -0.629193
vn 0 1 0
vn 0 1 0
vn 0 1 0
vn 0 1 0
vn 1 0 0
vn 1 0 0
vn 1 0 0
vn 1 0 0
vn 0 0 -1
vn 0 0 -1
vn 0 0 -1
vn 0 0 -1
vn -1 0 0
vn -1 0 0
vn -1 0 0
vn -1 0 0
vn 0 0 1
vn 0 0 1
vn 0 0 1
vn 0 0 1
vn 0 1 0
vn 0 1 0
vn 0 1 0
vn 0 1 0
usemtl yellow_low_gloss_plastic
f 609/609/609 610/610/610 611/611/611
f 610/610/610 612/612/612 611/611/611
f 611/611/611 612/612/612 613/613/613
f 612/612/612 614/614/614 613/613/613
f 613/613/613 614/614/614 615/615/615
f 614/614/614 616/616/616 615/615/615
f 615/615/615 616/616/616 617/617/617
f 616/616/616 618/618/618 617/617/617
f 619/619/619 620/620/620 621/621/621
f 620/620/620 622/622/622 621/621/621
f 623/623/623 624/624/624 625/625/625
f 624/624/624 626/626/626 625/625/625
f 627/627/627 628/628/628 629/629/629
f 630/630/630 631/631/631 632/632/632
f 631/631/631 633/633/633 632/632/632
f 632/632/632 633/633/633 634/634/634
f 635/635/635 636/636/636 637/637/637
f 636/636/636 638/638/638 637/637/637
f 637/637/637 638/638/638 639/639/639
f 638/638/638 640/640/640 639/639/639
f 641/641/641 642/642/642 643/643/643
f 642/642/642 644/644/644 643/643/643
f 645/645/645 646/646/646 647/647/647
f 646/646/646 648/648/648 647/647/647
f 649/649/649 650/650/650 651/651/651
f 650/650/650 652/652/652 651/651/651
f 653/653/653 654/654/654 655/655/655
f 654/654/654 656/656/656 655/655/655
f 657/657/657 658/658/658 659/659/659
f 658/658/658 660/660/660 659/659/659
f 661/661/661 662/662/662 663/663/663
f 662/662/662 664/664/664 663/663/663
f 665/665/665 666/666/666 667/667/667
f 666/666/666 668/668/668 667/667/667
f 669/669/669 670/670/670 671/671/671
f 670/670/670 672/672/672 671/671/671
f 673/673/673 674/674/674 675/675/675
f 674/674/674 676/676/676 675/675/675
f 677/677/677 678/678/678 679/679/679
f 678/678/678 680/680/680 679/679/679
f 681/681/681 682/682/682 683/683/683
f 682/682/682 684/684/684 683/683/683
f 685/685/685 686/686/686 687/687/687
f 686/686/686 688/688/688 687/687/687
##########################


##########################
g Root|Mesa_(Predeterminado)|Predeterminado|Predeterminado_-_Part_3
##########################
v 0.04985895 0.6119223 0.31
v -0.04985895 0.6119223 0.31
v 0.04985895 0.5510164 0.31
v -0.04985895 0.5510164 0.31
v -0.04985895 0.5510164 0.406
v 0.04985895 0.5510164 0.406
v -0.04985895 0.5510164 0.31
v 0.04985895 0.5510164 0.31
v 0.04985895 0.5510164 0.406
v 0.04985895 0.6119223 0.406
v 0.04985895 0.5510164 0.31
v 0.04985895 0.6119223 0.31
v -0.04985895 0.6119223 0.406
v -0.04985895 0.5510164 0.406
v -0.04985895 0.6119223 0.31
v -0.04985895 0.5510164 0.31
v -0.04985895 0.6119223 0.406
v 0.04985895 0.6119223 0.406
v -0.04985895 0.5510164 0.406
v 0.04985895 0.5510164 0.406
vt 1 0.8053909
vt 0 0.8053909
vt 1 0.1946092
vt 0 0.1946092
vt 0 0.01864195
vt 1 0.01864195
vt 0 0.9813576
vt 1 0.9813576
vt 0.9813581 0.1946092
vt 0.9813581 0.8053909
vt 0.01864243 0.1946092
vt 0.01864243 0.8053909
vt 0.01864195 0.8053909
vt 0.01864195 0.1946092
vt 0.9813576 0.8053909
vt 0.9813576 0.1946092
vt 1 0.8053909
vt 0 0.8053909
vt 1 0.1946092
vt 0 0.1946092
vn 0 0 1
vn 0 0 1
vn 0 0 1
vn 0 0 1
vn -1.159207E-16 1 0
vn -1.159207E-16 1 0
vn -1.159207E-16 1 0
vn -1.159207E-16 1 0
vn -1 1.957213E-16 0
vn -1 1.957213E-16 0
vn -1 1.957213E-16 0
vn -1 1.957213E-16 0
vn 1 -9.786063E-17 0
vn 1 -9.786063E-17 0
vn 1 -9.786063E-17 0
vn 1 -9.786063E-17 0
vn 0 0 -1
vn 0 0 -1
vn 0 0 -1
vn 0 0 -1
usemtl yellow_low_gloss_plastic
f 689/689/689 690/690/690 691/691/691
f 690/690/690 692/692/692 691/691/691
f 693/693/693 694/694/694 695/695/695
f 694/694/694 696/696/696 695/695/695
f 697/697/697 698/698/698 699/699/699
f 698/698/698 700/700/700 699/699/699
f 701/701/701 702/702/702 703/703/703
f 702/702/702 704/704/704 703/703/703
f 705/705/705 706/706/706 707/707/707
f 706/706/706 708/708/708 707/707/707
##########################


##########################
g Root|Mesa_(Predeterminado)|Predeterminado|Predeterminado_-_Part_4
##########################
v -0.05985895 0.6003 -0.3
v -0.05985895 0.5410165 -0.3
v 0.05985895 0.6003 -0.3
v 0.05985895 0.5410165 -0.3
v 0.05985895 0.5410165 -0.3
v 0.05985895 0.5410165 -0.416
v 0.05985895 0.6003 -0.3
v 0.05985895 0.6119223 -0.416
v 0.05985895 0.6103 -0.3
v 0.05985895 0.6119223 -0.3
v -0.05985895 0.5410165 -0.416
v 0.05985895 0.5410165 -0.416
v -0.05985895 0.5410165 -0.3
v 0.05985895 0.5410165 -0.3
v -0.05985895 0.6119223 -0.416
v -0.05985895 0.5410165 -0.416
v -0.05985895 0.5410165 -0.3
v -0.05985895 0.5410165 -0.3
v -0.05985895 0.6003 -0.3
v -0.05985895 0.6119223 -0.416
v -0.05985895 0.6103 -0.3
v -0.05985895 0.6119223 -0.3
v -0.04985895 0.6119223 -0.406
v -0.05985895 0.6119223 -0.416
v -0.04985895 0.6119223 -0.31
v -0.05985895 0.6119223 -0.3
v 0.04985895 0.6119223 -0.31
v 0.05985895 0.6119223 -0.3
v 0.04985895 0.6119223 -0.406
v 0.05985895 0.6119223 -0.416
v -0.04985895 0.6119223 -0.406
v -0.05985895 0.6119223 -0.416
v -0.05985895 0.5410165 -0.416
v -0.05985895 0.6119223 -0.416
v 0.05985895 0.5410165 -0.416
v 0.05985895 0.6119223 -0.416
v 0.05985895 0.6119223 -0.3
v -0.05985895 0.6119223 -0.3
v 0.05985895 0.6103 -0.3
v -0.05985895 0.6103 -0.3
v 0.04985895 0.5510224 -0.406
v 0.04985895 0.5510224 -0.31
v 0.04985895 0.6119223 -0.406
v 0.04985895 0.6119223 -0.31
v 0.04985895 0.5510224 -0.31
v -0.04985895 0.5510224 -0.31
v 0.04985895 0.6119223 -0.31
v -0.04985895 0.6119223 -0.31
v -0.04985895 0.5510224 -0.31
v -0.04985895 0.5510224 -0.406
v -0.04985895 0.6119223 -0.31
v -0.04985895 0.6119223 -0.406
v -0.04985895 0.5510224 -0.406
v 0.04985895 0.5510224 -0.406
v -0.04985895 0.6119223 -0.406
v 0.04985895 0.6119223 -0.406
v -0.04985895 0.5510224 -0.406
v -0.04985895 0.5510224 -0.31
v 0.04985895 0.5510224 -0.406
v 0.04985895 0.5510224 -0.31
v 0.1046358 0.6352 -0.1775873
v 0.1046358 0.6352 -0.1283934
v 0.1046358 0.6103 -0.1775873
v 0.1046358 0.6103 -0.1283934
v -0.006214681 0.6352 -0.1775873
v 0.1046358 0.6352 -0.1775873
v -0.006214681 0.6103 -0.1775873
v 0.1046358 0.6103 -0.1775873
v -0.006214681 0.6352 -0.1283934
v -0.006214681 0.6352 -0.1775873
v -0.006214681 0.6103 -0.1283934
v -0.006214681 0.6103 -0.1775873
v 0.1046358 0.6352 -0.1283934
v -0.006214681 0.6352 -0.1283934
v 0.1046358 0.6103 -0.1283934
v -0.006214681 0.6103 -0.1283934
v -0.006214681 0.6352 -0.1775873
v -0.006214681 0.6352 -0.1283934
v 0.1046358 0.6352 -0.1775873
v 0.1046358 0.6352 -0.1283934
v -0.1368715 0.6352 -0.2277206
v -0.1368715 0.6352 -0.1880289
v -0.1368715 0.6103 -0.2277206
v -0.1368715 0.6103 -0.1880289
v -0.2175562 0.6352 -0.2277206
v -0.1368715 0.6352 -0.2277206
v -0.2175562 0.6103 -0.2277206
v -0.1368715 0.6103 -0.2277206
v -0.2175562 0.6352 -0.1880289
v -0.2175562 0.6352 -0.2277206
v -0.2175562 0.6103 -0.1880289
v -0.2175562 0.6103 -0.2277206
v -0.1368715 0.6352 -0.1880289
v -0.2175562 0.6352 -0.1880289
v -0.1368715 0.6103 -0.1880289
v -0.2175562 0.6103 -0.1880289
v -0.2175562 0.6352 -0.2277206
v -0.2175562 0.6352 -0.1880289
v -0.1368715 0.6352 -0.2277206
v -0.1368715 0.6352 -0.1880289
vt 0.4894512 0.5378401
vt 0.4894512 0.3538394
vt 0.8610244 0.5378401
vt 0.8610244 0.3538394
vt 0.5862944 0.3538394
vt 0.9463282 0.3538394
vt 0.5862944 0.5378401
vt 0.9463282 0.5739128
vt 0.5862944 0.5688775
vt 0.5862944 0.5739128
vt 0.5105488 0.9463282
vt 0.1389756 0.9463282
vt 0.5105488 0.5862944
vt 0.1389756 0.5862944
vt 0.05367184 0.5739128
vt 0.05367184 0.3538394
vt 0.4137056 0.3538394
vt 0.4137056 0.3538394
vt 0.4137056 0.5378401
vt 0.05367184 0.5739128
vt 0.4137056 0.5688775
vt 0.4137056 0.5739128
vt 0.5204886 0.9152907
vt 0.4894512 0.9463282
vt 0.5204886 0.6173317
vt 0.4894512 0.5862944
vt 0.829987 0.6173317
vt 0.8610244 0.5862944
vt 0.829987 0.9152907
vt 0.8610244 0.9463282
vt 0.5204886 0.9152907
vt 0.4894512 0.9463282
vt 0.5105488 0.3538394
vt 0.5105488 0.5739128
vt 0.1389756 0.3538394
vt 0.1389756 0.5739128
vt 0.8610244 0.5739128
vt 0.4894512 0.5739128
vt 0.8610244 0.5688775
vt 0.4894512 0.5688775
vt 0.08470929 0.384895
vt 0.3826683 0.384895
vt 0.08470929 0.5739128
vt 0.3826683 0.5739128
vt 0.170013 0.384895
vt 0.4795114 0.384895
vt 0.170013 0.5739128
vt 0.4795114 0.5739128
vt 0.6173317 0.384895
vt 0.9152907 0.384895
vt 0.6173317 0.5739128
vt 0.9152907 0.5739128
vt 0.5204886 0.384895
vt 0.829987 0.384895
vt 0.5204886 0.5739128
vt 0.829987 0.5739128
vt 0.5204886 0.9152907
vt 0.5204886 0.6173317
vt 0.829987 0.9152907
vt 0.829987 0.6173317
vt 0.2063572 0.6461606
vt 0.05367184 0.6461606
vt 0.2063572 0.5688775
vt 0.05367184 0.5688775
vt 0.3440509 0.6461606
vt 0 0.6461606
vt 0.3440509 0.5688775
vt 0 0.5688775
vt 0.9463282 0.6461606
vt 0.7936428 0.6461606
vt 0.9463282 0.5688775
vt 0.7936428 0.5688775
vt 1 0.6461606
vt 0.6559491 0.6461606
vt 1 0.5688775
vt 0.6559491 0.5688775
vt 0.6559491 0.2063572
vt 0.6559491 0.05367184
vt 1 0.2063572
vt 1 0.05367184
vt 0.3619578 0.6461606
vt 0.2387652 0.6461606
vt 0.3619578 0.5688775
vt 0.2387652 0.5688775
vt 1 0.6461606
vt 0.7495757 0.6461606
vt 1 0.5688775
vt 0.7495757 0.5688775
vt 0.7612348 0.6461606
vt 0.6380422 0.6461606
vt 0.7612348 0.5688775
vt 0.6380422 0.5688775
vt 0.2504242 0.6461606
vt 0 0.6461606
vt 0.2504242 0.5688775
vt 0 0.5688775
vt 0 0.3619578
vt 0 0.2387652
vt 0.2504242 0.3619578
vt 0.2504242 0.2387652
vn 0 0 1
vn 0 0 1
vn 0 0 1
vn 0 0 1
vn 1 0 0
vn 1 0 0
vn 1 0 0
vn 1 0 0
vn 1 0 0
vn 1 0 0
vn 0 -1 0
vn 0 -1 0
vn 0 -1 0
vn 0 -1 0
vn -1 0 0
vn -1 0 0
vn -1 0 0
vn -1 0 0
vn -1 0 0
vn -1 0 0
vn -1 0 0
vn -1 0 0
vn 0 1 0
vn 0 1 0
vn 0 1 0
vn 0 1 0
vn 0 1 0
vn 0 1 0
vn 0 1 0
vn 0 1 0
vn 0 1 0
vn 0 1 0
vn 0 0 -1
vn 0 0 -1
vn 0 0 -1
vn 0 0 -1
vn 0 0 1
vn 0 0 1
vn 0 0 1
vn 0 0 1
vn -1 0 0
vn -1 0 0
vn -1 0 0
vn -1 0 0
vn 0 0 -1
vn 0 0 -1
vn 0 0 -1
vn 0 0 -1
vn 1 0 0
vn 1 0 0
vn 1 0 0
vn 1 0 0
vn 0 0 1
vn 0 0 1
vn 0 0 1
vn 0 0 1
vn 0 1 0
vn 0 1 0
vn 0 1 0
vn 0 1 0
vn 1 0 0
vn 1 0 0
vn 1 0 0
vn 1 0 0
vn 0 0 -1
vn 0 0 -1
vn 0 0 -1
vn 0 0 -1
vn -1 0 0
vn -1 0 0
vn -1 0 0
vn -1 0 0
vn 0 0 1
vn 0 0 1
vn 0 0 1
vn 0 0 1
vn 0 1 0
vn 0 1 0
vn 0 1 0
vn 0 1 0
vn 1 0 0
vn 1 0 0
vn 1 0 0
vn 1 0 0
vn 0 0 -1
vn 0 0 -1
vn 0 0 -1
vn 0 0 -1
vn -1 0 0
vn -1 0 0
vn -1 0 0
vn -1 0 0
vn 0 0 1
vn 0 0 1
vn 0 0 1
vn 0 0 1
vn 0 1 0
vn 0 1 0
vn 0 1 0
vn 0 1 0
usemtl color
f 709/709/709 710/710/710 711/711/711
f 710/710/710 712/712/712 711/711/711
f 713/713/713 714/714/714 715/715/715
f 714/714/714 716/716/716 715/715/715
f 715/715/715 716/716/716 717/717/717
f 716/716/716 718/718/718 717/717/717
f 719/719/719 720/720/720 721/721/721
f 720/720/720 722/722/722 721/721/721
f 723/723/723 724/724/724 725/725/725
f 726/726/726 727/727/727 728/728/728
f 727/727/727 729/729/729 728/728/728
f 728/728/728 729/729/729 730/730/730
f 731/731/731 732/732/732 733/733/733
f 732/732/732 734/734/734 733/733/733
f 733/733/733 734/734/734 735/735/735
f 734/734/734 736/736/736 735/735/735
f 735/735/735 736/736/736 737/737/737
f 736/736/736 738/738/738 737/737/737
f 737/737/737 738/738/738 739/739/739
f 738/738/738 740/740/740 739/739/739
f 741/741/741 742/742/742 743/743/743
f 742/742/742 744/744/744 743/743/743
f 745/745/745 746/746/746 747/747/747
f 746/746/746 748/748/748 747/747/747
f 749/749/749 750/750/750 751/751/751
f 750/750/750 752/752/752 751/751/751
f 753/753/753 754/754/754 755/755/755
f 754/754/754 756/756/756 755/755/755
f 757/757/757 758/758/758 759/759/759
f 758/758/758 760/760/760 759/759/759
f 761/761/761 762/762/762 763/763/763
f 762/762/762 764/764/764 763/763/763
f 765/765/765 766/766/766 767/767/767
f 766/766/766 768/768/768 767/767/767
f 769/769/769 770/770/770 771/771/771
f 770/770/770 772/772/772 771/771/771
f 773/773/773 774/774/774 775/775/775
f 774/774/774 776/776/776 775/775/775
f 777/777/777 778/778/778 779/779/779
f 778/778/778 780/780/780 779/779/779
f 781/781/781 782/782/782 783/783/783
f 782/782/782 784/784/784 783/783/783
f 785/785/785 786/786/786 787/787/787
f 786/786/786 788/788/788 787/787/787
f 789/789/789 790/790/790 791/791/791
f 790/790/790 792/792/792 791/791/791
f 793/793/793 794/794/794 795/795/795
f 794/794/794 796/796/796 795/795/795
f 797/797/797 798/798/798 799/799/799
f 798/798/798 800/800/800 799/799/799
f 801/801/801 802/802/802 803/803/803
f 802/802/802 804/804/804 803/803/803
f 805/805/805 806/806/806 807/807/807
f 806/806/806 808/808/808 807/807/807
##########################

