<?xml version="1.0" encoding="UTF-8"?>
<COLLADA xmlns="http://www.collada.org/2005/11/COLLADASchema" version="1.4.1">
<!--
# File generated by ImageToStl.com - Free Image and 3D model conversion tools
-->
  <asset>
    <contributor>
      <author>ImageToStl.com</author>
      <authoring_tool>ImageToStl.com</authoring_tool>
    </contributor>
    <created>2026-01-03T05:22:43</created>
    <modified>2026-01-03T05:22:43</modified>
    <up_axis>Y_UP</up_axis>
  </asset>
  <library_effects>
    <effect id="effect_0">
        <profile_COMMON>
          <technique sid="common">
            <phong>
              <diffuse>
                <color>0.44787 0.00604 0.00604 1</color>
              </diffuse>
              <specular>
                <color>0.04 0.04 0.04 1</color>
              </specular>
              <shininess>
                <float>38.4</float>
              </shininess>
              <transparency>
                <float>1</float>
              </transparency>
            </phong>
          </technique>
        </profile_COMMON>
    </effect>
    <effect id="effect_1">
        <profile_COMMON>
          <technique sid="common">
            <phong>
              <diffuse>
                <color>1 1 1 1</color>
              </diffuse>
              <specular>
                <color>0.04 0.04 0.04 1</color>
              </specular>
              <shininess>
                <float>38.4</float>
              </shininess>
              <transparency>
                <float>1</float>
              </transparency>
            </phong>
          </technique>
        </profile_COMMON>
    </effect>
  </library_effects>
  <library_materials>
    <material id="mat_0">
      <instance_effect url="#effect_0"/>
    </material>
    <material id="mat_1">
      <instance_effect url="#effect_1"/>
    </material>
  </library_materials>
  <library_geometries>
    <geometry id="geometry_f086fd2e_e213_4552_8539_c770b9772cdf">
      <mesh>
        <source id="pos_0">
          <float_array id="pos_0-array" count="540">0 0 0.025 0.00519779 -0.89999998 0.02445369 0.00519779 0 0.02445369 0.01016842 -0.89999998 0.02283864 0.01016842 0 0.02283864 0.01469463 -0.89999998 0.02022542 0.01469463 0 0.02022542 0.01857862 -0.89999998 0.01672827 0.01857862 0 0.01672827 0.02165063 -0.89999998 0.0125 0.02165063 0 0.0125 0.02377641 -0.89999998 0.00772543 0.02377641 0 0.00772543 0.02486305 -0.89999998 0.00261321 0.02486305 0 0.00261321 0.02486305 -0.89999998 -0.00261321 0.02486305 0 -0.00261321 0.02377641 -0.89999998 -0.00772543 0.02377641 0 -0.00772543 0.02165063 -0.89999998 -0.0125 0.02165063 0 -0.0125 0.01857862 -0.89999998 -0.01672827 0.01857862 0 -0.01672827 0.01469463 -0.89999998 -0.02022542 0.01469463 0 -0.02022542 0.01016842 -0.89999998 -0.02283864 0.01016842 0 -0.02283864 0.00519779 -0.89999998 -0.02445369 0.00519779 0 -0.02445369 0 -0.89999998 -0.025 0 0 -0.025 -0.00519779 -0.89999998 -0.02445369 -0.00519779 0 -0.02445369 -0.01016842 -0.89999998 -0.02283864 -0.01016842 0 -0.02283864 -0.01469463 -0.89999998 -0.02022542 -0.01469463 0 -0.02022542 -0.01857862 -0.89999998 -0.01672827 -0.01857862 0 -0.01672827 -0.02165063 -0.89999998 -0.0125 -0.02165063 0 -0.0125 -0.02377641 -0.89999998 -0.00772543 -0.02377641 0 -0.00772543 -0.02486305 -0.89999998 -0.00261321 -0.02486305 0 -0.00261321 -0.02486305 -0.89999998 0.00261321 -0.02486305 0 0.00261321 -0.02377641 -0.89999998 0.00772543 -0.02377641 0 0.00772543 -0.02165063 -0.89999998 0.0125 -0.02165063 0 0.0125 -0.01857862 -0.89999998 0.01672827 -0.01857862 0 0.01672827 -0.01469463 -0.89999998 0.02022542 -0.01469463 0 0.02022542 -0.01016842 -0.89999998 0.02283864 -0.01016842 0 0.02283864 -0.00519779 -0.89999998 0.02445369 -0.00519779 0 0.02445369 0 -0.89999998 0.025 1 0 -1.97500002 1.00519776 -0.89999998 -1.97554636 1.00519776 0 -1.97554636 1.01016843 -0.89999998 -1.97716141 1.01016843 0 -1.97716141 1.01469469 -0.89999998 -1.97977459 1.01469469 0 -1.97977459 1.01857865 -0.89999998 -1.98327172 1.01857865 0 -1.98327172 1.02165067 -0.89999998 -1.98749995 1.02165067 0 -1.98749995 1.02377641 -0.89999998 -1.99227452 1.02377641 0 -1.99227452 1.024863 -0.89999998 -1.99738681 1.024863 0 -1.99738681 1.024863 -0.89999998 -2.00261331 1.024863 0 -2.00261331 1.02377641 -0.89999998 -2.00772548 1.02377641 0 -2.00772548 1.02165067 -0.89999998 -2.01250005 1.02165067 0 -2.01250005 1.01857865 -0.89999998 -2.01672816 1.01857865 0 -2.01672816 1.01469469 -0.89999998 -2.02022552 1.01469469 0 -2.02022552 1.01016843 -0.89999998 -2.02283859 1.01016843 0 -2.02283859 1.00519776 -0.89999998 -2.02445364 1.00519776 0 -2.02445364 1 -0.89999998 -2.0250001 1 0 -2.0250001 0.99480224 -0.89999998 -2.02445364 0.99480224 0 -2.02445364 0.98983157 -0.89999998 -2.02283859 0.98983157 0 -2.02283859 0.98530537 -0.89999998 -2.02022552 0.98530537 0 -2.02022552 0.98142135 -0.89999998 -2.01672816 0.98142135 0 -2.01672816 0.97834939 -0.89999998 -2.01250005 0.97834939 0 -2.01250005 0.97622359 -0.89999998 -2.00772548 0.97622359 0 -2.00772548 0.97513694 -0.89999998 -2.00261331 0.97513694 0 -2.00261331 0.97513694 -0.89999998 -1.99738681 0.97513694 0 -1.99738681 0.97622359 -0.89999998 -1.99227452 0.97622359 0 -1.99227452 0.97834939 -0.89999998 -1.98749995 0.97834939 0 -1.98749995 0.98142135 -0.89999998 -1.98327172 0.98142135 0 -1.98327172 0.98530537 -0.89999998 -1.97977459 0.98530537 0 -1.97977459 0.98983157 -0.89999998 -1.97716141 0.98983157 0 -1.97716141 0.99480224 -0.89999998 -1.97554636 0.99480224 0 -1.97554636 1 -0.89999998 -1.97500002 1 0 2.0250001 1.00519776 -0.89999998 2.02445364 1.00519776 0 2.02445364 1.01016843 -0.89999998 2.02283859 1.01016843 0 2.02283859 1.01469469 -0.89999998 2.02022552 1.01469469 0 2.02022552 1.01857865 -0.89999998 2.01672816 1.01857865 0 2.01672816 1.02165067 -0.89999998 2.01250005 1.02165067 0 2.01250005 1.02377641 -0.89999998 2.00772548 1.02377641 0 2.00772548 1.024863 -0.89999998 2.00261331 1.024863 0 2.00261331 1.024863 -0.89999998 1.99738681 1.024863 0 1.99738681 1.02377641 -0.89999998 1.99227452 1.02377641 0 1.99227452 1.02165067 -0.89999998 1.98749995 1.02165067 0 1.98749995 1.01857865 -0.89999998 1.98327172 1.01857865 0 1.98327172 1.01469469 -0.89999998 1.97977459 1.01469469 0 1.97977459 1.01016843 -0.89999998 1.97716141 1.01016843 0 1.97716141 1.00519776 -0.89999998 1.97554636 1.00519776 0 1.97554636 1 -0.89999998 1.97500002 1 0 1.97500002 0.99480224 -0.89999998 1.97554636 0.99480224 0 1.97554636 0.98983157 -0.89999998 1.97716141 0.98983157 0 1.97716141 0.98530537 -0.89999998 1.97977459 0.98530537 0 1.97977459 0.98142135 -0.89999998 1.98327172 0.98142135 0 1.98327172 0.97834939 -0.89999998 1.98749995 0.97834939 0 1.98749995 0.97622359 -0.89999998 1.99227452 0.97622359 0 1.99227452 0.97513694 -0.89999998 1.99738681 0.97513694 0 1.99738681 0.97513694 -0.89999998 2.00261331 0.97513694 0 2.00261331 0.97622359 -0.89999998 2.00772548 0.97622359 0 2.00772548 0.97834939 -0.89999998 2.01250005 0.97834939 0 2.01250005 0.98142135 -0.89999998 2.01672816 0.98142135 0 2.01672816 0.98530537 -0.89999998 2.02022552 0.98530537 0 2.02022552 0.98983157 -0.89999998 2.02283859 0.98983157 0 2.02283859 0.99480224 -0.89999998 2.02445364 0.99480224 0 2.02445364 1 -0.89999998 2.0250001</float_array>
          <technique_common>
            <accessor source="#pos_0-array" count="540" stride="3">
              <param name="X" type="float"/>
              <param name="Y" type="float"/>
              <param name="Z" type="float"/>
            </accessor>
          </technique_common>
        </source>
        <source id="norm_0">
          <float_array id="norm_0-array" count="90">0 0 1 0.20791 0 0.97815 0.40674 0 0.91355 0.58779 0 0.80902 0.74314 0 0.66913 0.86603 0 0.5 0.95106 0 0.30902 0.99452 0 0.10453 0.99452 0 -0.10453 0.95106 0 -0.30902 0.86603 0 -0.5 0.74314 0 -0.66913 0.58779 0 -0.80902 0.40674 0 -0.91355 0.20791 0 -0.97815 0 0 -1 -0.20791 0 -0.97815 -0.40674 0 -0.91355 -0.58779 0 -0.80902 -0.74314 0 -0.66913 -0.86603 0 -0.5 -0.95106 0 -0.30902 -0.99452 0 -0.10453 -0.99452 0 0.10453 -0.95106 0 0.30902 -0.86603 0 0.5 -0.74314 0 0.66913 -0.58779 0 0.80902 -0.40674 0 0.91355 -0.20791 0 0.97815</float_array>
          <technique_common>
            <accessor source="#norm_0-array" count="90" stride="3">
              <param name="X" type="float"/>
              <param name="Y" type="float"/>
              <param name="Z" type="float"/>
            </accessor>
          </technique_common>
        </source>
        <vertices id="vert_0">
          <input semantic="POSITION" source="#pos_0"/>
        </vertices>
        <triangles count="180" material="mat_0">
          <input semantic="VERTEX" source="#vert_0" offset="0"/>
          <input semantic="NORMAL" source="#norm_0" offset="1"/>
          <p>0 0 1 1 2 1 2 1 1 1 3 2 2 1 3 2 4 2 4 2 3 2 5 3 4 2 5 3 6 3 6 3 5 3 7 4 6 3 7 4 8 4 8 4 7 4 9 5 8 4 9 5 10 5 10 5 9 5 11 6 10 5 11 6 12 6 12 6 11 6 13 7 12 6 13 7 14 7 14 7 13 7 15 8 14 7 15 8 16 8 16 8 15 8 17 9 16 8 17 9 18 9 18 9 17 9 19 10 18 9 19 10 20 10 20 10 19 10 21 11 20 10 21 11 22 11 22 11 21 11 23 12 22 11 23 12 24 12 24 12 23 12 25 13 24 12 25 13 26 13 26 13 25 13 27 14 26 13 27 14 28 14 28 14 27 14 29 15 28 14 29 15 30 15 30 15 29 15 31 16 30 15 31 16 32 16 32 16 31 16 33 17 32 16 33 17 34 17 34 17 33 17 35 18 34 17 35 18 36 18 36 18 35 18 37 19 36 18 37 19 38 19 38 19 37 19 39 20 38 19 39 20 40 20 40 20 39 20 41 21 40 20 41 21 42 21 42 21 41 21 43 22 42 21 43 22 44 22 44 22 43 22 45 23 44 22 45 23 46 23 46 23 45 23 47 24 46 23 47 24 48 24 48 24 47 24 49 25 48 24 49 25 50 25 50 25 49 25 51 26 50 25 51 26 52 26 52 26 51 26 53 27 52 26 53 27 54 27 54 27 53 27 55 28 54 27 55 28 56 28 56 28 55 28 57 29 56 28 57 29 58 29 58 29 57 29 59 0 58 29 59 0 0 0 0 0 59 0 1 1 60 0 61 1 62 1 62 1 61 1 63 2 62 1 63 2 64 2 64 2 63 2 65 3 64 2 65 3 66 3 66 3 65 3 67 4 66 3 67 4 68 4 68 4 67 4 69 5 68 4 69 5 70 5 70 5 69 5 71 6 70 5 71 6 72 6 72 6 71 6 73 7 72 6 73 7 74 7 74 7 73 7 75 8 74 7 75 8 76 8 76 8 75 8 77 9 76 8 77 9 78 9 78 9 77 9 79 10 78 9 79 10 80 10 80 10 79 10 81 11 80 10 81 11 82 11 82 11 81 11 83 12 82 11 83 12 84 12 84 12 83 12 85 13 84 12 85 13 86 13 86 13 85 13 87 14 86 13 87 14 88 14 88 14 87 14 89 15 88 14 89 15 90 15 90 15 89 15 91 16 90 15 91 16 92 16 92 16 91 16 93 17 92 16 93 17 94 17 94 17 93 17 95 18 94 17 95 18 96 18 96 18 95 18 97 19 96 18 97 19 98 19 98 19 97 19 99 20 98 19 99 20 100 20 100 20 99 20 101 21 100 20 101 21 102 21 102 21 101 21 103 22 102 21 103 22 104 22 104 22 103 22 105 23 104 22 105 23 106 23 106 23 105 23 107 24 106 23 107 24 108 24 108 24 107 24 109 25 108 24 109 25 110 25 110 25 109 25 111 26 110 25 111 26 112 26 112 26 111 26 113 27 112 26 113 27 114 27 114 27 113 27 115 28 114 27 115 28 116 28 116 28 115 28 117 29 116 28 117 29 118 29 118 29 117 29 119 0 118 29 119 0 60 0 60 0 119 0 61 1 120 0 121 1 122 1 122 1 121 1 123 2 122 1 123 2 124 2 124 2 123 2 125 3 124 2 125 3 126 3 126 3 125 3 127 4 126 3 127 4 128 4 128 4 127 4 129 5 128 4 129 5 130 5 130 5 129 5 131 6 130 5 131 6 132 6 132 6 131 6 133 7 132 6 133 7 134 7 134 7 133 7 135 8 134 7 135 8 136 8 136 8 135 8 137 9 136 8 137 9 138 9 138 9 137 9 139 10 138 9 139 10 140 10 140 10 139 10 141 11 140 10 141 11 142 11 142 11 141 11 143 12 142 11 143 12 144 12 144 12 143 12 145 13 144 12 145 13 146 13 146 13 145 13 147 14 146 13 147 14 148 14 148 14 147 14 149 15 148 14 149 15 150 15 150 15 149 15 151 16 150 15 151 16 152 16 152 16 151 16 153 17 152 16 153 17 154 17 154 17 153 17 155 18 154 17 155 18 156 18 156 18 155 18 157 19 156 18 157 19 158 19 158 19 157 19 159 20 158 19 159 20 160 20 160 20 159 20 161 21 160 20 161 21 162 21 162 21 161 21 163 22 162 21 163 22 164 22 164 22 163 22 165 23 164 22 165 23 166 23 166 23 165 23 167 24 166 23 167 24 168 24 168 24 167 24 169 25 168 24 169 25 170 25 170 25 169 25 171 26 170 25 171 26 172 26 172 26 171 26 173 27 172 26 173 27 174 27 174 27 173 27 175 28 174 27 175 28 176 28 176 28 175 28 177 29 176 28 177 29 178 29 178 29 177 29 179 0 178 29 179 0 120 0 120 0 179 0 121 1</p>
        </triangles>
      </mesh>
    </geometry>
    <geometry id="geometry_42e8f102_98da_42e5_82f7_41af89f3b2f8">
      <mesh>
        <source id="pos_1">
          <float_array id="pos_1-array" count="1674">0.01016842 -0.89999998 0.02283864 0.00519779 -0.89999998 0.02445369 0 -0.89999998 0 0 -0.89999998 0.025 -0.00519779 -0.89999998 0.02445369 0.02165063 -0.89999998 0.0125 0.01857862 -0.89999998 0.01672827 0.01469463 -0.89999998 0.02022542 0.02486305 -0.89999998 -0.00261321 0.02486305 -0.89999998 0.00261321 0.02377641 -0.89999998 0.00772543 0.01857862 -0.89999998 -0.01672827 0.02165063 -0.89999998 -0.0125 0.02377641 -0.89999998 -0.00772543 0.00519779 -0.89999998 -0.02445369 0.01016842 -0.89999998 -0.02283864 0.01469463 -0.89999998 -0.02022542 -0.01016842 -0.89999998 -0.02283864 -0.00519779 -0.89999998 -0.02445369 0 -0.89999998 -0.025 -0.02165063 -0.89999998 -0.0125 -0.01857862 -0.89999998 -0.01672827 -0.01469463 -0.89999998 -0.02022542 -0.02486305 -0.89999998 0.00261321 -0.02486305 -0.89999998 -0.00261321 -0.02377641 -0.89999998 -0.00772543 -0.01857862 -0.89999998 0.01672827 -0.02165063 -0.89999998 0.0125 -0.02377641 -0.89999998 0.00772543 -0.01016842 -0.89999998 0.02283864 -0.01469463 -0.89999998 0.02022542 -0.01016842 0 0.02283864 -0.00519779 0 0.02445369 0 0 0 -0 0 0.025 0.00519779 0 0.02445369 -0.02165063 0 0.0125 -0.01857862 0 0.01672827 -0.01469463 0 0.02022542 -0.02486305 0 -0.00261321 -0.02486305 0 0.00261321 -0.02377641 0 0.00772543 -0.01857862 0 -0.01672827 -0.02165063 0 -0.0125 -0.02377641 0 -0.00772543 -0.00519779 0 -0.02445369 -0.01016842 0 -0.02283864 -0.01469463 0 -0.02022542 0.01016842 0 -0.02283864 0.00519779 0 -0.02445369 0 0 -0.025 0.02165063 0 -0.0125 0.01857862 0 -0.01672827 0.01469463 0 -0.02022542 0.02486305 0 0.00261321 0.02486305 0 -0.00261321 0.02377641 0 -0.00772543 0.01857862 0 0.01672827 0.02165063 0 0.0125 0.02377641 0 0.00772543 0.01016842 0 0.02283864 0.01469463 0 0.02022542 1.01016843 -0.89999998 -1.97716141 1.00519776 -0.89999998 -1.97554636 1 -0.89999998 -2 1 -0.89999998 -1.97500002 0.99480224 -0.89999998 -1.97554636 1.02165067 -0.89999998 -1.98749995 1.01857865 -0.89999998 -1.98327172 1.01469469 -0.89999998 -1.97977459 1.024863 -0.89999998 -2.00261331 1.024863 -0.89999998 -1.99738681 1.02377641 -0.89999998 -1.99227452 1.01857865 -0.89999998 -2.01672816 1.02165067 -0.89999998 -2.01250005 1.02377641 -0.89999998 -2.00772548 1.00519776 -0.89999998 -2.02445364 1.01016843 -0.89999998 -2.02283859 1.01469469 -0.89999998 -2.02022552 0.98983157 -0.89999998 -2.02283859 0.99480224 -0.89999998 -2.02445364 1 -0.89999998 -2.0250001 0.97834939 -0.89999998 -2.01250005 0.98142135 -0.89999998 -2.01672816 0.98530537 -0.89999998 -2.02022552 0.97513694 -0.89999998 -1.99738681 0.97513694 -0.89999998 -2.00261331 0.97622359 -0.89999998 -2.00772548 0.98142135 -0.89999998 -1.98327172 0.97834939 -0.89999998 -1.98749995 0.97622359 -0.89999998 -1.99227452 0.98983157 -0.89999998 -1.97716141 0.98530537 -0.89999998 -1.97977459 0.98983157 0 -1.97716141 0.99480224 0 -1.97554636 1 0 -2 1 0 -1.97500002 1.00519776 0 -1.97554636 0.97834939 0 -1.98749995 0.98142135 0 -1.98327172 0.98530537 0 -1.97977459 0.97513694 0 -2.00261331 0.97513694 0 -1.99738681 0.97622359 0 -1.99227452 0.98142135 0 -2.01672816 0.97834939 0 -2.01250005 0.97622359 0 -2.00772548 0.99480224 0 -2.02445364 0.98983157 0 -2.02283859 0.98530537 0 -2.02022552 1.01016843 0 -2.02283859 1.00519776 0 -2.02445364 1 0 -2.0250001 1.02165067 0 -2.01250005 1.01857865 0 -2.01672816 1.01469469 0 -2.02022552 1.024863 0 -1.99738681 1.024863 0 -2.00261331 1.02377641 0 -2.00772548 1.01857865 0 -1.98327172 1.02165067 0 -1.98749995 1.02377641 0 -1.99227452 1.01016843 0 -1.97716141 1.01469469 0 -1.97977459 -0.5 0 -1.97500002 -0.49480221 -0.89999998 -1.97554636 -0.49480221 0 -1.97554636 -0.4898316 -0.89999998 -1.97716141 -0.4898316 0 -1.97716141 -0.48530537 -0.89999998 -1.97977459 -0.48530537 0 -1.97977459 -0.48142138 -0.89999998 -1.98327172 -0.48142138 0 -1.98327172 -0.47834936 -0.89999998 -1.98749995 -0.47834936 0 -1.98749995 -0.47622359 -0.89999998 -1.99227452 -0.47622359 0 -1.99227452 -0.47513697 -0.89999998 -1.99738681 -0.47513697 0 -1.99738681 -0.47513697 -0.89999998 -2.00261331 -0.47513697 0 -2.00261331 -0.47622359 -0.89999998 -2.00772548 -0.47622359 0 -2.00772548 -0.47834936 -0.89999998 -2.01250005 -0.47834936 0 -2.01250005 -0.48142138 -0.89999998 -2.01672816 -0.48142138 0 -2.01672816 -0.48530537 -0.89999998 -2.02022552 -0.48530537 0 -2.02022552 -0.4898316 -0.89999998 -2.02283859 -0.4898316 0 -2.02283859 -0.49480221 -0.89999998 -2.02445364 -0.49480221 0 -2.02445364 -0.5 -0.89999998 -2.0250001 -0.5 0 -2.0250001 -0.50519776 -0.89999998 -2.02445364 -0.50519776 0 -2.02445364 -0.51016843 -0.89999998 -2.02283859 -0.51016843 0 -2.02283859 -0.51469463 -0.89999998 -2.02022552 -0.51469463 0 -2.02022552 -0.51857865 -0.89999998 -2.01672816 -0.51857865 0 -2.01672816 -0.52165061 -0.89999998 -2.01250005 -0.52165061 0 -2.01250005 -0.52377641 -0.89999998 -2.00772548 -0.52377641 0 -2.00772548 -0.52486306 -0.89999998 -2.00261331 -0.52486306 0 -2.00261331 -0.52486306 -0.89999998 -1.99738681 -0.52486306 0 -1.99738681 -0.52377641 -0.89999998 -1.99227452 -0.52377641 0 -1.99227452 -0.52165061 -0.89999998 -1.98749995 -0.52165061 0 -1.98749995 -0.51857865 -0.89999998 -1.98327172 -0.51857865 0 -1.98327172 -0.51469463 -0.89999998 -1.97977459 -0.51469463 0 -1.97977459 -0.51016843 -0.89999998 -1.97716141 -0.51016843 0 -1.97716141 -0.50519776 -0.89999998 -1.97554636 -0.50519776 0 -1.97554636 -0.5 -0.89999998 -1.97500002 -0.5 -0.89999998 -2 -0.5 0 -2 2.5 0 -1.97500002 2.50519776 -0.89999998 -1.97554636 2.50519776 0 -1.97554636 2.51016831 -0.89999998 -1.97716141 2.51016831 0 -1.97716141 2.51469469 -0.89999998 -1.97977459 2.51469469 0 -1.97977459 2.51857853 -0.89999998 -1.98327172 2.51857853 0 -1.98327172 2.52165055 -0.89999998 -1.98749995 2.52165055 0 -1.98749995 2.52377653 -0.89999998 -1.99227452 2.52377653 0 -1.99227452 2.524863 -0.89999998 -1.99738681 2.524863 0 -1.99738681 2.524863 -0.89999998 -2.00261331 2.524863 0 -2.00261331 2.52377653 -0.89999998 -2.00772548 2.52377653 0 -2.00772548 2.52165055 -0.89999998 -2.01250005 2.52165055 0 -2.01250005 2.51857853 -0.89999998 -2.01672816 2.51857853 0 -2.01672816 2.51469469 -0.89999998 -2.02022552 2.51469469 0 -2.02022552 2.51016831 -0.89999998 -2.02283859 2.51016831 0 -2.02283859 2.50519776 -0.89999998 -2.02445364 2.50519776 0 -2.02445364 2.5 -0.89999998 -2.0250001 2.5 0 -2.0250001 2.49480224 -0.89999998 -2.02445364 2.49480224 0 -2.02445364 2.48983169 -0.89999998 -2.02283859 2.48983169 0 -2.02283859 2.48530531 -0.89999998 -2.02022552 2.48530531 0 -2.02022552 2.48142147 -0.89999998 -2.01672816 2.48142147 0 -2.01672816 2.47834945 -0.89999998 -2.01250005 2.47834945 0 -2.01250005 2.47622347 -0.89999998 -2.00772548 2.47622347 0 -2.00772548 2.475137 -0.89999998 -2.00261331 2.475137 0 -2.00261331 2.475137 -0.89999998 -1.99738681 2.475137 0 -1.99738681 2.47622347 -0.89999998 -1.99227452 2.47622347 0 -1.99227452 2.47834945 -0.89999998 -1.98749995 2.47834945 0 -1.98749995 2.48142147 -0.89999998 -1.98327172 2.48142147 0 -1.98327172 2.48530531 -0.89999998 -1.97977459 2.48530531 0 -1.97977459 2.48983169 -0.89999998 -1.97716141 2.48983169 0 -1.97716141 2.49480224 -0.89999998 -1.97554636 2.49480224 0 -1.97554636 2.5 -0.89999998 -1.97500002 2.5 -0.89999998 -2 2.5 0 -2 1.5 0 0.025 1.50519776 -0.89999998 0.02445369 1.50519776 0 0.02445369 1.51016843 -0.89999998 0.02283864 1.51016843 0 0.02283864 1.51469469 -0.89999998 0.02022542 1.51469469 0 0.02022542 1.51857865 -0.89999998 0.01672827 1.51857865 0 0.01672827 1.52165067 -0.89999998 0.0125 1.52165067 0 0.0125 1.52377641 -0.89999998 0.00772543 1.52377641 0 0.00772543 1.524863 -0.89999998 0.00261321 1.524863 0 0.00261321 1.524863 -0.89999998 -0.00261321 1.524863 0 -0.00261321 1.52377641 -0.89999998 -0.00772543 1.52377641 0 -0.00772543 1.52165067 -0.89999998 -0.0125 1.52165067 0 -0.0125 1.51857865 -0.89999998 -0.01672827 1.51857865 0 -0.01672827 1.51469469 -0.89999998 -0.02022542 1.51469469 0 -0.02022542 1.51016843 -0.89999998 -0.02283864 1.51016843 0 -0.02283864 1.50519776 -0.89999998 -0.02445369 1.50519776 0 -0.02445369 1.5 -0.89999998 -0.025 1.5 0 -0.025 1.49480224 -0.89999998 -0.02445369 1.49480224 0 -0.02445369 1.48983157 -0.89999998 -0.02283864 1.48983157 0 -0.02283864 1.48530531 -0.89999998 -0.02022542 1.48530531 0 -0.02022542 1.48142135 -0.89999998 -0.01672827 1.48142135 0 -0.01672827 1.47834933 -0.89999998 -0.0125 1.47834933 0 -0.0125 1.47622359 -0.89999998 -0.00772543 1.47622359 0 -0.00772543 1.475137 -0.89999998 -0.00261321 1.475137 0 -0.00261321 1.475137 -0.89999998 0.00261321 1.475137 0 0.00261321 1.47622359 -0.89999998 0.00772543 1.47622359 0 0.00772543 1.47834933 -0.89999998 0.0125 1.47834933 0 0.0125 1.48142135 -0.89999998 0.01672827 1.48142135 0 0.01672827 1.48530531 -0.89999998 0.02022542 1.48530531 0 0.02022542 1.48983157 -0.89999998 0.02283864 1.48983157 0 0.02283864 1.49480224 -0.89999998 0.02445369 1.49480224 0 0.02445369 1.5 -0.89999998 0.025 1.5 -0.89999998 0 1.5 0 0 -1.5 0 0.025 -1.49480224 -0.89999998 0.02445369 -1.49480224 0 0.02445369 -1.48983157 -0.89999998 0.02283864 -1.48983157 0 0.02283864 -1.48530531 -0.89999998 0.02022542 -1.48530531 0 0.02022542 -1.48142135 -0.89999998 0.01672827 -1.48142135 0 0.01672827 -1.47834933 -0.89999998 0.0125 -1.47834933 0 0.0125 -1.47622359 -0.89999998 0.00772543 -1.47622359 0 0.00772543 -1.475137 -0.89999998 0.00261321 -1.475137 0 0.00261321 -1.475137 -0.89999998 -0.00261321 -1.475137 0 -0.00261321 -1.47622359 -0.89999998 -0.00772543 -1.47622359 0 -0.00772543 -1.47834933 -0.89999998 -0.0125 -1.47834933 0 -0.0125 -1.48142135 -0.89999998 -0.01672827 -1.48142135 0 -0.01672827 -1.48530531 -0.89999998 -0.02022542 -1.48530531 0 -0.02022542 -1.48983157 -0.89999998 -0.02283864 -1.48983157 0 -0.02283864 -1.49480224 -0.89999998 -0.02445369 -1.49480224 0 -0.02445369 -1.5 -0.89999998 -0.025 -1.5 0 -0.025 -1.50519776 -0.89999998 -0.02445369 -1.50519776 0 -0.02445369 -1.51016843 -0.89999998 -0.02283864 -1.51016843 0 -0.02283864 -1.51469469 -0.89999998 -0.02022542 -1.51469469 0 -0.02022542 -1.51857865 -0.89999998 -0.01672827 -1.51857865 0 -0.01672827 -1.52165067 -0.89999998 -0.0125 -1.52165067 0 -0.0125 -1.52377641 -0.89999998 -0.00772543 -1.52377641 0 -0.00772543 -1.524863 -0.89999998 -0.00261321 -1.524863 0 -0.00261321 -1.524863 -0.89999998 0.00261321 -1.524863 0 0.00261321 -1.52377641 -0.89999998 0.00772543 -1.52377641 0 0.00772543 -1.52165067 -0.89999998 0.0125 -1.52165067 0 0.0125 -1.51857865 -0.89999998 0.01672827 -1.51857865 0 0.01672827 -1.51469469 -0.89999998 0.02022542 -1.51469469 0 0.02022542 -1.51016843 -0.89999998 0.02283864 -1.51016843 0 0.02283864 -1.50519776 -0.89999998 0.02445369 -1.50519776 0 0.02445369 -1.5 -0.89999998 0.025 -1.5 -0.89999998 0 -1.5 0 0 -0.5 0 2.0250001 -0.49480221 -0.89999998 2.02445364 -0.49480221 0 2.02445364 -0.4898316 -0.89999998 2.02283859 -0.4898316 0 2.02283859 -0.48530537 -0.89999998 2.02022552 -0.48530537 0 2.02022552 -0.48142138 -0.89999998 2.01672816 -0.48142138 0 2.01672816 -0.47834936 -0.89999998 2.01250005 -0.47834936 0 2.01250005 -0.47622359 -0.89999998 2.00772548 -0.47622359 0 2.00772548 -0.47513697 -0.89999998 2.00261331 -0.47513697 0 2.00261331 -0.47513697 -0.89999998 1.99738681 -0.47513697 0 1.99738681 -0.47622359 -0.89999998 1.99227452 -0.47622359 0 1.99227452 -0.47834936 -0.89999998 1.98749995 -0.47834936 0 1.98749995 -0.48142138 -0.89999998 1.98327172 -0.48142138 0 1.98327172 -0.48530537 -0.89999998 1.97977459 -0.48530537 0 1.97977459 -0.4898316 -0.89999998 1.97716141 -0.4898316 0 1.97716141 -0.49480221 -0.89999998 1.97554636 -0.49480221 0 1.97554636 -0.5 -0.89999998 1.97500002 -0.5 0 1.97500002 -0.50519776 -0.89999998 1.97554636 -0.50519776 0 1.97554636 -0.51016843 -0.89999998 1.97716141 -0.51016843 0 1.97716141 -0.51469463 -0.89999998 1.97977459 -0.51469463 0 1.97977459 -0.51857865 -0.89999998 1.98327172 -0.51857865 0 1.98327172 -0.52165061 -0.89999998 1.98749995 -0.52165061 0 1.98749995 -0.52377641 -0.89999998 1.99227452 -0.52377641 0 1.99227452 -0.52486306 -0.89999998 1.99738681 -0.52486306 0 1.99738681 -0.52486306 -0.89999998 2.00261331 -0.52486306 0 2.00261331 -0.52377641 -0.89999998 2.00772548 -0.52377641 0 2.00772548 -0.52165061 -0.89999998 2.01250005 -0.52165061 0 2.01250005 -0.51857865 -0.89999998 2.01672816 -0.51857865 0 2.01672816 -0.51469463 -0.89999998 2.02022552 -0.51469463 0 2.02022552 -0.51016843 -0.89999998 2.02283859 -0.51016843 0 2.02283859 -0.50519776 -0.89999998 2.02445364 -0.50519776 0 2.02445364 -0.5 -0.89999998 2.0250001 -0.5 -0.89999998 2 -0.5 0 2 1.01016843 -0.89999998 2.02283859 1.00519776 -0.89999998 2.02445364 1 -0.89999998 2 1 -0.89999998 2.0250001 0.99480224 -0.89999998 2.02445364 1.02165067 -0.89999998 2.01250005 1.01857865 -0.89999998 2.01672816 1.01469469 -0.89999998 2.02022552 1.024863 -0.89999998 1.99738681 1.024863 -0.89999998 2.00261331 1.02377641 -0.89999998 2.00772548 1.01857865 -0.89999998 1.98327172 1.02165067 -0.89999998 1.98749995 1.02377641 -0.89999998 1.99227452 1.00519776 -0.89999998 1.97554636 1.01016843 -0.89999998 1.97716141 1.01469469 -0.89999998 1.97977459 0.98983157 -0.89999998 1.97716141 0.99480224 -0.89999998 1.97554636 1 -0.89999998 1.97500002 0.97834939 -0.89999998 1.98749995 0.98142135 -0.89999998 1.98327172 0.98530537 -0.89999998 1.97977459 0.97513694 -0.89999998 2.00261331 0.97513694 -0.89999998 1.99738681 0.97622359 -0.89999998 1.99227452 0.98142135 -0.89999998 2.01672816 0.97834939 -0.89999998 2.01250005 0.97622359 -0.89999998 2.00772548 0.98983157 -0.89999998 2.02283859 0.98530537 -0.89999998 2.02022552 0.98983157 0 2.02283859 0.99480224 0 2.02445364 1 0 2 1 0 2.0250001 1.00519776 0 2.02445364 0.97834939 0 2.01250005 0.98142135 0 2.01672816 0.98530537 0 2.02022552 0.97513694 0 1.99738681 0.97513694 0 2.00261331 0.97622359 0 2.00772548 0.98142135 0 1.98327172 0.97834939 0 1.98749995 0.97622359 0 1.99227452 0.99480224 0 1.97554636 0.98983157 0 1.97716141 0.98530537 0 1.97977459 1.01016843 0 1.97716141 1.00519776 0 1.97554636 1 0 1.97500002 1.02165067 0 1.98749995 1.01857865 0 1.98327172 1.01469469 0 1.97977459 1.024863 0 2.00261331 1.024863 0 1.99738681 1.02377641 0 1.99227452 1.01857865 0 2.01672816 1.02165067 0 2.01250005 1.02377641 0 2.00772548 1.01016843 0 2.02283859 1.01469469 0 2.02022552 2.5 0 2.0250001 2.50519776 -0.89999998 2.02445364 2.50519776 0 2.02445364 2.51016831 -0.89999998 2.02283859 2.51016831 0 2.02283859 2.51469469 -0.89999998 2.02022552 2.51469469 0 2.02022552 2.51857853 -0.89999998 2.01672816 2.51857853 0 2.01672816 2.52165055 -0.89999998 2.01250005 2.52165055 0 2.01250005 2.52377653 -0.89999998 2.00772548 2.52377653 0 2.00772548 2.524863 -0.89999998 2.00261331 2.524863 0 2.00261331 2.524863 -0.89999998 1.99738681 2.524863 0 1.99738681 2.52377653 -0.89999998 1.99227452 2.52377653 0 1.99227452 2.52165055 -0.89999998 1.98749995 2.52165055 0 1.98749995 2.51857853 -0.89999998 1.98327172 2.51857853 0 1.98327172 2.51469469 -0.89999998 1.97977459 2.51469469 0 1.97977459 2.51016831 -0.89999998 1.97716141 2.51016831 0 1.97716141 2.50519776 -0.89999998 1.97554636 2.50519776 0 1.97554636 2.5 -0.89999998 1.97500002 2.5 0 1.97500002 2.49480224 -0.89999998 1.97554636 2.49480224 0 1.97554636 2.48983169 -0.89999998 1.97716141 2.48983169 0 1.97716141 2.48530531 -0.89999998 1.97977459 2.48530531 0 1.97977459 2.48142147 -0.89999998 1.98327172 2.48142147 0 1.98327172 2.47834945 -0.89999998 1.98749995 2.47834945 0 1.98749995 2.47622347 -0.89999998 1.99227452 2.47622347 0 1.99227452 2.475137 -0.89999998 1.99738681 2.475137 0 1.99738681 2.475137 -0.89999998 2.00261331 2.475137 0 2.00261331 2.47622347 -0.89999998 2.00772548 2.47622347 0 2.00772548 2.47834945 -0.89999998 2.01250005 2.47834945 0 2.01250005 2.48142147 -0.89999998 2.01672816 2.48142147 0 2.01672816 2.48530531 -0.89999998 2.02022552 2.48530531 0 2.02022552 2.48983169 -0.89999998 2.02283859 2.48983169 0 2.02283859 2.49480224 -0.89999998 2.02445364 2.49480224 0 2.02445364 2.5 -0.89999998 2.0250001 2.5 -0.89999998 2 2.5 0 2</float_array>
          <technique_common>
            <accessor source="#pos_1-array" count="1674" stride="3">
              <param name="X" type="float"/>
              <param name="Y" type="float"/>
              <param name="Z" type="float"/>
            </accessor>
          </technique_common>
        </source>
        <source id="norm_1">
          <float_array id="norm_1-array" count="96">0 -1 0 0 1 0 0 0 1 0.20791 0 0.97815 0.40674 0 0.91355 0.58779 0 0.80902 0.74314 0 0.66913 0.86603 0 0.5 0.95106 0 0.30902 0.99452 0 0.10453 0.99452 0 -0.10453 0.95106 0 -0.30902 0.86603 0 -0.5 0.74314 0 -0.66913 0.58779 0 -0.80902 0.40674 0 -0.91355 0.20791 0 -0.97815 0 0 -1 -0.20791 0 -0.97815 -0.40674 0 -0.91355 -0.58779 0 -0.80902 -0.74314 0 -0.66913 -0.86603 0 -0.5 -0.95106 0 -0.30902 -0.99452 0 -0.10453 -0.99452 0 0.10453 -0.95106 0 0.30902 -0.86603 0 0.5 -0.74314 0 0.66913 -0.58779 0 0.80902 -0.40674 0 0.91355 -0.20791 0 0.97815</float_array>
          <technique_common>
            <accessor source="#norm_1-array" count="96" stride="3">
              <param name="X" type="float"/>
              <param name="Y" type="float"/>
              <param name="Z" type="float"/>
            </accessor>
          </technique_common>
        </source>
        <vertices id="vert_1">
          <input semantic="POSITION" source="#pos_1"/>
        </vertices>
        <triangles count="900" material="mat_1">
          <input semantic="VERTEX" source="#vert_1" offset="0"/>
          <input semantic="NORMAL" source="#norm_1" offset="1"/>
          <p>0 0 1 0 2 0 2 0 1 0 3 0 2 0 3 0 4 0 5 0 6 0 2 0 2 0 6 0 7 0 2 0 7 0 0 0 8 0 9 0 2 0 2 0 9 0 10 0 2 0 10 0 5 0 11 0 12 0 2 0 2 0 12 0 13 0 2 0 13 0 8 0 14 0 15 0 2 0 2 0 15 0 16 0 2 0 16 0 11 0 17 0 18 0 2 0 2 0 18 0 19 0 2 0 19 0 14 0 20 0 21 0 2 0 2 0 21 0 22 0 2 0 22 0 17 0 23 0 24 0 2 0 2 0 24 0 25 0 2 0 25 0 20 0 26 0 27 0 2 0 2 0 27 0 28 0 2 0 28 0 23 0 4 0 29 0 2 0 2 0 29 0 30 0 2 0 30 0 26 0 31 1 32 1 33 1 33 1 32 1 34 1 33 1 34 1 35 1 36 1 37 1 33 1 33 1 37 1 38 1 33 1 38 1 31 1 39 1 40 1 33 1 33 1 40 1 41 1 33 1 41 1 36 1 42 1 43 1 33 1 33 1 43 1 44 1 33 1 44 1 39 1 45 1 46 1 33 1 33 1 46 1 47 1 33 1 47 1 42 1 48 1 49 1 33 1 33 1 49 1 50 1 33 1 50 1 45 1 51 1 52 1 33 1 33 1 52 1 53 1 33 1 53 1 48 1 54 1 55 1 33 1 33 1 55 1 56 1 33 1 56 1 51 1 57 1 58 1 33 1 33 1 58 1 59 1 33 1 59 1 54 1 35 1 60 1 33 1 33 1 60 1 61 1 33 1 61 1 57 1 62 0 63 0 64 0 64 0 63 0 65 0 64 0 65 0 66 0 67 0 68 0 64 0 64 0 68 0 69 0 64 0 69 0 62 0 70 0 71 0 64 0 64 0 71 0 72 0 64 0 72 0 67 0 73 0 74 0 64 0 64 0 74 0 75 0 64 0 75 0 70 0 76 0 77 0 64 0 64 0 77 0 78 0 64 0 78 0 73 0 79 0 80 0 64 0 64 0 80 0 81 0 64 0 81 0 76 0 82 0 83 0 64 0 64 0 83 0 84 0 64 0 84 0 79 0 85 0 86 0 64 0 64 0 86 0 87 0 64 0 87 0 82 0 88 0 89 0 64 0 64 0 89 0 90 0 64 0 90 0 85 0 66 0 91 0 64 0 64 0 91 0 92 0 64 0 92 0 88 0 93 1 94 1 95 1 95 1 94 1 96 1 95 1 96 1 97 1 98 1 99 1 95 1 95 1 99 1 100 1 95 1 100 1 93 1 101 1 102 1 95 1 95 1 102 1 103 1 95 1 103 1 98 1 104 1 105 1 95 1 95 1 105 1 106 1 95 1 106 1 101 1 107 1 108 1 95 1 95 1 108 1 109 1 95 1 109 1 104 1 110 1 111 1 95 1 95 1 111 1 112 1 95 1 112 1 107 1 113 1 114 1 95 1 95 1 114 1 115 1 95 1 115 1 110 1 116 1 117 1 95 1 95 1 117 1 118 1 95 1 118 1 113 1 119 1 120 1 95 1 95 1 120 1 121 1 95 1 121 1 116 1 97 1 122 1 95 1 95 1 122 1 123 1 95 1 123 1 119 1 124 2 125 3 126 3 126 3 125 3 127 4 126 3 127 4 128 4 128 4 127 4 129 5 128 4 129 5 130 5 130 5 129 5 131 6 130 5 131 6 132 6 132 6 131 6 133 7 132 6 133 7 134 7 134 7 133 7 135 8 134 7 135 8 136 8 136 8 135 8 137 9 136 8 137 9 138 9 138 9 137 9 139 10 138 9 139 10 140 10 140 10 139 10 141 11 140 10 141 11 142 11 142 11 141 11 143 12 142 11 143 12 144 12 144 12 143 12 145 13 144 12 145 13 146 13 146 13 145 13 147 14 146 13 147 14 148 14 148 14 147 14 149 15 148 14 149 15 150 15 150 15 149 15 151 16 150 15 151 16 152 16 152 16 151 16 153 17 152 16 153 17 154 17 154 17 153 17 155 18 154 17 155 18 156 18 156 18 155 18 157 19 156 18 157 19 158 19 158 19 157 19 159 20 158 19 159 20 160 20 160 20 159 20 161 21 160 20 161 21 162 21 162 21 161 21 163 22 162 21 163 22 164 22 164 22 163 22 165 23 164 22 165 23 166 23 166 23 165 23 167 24 166 23 167 24 168 24 168 24 167 24 169 25 168 24 169 25 170 25 170 25 169 25 171 26 170 25 171 26 172 26 172 26 171 26 173 27 172 26 173 27 174 27 174 27 173 27 175 28 174 27 175 28 176 28 176 28 175 28 177 29 176 28 177 29 178 29 178 29 177 29 179 30 178 29 179 30 180 30 180 30 179 30 181 31 180 30 181 31 182 31 182 31 181 31 183 2 182 31 183 2 124 2 124 2 183 2 125 3 127 0 125 0 184 0 184 0 125 0 183 0 184 0 183 0 181 0 133 0 131 0 184 0 184 0 131 0 129 0 184 0 129 0 127 0 139 0 137 0 184 0 184 0 137 0 135 0 184 0 135 0 133 0 145 0 143 0 184 0 184 0 143 0 141 0 184 0 141 0 139 0 151 0 149 0 184 0 184 0 149 0 147 0 184 0 147 0 145 0 157 0 155 0 184 0 184 0 155 0 153 0 184 0 153 0 151 0 163 0 161 0 184 0 184 0 161 0 159 0 184 0 159 0 157 0 169 0 167 0 184 0 184 0 167 0 165 0 184 0 165 0 163 0 175 0 173 0 184 0 184 0 173 0 171 0 184 0 171 0 169 0 181 0 179 0 184 0 184 0 179 0 177 0 184 0 177 0 175 0 180 1 182 1 185 1 185 1 182 1 124 1 185 1 124 1 126 1 174 1 176 1 185 1 185 1 176 1 178 1 185 1 178 1 180 1 168 1 170 1 185 1 185 1 170 1 172 1 185 1 172 1 174 1 162 1 164 1 185 1 185 1 164 1 166 1 185 1 166 1 168 1 156 1 158 1 185 1 185 1 158 1 160 1 185 1 160 1 162 1 150 1 152 1 185 1 185 1 152 1 154 1 185 1 154 1 156 1 144 1 146 1 185 1 185 1 146 1 148 1 185 1 148 1 150 1 138 1 140 1 185 1 185 1 140 1 142 1 185 1 142 1 144 1 132 1 134 1 185 1 185 1 134 1 136 1 185 1 136 1 138 1 126 1 128 1 185 1 185 1 128 1 130 1 185 1 130 1 132 1 186 2 187 3 188 3 188 3 187 3 189 4 188 3 189 4 190 4 190 4 189 4 191 5 190 4 191 5 192 5 192 5 191 5 193 6 192 5 193 6 194 6 194 6 193 6 195 7 194 6 195 7 196 7 196 7 195 7 197 8 196 7 197 8 198 8 198 8 197 8 199 9 198 8 199 9 200 9 200 9 199 9 201 10 200 9 201 10 202 10 202 10 201 10 203 11 202 10 203 11 204 11 204 11 203 11 205 12 204 11 205 12 206 12 206 12 205 12 207 13 206 12 207 13 208 13 208 13 207 13 209 14 208 13 209 14 210 14 210 14 209 14 211 15 210 14 211 15 212 15 212 15 211 15 213 16 212 15 213 16 214 16 214 16 213 16 215 17 214 16 215 17 216 17 216 17 215 17 217 18 216 17 217 18 218 18 218 18 217 18 219 19 218 18 219 19 220 19 220 19 219 19 221 20 220 19 221 20 222 20 222 20 221 20 223 21 222 20 223 21 224 21 224 21 223 21 225 22 224 21 225 22 226 22 226 22 225 22 227 23 226 22 227 23 228 23 228 23 227 23 229 24 228 23 229 24 230 24 230 24 229 24 231 25 230 24 231 25 232 25 232 25 231 25 233 26 232 25 233 26 234 26 234 26 233 26 235 27 234 26 235 27 236 27 236 27 235 27 237 28 236 27 237 28 238 28 238 28 237 28 239 29 238 28 239 29 240 29 240 29 239 29 241 30 240 29 241 30 242 30 242 30 241 30 243 31 242 30 243 31 244 31 244 31 243 31 245 2 244 31 245 2 186 2 186 2 245 2 187 3 189 0 187 0 246 0 246 0 187 0 245 0 246 0 245 0 243 0 195 0 193 0 246 0 246 0 193 0 191 0 246 0 191 0 189 0 201 0 199 0 246 0 246 0 199 0 197 0 246 0 197 0 195 0 207 0 205 0 246 0 246 0 205 0 203 0 246 0 203 0 201 0 213 0 211 0 246 0 246 0 211 0 209 0 246 0 209 0 207 0 219 0 217 0 246 0 246 0 217 0 215 0 246 0 215 0 213 0 225 0 223 0 246 0 246 0 223 0 221 0 246 0 221 0 219 0 231 0 229 0 246 0 246 0 229 0 227 0 246 0 227 0 225 0 237 0 235 0 246 0 246 0 235 0 233 0 246 0 233 0 231 0 243 0 241 0 246 0 246 0 241 0 239 0 246 0 239 0 237 0 242 1 244 1 247 1 247 1 244 1 186 1 247 1 186 1 188 1 236 1 238 1 247 1 247 1 238 1 240 1 247 1 240 1 242 1 230 1 232 1 247 1 247 1 232 1 234 1 247 1 234 1 236 1 224 1 226 1 247 1 247 1 226 1 228 1 247 1 228 1 230 1 218 1 220 1 247 1 247 1 220 1 222 1 247 1 222 1 224 1 212 1 214 1 247 1 247 1 214 1 216 1 247 1 216 1 218 1 206 1 208 1 247 1 247 1 208 1 210 1 247 1 210 1 212 1 200 1 202 1 247 1 247 1 202 1 204 1 247 1 204 1 206 1 194 1 196 1 247 1 247 1 196 1 198 1 247 1 198 1 200 1 188 1 190 1 247 1 247 1 190 1 192 1 247 1 192 1 194 1 248 2 249 3 250 3 250 3 249 3 251 4 250 3 251 4 252 4 252 4 251 4 253 5 252 4 253 5 254 5 254 5 253 5 255 6 254 5 255 6 256 6 256 6 255 6 257 7 256 6 257 7 258 7 258 7 257 7 259 8 258 7 259 8 260 8 260 8 259 8 261 9 260 8 261 9 262 9 262 9 261 9 263 10 262 9 263 10 264 10 264 10 263 10 265 11 264 10 265 11 266 11 266 11 265 11 267 12 266 11 267 12 268 12 268 12 267 12 269 13 268 12 269 13 270 13 270 13 269 13 271 14 270 13 271 14 272 14 272 14 271 14 273 15 272 14 273 15 274 15 274 15 273 15 275 16 274 15 275 16 276 16 276 16 275 16 277 17 276 16 277 17 278 17 278 17 277 17 279 18 278 17 279 18 280 18 280 18 279 18 281 19 280 18 281 19 282 19 282 19 281 19 283 20 282 19 283 20 284 20 284 20 283 20 285 21 284 20 285 21 286 21 286 21 285 21 287 22 286 21 287 22 288 22 288 22 287 22 289 23 288 22 289 23 290 23 290 23 289 23 291 24 290 23 291 24 292 24 292 24 291 24 293 25 292 24 293 25 294 25 294 25 293 25 295 26 294 25 295 26 296 26 296 26 295 26 297 27 296 26 297 27 298 27 298 27 297 27 299 28 298 27 299 28 300 28 300 28 299 28 301 29 300 28 301 29 302 29 302 29 301 29 303 30 302 29 303 30 304 30 304 30 303 30 305 31 304 30 305 31 306 31 306 31 305 31 307 2 306 31 307 2 248 2 248 2 307 2 249 3 251 0 249 0 308 0 308 0 249 0 307 0 308 0 307 0 305 0 257 0 255 0 308 0 308 0 255 0 253 0 308 0 253 0 251 0 263 0 261 0 308 0 308 0 261 0 259 0 308 0 259 0 257 0 269 0 267 0 308 0 308 0 267 0 265 0 308 0 265 0 263 0 275 0 273 0 308 0 308 0 273 0 271 0 308 0 271 0 269 0 281 0 279 0 308 0 308 0 279 0 277 0 308 0 277 0 275 0 287 0 285 0 308 0 308 0 285 0 283 0 308 0 283 0 281 0 293 0 291 0 308 0 308 0 291 0 289 0 308 0 289 0 287 0 299 0 297 0 308 0 308 0 297 0 295 0 308 0 295 0 293 0 305 0 303 0 308 0 308 0 303 0 301 0 308 0 301 0 299 0 304 1 306 1 309 1 309 1 306 1 248 1 309 1 248 1 250 1 298 1 300 1 309 1 309 1 300 1 302 1 309 1 302 1 304 1 292 1 294 1 309 1 309 1 294 1 296 1 309 1 296 1 298 1 286 1 288 1 309 1 309 1 288 1 290 1 309 1 290 1 292 1 280 1 282 1 309 1 309 1 282 1 284 1 309 1 284 1 286 1 274 1 276 1 309 1 309 1 276 1 278 1 309 1 278 1 280 1 268 1 270 1 309 1 309 1 270 1 272 1 309 1 272 1 274 1 262 1 264 1 309 1 309 1 264 1 266 1 309 1 266 1 268 1 256 1 258 1 309 1 309 1 258 1 260 1 309 1 260 1 262 1 250 1 252 1 309 1 309 1 252 1 254 1 309 1 254 1 256 1 310 2 311 3 312 3 312 3 311 3 313 4 312 3 313 4 314 4 314 4 313 4 315 5 314 4 315 5 316 5 316 5 315 5 317 6 316 5 317 6 318 6 318 6 317 6 319 7 318 6 319 7 320 7 320 7 319 7 321 8 320 7 321 8 322 8 322 8 321 8 323 9 322 8 323 9 324 9 324 9 323 9 325 10 324 9 325 10 326 10 326 10 325 10 327 11 326 10 327 11 328 11 328 11 327 11 329 12 328 11 329 12 330 12 330 12 329 12 331 13 330 12 331 13 332 13 332 13 331 13 333 14 332 13 333 14 334 14 334 14 333 14 335 15 334 14 335 15 336 15 336 15 335 15 337 16 336 15 337 16 338 16 338 16 337 16 339 17 338 16 339 17 340 17 340 17 339 17 341 18 340 17 341 18 342 18 342 18 341 18 343 19 342 18 343 19 344 19 344 19 343 19 345 20 344 19 345 20 346 20 346 20 345 20 347 21 346 20 347 21 348 21 348 21 347 21 349 22 348 21 349 22 350 22 350 22 349 22 351 23 350 22 351 23 352 23 352 23 351 23 353 24 352 23 353 24 354 24 354 24 353 24 355 25 354 24 355 25 356 25 356 25 355 25 357 26 356 25 357 26 358 26 358 26 357 26 359 27 358 26 359 27 360 27 360 27 359 27 361 28 360 27 361 28 362 28 362 28 361 28 363 29 362 28 363 29 364 29 364 29 363 29 365 30 364 29 365 30 366 30 366 30 365 30 367 31 366 30 367 31 368 31 368 31 367 31 369 2 368 31 369 2 310 2 310 2 369 2 311 3 313 0 311 0 370 0 370 0 311 0 369 0 370 0 369 0 367 0 319 0 317 0 370 0 370 0 317 0 315 0 370 0 315 0 313 0 325 0 323 0 370 0 370 0 323 0 321 0 370 0 321 0 319 0 331 0 329 0 370 0 370 0 329 0 327 0 370 0 327 0 325 0 337 0 335 0 370 0 370 0 335 0 333 0 370 0 333 0 331 0 343 0 341 0 370 0 370 0 341 0 339 0 370 0 339 0 337 0 349 0 347 0 370 0 370 0 347 0 345 0 370 0 345 0 343 0 355 0 353 0 370 0 370 0 353 0 351 0 370 0 351 0 349 0 361 0 359 0 370 0 370 0 359 0 357 0 370 0 357 0 355 0 367 0 365 0 370 0 370 0 365 0 363 0 370 0 363 0 361 0 366 1 368 1 371 1 371 1 368 1 310 1 371 1 310 1 312 1 360 1 362 1 371 1 371 1 362 1 364 1 371 1 364 1 366 1 354 1 356 1 371 1 371 1 356 1 358 1 371 1 358 1 360 1 348 1 350 1 371 1 371 1 350 1 352 1 371 1 352 1 354 1 342 1 344 1 371 1 371 1 344 1 346 1 371 1 346 1 348 1 336 1 338 1 371 1 371 1 338 1 340 1 371 1 340 1 342 1 330 1 332 1 371 1 371 1 332 1 334 1 371 1 334 1 336 1 324 1 326 1 371 1 371 1 326 1 328 1 371 1 328 1 330 1 318 1 320 1 371 1 371 1 320 1 322 1 371 1 322 1 324 1 312 1 314 1 371 1 371 1 314 1 316 1 371 1 316 1 318 1 372 2 373 3 374 3 374 3 373 3 375 4 374 3 375 4 376 4 376 4 375 4 377 5 376 4 377 5 378 5 378 5 377 5 379 6 378 5 379 6 380 6 380 6 379 6 381 7 380 6 381 7 382 7 382 7 381 7 383 8 382 7 383 8 384 8 384 8 383 8 385 9 384 8 385 9 386 9 386 9 385 9 387 10 386 9 387 10 388 10 388 10 387 10 389 11 388 10 389 11 390 11 390 11 389 11 391 12 390 11 391 12 392 12 392 12 391 12 393 13 392 12 393 13 394 13 394 13 393 13 395 14 394 13 395 14 396 14 396 14 395 14 397 15 396 14 397 15 398 15 398 15 397 15 399 16 398 15 399 16 400 16 400 16 399 16 401 17 400 16 401 17 402 17 402 17 401 17 403 18 402 17 403 18 404 18 404 18 403 18 405 19 404 18 405 19 406 19 406 19 405 19 407 20 406 19 407 20 408 20 408 20 407 20 409 21 408 20 409 21 410 21 410 21 409 21 411 22 410 21 411 22 412 22 412 22 411 22 413 23 412 22 413 23 414 23 414 23 413 23 415 24 414 23 415 24 416 24 416 24 415 24 417 25 416 24 417 25 418 25 418 25 417 25 419 26 418 25 419 26 420 26 420 26 419 26 421 27 420 26 421 27 422 27 422 27 421 27 423 28 422 27 423 28 424 28 424 28 423 28 425 29 424 28 425 29 426 29 426 29 425 29 427 30 426 29 427 30 428 30 428 30 427 30 429 31 428 30 429 31 430 31 430 31 429 31 431 2 430 31 431 2 372 2 372 2 431 2 373 3 375 0 373 0 432 0 432 0 373 0 431 0 432 0 431 0 429 0 381 0 379 0 432 0 432 0 379 0 377 0 432 0 377 0 375 0 387 0 385 0 432 0 432 0 385 0 383 0 432 0 383 0 381 0 393 0 391 0 432 0 432 0 391 0 389 0 432 0 389 0 387 0 399 0 397 0 432 0 432 0 397 0 395 0 432 0 395 0 393 0 405 0 403 0 432 0 432 0 403 0 401 0 432 0 401 0 399 0 411 0 409 0 432 0 432 0 409 0 407 0 432 0 407 0 405 0 417 0 415 0 432 0 432 0 415 0 413 0 432 0 413 0 411 0 423 0 421 0 432 0 432 0 421 0 419 0 432 0 419 0 417 0 429 0 427 0 432 0 432 0 427 0 425 0 432 0 425 0 423 0 428 1 430 1 433 1 433 1 430 1 372 1 433 1 372 1 374 1 422 1 424 1 433 1 433 1 424 1 426 1 433 1 426 1 428 1 416 1 418 1 433 1 433 1 418 1 420 1 433 1 420 1 422 1 410 1 412 1 433 1 433 1 412 1 414 1 433 1 414 1 416 1 404 1 406 1 433 1 433 1 406 1 408 1 433 1 408 1 410 1 398 1 400 1 433 1 433 1 400 1 402 1 433 1 402 1 404 1 392 1 394 1 433 1 433 1 394 1 396 1 433 1 396 1 398 1 386 1 388 1 433 1 433 1 388 1 390 1 433 1 390 1 392 1 380 1 382 1 433 1 433 1 382 1 384 1 433 1 384 1 386 1 374 1 376 1 433 1 433 1 376 1 378 1 433 1 378 1 380 1 434 0 435 0 436 0 436 0 435 0 437 0 436 0 437 0 438 0 439 0 440 0 436 0 436 0 440 0 441 0 436 0 441 0 434 0 442 0 443 0 436 0 436 0 443 0 444 0 436 0 444 0 439 0 445 0 446 0 436 0 436 0 446 0 447 0 436 0 447 0 442 0 448 0 449 0 436 0 436 0 449 0 450 0 436 0 450 0 445 0 451 0 452 0 436 0 436 0 452 0 453 0 436 0 453 0 448 0 454 0 455 0 436 0 436 0 455 0 456 0 436 0 456 0 451 0 457 0 458 0 436 0 436 0 458 0 459 0 436 0 459 0 454 0 460 0 461 0 436 0 436 0 461 0 462 0 436 0 462 0 457 0 438 0 463 0 436 0 436 0 463 0 464 0 436 0 464 0 460 0 465 1 466 1 467 1 467 1 466 1 468 1 467 1 468 1 469 1 470 1 471 1 467 1 467 1 471 1 472 1 467 1 472 1 465 1 473 1 474 1 467 1 467 1 474 1 475 1 467 1 475 1 470 1 476 1 477 1 467 1 467 1 477 1 478 1 467 1 478 1 473 1 479 1 480 1 467 1 467 1 480 1 481 1 467 1 481 1 476 1 482 1 483 1 467 1 467 1 483 1 484 1 467 1 484 1 479 1 485 1 486 1 467 1 467 1 486 1 487 1 467 1 487 1 482 1 488 1 489 1 467 1 467 1 489 1 490 1 467 1 490 1 485 1 491 1 492 1 467 1 467 1 492 1 493 1 467 1 493 1 488 1 469 1 494 1 467 1 467 1 494 1 495 1 467 1 495 1 491 1 496 2 497 3 498 3 498 3 497 3 499 4 498 3 499 4 500 4 500 4 499 4 501 5 500 4 501 5 502 5 502 5 501 5 503 6 502 5 503 6 504 6 504 6 503 6 505 7 504 6 505 7 506 7 506 7 505 7 507 8 506 7 507 8 508 8 508 8 507 8 509 9 508 8 509 9 510 9 510 9 509 9 511 10 510 9 511 10 512 10 512 10 511 10 513 11 512 10 513 11 514 11 514 11 513 11 515 12 514 11 515 12 516 12 516 12 515 12 517 13 516 12 517 13 518 13 518 13 517 13 519 14 518 13 519 14 520 14 520 14 519 14 521 15 520 14 521 15 522 15 522 15 521 15 523 16 522 15 523 16 524 16 524 16 523 16 525 17 524 16 525 17 526 17 526 17 525 17 527 18 526 17 527 18 528 18 528 18 527 18 529 19 528 18 529 19 530 19 530 19 529 19 531 20 530 19 531 20 532 20 532 20 531 20 533 21 532 20 533 21 534 21 534 21 533 21 535 22 534 21 535 22 536 22 536 22 535 22 537 23 536 22 537 23 538 23 538 23 537 23 539 24 538 23 539 24 540 24 540 24 539 24 541 25 540 24 541 25 542 25 542 25 541 25 543 26 542 25 543 26 544 26 544 26 543 26 545 27 544 26 545 27 546 27 546 27 545 27 547 28 546 27 547 28 548 28 548 28 547 28 549 29 548 28 549 29 550 29 550 29 549 29 551 30 550 29 551 30 552 30 552 30 551 30 553 31 552 30 553 31 554 31 554 31 553 31 555 2 554 31 555 2 496 2 496 2 555 2 497 3 499 0 497 0 556 0 556 0 497 0 555 0 556 0 555 0 553 0 505 0 503 0 556 0 556 0 503 0 501 0 556 0 501 0 499 0 511 0 509 0 556 0 556 0 509 0 507 0 556 0 507 0 505 0 517 0 515 0 556 0 556 0 515 0 513 0 556 0 513 0 511 0 523 0 521 0 556 0 556 0 521 0 519 0 556 0 519 0 517 0 529 0 527 0 556 0 556 0 527 0 525 0 556 0 525 0 523 0 535 0 533 0 556 0 556 0 533 0 531 0 556 0 531 0 529 0 541 0 539 0 556 0 556 0 539 0 537 0 556 0 537 0 535 0 547 0 545 0 556 0 556 0 545 0 543 0 556 0 543 0 541 0 553 0 551 0 556 0 556 0 551 0 549 0 556 0 549 0 547 0 552 1 554 1 557 1 557 1 554 1 496 1 557 1 496 1 498 1 546 1 548 1 557 1 557 1 548 1 550 1 557 1 550 1 552 1 540 1 542 1 557 1 557 1 542 1 544 1 557 1 544 1 546 1 534 1 536 1 557 1 557 1 536 1 538 1 557 1 538 1 540 1 528 1 530 1 557 1 557 1 530 1 532 1 557 1 532 1 534 1 522 1 524 1 557 1 557 1 524 1 526 1 557 1 526 1 528 1 516 1 518 1 557 1 557 1 518 1 520 1 557 1 520 1 522 1 510 1 512 1 557 1 557 1 512 1 514 1 557 1 514 1 516 1 504 1 506 1 557 1 557 1 506 1 508 1 557 1 508 1 510 1 498 1 500 1 557 1 557 1 500 1 502 1 557 1 502 1 504 1</p>
        </triangles>
      </mesh>
    </geometry>
  </library_geometries>
  <library_visual_scenes>
    <visual_scene id="DefaultScene">
      <node id="node_659b4ba0_cab9_4140_b6d8_7412bd804171" type="NODE">
        <matrix>1 0 0 0 0 1 0 0 0 0 1 0 0 0 0 1</matrix>
        <node id="node_76d47021_6a8e_44fd_b017_a2fc59891759" type="NODE">
          <matrix>1 0 0 0 0 1 0 0 0 0 1 0 0 0 0 1</matrix>
          <node id="node_4c03b801_4b4e_4597_9bbc_b2eb8f3907d6" type="NODE">
            <matrix>0.9972697496414185 0.042872779071331024 0.0601247102022171 1.0299838781356812 -0.07354965806007385 0.6494040489196777 0.7568783164024353 6.2216877937316895 -0.006595753598958254 -0.7592340111732483 0.6507843136787415 5.7364959716796875 0 0 0 1</matrix>
          </node>
          <node id="node_ff55d33e_1287_496c_9405_f1394d019706" type="NODE">
            <matrix>1 0 0 0 0 1 0 0 0 0 1 0 0 0 0 1</matrix>
            <node id="node_ff55d33e_1287_496c_9405_f1394d019706_mesh0" type="NODE">
              <matrix>1 0 0 0 0 1 0 0 0 0 1 0 0 0 0 1</matrix>
              <instance_geometry url="#geometry_f086fd2e_e213_4552_8539_c770b9772cdf">
                <bind_material>
                  <technique_common>
                    <instance_material symbol="mat_0" target="#mat_0"/>
                  </technique_common>
                </bind_material>
              </instance_geometry>
            </node>
            <node id="node_ff55d33e_1287_496c_9405_f1394d019706_mesh1" type="NODE">
              <matrix>1 0 0 0 0 1 0 0 0 0 1 0 0 0 0 1</matrix>
              <instance_geometry url="#geometry_42e8f102_98da_42e5_82f7_41af89f3b2f8">
                <bind_material>
                  <technique_common>
                    <instance_material symbol="mat_1" target="#mat_1"/>
                  </technique_common>
                </bind_material>
              </instance_geometry>
            </node>
          </node>
        </node>
      </node>
    </visual_scene>
  </library_visual_scenes>
  <scene>
    <instance_visual_scene url="#DefaultScene"/>
  </scene>
</COLLADA>
