#
# Bunkspeed OBJ File
# http://www.bunkspeed.com
#
mtllib path_obj.mtl

##########################
g Root|Path_(Predeterminado)|Predeterminado|Saliente-Extruir4|Saliente-Extruir4_-_Part
##########################
v -1.83697E-17 0.3668605 -0.075
v -1.83697E-17 0.3568605 -0.075
v -0.01559338 0.3568605 -0.07336107
v -1.83697E-17 0.3668605 -0.075
v -0.01559338 0.3568605 -0.07336107
v -0.01559338 0.3668605 -0.07336107
v -0.03050525 0.3568605 -0.06851591
v -0.03050525 0.3668605 -0.06851591
v -0.04408389 0.3568605 -0.06067627
v -0.04408389 0.3668605 -0.06067627
v -0.05573586 0.3568605 -0.05018479
v -0.05573586 0.3668605 -0.05018479
v -0.0649519 0.3568605 -0.0375
v -0.0649519 0.3668605 -0.0375
v -0.07132924 0.3568605 -0.02317628
v -0.07132924 0.3668605 -0.02317628
v -0.07458914 0.3568605 -0.007839635
v -0.07458914 0.3668605 -0.007839635
v -0.07458914 0.3568605 0.007839635
v -0.07458914 0.3668605 0.007839635
v -0.07132924 0.3568605 0.02317628
v -0.07132924 0.3668605 0.02317628
v -0.0649519 0.3568605 0.0375
v -0.0649519 0.3668605 0.0375
v -0.05573586 0.3568605 0.05018479
v -0.05573586 0.3668605 0.05018479
v -0.04408389 0.3568605 0.06067627
v -0.04408389 0.3668605 0.06067627
v -0.03050525 0.3568605 0.06851591
v -0.03050525 0.3668605 0.06851591
v -0.01559338 0.3568605 0.07336107
v -0.01559338 0.3668605 0.07336107
v 9.184851E-18 0.3568605 0.075
v 9.184851E-18 0.3668605 0.075
v 0.4572 0.3668605 0.075
v 9.184851E-18 0.3668605 0.075
v 0.4572 0.3568605 0.075
v 9.184851E-18 0.3568605 0.075
v 0.4572 0.3668605 0.075
v 0.4572 0.3568605 0.075
v 0.4727934 0.3568605 0.07336107
v 0.4572 0.3668605 0.075
v 0.4727934 0.3568605 0.07336107
v 0.4727934 0.3668605 0.07336107
v 0.4877053 0.3568605 0.06851591
v 0.4877053 0.3668605 0.06851591
v 0.5012839 0.3568605 0.06067627
v 0.5012839 0.3668605 0.06067627
v 0.5129359 0.3568605 0.05018479
v 0.5129359 0.3668605 0.05018479
v 0.5221519 0.3568605 0.0375
v 0.5221519 0.3668605 0.0375
v 0.5285292 0.3568605 0.02317628
v 0.5285292 0.3668605 0.02317628
v 0.5317891 0.3568605 0.007839635
v 0.5317891 0.3668605 0.007839635
v 0.5317891 0.3568605 -0.007839635
v 0.5317891 0.3668605 -0.007839635
v 0.5285292 0.3568605 -0.02317628
v 0.5285292 0.3668605 -0.02317628
v 0.5221519 0.3568605 -0.0375
v 0.5221519 0.3668605 -0.0375
v 0.5129359 0.3568605 -0.05018479
v 0.5129359 0.3668605 -0.05018479
v 0.5012839 0.3568605 -0.06067627
v 0.5012839 0.3668605 -0.06067627
v 0.4877053 0.3568605 -0.06851591
v 0.4877053 0.3668605 -0.06851591
v 0.4727934 0.3568605 -0.07336107
v 0.4727934 0.3668605 -0.07336107
v 0.4572 0.3568605 -0.075
v 0.4572 0.3668605 -0.075
v 0 0.3668605 -0.075
v 0.4572 0.3668605 -0.075
v 0 0.3568605 -0.075
v 0.4572 0.3568605 -0.075
v 0.4266948 0.3668605 0.06851591
v 0 0.3668605 0.075
v 0.4416066 0.3668605 0.07336107
v 0.4572 0.3668605 0.075
v 0.4266948 0.3668605 0.06851591
v 0.4131161 0.3668605 0.06067627
v 0 0.3668605 0.075
v 0.4014641 0.3668605 0.05018479
v 0.3922481 0.3668605 0.0375
v 0.4131161 0.3668605 -0.06067627
v -1.83697E-17 0.3668605 -0.075
v 0.4014641 0.3668605 -0.05018479
v 0.3922481 0.3668605 -0.0375
v 0.3826109 0.3668605 0.007839635
v -0.04408389 0.3668605 0.06067627
v -0.03050525 0.3668605 0.06851591
v -0.03050525 0.3668605 0.06851591
v -0.01559338 0.3668605 0.07336107
v 0.3826109 0.3668605 0.007839635
v 0 0.3668605 0.075
v 0.3858708 0.3668605 0.02317628
v 0.3922481 0.3668605 0.0375
v 0.3826109 0.3668605 -0.007839635
v -0.0649519 0.3668605 0.0375
v 0.3826109 0.3668605 0.007839635
v -0.05573586 0.3668605 0.05018479
v -0.04408389 0.3668605 0.06067627
v -0.01559338 0.3668605 -0.07336107
v -0.03050525 0.3668605 -0.06851591
v 0.3826109 0.3668605 -0.007839635
v -0.04408389 0.3668605 -0.06067627
v -0.05573586 0.3668605 -0.05018479
v 0.4131161 0.3668605 -0.06067627
v 0.4266948 0.3668605 -0.06851591
v -1.83697E-17 0.3668605 -0.075
v 0.4416066 0.3668605 -0.07336107
v 0.4572 0.3668605 -0.075
v -0.05573586 0.3668605 -0.05018479
v -0.0649519 0.3668605 -0.0375
v 0.3826109 0.3668605 -0.007839635
v -0.07132924 0.3668605 -0.02317628
v -0.07458914 0.3668605 -0.007839635
v -0.07458914 0.3668605 -0.007839635
v -0.07458914 0.3668605 0.007839635
v 0.3826109 0.3668605 -0.007839635
v -0.07132924 0.3668605 0.02317628
v -0.0649519 0.3668605 0.0375
v -0.01559338 0.3668605 -0.07336107
v 0.3826109 0.3668605 -0.007839635
v -1.83697E-17 0.3668605 -0.075
v 0.3858708 0.3668605 -0.02317628
v 0.3922481 0.3668605 -0.0375
v -0.004290504 0.3568605 0.01601238
v -4.060251E-18 0.3568605 0.01657723
v 0 0.3568605 0.075
v 0.01601238 0.3568605 -0.004290504
v 0.01435631 0.3568605 -0.008288617
v 0.4572 0.3568605 -0.075
v 0.01172187 0.3568605 -0.01172187
v 0 0.3568605 -0.075
v 0.008288617 0.3568605 -0.01435631
v 0.008288617 0.3568605 -0.01435631
v 0.004290504 0.3568605 -0.01601238
v 0 0.3568605 -0.075
v 9.391896E-18 0.3568605 -0.01657723
v -0.01559338 0.3568605 -0.07336107
v -0.004290504 0.3568605 -0.01601238
v -0.03050525 0.3568605 -0.06851591
v -0.008288617 0.3568605 -0.01435631
v -0.04408389 0.3568605 -0.06067627
v -0.01172187 0.3568605 -0.01172187
v -0.01601238 0.3568605 0.004290504
v -0.07458914 0.3568605 0.007839635
v -0.01657723 0.3568605 -1.776873E-17
v -0.07458914 0.3568605 -0.007839635
v -0.01601238 0.3568605 -0.004290504
v -0.07132924 0.3568605 -0.02317628
v -0.01435631 0.3568605 -0.008288617
v -0.0649519 0.3568605 -0.0375
v -0.01172187 0.3568605 -0.01172187
v -0.05573586 0.3568605 -0.05018479
v -0.04408389 0.3568605 -0.06067627
v -4.060251E-18 0.3568605 0.01657723
v 0.004290504 0.3568605 0.01601238
v 0 0.3568605 0.075
v 0.008288617 0.3568605 0.01435631
v 0.4572 0.3568605 0.075
v 0.01172187 0.3568605 0.01172187
v 0.01435631 0.3568605 0.008288617
v 0.5221519 0.3568605 -0.0375
v 0.5285292 0.3568605 -0.02317628
v 0.01657723 0.3568605 4.695948E-18
v 0 0.3568605 0.075
v -0.01559338 0.3568605 0.07336107
v -0.004290504 0.3568605 0.01601238
v -0.03050525 0.3568605 0.06851591
v -0.008288617 0.3568605 0.01435631
v -0.04408389 0.3568605 0.06067627
v -0.01172187 0.3568605 0.01172187
v -0.05573586 0.3568605 0.05018479
v -0.01435631 0.3568605 0.008288617
v -0.0649519 0.3568605 0.0375
v -0.01601238 0.3568605 0.004290504
v -0.07132924 0.3568605 0.02317628
v -0.07458914 0.3568605 0.007839635
v 0.01657723 0.3568605 4.695948E-18
v 0.5285292 0.3568605 0.02317628
v 0.5221519 0.3568605 0.0375
v 0.4877053 0.3568605 0.06851591
v 0.4727934 0.3568605 0.07336107
v 0.01657723 0.3568605 4.695948E-18
v 0.4572 0.3568605 0.075
v 0.01601238 0.3568605 0.004290504
v 0.01435631 0.3568605 0.008288617
v 0.01601238 0.3568605 -0.004290504
v 0.4572 0.3568605 -0.075
v 0.01657723 0.3568605 4.695948E-18
v 0.4727934 0.3568605 -0.07336107
v 0.4877053 0.3568605 -0.06851591
v 0.5285292 0.3568605 -0.02317628
v 0.5317891 0.3568605 -0.007839635
v 0.01657723 0.3568605 4.695948E-18
v 0.5317891 0.3568605 0.007839635
v 0.5285292 0.3568605 0.02317628
v 0.4877053 0.3568605 -0.06851591
v 0.5012839 0.3568605 -0.06067627
v 0.01657723 0.3568605 4.695948E-18
v 0.5129359 0.3568605 -0.05018479
v 0.5221519 0.3568605 -0.0375
v 0.5221519 0.3568605 0.0375
v 0.5129359 0.3568605 0.05018479
v 0.01657723 0.3568605 4.695948E-18
v 0.5012839 0.3568605 0.06067627
v 0.4877053 0.3568605 0.06851591
v 0.4727934 0.3668605 -0.07336107
v 0.4572 0.3668605 -0.075
v 0.9144 0.3668605 -0.075
v 0.9186905 0.3668605 -0.01601238
v 0.9144 0.3668605 -0.01657723
v 0.9144 0.3668605 -0.075
v 0.9101095 0.3668605 -0.01601238
v 0.9304124 0.3668605 -0.004290504
v 0.9889891 0.3668605 -0.007839635
v 0.9309772 0.3668605 4.695948E-18
v 0.9889891 0.3668605 0.007839635
v 0.9304124 0.3668605 0.004290504
v 0.9857292 0.3668605 0.02317628
v 0.9287563 0.3668605 0.008288617
v 0.9793519 0.3668605 0.0375
v 0.9261219 0.3668605 0.01172187
v 0.9144 0.3668605 -0.075
v 0.9299934 0.3668605 -0.07336107
v 0.9186905 0.3668605 -0.01601238
v 0.9449052 0.3668605 -0.06851591
v 0.9226886 0.3668605 -0.01435631
v 0.9584839 0.3668605 -0.06067627
v 0.9261219 0.3668605 -0.01172187
v 0.9701359 0.3668605 -0.05018479
v 0.9287563 0.3668605 -0.008288617
v 0.9793519 0.3668605 -0.0375
v 0.9304124 0.3668605 -0.004290504
v 0.9857292 0.3668605 -0.02317628
v 0.9889891 0.3668605 -0.007839635
v 0.8983876 0.3668605 -0.004290504
v 0.5221519 0.3668605 -0.0375
v 0.5129359 0.3668605 -0.05018479
v 0.5129359 0.3668605 -0.05018479
v 0.5012839 0.3668605 -0.06067627
v 0.8983876 0.3668605 -0.004290504
v 0.4877053 0.3668605 -0.06851591
v 0.4727934 0.3668605 -0.07336107
v 0.4877053 0.3668605 0.06851591
v 0.8983876 0.3668605 0.004290504
v 0.4727934 0.3668605 0.07336107
v 0.9000437 0.3668605 0.008288617
v 0.9026781 0.3668605 0.01172187
v 0.4877053 0.3668605 0.06851591
v 0.5012839 0.3668605 0.06067627
v 0.8983876 0.3668605 0.004290504
v 0.5129359 0.3668605 0.05018479
v 0.5221519 0.3668605 0.0375
v 0.9026781 0.3668605 0.01172187
v 0.9061114 0.3668605 0.01435631
v 0.4727934 0.3668605 0.07336107
v 0.9144 0.3668605 0.075
v 0.4572 0.3668605 0.075
v 0.9101095 0.3668605 -0.01601238
v 0.9061114 0.3668605 -0.01435631
v 0.9144 0.3668605 -0.075
v 0.9026781 0.3668605 -0.01172187
v 0.4727934 0.3668605 -0.07336107
v 0.9000437 0.3668605 -0.008288617
v 0.8983876 0.3668605 -0.004290504
v 0.5221519 0.3668605 0.0375
v 0.5285292 0.3668605 0.02317628
v 0.8983876 0.3668605 0.004290504
v 0.5317891 0.3668605 0.007839635
v 0.8978227 0.3668605 -1.776873E-17
v 0.5317891 0.3668605 -0.007839635
v 0.8983876 0.3668605 -0.004290504
v 0.5285292 0.3668605 -0.02317628
v 0.5221519 0.3668605 -0.0375
v 0.9061114 0.3668605 0.01435631
v 0.9101095 0.3668605 0.01601238
v 0.9144 0.3668605 0.075
v 0.9144 0.3668605 0.01657723
v 0.9299934 0.3668605 0.07336107
v 0.9186905 0.3668605 0.01601238
v 0.9449052 0.3668605 0.06851591
v 0.9226886 0.3668605 0.01435631
v 0.9584839 0.3668605 0.06067627
v 0.9261219 0.3668605 0.01172187
v 0.9701359 0.3668605 0.05018479
v 0.9793519 0.3668605 0.0375
v 0.4572 0.3768605 -0.075
v 0.4572 0.3668605 -0.075
v 0.4416066 0.3668605 -0.07336107
v 0.4572 0.3768605 -0.075
v 0.4416066 0.3668605 -0.07336107
v 0.4416066 0.3768605 -0.07336107
v 0.4266948 0.3668605 -0.06851591
v 0.4266948 0.3768605 -0.06851591
v 0.4131161 0.3668605 -0.06067627
v 0.4131161 0.3768605 -0.06067627
v 0.4014641 0.3668605 -0.05018479
v 0.4014641 0.3768605 -0.05018479
v 0.3922481 0.3668605 -0.0375
v 0.3922481 0.3768605 -0.0375
v 0.3858708 0.3668605 -0.02317628
v 0.3858708 0.3768605 -0.02317628
v 0.3826109 0.3668605 -0.007839635
v 0.3826109 0.3768605 -0.007839635
v 0.3826109 0.3668605 0.007839635
v 0.3826109 0.3768605 0.007839635
v 0.3858708 0.3668605 0.02317628
v 0.3858708 0.3768605 0.02317628
v 0.3922481 0.3668605 0.0375
v 0.3922481 0.3768605 0.0375
v 0.4014641 0.3668605 0.05018479
v 0.4014641 0.3768605 0.05018479
v 0.4131161 0.3668605 0.06067627
v 0.4131161 0.3768605 0.06067627
v 0.4266948 0.3668605 0.06851591
v 0.4266948 0.3768605 0.06851591
v 0.4416066 0.3668605 0.07336107
v 0.4416066 0.3768605 0.07336107
v 0.4572 0.3668605 0.075
v 0.4572 0.3768605 0.075
v 0.9144 0.3768605 0.075
v 0.4572 0.3768605 0.075
v 0.9144 0.3668605 0.075
v 0.4572 0.3668605 0.075
v 0.9144 0.3768605 0.075
v 0.9144 0.3668605 0.075
v 0.9299934 0.3668605 0.07336107
v 0.9144 0.3768605 0.075
v 0.9299934 0.3668605 0.07336107
v 0.9299934 0.3768605 0.07336107
v 0.9449052 0.3668605 0.06851591
v 0.9449052 0.3768605 0.06851591
v 0.9584839 0.3668605 0.06067627
v 0.9584839 0.3768605 0.06067627
v 0.9701359 0.3668605 0.05018479
v 0.9701359 0.3768605 0.05018479
v 0.9793519 0.3668605 0.0375
v 0.9793519 0.3768605 0.0375
v 0.9857292 0.3668605 0.02317628
v 0.9857292 0.3768605 0.02317628
v 0.9889891 0.3668605 0.007839635
v 0.9889891 0.3768605 0.007839635
v 0.9889891 0.3668605 -0.007839635
v 0.9889891 0.3768605 -0.007839635
v 0.9857292 0.3668605 -0.02317628
v 0.9857292 0.3768605 -0.02317628
v 0.9793519 0.3668605 -0.0375
v 0.9793519 0.3768605 -0.0375
v 0.9701359 0.3668605 -0.05018479
v 0.9701359 0.3768605 -0.05018479
v 0.9584839 0.3668605 -0.06067627
v 0.9584839 0.3768605 -0.06067627
v 0.9449052 0.3668605 -0.06851591
v 0.9449052 0.3768605 -0.06851591
v 0.9299934 0.3668605 -0.07336107
v 0.9299934 0.3768605 -0.07336107
v 0.9144 0.3668605 -0.075
v 0.9144 0.3768605 -0.075
v 0.4572 0.3768605 -0.075
v 0.9144 0.3768605 -0.075
v 0.4572 0.3668605 -0.075
v 0.9144 0.3668605 -0.075
v 0.9144 0.3768605 0.075
v 0.9144 0.3768605 -0.075
v 0.4572 0.3768605 0.075
v 0.4572 0.3768605 -0.075
v 0.9857292 0.3768605 0.02317628
v 0.9889891 0.3768605 0.007839635
v 0.9144 0.3768605 -0.075
v 0.9144 0.3768605 0.075
v 0.9299934 0.3768605 0.07336107
v 0.9144 0.3768605 -0.075
v 0.9449052 0.3768605 0.06851591
v 0.9584839 0.3768605 0.06067627
v 0.4014641 0.3768605 -0.05018479
v 0.3922481 0.3768605 -0.0375
v 0.3858708 0.3768605 -0.02317628
v 0.9584839 0.3768605 0.06067627
v 0.9701359 0.3768605 0.05018479
v 0.9144 0.3768605 -0.075
v 0.9793519 0.3768605 0.0375
v 0.9857292 0.3768605 0.02317628
v 0.3858708 0.3768605 0.02317628
v 0.4572 0.3768605 -0.075
v 0.3826109 0.3768605 0.007839635
v 0.4416066 0.3768605 -0.07336107
v 0.4266948 0.3768605 -0.06851591
v 0.9449052 0.3768605 -0.06851591
v 0.9857292 0.3768605 -0.02317628
v 0.9584839 0.3768605 -0.06067627
v 0.9793519 0.3768605 -0.0375
v 0.9701359 0.3768605 -0.05018479
v 0.3858708 0.3768605 -0.02317628
v 0.3826109 0.3768605 -0.007839635
v 0.4014641 0.3768605 -0.05018479
v 0.3826109 0.3768605 0.007839635
v 0.4131161 0.3768605 -0.06067627
v 0.4266948 0.3768605 -0.06851591
v 0.3858708 0.3768605 0.02317628
v 0.3922481 0.3768605 0.0375
v 0.4572 0.3768605 -0.075
v 0.4014641 0.3768605 0.05018479
v 0.4131161 0.3768605 0.06067627
v 0.4131161 0.3768605 0.06067627
v 0.4266948 0.3768605 0.06851591
v 0.4572 0.3768605 -0.075
v 0.4416066 0.3768605 0.07336107
v 0.4572 0.3768605 0.075
v 0.9889891 0.3768605 0.007839635
v 0.9889891 0.3768605 -0.007839635
v 0.9144 0.3768605 -0.075
v 0.9857292 0.3768605 -0.02317628
v 0.9299934 0.3768605 -0.07336107
v 0.9449052 0.3768605 -0.06851591
vt 0.9298697 0.5
vt 0.9298697 0.4905978
vt 0.9445308 0.4905978
vt 0.9298697 0.5
vt 0.9445308 0.4905978
vt 0.9445308 0.5
vt 0.9585513 0.4905978
vt 0.9585513 0.5
vt 0.9713182 0.4905978
vt 0.9713182 0.5
vt 0.4528151 0.4905978
vt 0.4528151 0.5
vt 0.4647416 0.4905978
vt 0.4647416 0.5
vt 0.4782091 0.4905978
vt 0.4782091 0.5
vt 0.492629 0.4905978
vt 0.492629 0.5
vt 0.507371 0.4905978
vt 0.507371 0.5
vt 0.5217909 0.4905978
vt 0.5217909 0.5
vt 0.5352584 0.4905978
vt 0.5352584 0.5
vt 0.5471849 0.4905978
vt 0.5471849 0.5
vt 0.02868173 0.4905978
vt 0.02868173 0.5
vt 0.04144865 0.4905978
vt 0.04144865 0.5
vt 0.05546913 0.4905978
vt 0.05546913 0.5
vt 0.07013038 0.4905978
vt 0.07013038 0.5
vt 0.5 0.5
vt 0.07013038 0.5
vt 0.5 0.4905978
vt 0.07013038 0.4905978
vt 0.5 0.5
vt 0.5 0.4905978
vt 0.5146612 0.4905978
vt 0.5 0.5
vt 0.5146612 0.4905978
vt 0.5146612 0.5
vt 0.5286818 0.4905978
vt 0.5286818 0.5
vt 0.5414487 0.4905978
vt 0.5414487 0.5
vt 0.4528151 0.4905978
vt 0.4528151 0.5
vt 0.4647416 0.4905978
vt 0.4647416 0.5
vt 0.4782091 0.4905978
vt 0.4782091 0.5
vt 0.492629 0.4905978
vt 0.492629 0.5
vt 0.507371 0.4905978
vt 0.507371 0.5
vt 0.5217909 0.4905978
vt 0.5217909 0.5
vt 0.5352584 0.4905978
vt 0.5352584 0.5
vt 0.5471849 0.4905978
vt 0.5471849 0.5
vt 0.4585513 0.4905978
vt 0.4585513 0.5
vt 0.4713183 0.4905978
vt 0.4713183 0.5
vt 0.4853388 0.4905978
vt 0.4853388 0.5
vt 0.5 0.4905978
vt 0.5 0.5
vt 0.9298697 0.5
vt 0.5 0.5
vt 0.9298697 0.4905978
vt 0.5 0.4905978
vt 0.4713183 0.4355798
vt 0.07013038 0.4294833
vt 0.4853387 0.4310243
vt 0.5 0.4294833
vt 0.4713183 0.4355798
vt 0.4585513 0.4429508
vt 0.07013038 0.4294833
vt 0.4475959 0.4528151
vt 0.4389308 0.4647416
vt 0.4585513 0.5570492
vt 0.07013038 0.5705167
vt 0.4475959 0.5471848
vt 0.4389308 0.5352584
vt 0.4298696 0.492629
vt 0.02868173 0.4429508
vt 0.04144865 0.4355798
vt 0.04144865 0.4355798
vt 0.05546913 0.4310243
vt 0.4298696 0.492629
vt 0.07013038 0.4294833
vt 0.4329346 0.4782091
vt 0.4389308 0.4647416
vt 0.4298696 0.507371
vt 0.009061158 0.4647416
vt 0.4298696 0.492629
vt 0.01772627 0.4528151
vt 0.02868173 0.4429508
vt 0.05546913 0.5689757
vt 0.04144865 0.5644202
vt 0.4298696 0.507371
vt 0.02868173 0.5570492
vt 0.01772627 0.5471848
vt 0.4585513 0.5570492
vt 0.4713183 0.5644202
vt 0.07013038 0.5705167
vt 0.4853387 0.5689757
vt 0.5 0.5705167
vt 0.01772627 0.5471848
vt 0.009061158 0.5352584
vt 0.4298696 0.507371
vt 0.00306505 0.5217909
vt 0 0.507371
vt 0 0.507371
vt 0 0.492629
vt 0.4298696 0.507371
vt 0.00306505 0.4782091
vt 0.009061158 0.4647416
vt 0.05546913 0.5689757
vt 0.4298696 0.507371
vt 0.07013038 0.5705167
vt 0.4329346 0.5217909
vt 0.4389308 0.5352584
vt 0.9339036 0.4849448
vt 0.9298697 0.4844137
vt 0.9298697 0.4294833
vt 0.9148144 0.504034
vt 0.9163715 0.5077931
vt 0.5 0.5705167
vt 0.9188485 0.5110211
vt 0.9298697 0.5705167
vt 0.9220765 0.5134981
vt 0.9220765 0.5134981
vt 0.9258356 0.5150552
vt 0.9298697 0.5705167
vt 0.9298697 0.5155863
vt 0.9445308 0.5689757
vt 0.9339036 0.5150552
vt 0.9585513 0.5644202
vt 0.9376627 0.5134981
vt 0.9713182 0.5570492
vt 0.9408908 0.5110211
vt 0.9449248 0.495966
vt 1 0.492629
vt 0.9454559 0.5
vt 1 0.507371
vt 0.9449248 0.504034
vt 0.996935 0.5217909
vt 0.9433677 0.5077931
vt 0.9909388 0.5352584
vt 0.9408908 0.5110211
vt 0.9822737 0.5471848
vt 0.9713182 0.5570492
vt 0.9298697 0.4844137
vt 0.9258356 0.4849448
vt 0.9298697 0.4294833
vt 0.9220765 0.4865019
vt 0.5 0.4294833
vt 0.9188485 0.4889789
vt 0.9163715 0.4922069
vt 0.4389308 0.5352584
vt 0.4329347 0.5217909
vt 0.9142833 0.5
vt 0.9298697 0.4294833
vt 0.9445308 0.4310243
vt 0.9339036 0.4849448
vt 0.9585513 0.4355798
vt 0.9376627 0.4865019
vt 0.9713182 0.4429508
vt 0.9408908 0.4889789
vt 0.9822737 0.4528151
vt 0.9433677 0.4922069
vt 0.9909388 0.4647416
vt 0.9449248 0.495966
vt 0.996935 0.4782091
vt 1 0.492629
vt 0.9142833 0.5
vt 0.4329347 0.4782091
vt 0.4389308 0.4647416
vt 0.4713183 0.4355798
vt 0.4853388 0.4310243
vt 0.9142833 0.5
vt 0.5 0.4294833
vt 0.9148144 0.495966
vt 0.9163715 0.4922069
vt 0.9148144 0.504034
vt 0.5 0.5705167
vt 0.9142833 0.5
vt 0.4853388 0.5689757
vt 0.4713183 0.5644202
vt 0.4329347 0.5217909
vt 0.4298697 0.507371
vt 0.9142833 0.5
vt 0.4298697 0.492629
vt 0.4329347 0.4782091
vt 0.4713183 0.5644202
vt 0.4585513 0.5570492
vt 0.9142833 0.5
vt 0.4475959 0.5471848
vt 0.4389308 0.5352584
vt 0.4389308 0.4647416
vt 0.4475959 0.4528151
vt 0.9142833 0.5
vt 0.4585513 0.4429508
vt 0.4713183 0.4355798
vt 0.4853388 0.5689757
vt 0.5 0.5705167
vt 0.07013038 0.5705167
vt 0.06609634 0.5150552
vt 0.07013038 0.5155863
vt 0.07013038 0.5705167
vt 0.07416436 0.5150552
vt 0.0550752 0.504034
vt 2.980232E-08 0.507371
vt 0.05454412 0.5
vt 2.980232E-08 0.492629
vt 0.0550752 0.495966
vt 0.003065079 0.4782091
vt 0.05663225 0.4922069
vt 0.009061188 0.4647416
vt 0.05910918 0.4889789
vt 0.07013038 0.5705167
vt 0.05546913 0.5689757
vt 0.06609634 0.5150552
vt 0.04144868 0.5644202
vt 0.06233725 0.5134981
vt 0.02868173 0.5570492
vt 0.05910918 0.5110211
vt 0.01772627 0.5471848
vt 0.05663225 0.5077931
vt 0.009061188 0.5352584
vt 0.0550752 0.504034
vt 0.003065079 0.5217909
vt 2.980232E-08 0.507371
vt 0.08518562 0.504034
vt 0.4389308 0.5352584
vt 0.4475959 0.5471848
vt 0.4475959 0.5471848
vt 0.4585513 0.5570492
vt 0.08518562 0.504034
vt 0.4713183 0.5644202
vt 0.4853388 0.5689757
vt 0.4713183 0.4355798
vt 0.08518562 0.495966
vt 0.4853388 0.4310243
vt 0.08362851 0.4922069
vt 0.08115157 0.4889789
vt 0.4713183 0.4355798
vt 0.4585513 0.4429508
vt 0.08518562 0.495966
vt 0.4475959 0.4528151
vt 0.4389308 0.4647416
vt 0.08115157 0.4889789
vt 0.07792357 0.4865019
vt 0.4853388 0.4310243
vt 0.07013038 0.4294833
vt 0.5 0.4294833
vt 0.07416436 0.5150552
vt 0.07792357 0.5134981
vt 0.07013038 0.5705167
vt 0.08115157 0.5110211
vt 0.4853388 0.5689757
vt 0.08362851 0.5077931
vt 0.08518562 0.504034
vt 0.4389308 0.4647416
vt 0.4329347 0.4782091
vt 0.08518562 0.495966
vt 0.4298697 0.492629
vt 0.08571669 0.5
vt 0.4298697 0.507371
vt 0.08518562 0.504034
vt 0.4329347 0.5217909
vt 0.4389308 0.5352584
vt 0.07792357 0.4865019
vt 0.07416436 0.4849448
vt 0.07013038 0.4294833
vt 0.07013038 0.4844137
vt 0.05546913 0.4310243
vt 0.06609634 0.4849448
vt 0.04144868 0.4355798
vt 0.06233725 0.4865019
vt 0.02868173 0.4429508
vt 0.05910918 0.4889789
vt 0.01772627 0.4528151
vt 0.009061188 0.4647416
vt 0.5 0.5094022
vt 0.5 0.5
vt 0.5146613 0.5
vt 0.5 0.5094022
vt 0.5146613 0.5
vt 0.5146613 0.5094022
vt 0.5286818 0.5
vt 0.5286818 0.5094022
vt 0.5414487 0.5
vt 0.5414487 0.5094022
vt 0.4528151 0.5
vt 0.4528151 0.5094022
vt 0.4647416 0.5
vt 0.4647416 0.5094022
vt 0.4782091 0.5
vt 0.4782091 0.5094022
vt 0.492629 0.5
vt 0.492629 0.5094022
vt 0.507371 0.5
vt 0.507371 0.5094022
vt 0.5217909 0.5
vt 0.5217909 0.5094022
vt 0.5352584 0.5
vt 0.5352584 0.5094022
vt 0.5471849 0.5
vt 0.5471849 0.5094022
vt 0.4585513 0.5
vt 0.4585513 0.5094022
vt 0.4713183 0.5
vt 0.4713183 0.5094022
vt 0.4853387 0.5
vt 0.4853387 0.5094022
vt 0.5 0.5
vt 0.5 0.5094022
vt 0.9298697 0.5094022
vt 0.5 0.5094022
vt 0.9298697 0.5
vt 0.5 0.5
vt 0.9298697 0.5094022
vt 0.9298697 0.5
vt 0.9445308 0.5
vt 0.9298697 0.5094022
vt 0.9445308 0.5
vt 0.9445308 0.5094022
vt 0.9585513 0.5
vt 0.9585513 0.5094022
vt 0.9713182 0.5
vt 0.9713182 0.5094022
vt 0.4528151 0.5
vt 0.4528151 0.5094022
vt 0.4647416 0.5
vt 0.4647416 0.5094022
vt 0.4782091 0.5
vt 0.4782091 0.5094022
vt 0.492629 0.5
vt 0.492629 0.5094022
vt 0.507371 0.5
vt 0.507371 0.5094022
vt 0.5217909 0.5
vt 0.5217909 0.5094022
vt 0.5352584 0.5
vt 0.5352584 0.5094022
vt 0.5471849 0.5
vt 0.5471849 0.5094022
vt 0.02868173 0.5
vt 0.02868173 0.5094022
vt 0.04144868 0.5
vt 0.04144868 0.5094022
vt 0.05546913 0.5
vt 0.05546913 0.5094022
vt 0.07013038 0.5
vt 0.07013038 0.5094022
vt 0.5 0.5094022
vt 0.07013038 0.5094022
vt 0.5 0.5
vt 0.07013038 0.5
vt 0.9298697 0.4294833
vt 0.9298697 0.5705167
vt 0.5 0.4294833
vt 0.5 0.5705167
vt 0.9969349 0.4782091
vt 1 0.492629
vt 0.9298697 0.5705167
vt 0.9298697 0.4294833
vt 0.9445308 0.4310243
vt 0.9298697 0.5705167
vt 0.9585513 0.4355798
vt 0.9713182 0.4429508
vt 0.4475959 0.5471848
vt 0.4389308 0.5352584
vt 0.4329346 0.5217909
vt 0.9713182 0.4429508
vt 0.9822737 0.4528151
vt 0.9298697 0.5705167
vt 0.9909388 0.4647416
vt 0.9969349 0.4782091
vt 0.4329346 0.4782091
vt 0.5 0.5705167
vt 0.4298696 0.492629
vt 0.4853387 0.5689757
vt 0.4713183 0.5644202
vt 0.9585513 0.5644202
vt 0.9969349 0.5217909
vt 0.9713182 0.5570492
vt 0.9909388 0.5352584
vt 0.9822737 0.5471848
vt 0.4329346 0.5217909
vt 0.4298696 0.507371
vt 0.4475959 0.5471848
vt 0.4298696 0.492629
vt 0.4585513 0.5570492
vt 0.4713183 0.5644202
vt 0.4329346 0.4782091
vt 0.4389308 0.4647416
vt 0.5 0.5705167
vt 0.4475959 0.4528151
vt 0.4585513 0.4429508
vt 0.4585513 0.4429508
vt 0.4713183 0.4355798
vt 0.5 0.5705167
vt 0.4853387 0.4310243
vt 0.5 0.4294833
vt 1 0.492629
vt 1 0.507371
vt 0.9298697 0.5705167
vt 0.9969349 0.5217909
vt 0.9445308 0.5689757
vt 0.9585513 0.5644202
vn -2.449294E-16 0 -1
vn -2.449294E-16 0 -1
vn -0.2079117 0 -0.9781476
vn -2.449294E-16 0 -1
vn -0.2079117 0 -0.9781476
vn -0.2079117 0 -0.9781476
vn -0.4067366 0 -0.9135454
vn -0.4067366 0 -0.9135454
vn -0.5877852 0 -0.809017
vn -0.5877852 0 -0.809017
vn -0.7431448 0 -0.6691306
vn -0.7431448 0 -0.6691306
vn -0.8660254 0 -0.5
vn -0.8660254 0 -0.5
vn -0.9510565 0 -0.309017
vn -0.9510565 0 -0.309017
vn -0.9945219 0 -0.1045285
vn -0.9945219 0 -0.1045285
vn -0.9945219 0 0.1045285
vn -0.9945219 0 0.1045285
vn -0.9510565 0 0.309017
vn -0.9510565 0 0.309017
vn -0.8660254 0 0.5
vn -0.8660254 0 0.5
vn -0.7431448 0 0.6691306
vn -0.7431448 0 0.6691306
vn -0.5877852 0 0.809017
vn -0.5877852 0 0.809017
vn -0.4067366 0 0.9135454
vn -0.4067366 0 0.9135454
vn -0.2079117 0 0.9781476
vn -0.2079117 0 0.9781476
vn 1.224647E-16 0 1
vn 1.224647E-16 0 1
vn 0 0 1
vn 0 0 1
vn 0 0 1
vn 0 0 1
vn 1.224647E-16 0 1
vn 1.224647E-16 0 1
vn 0.2079117 0 0.9781476
vn 1.224647E-16 0 1
vn 0.2079117 0 0.9781476
vn 0.2079117 0 0.9781476
vn 0.4067366 0 0.9135454
vn 0.4067366 0 0.9135454
vn 0.5877852 0 0.809017
vn 0.5877852 0 0.809017
vn 0.7431448 0 0.6691306
vn 0.7431448 0 0.6691306
vn 0.8660254 0 0.5
vn 0.8660254 0 0.5
vn 0.9510565 0 0.309017
vn 0.9510565 0 0.309017
vn 0.9945219 0 0.1045285
vn 0.9945219 0 0.1045285
vn 0.9945219 0 -0.1045285
vn 0.9945219 0 -0.1045285
vn 0.9510565 0 -0.309017
vn 0.9510565 0 -0.309017
vn 0.8660254 0 -0.5
vn 0.8660254 0 -0.5
vn 0.7431448 0 -0.6691306
vn 0.7431448 0 -0.6691306
vn 0.5877852 0 -0.809017
vn 0.5877852 0 -0.809017
vn 0.4067366 0 -0.9135454
vn 0.4067366 0 -0.9135454
vn 0.2079117 0 -0.9781476
vn 0.2079117 0 -0.9781476
vn 0 0 -1
vn 0 0 -1
vn 0 0 -1
vn 0 0 -1
vn 0 0 -1
vn 0 0 -1
vn 0 1 0
vn 0 1 0
vn 0 1 0
vn 0 1 0
vn 0 1 0
vn 0 1 0
vn 0 1 0
vn 0 1 0
vn 0 1 0
vn 0 1 0
vn 0 1 0
vn 0 1 0
vn 0 1 0
vn 0 1 0
vn 0 1 0
vn 0 1 0
vn 0 1 0
vn 0 1 0
vn 0 1 0
vn 0 1 0
vn 0 1 0
vn 0 1 0
vn 0 1 0
vn 0 1 0
vn 0 1 0
vn 0 1 0
vn 0 1 0
vn 0 1 0
vn 0 1 0
vn 0 1 0
vn 0 1 0
vn 0 1 0
vn 0 1 0
vn 0 1 0
vn 0 1 0
vn 0 1 0
vn 0 1 0
vn 0 1 0
vn 0 1 0
vn 0 1 0
vn 0 1 0
vn 0 1 0
vn 0 1 0
vn 0 1 0
vn 0 1 0
vn 0 1 0
vn 0 1 0
vn 0 1 0
vn 0 1 0
vn 0 1 0
vn 0 1 0
vn 0 1 0
vn 0 -1 0
vn 0 -1 0
vn 0 -1 0
vn 0 -1 0
vn 0 -1 0
vn 0 -1 0
vn 0 -1 0
vn 0 -1 0
vn 0 -1 0
vn 0 -1 0
vn 0 -1 0
vn 0 -1 0
vn 0 -1 0
vn 0 -1 0
vn 0 -1 0
vn 0 -1 0
vn 0 -1 0
vn 0 -1 0
vn 0 -1 0
vn 0 -1 0
vn 0 -1 0
vn 0 -1 0
vn 0 -1 0
vn 0 -1 0
vn 0 -1 0
vn 0 -1 0
vn 0 -1 0
vn 0 -1 0
vn 0 -1 0
vn 0 -1 0
vn 0 -1 0
vn 0 -1 0
vn 0 -1 0
vn 0 -1 0
vn 0 -1 0
vn 0 -1 0
vn 0 -1 0
vn 0 -1 0
vn 0 -1 0
vn 0 -1 0
vn 0 -1 0
vn 0 -1 0
vn 0 -1 0
vn 0 -1 0
vn 0 -1 0
vn 0 -1 0
vn 0 -1 0
vn 0 -1 0
vn 0 -1 0
vn 0 -1 0
vn 0 -1 0
vn 0 -1 0
vn 0 -1 0
vn 0 -1 0
vn 0 -1 0
vn 0 -1 0
vn 0 -1 0
vn 0 -1 0
vn 0 -1 0
vn 0 -1 0
vn 0 -1 0
vn 0 -1 0
vn 0 -1 0
vn 0 -1 0
vn 0 -1 0
vn 0 -1 0
vn 0 -1 0
vn 0 -1 0
vn 0 -1 0
vn 0 -1 0
vn 0 -1 0
vn 0 -1 0
vn 0 -1 0
vn 0 -1 0
vn 0 -1 0
vn 0 -1 0
vn 0 -1 0
vn 0 -1 0
vn 0 -1 0
vn 0 -1 0
vn 0 -1 0
vn 0 -1 0
vn 0 -1 0
vn 0 -1 0
vn 0 -1 0
vn 0 -1 0
vn 0 -1 0
vn 0 -1 0
vn 0 -1 0
vn 0 -1 0
vn 0 -1 0
vn 0 -1 0
vn 0 -1 0
vn 0 -1 0
vn 0 -1 0
vn 0 -1 0
vn 0 -1 0
vn 0 -1 0
vn 0 -1 0
vn 0 -1 0
vn 0 -1 0
vn 0 -1 0
vn 0 -1 0
vn 0 -1 0
vn 0 -1 0
vn 0 -1 0
vn 0 -1 0
vn 0 -1 0
vn 0 -1 0
vn 0 -1 0
vn 0 -1 0
vn 0 -1 0
vn 0 -1 0
vn 0 -1 0
vn 0 -1 0
vn 0 -1 0
vn 0 -1 0
vn 0 -1 0
vn 0 -1 0
vn 0 -1 0
vn 0 -1 0
vn 0 -1 0
vn 0 -1 0
vn 0 -1 0
vn 0 -1 0
vn 0 -1 0
vn 0 -1 0
vn 0 -1 0
vn 0 -1 0
vn 0 -1 0
vn 0 -1 0
vn 0 -1 0
vn 0 -1 0
vn 0 -1 0
vn 0 -1 0
vn 0 -1 0
vn 0 -1 0
vn 0 -1 0
vn 0 -1 0
vn 0 -1 0
vn 0 -1 0
vn 0 -1 0
vn 0 -1 0
vn 0 -1 0
vn 0 -1 0
vn 0 -1 0
vn 0 -1 0
vn 0 -1 0
vn 0 -1 0
vn 0 -1 0
vn 0 -1 0
vn 0 -1 0
vn 0 -1 0
vn 0 -1 0
vn 0 -1 0
vn 0 -1 0
vn 0 -1 0
vn 0 -1 0
vn 0 -1 0
vn 0 -1 0
vn 0 -1 0
vn 0 -1 0
vn -1.133108E-15 0 -1
vn -1.133108E-15 0 -1
vn -0.2079117 0 -0.9781476
vn -1.133108E-15 0 -1
vn -0.2079117 0 -0.9781476
vn -0.2079117 0 -0.9781476
vn -0.4067366 0 -0.9135454
vn -0.4067366 0 -0.9135454
vn -0.5877852 0 -0.809017
vn -0.5877852 0 -0.809017
vn -0.7431448 0 -0.6691306
vn -0.7431448 0 -0.6691306
vn -0.8660254 0 -0.5
vn -0.8660254 0 -0.5
vn -0.9510565 0 -0.309017
vn -0.9510565 0 -0.309017
vn -0.9945219 0 -0.1045285
vn -0.9945219 0 -0.1045285
vn -0.9945219 0 0.1045285
vn -0.9945219 0 0.1045285
vn -0.9510565 0 0.309017
vn -0.9510565 0 0.309017
vn -0.8660254 0 0.5
vn -0.8660254 0 0.5
vn -0.7431448 0 0.6691306
vn -0.7431448 0 0.6691306
vn -0.5877852 0 0.809017
vn -0.5877852 0 0.809017
vn -0.4067366 0 0.9135454
vn -0.4067366 0 0.9135454
vn -0.2079117 0 0.9781476
vn -0.2079117 0 0.9781476
vn -3.216245E-16 0 1
vn -3.216245E-16 0 1
vn 9.10616E-17 0 1
vn 9.10616E-17 0 1
vn 9.10616E-17 0 1
vn 9.10616E-17 0 1
vn 1.224647E-16 0 1
vn 1.224647E-16 0 1
vn 0.2079117 0 0.9781476
vn 1.224647E-16 0 1
vn 0.2079117 0 0.9781476
vn 0.2079117 0 0.9781476
vn 0.4067366 0 0.9135454
vn 0.4067366 0 0.9135454
vn 0.5877852 0 0.809017
vn 0.5877852 0 0.809017
vn 0.7431448 0 0.6691306
vn 0.7431448 0 0.6691306
vn 0.8660254 0 0.5
vn 0.8660254 0 0.5
vn 0.9510565 0 0.309017
vn 0.9510565 0 0.309017
vn 0.9945219 0 0.1045285
vn 0.9945219 0 0.1045285
vn 0.9945219 0 -0.1045285
vn 0.9945219 0 -0.1045285
vn 0.9510565 0 -0.309017
vn 0.9510565 0 -0.309017
vn 0.8660254 0 -0.5
vn 0.8660254 0 -0.5
vn 0.7431448 0 -0.6691306
vn 0.7431448 0 -0.6691306
vn 0.5877852 0 -0.809017
vn 0.5877852 0 -0.809017
vn 0.4067366 0 -0.9135454
vn 0.4067366 0 -0.9135454
vn 0.2079117 0 -0.9781476
vn 0.2079117 0 -0.9781476
vn 0 0 -1
vn 0 0 -1
vn -1.517693E-16 0 -1
vn -1.517693E-16 0 -1
vn -1.517693E-16 0 -1
vn -1.517693E-16 0 -1
vn 0 1 0
vn 0 1 0
vn 0 1 0
vn 0 1 0
vn 0 1 0
vn 0 1 0
vn 0 1 0
vn 0 1 0
vn 0 1 0
vn 0 1 0
vn 0 1 0
vn 0 1 0
vn 0 1 0
vn 0 1 0
vn 0 1 0
vn 0 1 0
vn 0 1 0
vn 0 1 0
vn 0 1 0
vn 0 1 0
vn 0 1 0
vn 0 1 0
vn 0 1 0
vn 0 1 0
vn 0 1 0
vn 0 1 0
vn 0 1 0
vn 0 1 0
vn 0 1 0
vn 0 1 0
vn 0 1 0
vn 0 1 0
vn 0 1 0
vn 0 1 0
vn 0 1 0
vn 0 1 0
vn 0 1 0
vn 0 1 0
vn 0 1 0
vn 0 1 0
vn 0 1 0
vn 0 1 0
vn 0 1 0
vn 0 1 0
vn 0 1 0
vn 0 1 0
vn 0 1 0
vn 0 1 0
vn 0 1 0
vn 0 1 0
vn 0 1 0
vn 0 1 0
usemtl color
f 1/1/1 2/2/2 3/3/3
f 4/4/4 5/5/5 6/6/6
f 5/5/5 7/7/7 6/6/6
f 6/6/6 7/7/7 8/8/8
f 7/7/7 9/9/9 8/8/8
f 8/8/8 9/9/9 10/10/10
f 9/9/9 11/11/11 10/10/10
f 10/10/10 11/11/11 12/12/12
f 11/11/11 13/13/13 12/12/12
f 12/12/12 13/13/13 14/14/14
f 13/13/13 15/15/15 14/14/14
f 14/14/14 15/15/15 16/16/16
f 15/15/15 17/17/17 16/16/16
f 16/16/16 17/17/17 18/18/18
f 17/17/17 19/19/19 18/18/18
f 18/18/18 19/19/19 20/20/20
f 19/19/19 21/21/21 20/20/20
f 20/20/20 21/21/21 22/22/22
f 21/21/21 23/23/23 22/22/22
f 22/22/22 23/23/23 24/24/24
f 23/23/23 25/25/25 24/24/24
f 24/24/24 25/25/25 26/26/26
f 25/25/25 27/27/27 26/26/26
f 26/26/26 27/27/27 28/28/28
f 27/27/27 29/29/29 28/28/28
f 28/28/28 29/29/29 30/30/30
f 29/29/29 31/31/31 30/30/30
f 30/30/30 31/31/31 32/32/32
f 31/31/31 33/33/33 32/32/32
f 32/32/32 33/33/33 34/34/34
f 35/35/35 36/36/36 37/37/37
f 36/36/36 38/38/38 37/37/37
f 39/39/39 40/40/40 41/41/41
f 42/42/42 43/43/43 44/44/44
f 43/43/43 45/45/45 44/44/44
f 44/44/44 45/45/45 46/46/46
f 45/45/45 47/47/47 46/46/46
f 46/46/46 47/47/47 48/48/48
f 47/47/47 49/49/49 48/48/48
f 48/48/48 49/49/49 50/50/50
f 49/49/49 51/51/51 50/50/50
f 50/50/50 51/51/51 52/52/52
f 51/51/51 53/53/53 52/52/52
f 52/52/52 53/53/53 54/54/54
f 53/53/53 55/55/55 54/54/54
f 54/54/54 55/55/55 56/56/56
f 55/55/55 57/57/57 56/56/56
f 56/56/56 57/57/57 58/58/58
f 57/57/57 59/59/59 58/58/58
f 58/58/58 59/59/59 60/60/60
f 59/59/59 61/61/61 60/60/60
f 60/60/60 61/61/61 62/62/62
f 61/61/61 63/63/63 62/62/62
f 62/62/62 63/63/63 64/64/64
f 63/63/63 65/65/65 64/64/64
f 64/64/64 65/65/65 66/66/66
f 65/65/65 67/67/67 66/66/66
f 66/66/66 67/67/67 68/68/68
f 67/67/67 69/69/69 68/68/68
f 68/68/68 69/69/69 70/70/70
f 69/69/69 71/71/71 70/70/70
f 70/70/70 71/71/71 72/72/72
f 73/73/73 74/74/74 75/75/75
f 74/74/74 76/76/76 75/75/75
f 77/77/77 78/78/78 79/79/79
f 78/78/78 80/80/80 79/79/79
f 81/81/81 82/82/82 83/83/83
f 82/82/82 84/84/84 83/83/83
f 83/83/83 84/84/84 85/85/85
f 86/86/86 87/87/87 88/88/88
f 87/87/87 89/89/89 88/88/88
f 90/90/90 91/91/91 92/92/92
f 93/93/93 94/94/94 95/95/95
f 94/94/94 96/96/96 95/95/95
f 95/95/95 96/96/96 97/97/97
f 96/96/96 98/98/98 97/97/97
f 99/99/99 100/100/100 101/101/101
f 100/100/100 102/102/102 101/101/101
f 101/101/101 102/102/102 103/103/103
f 104/104/104 105/105/105 106/106/106
f 105/105/105 107/107/107 106/106/106
f 106/106/106 107/107/107 108/108/108
f 109/109/109 110/110/110 111/111/111
f 110/110/110 112/112/112 111/111/111
f 111/111/111 112/112/112 113/113/113
f 114/114/114 115/115/115 116/116/116
f 115/115/115 117/117/117 116/116/116
f 116/116/116 117/117/117 118/118/118
f 119/119/119 120/120/120 121/121/121
f 120/120/120 122/122/122 121/121/121
f 121/121/121 122/122/122 123/123/123
f 124/124/124 125/125/125 126/126/126
f 125/125/125 127/127/127 126/126/126
f 126/126/126 127/127/127 128/128/128
f 129/129/129 130/130/130 131/131/131
f 132/132/132 133/133/133 134/134/134
f 133/133/133 135/135/135 134/134/134
f 134/134/134 135/135/135 136/136/136
f 135/135/135 137/137/137 136/136/136
f 138/138/138 139/139/139 140/140/140
f 139/139/139 141/141/141 140/140/140
f 140/140/140 141/141/141 142/142/142
f 141/141/141 143/143/143 142/142/142
f 142/142/142 143/143/143 144/144/144
f 143/143/143 145/145/145 144/144/144
f 144/144/144 145/145/145 146/146/146
f 145/145/145 147/147/147 146/146/146
f 148/148/148 149/149/149 150/150/150
f 149/149/149 151/151/151 150/150/150
f 150/150/150 151/151/151 152/152/152
f 151/151/151 153/153/153 152/152/152
f 152/152/152 153/153/153 154/154/154
f 153/153/153 155/155/155 154/154/154
f 154/154/154 155/155/155 156/156/156
f 155/155/155 157/157/157 156/156/156
f 156/156/156 157/157/157 158/158/158
f 159/159/159 160/160/160 161/161/161
f 160/160/160 162/162/162 161/161/161
f 161/161/161 162/162/162 163/163/163
f 162/162/162 164/164/164 163/163/163
f 163/163/163 164/164/164 165/165/165
f 166/166/166 167/167/167 168/168/168
f 169/169/169 170/170/170 171/171/171
f 170/170/170 172/172/172 171/171/171
f 171/171/171 172/172/172 173/173/173
f 172/172/172 174/174/174 173/173/173
f 173/173/173 174/174/174 175/175/175
f 174/174/174 176/176/176 175/175/175
f 175/175/175 176/176/176 177/177/177
f 176/176/176 178/178/178 177/177/177
f 177/177/177 178/178/178 179/179/179
f 178/178/178 180/180/180 179/179/179
f 179/179/179 180/180/180 181/181/181
f 182/182/182 183/183/183 184/184/184
f 185/185/185 186/186/186 187/187/187
f 186/186/186 188/188/188 187/187/187
f 187/187/187 188/188/188 189/189/189
f 188/188/188 190/190/190 189/189/189
f 191/191/191 192/192/192 193/193/193
f 192/192/192 194/194/194 193/193/193
f 193/193/193 194/194/194 195/195/195
f 196/196/196 197/197/197 198/198/198
f 197/197/197 199/199/199 198/198/198
f 198/198/198 199/199/199 200/200/200
f 201/201/201 202/202/202 203/203/203
f 202/202/202 204/204/204 203/203/203
f 203/203/203 204/204/204 205/205/205
f 206/206/206 207/207/207 208/208/208
f 207/207/207 209/209/209 208/208/208
f 208/208/208 209/209/209 210/210/210
f 211/211/211 212/212/212 213/213/213
f 214/214/214 215/215/215 216/216/216
f 215/215/215 217/217/217 216/216/216
f 218/218/218 219/219/219 220/220/220
f 219/219/219 221/221/221 220/220/220
f 220/220/220 221/221/221 222/222/222
f 221/221/221 223/223/223 222/222/222
f 222/222/222 223/223/223 224/224/224
f 223/223/223 225/225/225 224/224/224
f 224/224/224 225/225/225 226/226/226
f 227/227/227 228/228/228 229/229/229
f 228/228/228 230/230/230 229/229/229
f 229/229/229 230/230/230 231/231/231
f 230/230/230 232/232/232 231/231/231
f 231/231/231 232/232/232 233/233/233
f 232/232/232 234/234/234 233/233/233
f 233/233/233 234/234/234 235/235/235
f 234/234/234 236/236/236 235/235/235
f 235/235/235 236/236/236 237/237/237
f 236/236/236 238/238/238 237/237/237
f 237/237/237 238/238/238 239/239/239
f 240/240/240 241/241/241 242/242/242
f 243/243/243 244/244/244 245/245/245
f 244/244/244 246/246/246 245/245/245
f 245/245/245 246/246/246 247/247/247
f 248/248/248 249/249/249 250/250/250
f 249/249/249 251/251/251 250/250/250
f 250/250/250 251/251/251 252/252/252
f 253/253/253 254/254/254 255/255/255
f 254/254/254 256/256/256 255/255/255
f 255/255/255 256/256/256 257/257/257
f 258/258/258 259/259/259 260/260/260
f 259/259/259 261/261/261 260/260/260
f 260/260/260 261/261/261 262/262/262
f 263/263/263 264/264/264 265/265/265
f 264/264/264 266/266/266 265/265/265
f 265/265/265 266/266/266 267/267/267
f 266/266/266 268/268/268 267/267/267
f 267/267/267 268/268/268 269/269/269
f 270/270/270 271/271/271 272/272/272
f 271/271/271 273/273/273 272/272/272
f 272/272/272 273/273/273 274/274/274
f 273/273/273 275/275/275 274/274/274
f 274/274/274 275/275/275 276/276/276
f 275/275/275 277/277/277 276/276/276
f 276/276/276 277/277/277 278/278/278
f 279/279/279 280/280/280 281/281/281
f 280/280/280 282/282/282 281/281/281
f 281/281/281 282/282/282 283/283/283
f 282/282/282 284/284/284 283/283/283
f 283/283/283 284/284/284 285/285/285
f 284/284/284 286/286/286 285/285/285
f 285/285/285 286/286/286 287/287/287
f 286/286/286 288/288/288 287/287/287
f 287/287/287 288/288/288 289/289/289
f 288/288/288 290/290/290 289/289/289
f 291/291/291 292/292/292 293/293/293
f 294/294/294 295/295/295 296/296/296
f 295/295/295 297/297/297 296/296/296
f 296/296/296 297/297/297 298/298/298
f 297/297/297 299/299/299 298/298/298
f 298/298/298 299/299/299 300/300/300
f 299/299/299 301/301/301 300/300/300
f 300/300/300 301/301/301 302/302/302
f 301/301/301 303/303/303 302/302/302
f 302/302/302 303/303/303 304/304/304
f 303/303/303 305/305/305 304/304/304
f 304/304/304 305/305/305 306/306/306
f 305/305/305 307/307/307 306/306/306
f 306/306/306 307/307/307 308/308/308
f 307/307/307 309/309/309 308/308/308
f 308/308/308 309/309/309 310/310/310
f 309/309/309 311/311/311 310/310/310
f 310/310/310 311/311/311 312/312/312
f 311/311/311 313/313/313 312/312/312
f 312/312/312 313/313/313 314/314/314
f 313/313/313 315/315/315 314/314/314
f 314/314/314 315/315/315 316/316/316
f 315/315/315 317/317/317 316/316/316
f 316/316/316 317/317/317 318/318/318
f 317/317/317 319/319/319 318/318/318
f 318/318/318 319/319/319 320/320/320
f 319/319/319 321/321/321 320/320/320
f 320/320/320 321/321/321 322/322/322
f 321/321/321 323/323/323 322/322/322
f 322/322/322 323/323/323 324/324/324
f 325/325/325 326/326/326 327/327/327
f 326/326/326 328/328/328 327/327/327
f 329/329/329 330/330/330 331/331/331
f 332/332/332 333/333/333 334/334/334
f 333/333/333 335/335/335 334/334/334
f 334/334/334 335/335/335 336/336/336
f 335/335/335 337/337/337 336/336/336
f 336/336/336 337/337/337 338/338/338
f 337/337/337 339/339/339 338/338/338
f 338/338/338 339/339/339 340/340/340
f 339/339/339 341/341/341 340/340/340
f 340/340/340 341/341/341 342/342/342
f 341/341/341 343/343/343 342/342/342
f 342/342/342 343/343/343 344/344/344
f 343/343/343 345/345/345 344/344/344
f 344/344/344 345/345/345 346/346/346
f 345/345/345 347/347/347 346/346/346
f 346/346/346 347/347/347 348/348/348
f 347/347/347 349/349/349 348/348/348
f 348/348/348 349/349/349 350/350/350
f 349/349/349 351/351/351 350/350/350
f 350/350/350 351/351/351 352/352/352
f 351/351/351 353/353/353 352/352/352
f 352/352/352 353/353/353 354/354/354
f 353/353/353 355/355/355 354/354/354
f 354/354/354 355/355/355 356/356/356
f 355/355/355 357/357/357 356/356/356
f 356/356/356 357/357/357 358/358/358
f 357/357/357 359/359/359 358/358/358
f 358/358/358 359/359/359 360/360/360
f 359/359/359 361/361/361 360/360/360
f 360/360/360 361/361/361 362/362/362
f 363/363/363 364/364/364 365/365/365
f 364/364/364 366/366/366 365/365/365
f 367/367/367 368/368/368 369/369/369
f 368/368/368 370/370/370 369/369/369
f 371/371/371 372/372/372 373/373/373
f 374/374/374 375/375/375 376/376/376
f 375/375/375 377/377/377 376/376/376
f 376/376/376 377/377/377 378/378/378
f 379/379/379 380/380/380 381/381/381
f 382/382/382 383/383/383 384/384/384
f 383/383/383 385/385/385 384/384/384
f 384/384/384 385/385/385 386/386/386
f 387/387/387 388/388/388 389/389/389
f 388/388/388 390/390/390 389/389/389
f 389/389/389 390/390/390 391/391/391
f 392/392/392 393/393/393 394/394/394
f 393/393/393 395/395/395 394/394/394
f 394/394/394 395/395/395 396/396/396
f 397/397/397 398/398/398 399/399/399
f 398/398/398 400/400/400 399/399/399
f 399/399/399 400/400/400 401/401/401
f 400/400/400 402/402/402 401/401/401
f 403/403/403 404/404/404 405/405/405
f 404/404/404 406/406/406 405/405/405
f 405/405/405 406/406/406 407/407/407
f 408/408/408 409/409/409 410/410/410
f 409/409/409 411/411/411 410/410/410
f 410/410/410 411/411/411 412/412/412
f 413/413/413 414/414/414 415/415/415
f 414/414/414 416/416/416 415/415/415
f 415/415/415 416/416/416 417/417/417
f 416/416/416 418/418/418 417/417/417
##########################


##########################
g Root|Path_(Predeterminado)|Predeterminado|Saliente-Extruir4|Saliente-Extruir4_-_Part_2
##########################
v 0.9144 0.3668605 0.01657723
v 0.9186905 0.01686051 0.01601238
v 0.9186905 0.3668605 0.01601238
v 0.9226886 0.01686051 0.01435631
v 0.9226886 0.3668605 0.01435631
v 0.9261219 0.01686051 0.01172187
v 0.9261219 0.3668605 0.01172187
v 0.9287563 0.01686051 0.008288617
v 0.9287563 0.3668605 0.008288617
v 0.9304124 0.01686051 0.004290504
v 0.9304124 0.3668605 0.004290504
v 0.9309772 0.01686051 4.695948E-18
v 0.9309772 0.3668605 4.695948E-18
v 0.9304124 0.01686051 -0.004290504
v 0.9304124 0.3668605 -0.004290504
v 0.9287563 0.01686051 -0.008288617
v 0.9287563 0.3668605 -0.008288617
v 0.9261219 0.01686051 -0.01172187
v 0.9261219 0.3668605 -0.01172187
v 0.9226886 0.01686051 -0.01435631
v 0.9226886 0.3668605 -0.01435631
v 0.9186905 0.01686051 -0.01601238
v 0.9186905 0.3668605 -0.01601238
v 0.9144 0.01686051 -0.01657723
v 0.9144 0.3668605 -0.01657723
v 0.9101095 0.01686051 -0.01601238
v 0.9101095 0.3668605 -0.01601238
v 0.9061114 0.01686051 -0.01435631
v 0.9061114 0.3668605 -0.01435631
v 0.9026781 0.01686051 -0.01172187
v 0.9026781 0.3668605 -0.01172187
v 0.9000437 0.01686051 -0.008288617
v 0.9000437 0.3668605 -0.008288617
v 0.8983876 0.01686051 -0.004290504
v 0.8983876 0.3668605 -0.004290504
v 0.8978227 0.01686051 -1.776873E-17
v 0.8978227 0.3668605 -1.776873E-17
v 0.8983876 0.01686051 0.004290504
v 0.8983876 0.3668605 0.004290504
v 0.9000437 0.01686051 0.008288617
v 0.9000437 0.3668605 0.008288617
v 0.9026781 0.01686051 0.01172187
v 0.9026781 0.3668605 0.01172187
v 0.9061114 0.01686051 0.01435631
v 0.9061114 0.3668605 0.01435631
v 0.9101095 0.01686051 0.01601238
v 0.9101095 0.3668605 0.01601238
v 0.9144 0.01686051 0.01657723
v 0.9144 0.3668605 0.01657723
v 0.9186905 0.01686051 0.01601238
v 0.9061114 0.01686051 -0.01435631
v 0.9101095 0.01686051 -0.01601238
v 0.9144 0.01686051 0
v 0.9144 0.01686051 -0.01657723
v 0.9186905 0.01686051 -0.01601238
v 0.8983876 0.01686051 -0.004290504
v 0.9000437 0.01686051 -0.008288617
v 0.9144 0.01686051 0
v 0.9026781 0.01686051 -0.01172187
v 0.9061114 0.01686051 -0.01435631
v 0.9000437 0.01686051 0.008288617
v 0.8983876 0.01686051 0.004290504
v 0.9144 0.01686051 0
v 0.8978227 0.01686051 -1.776873E-17
v 0.8983876 0.01686051 -0.004290504
v 0.9101095 0.01686051 0.01601238
v 0.9061114 0.01686051 0.01435631
v 0.9144 0.01686051 0
v 0.9026781 0.01686051 0.01172187
v 0.9000437 0.01686051 0.008288617
v 0.9226886 0.01686051 0.01435631
v 0.9186905 0.01686051 0.01601238
v 0.9144 0.01686051 0
v 0.9144 0.01686051 0.01657723
v 0.9101095 0.01686051 0.01601238
v 0.9304124 0.01686051 0.004290504
v 0.9287563 0.01686051 0.008288617
v 0.9144 0.01686051 0
v 0.9261219 0.01686051 0.01172187
v 0.9226886 0.01686051 0.01435631
v 0.9287563 0.01686051 -0.008288617
v 0.9304124 0.01686051 -0.004290504
v 0.9144 0.01686051 0
v 0.9309772 0.01686051 4.695948E-18
v 0.9304124 0.01686051 0.004290504
v 0.9186905 0.01686051 -0.01601238
v 0.9226886 0.01686051 -0.01435631
v 0.9144 0.01686051 0
v 0.9261219 0.01686051 -0.01172187
v 0.9287563 0.01686051 -0.008288617
v 0 0.3568605 0.01657723
v 0.004290504 0.01686051 0.01601238
v 0.004290504 0.3568605 0.01601238
v 0.008288617 0.01686051 0.01435631
v 0.008288617 0.3568605 0.01435631
v 0.01172187 0.01686051 0.01172187
v 0.01172187 0.3568605 0.01172187
v 0.01435631 0.01686051 0.008288617
v 0.01435631 0.3568605 0.008288617
v 0.01601238 0.01686051 0.004290504
v 0.01601238 0.3568605 0.004290504
v 0.01657723 0.01686051 4.695948E-18
v 0.01657723 0.3568605 4.695948E-18
v 0.01601238 0.01686051 -0.004290504
v 0.01601238 0.3568605 -0.004290504
v 0.01435631 0.01686051 -0.008288617
v 0.01435631 0.3568605 -0.008288617
v 0.01172187 0.01686051 -0.01172187
v 0.01172187 0.3568605 -0.01172187
v 0.008288617 0.01686051 -0.01435631
v 0.008288617 0.3568605 -0.01435631
v 0.004290504 0.01686051 -0.01601238
v 0.004290504 0.3568605 -0.01601238
v 9.391896E-18 0.01686051 -0.01657723
v 9.391896E-18 0.3568605 -0.01657723
v -0.004290504 0.01686051 -0.01601238
v -0.004290504 0.3568605 -0.01601238
v -0.008288617 0.01686051 -0.01435631
v -0.008288617 0.3568605 -0.01435631
v -0.01172187 0.01686051 -0.01172187
v -0.01172187 0.3568605 -0.01172187
v -0.01435631 0.01686051 -0.008288617
v -0.01435631 0.3568605 -0.008288617
v -0.01601238 0.01686051 -0.004290504
v -0.01601238 0.3568605 -0.004290504
v -0.01657723 0.01686051 -1.776873E-17
v -0.01657723 0.3568605 -1.776873E-17
v -0.01601238 0.01686051 0.004290504
v -0.01601238 0.3568605 0.004290504
v -0.01435631 0.01686051 0.008288617
v -0.01435631 0.3568605 0.008288617
v -0.01172187 0.01686051 0.01172187
v -0.01172187 0.3568605 0.01172187
v -0.008288617 0.01686051 0.01435631
v -0.008288617 0.3568605 0.01435631
v -0.004290504 0.01686051 0.01601238
v -0.004290504 0.3568605 0.01601238
v 0 0.01686051 0.01657723
v 0 0.3568605 0.01657723
v 0.004290504 0.01686051 0.01601238
v -0.008288617 0.01686051 -0.01435631
v -0.004290504 0.01686051 -0.01601238
v 0 0.01686051 0
v 0 0.01686051 -0.01657723
v 0.004290504 0.01686051 -0.01601238
v -0.01601238 0.01686051 -0.004290504
v -0.01435631 0.01686051 -0.008288617
v 0 0.01686051 0
v -0.01172187 0.01686051 -0.01172187
v -0.008288617 0.01686051 -0.01435631
v -0.01435631 0.01686051 0.008288617
v -0.01601238 0.01686051 0.004290504
v 0 0.01686051 0
v -0.01657723 0.01686051 -1.776873E-17
v -0.01601238 0.01686051 -0.004290504
v -0.004290504 0.01686051 0.01601238
v -0.008288617 0.01686051 0.01435631
v 0 0.01686051 0
v -0.01172187 0.01686051 0.01172187
v -0.01435631 0.01686051 0.008288617
v 0.008288617 0.01686051 0.01435631
v 0.004290504 0.01686051 0.01601238
v 0 0.01686051 0
v 0 0.01686051 0.01657723
v -0.004290504 0.01686051 0.01601238
v 0.01601238 0.01686051 0.004290504
v 0.01435631 0.01686051 0.008288617
v 0 0.01686051 0
v 0.01172187 0.01686051 0.01172187
v 0.008288617 0.01686051 0.01435631
v 0.01435631 0.01686051 -0.008288617
v 0.01601238 0.01686051 -0.004290504
v 0 0.01686051 0
v 0.01657723 0.01686051 4.695948E-18
v 0.01601238 0.01686051 0.004290504
v 0.004290504 0.01686051 -0.01601238
v 0.008288617 0.01686051 -0.01435631
v 0 0.01686051 0
v 0.01172187 0.01686051 -0.01172187
v 0.01435631 0.01686051 -0.008288617
vt 0.9825052 0.6846859
vt 0.9870332 0.3153141
vt 0.9870332 0.6846859
vt 0.9912525 0.3153141
vt 0.9912525 0.6846859
vt 0.9948759 0.3153141
vt 0.9948759 0.6846859
vt 0.4912526 0.3153141
vt 0.4912526 0.6846859
vt 0.495472 0.3153141
vt 0.495472 0.6846859
vt 0.5 0.3153141
vt 0.5 0.6846859
vt 0.504528 0.3153141
vt 0.504528 0.6846859
vt 0.5087474 0.3153141
vt 0.5087474 0.6846859
vt 0.005124062 0.3153141
vt 0.005124062 0.6846859
vt 0.008747429 0.3153141
vt 0.008747429 0.6846859
vt 0.01296678 0.3153141
vt 0.01296678 0.6846859
vt 0.01749477 0.3153141
vt 0.01749477 0.6846859
vt 0.02202269 0.3153141
vt 0.02202269 0.6846859
vt 0.02624217 0.3153141
vt 0.02624217 0.6846859
vt 0.02986541 0.3153141
vt 0.02986541 0.6846859
vt 0.4912526 0.3153141
vt 0.4912526 0.6846859
vt 0.495472 0.3153141
vt 0.495472 0.6846859
vt 0.5 0.3153141
vt 0.5 0.6846859
vt 0.504528 0.3153141
vt 0.504528 0.6846859
vt 0.5087474 0.3153141
vt 0.5087474 0.6846859
vt 0.9701346 0.3153141
vt 0.9701346 0.6846859
vt 0.9737579 0.3153141
vt 0.9737579 0.6846859
vt 0.9779773 0.3153141
vt 0.9779773 0.6846859
vt 0.9825052 0.3153141
vt 0.9825052 0.6846859
vt 0.9870332 0.3153141
vt 0.02624217 0.5151509
vt 0.02202269 0.5168986
vt 0.01749477 0.5
vt 0.01749477 0.5174948
vt 0.01296678 0.5168986
vt 0.0343934 0.504528
vt 0.03264567 0.5087473
vt 0.01749477 0.5
vt 0.02986541 0.5123706
vt 0.02624217 0.5151509
vt 0.03264567 0.4912526
vt 0.0343934 0.495472
vt 0.01749477 0.5
vt 0.03498957 0.5
vt 0.0343934 0.504528
vt 0.02202269 0.4831014
vt 0.02624217 0.4848491
vt 0.01749477 0.5
vt 0.02986541 0.4876294
vt 0.03264567 0.4912526
vt 0.008747429 0.4848491
vt 0.01296678 0.4831014
vt 0.01749477 0.5
vt 0.01749477 0.4825053
vt 0.02202269 0.4831014
vt 0.0005961359 0.495472
vt 0.002343863 0.4912526
vt 0.01749477 0.5
vt 0.005124062 0.4876294
vt 0.008747429 0.4848491
vt 0.002343863 0.5087473
vt 0.0005961359 0.504528
vt 0.01749477 0.5
vt 2.980232E-08 0.5
vt 0.0005961359 0.495472
vt 0.01296678 0.5168986
vt 0.008747429 0.5151509
vt 0.01749477 0.5
vt 0.005124062 0.5123706
vt 0.002343863 0.5087473
vt 0.01749477 0.6741325
vt 0.02202275 0.3153141
vt 0.02202275 0.6741325
vt 0.02624214 0.3153141
vt 0.02624214 0.6741325
vt 0.02986541 0.3153141
vt 0.02986541 0.6741325
vt 0.4912526 0.3153141
vt 0.4912526 0.6741325
vt 0.495472 0.3153141
vt 0.495472 0.6741325
vt 0.5 0.3153141
vt 0.5 0.6741325
vt 0.504528 0.3153141
vt 0.504528 0.6741325
vt 0.5087474 0.3153141
vt 0.5087474 0.6741325
vt 0.9701346 0.3153141
vt 0.9701346 0.6741325
vt 0.9737579 0.3153141
vt 0.9737579 0.6741325
vt 0.9779773 0.3153141
vt 0.9779773 0.6741325
vt 0.9825052 0.3153141
vt 0.9825052 0.6741325
vt 0.9870332 0.3153141
vt 0.9870332 0.6741325
vt 0.9912526 0.3153141
vt 0.9912526 0.6741325
vt 0.9948759 0.3153141
vt 0.9948759 0.6741325
vt 0.4912526 0.3153141
vt 0.4912526 0.6741325
vt 0.495472 0.3153141
vt 0.495472 0.6741325
vt 0.5 0.3153141
vt 0.5 0.6741325
vt 0.504528 0.3153141
vt 0.504528 0.6741325
vt 0.5087474 0.3153141
vt 0.5087474 0.6741325
vt 0.005124122 0.3153141
vt 0.005124122 0.6741325
vt 0.008747399 0.3153141
vt 0.008747399 0.6741325
vt 0.01296678 0.3153141
vt 0.01296678 0.6741325
vt 0.01749477 0.3153141
vt 0.01749477 0.6741325
vt 0.02202275 0.3153141
vt 0.9912526 0.5151509
vt 0.9870332 0.5168986
vt 0.9825052 0.5
vt 0.9825052 0.5174948
vt 0.9779773 0.5168986
vt 0.9994038 0.504528
vt 0.9976561 0.5087473
vt 0.9825052 0.5
vt 0.9948759 0.5123706
vt 0.9912526 0.5151509
vt 0.9976561 0.4912526
vt 0.9994038 0.495472
vt 0.9825052 0.5
vt 1 0.5
vt 0.9994038 0.504528
vt 0.9870332 0.4831014
vt 0.9912526 0.4848491
vt 0.9825052 0.5
vt 0.9948759 0.4876294
vt 0.9976561 0.4912526
vt 0.9737579 0.4848491
vt 0.9779773 0.4831014
vt 0.9825052 0.5
vt 0.9825052 0.4825053
vt 0.9870332 0.4831014
vt 0.9656066 0.495472
vt 0.9673543 0.4912526
vt 0.9825052 0.5
vt 0.9701346 0.4876294
vt 0.9737579 0.4848491
vt 0.9673543 0.5087473
vt 0.9656066 0.504528
vt 0.9825052 0.5
vt 0.9650105 0.5
vt 0.9656066 0.495472
vt 0.9779773 0.5168986
vt 0.9737579 0.5151509
vt 0.9825052 0.5
vt 0.9701346 0.5123706
vt 0.9673543 0.5087473
vn 0 0 1
vn 0.2588191 0 0.9659259
vn 0.2588191 0 0.9659259
vn 0.5 0 0.8660254
vn 0.5 0 0.8660254
vn 0.7071068 0 0.7071068
vn 0.7071068 0 0.7071068
vn 0.8660254 0 0.5
vn 0.8660254 0 0.5
vn 0.9659259 0 0.2588191
vn 0.9659259 0 0.2588191
vn 1 0 2.832769E-16
vn 1 0 2.832769E-16
vn 0.9659259 0 -0.2588191
vn 0.9659259 0 -0.2588191
vn 0.8660254 0 -0.5
vn 0.8660254 0 -0.5
vn 0.7071068 0 -0.7071068
vn 0.7071068 0 -0.7071068
vn 0.5 0 -0.8660254
vn 0.5 0 -0.8660254
vn 0.2588191 0 -0.9659259
vn 0.2588191 0 -0.9659259
vn 1.224647E-16 0 -1
vn 1.224647E-16 0 -1
vn -0.2588191 0 -0.9659259
vn -0.2588191 0 -0.9659259
vn -0.5 0 -0.8660254
vn -0.5 0 -0.8660254
vn -0.7071068 0 -0.7071068
vn -0.7071068 0 -0.7071068
vn -0.8660254 0 -0.5
vn -0.8660254 0 -0.5
vn -0.9659259 0 -0.2588191
vn -0.9659259 0 -0.2588191
vn -1 0 -1.071875E-15
vn -1 0 -1.071875E-15
vn -0.9659259 0 0.2588191
vn -0.9659259 0 0.2588191
vn -0.8660254 0 0.5
vn -0.8660254 0 0.5
vn -0.7071068 0 0.7071068
vn -0.7071068 0 0.7071068
vn -0.5 0 0.8660254
vn -0.5 0 0.8660254
vn -0.2588191 0 0.9659259
vn -0.2588191 0 0.9659259
vn 0 0 1
vn 0 0 1
vn 0.2588191 0 0.9659259
vn 0 -1 0
vn 0 -1 0
vn 0 -1 0
vn 0 -1 0
vn 0 -1 0
vn 0 -1 0
vn 0 -1 0
vn 0 -1 0
vn 0 -1 0
vn 0 -1 0
vn 0 -1 0
vn 0 -1 0
vn 0 -1 0
vn 0 -1 0
vn 0 -1 0
vn 0 -1 0
vn 0 -1 0
vn 0 -1 0
vn 0 -1 0
vn 0 -1 0
vn 0 -1 0
vn 0 -1 0
vn 0 -1 0
vn 0 -1 0
vn 0 -1 0
vn 0 -1 0
vn 0 -1 0
vn 0 -1 0
vn 0 -1 0
vn 0 -1 0
vn 0 -1 0
vn 0 -1 0
vn 0 -1 0
vn 0 -1 0
vn 0 -1 0
vn 0 -1 0
vn 0 -1 0
vn 0 -1 0
vn 0 -1 0
vn 0 -1 0
vn 0 0 1
vn 0.2588191 0 0.9659259
vn 0.2588191 0 0.9659259
vn 0.5 0 0.8660254
vn 0.5 0 0.8660254
vn 0.7071068 0 0.7071068
vn 0.7071068 0 0.7071068
vn 0.8660254 0 0.5
vn 0.8660254 0 0.5
vn 0.9659259 0 0.2588191
vn 0.9659259 0 0.2588191
vn 1 0 2.832769E-16
vn 1 0 2.832769E-16
vn 0.9659259 0 -0.2588191
vn 0.9659259 0 -0.2588191
vn 0.8660254 0 -0.5
vn 0.8660254 0 -0.5
vn 0.7071068 0 -0.7071068
vn 0.7071068 0 -0.7071068
vn 0.5 0 -0.8660254
vn 0.5 0 -0.8660254
vn 0.2588191 0 -0.9659259
vn 0.2588191 0 -0.9659259
vn 5.665539E-16 0 -1
vn 5.665539E-16 0 -1
vn -0.2588191 0 -0.9659259
vn -0.2588191 0 -0.9659259
vn -0.5 0 -0.8660254
vn -0.5 0 -0.8660254
vn -0.7071068 0 -0.7071068
vn -0.7071068 0 -0.7071068
vn -0.8660254 0 -0.5
vn -0.8660254 0 -0.5
vn -0.9659259 0 -0.2588191
vn -0.9659259 0 -0.2588191
vn -1 0 -1.071875E-15
vn -1 0 -1.071875E-15
vn -0.9659259 0 0.2588191
vn -0.9659259 0 0.2588191
vn -0.8660254 0 0.5
vn -0.8660254 0 0.5
vn -0.7071068 0 0.7071068
vn -0.7071068 0 0.7071068
vn -0.5 0 0.8660254
vn -0.5 0 0.8660254
vn -0.2588191 0 0.9659259
vn -0.2588191 0 0.9659259
vn 0 0 1
vn 0 0 1
vn 0.2588191 0 0.9659259
vn 0 -1 0
vn 0 -1 0
vn 0 -1 0
vn 0 -1 0
vn 0 -1 0
vn 0 -1 0
vn 0 -1 0
vn 0 -1 0
vn 0 -1 0
vn 0 -1 0
vn 0 -1 0
vn 0 -1 0
vn 0 -1 0
vn 0 -1 0
vn 0 -1 0
vn 0 -1 0
vn 0 -1 0
vn 0 -1 0
vn 0 -1 0
vn 0 -1 0
vn 0 -1 0
vn 0 -1 0
vn 0 -1 0
vn 0 -1 0
vn 0 -1 0
vn 0 -1 0
vn 0 -1 0
vn 0 -1 0
vn 0 -1 0
vn 0 -1 0
vn 0 -1 0
vn 0 -1 0
vn 0 -1 0
vn 0 -1 0
vn 0 -1 0
vn 0 -1 0
vn 0 -1 0
vn 0 -1 0
vn 0 -1 0
vn 0 -1 0
usemtl white_low_gloss_plastic
f 419/419/419 420/420/420 421/421/421
f 420/420/420 422/422/422 421/421/421
f 421/421/421 422/422/422 423/423/423
f 422/422/422 424/424/424 423/423/423
f 423/423/423 424/424/424 425/425/425
f 424/424/424 426/426/426 425/425/425
f 425/425/425 426/426/426 427/427/427
f 426/426/426 428/428/428 427/427/427
f 427/427/427 428/428/428 429/429/429
f 428/428/428 430/430/430 429/429/429
f 429/429/429 430/430/430 431/431/431
f 430/430/430 432/432/432 431/431/431
f 431/431/431 432/432/432 433/433/433
f 432/432/432 434/434/434 433/433/433
f 433/433/433 434/434/434 435/435/435
f 434/434/434 436/436/436 435/435/435
f 435/435/435 436/436/436 437/437/437
f 436/436/436 438/438/438 437/437/437
f 437/437/437 438/438/438 439/439/439
f 438/438/438 440/440/440 439/439/439
f 439/439/439 440/440/440 441/441/441
f 440/440/440 442/442/442 441/441/441
f 441/441/441 442/442/442 443/443/443
f 442/442/442 444/444/444 443/443/443
f 443/443/443 444/444/444 445/445/445
f 444/444/444 446/446/446 445/445/445
f 445/445/445 446/446/446 447/447/447
f 446/446/446 448/448/448 447/447/447
f 447/447/447 448/448/448 449/449/449
f 448/448/448 450/450/450 449/449/449
f 449/449/449 450/450/450 451/451/451
f 450/450/450 452/452/452 451/451/451
f 451/451/451 452/452/452 453/453/453
f 452/452/452 454/454/454 453/453/453
f 453/453/453 454/454/454 455/455/455
f 454/454/454 456/456/456 455/455/455
f 455/455/455 456/456/456 457/457/457
f 456/456/456 458/458/458 457/457/457
f 457/457/457 458/458/458 459/459/459
f 458/458/458 460/460/460 459/459/459
f 459/459/459 460/460/460 461/461/461
f 460/460/460 462/462/462 461/461/461
f 461/461/461 462/462/462 463/463/463
f 462/462/462 464/464/464 463/463/463
f 463/463/463 464/464/464 465/465/465
f 464/464/464 466/466/466 465/465/465
f 465/465/465 466/466/466 467/467/467
f 466/466/466 468/468/468 467/467/467
f 469/469/469 470/470/470 471/471/471
f 470/470/470 472/472/472 471/471/471
f 471/471/471 472/472/472 473/473/473
f 474/474/474 475/475/475 476/476/476
f 475/475/475 477/477/477 476/476/476
f 476/476/476 477/477/477 478/478/478
f 479/479/479 480/480/480 481/481/481
f 480/480/480 482/482/482 481/481/481
f 481/481/481 482/482/482 483/483/483
f 484/484/484 485/485/485 486/486/486
f 485/485/485 487/487/487 486/486/486
f 486/486/486 487/487/487 488/488/488
f 489/489/489 490/490/490 491/491/491
f 490/490/490 492/492/492 491/491/491
f 491/491/491 492/492/492 493/493/493
f 494/494/494 495/495/495 496/496/496
f 495/495/495 497/497/497 496/496/496
f 496/496/496 497/497/497 498/498/498
f 499/499/499 500/500/500 501/501/501
f 500/500/500 502/502/502 501/501/501
f 501/501/501 502/502/502 503/503/503
f 504/504/504 505/505/505 506/506/506
f 505/505/505 507/507/507 506/506/506
f 506/506/506 507/507/507 508/508/508
f 509/509/509 510/510/510 511/511/511
f 510/510/510 512/512/512 511/511/511
f 511/511/511 512/512/512 513/513/513
f 512/512/512 514/514/514 513/513/513
f 513/513/513 514/514/514 515/515/515
f 514/514/514 516/516/516 515/515/515
f 515/515/515 516/516/516 517/517/517
f 516/516/516 518/518/518 517/517/517
f 517/517/517 518/518/518 519/519/519
f 518/518/518 520/520/520 519/519/519
f 519/519/519 520/520/520 521/521/521
f 520/520/520 522/522/522 521/521/521
f 521/521/521 522/522/522 523/523/523
f 522/522/522 524/524/524 523/523/523
f 523/523/523 524/524/524 525/525/525
f 524/524/524 526/526/526 525/525/525
f 525/525/525 526/526/526 527/527/527
f 526/526/526 528/528/528 527/527/527
f 527/527/527 528/528/528 529/529/529
f 528/528/528 530/530/530 529/529/529
f 529/529/529 530/530/530 531/531/531
f 530/530/530 532/532/532 531/531/531
f 531/531/531 532/532/532 533/533/533
f 532/532/532 534/534/534 533/533/533
f 533/533/533 534/534/534 535/535/535
f 534/534/534 536/536/536 535/535/535
f 535/535/535 536/536/536 537/537/537
f 536/536/536 538/538/538 537/537/537
f 537/537/537 538/538/538 539/539/539
f 538/538/538 540/540/540 539/539/539
f 539/539/539 540/540/540 541/541/541
f 540/540/540 542/542/542 541/541/541
f 541/541/541 542/542/542 543/543/543
f 542/542/542 544/544/544 543/543/543
f 543/543/543 544/544/544 545/545/545
f 544/544/544 546/546/546 545/545/545
f 545/545/545 546/546/546 547/547/547
f 546/546/546 548/548/548 547/547/547
f 547/547/547 548/548/548 549/549/549
f 548/548/548 550/550/550 549/549/549
f 549/549/549 550/550/550 551/551/551
f 550/550/550 552/552/552 551/551/551
f 551/551/551 552/552/552 553/553/553
f 552/552/552 554/554/554 553/553/553
f 553/553/553 554/554/554 555/555/555
f 554/554/554 556/556/556 555/555/555
f 555/555/555 556/556/556 557/557/557
f 556/556/556 558/558/558 557/557/557
f 559/559/559 560/560/560 561/561/561
f 560/560/560 562/562/562 561/561/561
f 561/561/561 562/562/562 563/563/563
f 564/564/564 565/565/565 566/566/566
f 565/565/565 567/567/567 566/566/566
f 566/566/566 567/567/567 568/568/568
f 569/569/569 570/570/570 571/571/571
f 570/570/570 572/572/572 571/571/571
f 571/571/571 572/572/572 573/573/573
f 574/574/574 575/575/575 576/576/576
f 575/575/575 577/577/577 576/576/576
f 576/576/576 577/577/577 578/578/578
f 579/579/579 580/580/580 581/581/581
f 580/580/580 582/582/582 581/581/581
f 581/581/581 582/582/582 583/583/583
f 584/584/584 585/585/585 586/586/586
f 585/585/585 587/587/587 586/586/586
f 586/586/586 587/587/587 588/588/588
f 589/589/589 590/590/590 591/591/591
f 590/590/590 592/592/592 591/591/591
f 591/591/591 592/592/592 593/593/593
f 594/594/594 595/595/595 596/596/596
f 595/595/595 597/597/597 596/596/596
f 596/596/596 597/597/597 598/598/598
##########################


##########################
g Root|Path_(Predeterminado)|Predeterminado|Saliente-Extruir5[1]|Saliente-Extruir5[1]_-_Part
##########################
v 0.0165105 0.01834649 0.15
v 0.01657723 0.01686051 0.15
v 0.01657723 0.01686051 -0.15
v 0.01657723 0.01686051 -0.15
v 0.01657723 0.01686051 0.15
v 0.0165105 0.01537454 -0.15
v 0.01657723 0.01686051 0.15
v 0.0165105 0.01537454 0.15
v 0.0165105 0.01537454 -0.15
v 0.01597984 0.01245037 0.15
v 0.01597984 0.01245037 -0.15
v 0.01493557 0.009667933 0.15
v 0.01493557 0.009667933 -0.15
v 0.01341126 0.007116675 0.15
v 0.01341126 0.007116675 -0.15
v 0.01145591 0.004878581 0.15
v 0.01145591 0.004878581 -0.15
v 0.009132348 0.003025591 0.15
v 0.009132348 0.003025591 -0.15
v 0.006515268 0.001617283 0.15
v 0.006515268 0.001617283 -0.15
v 0.003688782 0.0006989241 0.15
v 0.003688782 0.0006989241 -0.15
v 0.0007437348 0.0002999902 0.15
v 0.0007437348 0.0002999902 -0.15
v -0.002225216 0.0004333258 0.15
v -0.002225216 0.0004333258 -0.15
v -0.005122647 0.001094639 0.15
v -0.005122647 0.001094639 -0.15
v -0.007855432 0.002262682 0.15
v -0.007855432 0.002262682 -0.15
v -0.01033574 0.003899902 0.15
v -0.01033574 0.003899902 -0.15
v -0.01248384 0.005953699 0.15
v -0.01248384 0.005953699 -0.15
v -0.01423071 0.008358061 0.15
v -0.01423071 0.008358061 -0.15
v -0.01552018 0.01103571 0.15
v -0.01552018 0.01103571 -0.15
v -0.01631083 0.01390055 0.15
v -0.01631083 0.01390055 -0.15
v -0.01657723 0.01686051 0.15
v -0.01657723 0.01686051 -0.15
v -0.01631083 0.01982051 0.15
v -0.01631083 0.01982051 -0.15
v -0.01552018 0.02268535 0.15
v -0.01552018 0.02268535 -0.15
v -0.01423071 0.02536297 0.15
v -0.01423071 0.02536297 -0.15
v -0.01248384 0.02776733 0.15
v -0.01248384 0.02776733 -0.15
v -0.01033574 0.02982113 0.15
v -0.01033574 0.02982113 -0.15
v -0.007855432 0.03145835 0.15
v -0.007855432 0.03145835 -0.15
v -0.005122647 0.03262639 0.15
v -0.005122647 0.03262639 -0.15
v -0.002225216 0.03328773 0.15
v -0.002225216 0.03328773 -0.15
v 0.0007437348 0.03342107 0.15
v 0.0007437348 0.03342107 -0.15
v 0.003688782 0.03302214 0.15
v 0.003688782 0.03302214 -0.15
v 0.006515268 0.03210375 0.15
v 0.006515268 0.03210375 -0.15
v 0.009132348 0.03069544 0.15
v 0.009132348 0.03069544 -0.15
v 0.01145591 0.02884245 0.15
v 0.01145591 0.02884245 -0.15
v 0.01341126 0.02660438 0.15
v 0.01341126 0.02660438 -0.15
v 0.01493557 0.0240531 0.15
v 0.01493557 0.0240531 -0.15
v 0.01597984 0.02127066 0.15
v 0.01597984 0.02127066 -0.15
v 0.0165105 0.01834649 0.15
v 0.0165105 0.01834649 -0.15
v 0.01657723 0.01686051 -0.15
v 0.01597984 0.01245037 0.15
v 0.0165105 0.01537454 0.15
v 0 0.01686051 0.15
v 0.01657723 0.01686051 0.15
v 0.0165105 0.01834649 0.15
v 0.01145591 0.004878581 0.15
v 0.01341126 0.007116675 0.15
v 0 0.01686051 0.15
v 0.01493557 0.009667933 0.15
v 0.01597984 0.01245037 0.15
v 0.003688782 0.0006989241 0.15
v 0.006515268 0.001617283 0.15
v 0 0.01686051 0.15
v 0.009132348 0.003025591 0.15
v 0.01145591 0.004878581 0.15
v -0.005122647 0.001094639 0.15
v -0.002225216 0.0004333258 0.15
v 0 0.01686051 0.15
v 0.0007437348 0.0002999902 0.15
v 0.003688782 0.0006989241 0.15
v -0.01248384 0.005953699 0.15
v -0.01033574 0.003899902 0.15
v 0 0.01686051 0.15
v -0.007855432 0.002262682 0.15
v -0.005122647 0.001094639 0.15
v -0.01631083 0.01390055 0.15
v -0.01552018 0.01103571 0.15
v 0 0.01686051 0.15
v -0.01423071 0.008358061 0.15
v -0.01248384 0.005953699 0.15
v -0.01552018 0.02268535 0.15
v -0.01631083 0.01982051 0.15
v 0 0.01686051 0.15
v -0.01657723 0.01686051 0.15
v -0.01631083 0.01390055 0.15
v -0.01033574 0.02982113 0.15
v -0.01248384 0.02776733 0.15
v 0 0.01686051 0.15
v -0.01423071 0.02536297 0.15
v -0.01552018 0.02268535 0.15
v -0.002225216 0.03328773 0.15
v -0.005122647 0.03262639 0.15
v 0 0.01686051 0.15
v -0.007855432 0.03145835 0.15
v -0.01033574 0.02982113 0.15
v 0.006515268 0.03210375 0.15
v 0.003688782 0.03302214 0.15
v 0 0.01686051 0.15
v 0.0007437348 0.03342107 0.15
v -0.002225216 0.03328773 0.15
v 0.01341126 0.02660438 0.15
v 0.01145591 0.02884245 0.15
v 0 0.01686051 0.15
v 0.009132348 0.03069544 0.15
v 0.006515268 0.03210375 0.15
v 0.0165105 0.01834649 0.15
v 0.01597984 0.02127066 0.15
v 0 0.01686051 0.15
v 0.01493557 0.0240531 0.15
v 0.01341126 0.02660438 0.15
v 0.01597984 0.02127066 -0.15
v 0.0165105 0.01834649 -0.15
v 0 0.01686051 -0.15
v 0.01657723 0.01686051 -0.15
v 0.0165105 0.01537454 -0.15
v 0.01145591 0.02884245 -0.15
v 0.01341126 0.02660438 -0.15
v 0 0.01686051 -0.15
v 0.01493557 0.0240531 -0.15
v 0.01597984 0.02127066 -0.15
v 0.003688782 0.03302214 -0.15
v 0.006515268 0.03210375 -0.15
v 0 0.01686051 -0.15
v 0.009132348 0.03069544 -0.15
v 0.01145591 0.02884245 -0.15
v -0.005122647 0.03262639 -0.15
v -0.002225216 0.03328773 -0.15
v 0 0.01686051 -0.15
v 0.0007437348 0.03342107 -0.15
v 0.003688782 0.03302214 -0.15
v -0.01248384 0.02776733 -0.15
v -0.01033574 0.02982113 -0.15
v 0 0.01686051 -0.15
v -0.007855432 0.03145835 -0.15
v -0.005122647 0.03262639 -0.15
v -0.01631083 0.01982051 -0.15
v -0.01552018 0.02268535 -0.15
v 0 0.01686051 -0.15
v -0.01423071 0.02536297 -0.15
v -0.01248384 0.02776733 -0.15
v -0.01552018 0.01103571 -0.15
v -0.01631083 0.01390055 -0.15
v 0 0.01686051 -0.15
v -0.01657723 0.01686051 -0.15
v -0.01631083 0.01982051 -0.15
v -0.01033574 0.003899902 -0.15
v -0.01248384 0.005953699 -0.15
v 0 0.01686051 -0.15
v -0.01423071 0.008358061 -0.15
v -0.01552018 0.01103571 -0.15
v -0.002225216 0.0004333258 -0.15
v -0.005122647 0.001094639 -0.15
v 0 0.01686051 -0.15
v -0.007855432 0.002262682 -0.15
v -0.01033574 0.003899902 -0.15
v 0.006515268 0.001617283 -0.15
v 0.003688782 0.0006989241 -0.15
v 0 0.01686051 -0.15
v 0.0007437348 0.0002999902 -0.15
v -0.002225216 0.0004333258 -0.15
v 0.01341126 0.007116675 -0.15
v 0.01145591 0.004878581 -0.15
v 0 0.01686051 -0.15
v 0.009132348 0.003025591 -0.15
v 0.006515268 0.001617283 -0.15
v 0.0165105 0.01537454 -0.15
v 0.01597984 0.01245037 -0.15
v 0 0.01686051 -0.15
v 0.01493557 0.009667933 -0.15
v 0.01341126 0.007116675 -0.15
vt 2.980232E-08 0.5049531
vt 2.980232E-08 0.4999999
vt 1 0.4999999
vt 1 0.4999999
vt 2.980232E-08 0.4999999
vt 1 0.4950466
vt 2.980232E-08 0.4999999
vt 2.980232E-08 0.4950466
vt 1 0.4950466
vt 2.980232E-08 0.4852993
vt 1 0.4852993
vt 2.980232E-08 0.4760246
vt 1 0.4760246
vt 2.980232E-08 0.4675204
vt 1 0.4675204
vt 0.4618136 0
vt 0.4618136 1
vt 0.4695588 0
vt 0.4695588 1
vt 0.4782825 0
vt 0.4782825 1
vt 0.4877041 0
vt 0.4877041 1
vt 0.4975209 0
vt 0.4975209 1
vt 0.5074174 0
vt 0.5074174 1
vt 0.5170755 0
vt 0.5170755 1
vt 0.5261848 0
vt 0.5261848 1
vt 0.5344524 0
vt 0.5344524 1
vt 1 0.4636438
vt 2.980232E-08 0.4636438
vt 1 0.4716583
vt 2.980232E-08 0.4716583
vt 1 0.4805838
vt 2.980232E-08 0.4805838
vt 1 0.4901333
vt 2.980232E-08 0.4901333
vt 1 0.4999999
vt 2.980232E-08 0.4999999
vt 1 0.5098665
vt 2.980232E-08 0.5098665
vt 1 0.519416
vt 2.980232E-08 0.519416
vt 1 0.5283414
vt 2.980232E-08 0.5283414
vt 1 0.5363559
vt 2.980232E-08 0.5363559
vt 0.4655476 0
vt 0.4655476 1
vt 0.4738152 0
vt 0.4738152 1
vt 0.4829245 0
vt 0.4829245 1
vt 0.4925826 0
vt 0.4925826 1
vt 0.5024791 0
vt 0.5024791 1
vt 0.512296 0
vt 0.512296 1
vt 0.5217175 0
vt 0.5217175 1
vt 0.5304412 0
vt 0.5304412 1
vt 0.5381864 0
vt 0.5381864 1
vt 2.980232E-08 0.5324794
vt 1 0.5324794
vt 2.980232E-08 0.5239751
vt 1 0.5239751
vt 2.980232E-08 0.5147003
vt 1 0.5147003
vt 2.980232E-08 0.5049531
vt 1 0.5049531
vt 1 0.4999999
vt 0.5532661 0.4852993
vt 0.555035 0.4950466
vt 0.5 0.4999999
vt 0.5552574 0.4999999
vt 0.555035 0.5049531
vt 0.5381864 0.4600601
vt 0.5447042 0.4675204
vt 0.5 0.4999999
vt 0.5497853 0.4760246
vt 0.5532661 0.4852993
vt 0.512296 0.4461279
vt 0.5217175 0.4491891
vt 0.5 0.4999999
vt 0.5304412 0.4538834
vt 0.5381864 0.4600601
vt 0.4829245 0.4474469
vt 0.4925826 0.4452425
vt 0.5 0.4999999
vt 0.5024791 0.4447981
vt 0.512296 0.4461279
vt 0.4583872 0.4636438
vt 0.4655476 0.4567978
vt 0.5 0.4999999
vt 0.4738152 0.4513404
vt 0.4829245 0.4474469
vt 0.4456306 0.4901333
vt 0.4482661 0.4805838
vt 0.5 0.4999999
vt 0.4525643 0.4716583
vt 0.4583872 0.4636438
vt 0.4482661 0.519416
vt 0.4456306 0.5098665
vt 0.5 0.4999999
vt 0.4447426 0.4999999
vt 0.4456306 0.4901333
vt 0.4655476 0.5432019
vt 0.4583872 0.5363559
vt 0.5 0.4999999
vt 0.4525643 0.5283414
vt 0.4482661 0.519416
vt 0.4925826 0.5547572
vt 0.4829245 0.5525528
vt 0.5 0.4999999
vt 0.4738152 0.5486593
vt 0.4655476 0.5432019
vt 0.5217175 0.5508106
vt 0.512296 0.5538719
vt 0.5 0.4999999
vt 0.5024791 0.5552016
vt 0.4925826 0.5547572
vt 0.5447042 0.5324794
vt 0.5381864 0.5399396
vt 0.5 0.4999999
vt 0.5304412 0.5461162
vt 0.5217175 0.5508106
vt 0.555035 0.5049531
vt 0.5532661 0.5147003
vt 0.5 0.4999999
vt 0.5497853 0.5239751
vt 0.5447042 0.5324794
vt 0.4467339 0.5147003
vt 0.444965 0.5049531
vt 0.5 0.4999999
vt 0.4447426 0.4999999
vt 0.444965 0.4950466
vt 0.4618136 0.5399396
vt 0.4552958 0.5324794
vt 0.5 0.4999999
vt 0.4502148 0.5239751
vt 0.4467339 0.5147003
vt 0.4877041 0.5538719
vt 0.4782825 0.5508106
vt 0.5 0.4999999
vt 0.4695588 0.5461162
vt 0.4618136 0.5399396
vt 0.5170755 0.5525528
vt 0.5074174 0.5547572
vt 0.5 0.4999999
vt 0.4975209 0.5552016
vt 0.4877041 0.5538719
vt 0.5416128 0.5363559
vt 0.5344524 0.5432019
vt 0.5 0.4999999
vt 0.5261848 0.5486593
vt 0.5170755 0.5525528
vt 0.5543694 0.5098665
vt 0.551734 0.519416
vt 0.5 0.4999999
vt 0.5474357 0.5283414
vt 0.5416128 0.5363559
vt 0.551734 0.4805838
vt 0.5543694 0.4901333
vt 0.5 0.4999999
vt 0.5552574 0.4999999
vt 0.5543694 0.5098665
vt 0.5344524 0.4567978
vt 0.5416128 0.4636438
vt 0.5 0.4999999
vt 0.5474357 0.4716583
vt 0.551734 0.4805838
vt 0.5074174 0.4452425
vt 0.5170755 0.4474469
vt 0.5 0.4999999
vt 0.5261848 0.4513404
vt 0.5344524 0.4567978
vt 0.4782825 0.4491891
vt 0.4877041 0.4461279
vt 0.5 0.4999999
vt 0.4975209 0.4447981
vt 0.5074174 0.4452425
vt 0.4552958 0.4675204
vt 0.4618136 0.4600601
vt 0.5 0.4999999
vt 0.4695588 0.4538834
vt 0.4782825 0.4491891
vt 0.444965 0.4950466
vt 0.4467339 0.4852993
vt 0.5 0.4999999
vt 0.4502148 0.4760246
vt 0.4552958 0.4675204
vn 0.9959743 0.08963931 0
vn 1 3.67394E-16 0
vn 1 1.224647E-16 0
vn 1 1.224647E-16 0
vn 1 3.67394E-16 0
vn 0.9959743 -0.08963931 0
vn 1 3.67394E-16 0
vn 0.9959743 -0.08963931 0
vn 0.9959743 -0.08963931 0
vn 0.9639629 -0.2660368 0
vn 0.9639629 -0.2660368 0
vn 0.900969 -0.4338838 0
vn 0.900969 -0.4338838 0
vn 0.809017 -0.5877852 0
vn 0.809017 -0.5877852 0
vn 0.6910626 -0.7227949 0
vn 0.6910626 -0.7227949 0
vn 0.550897 -0.8345733 0
vn 0.550897 -0.8345733 0
vn 0.393025 -0.9195278 0
vn 0.393025 -0.9195278 0
vn 0.222521 -0.974928 0
vn 0.222521 -0.974928 0
vn 0.04486483 -0.9989932 0
vn 0.04486483 -0.9989932 0
vn -0.1342333 -0.9909499 0
vn -0.1342333 -0.9909499 0
vn -0.309017 -0.9510565 0
vn -0.309017 -0.9510565 0
vn -0.4738687 -0.8805956 0
vn -0.4738687 -0.8805956 0
vn -0.6234898 -0.7818315 0
vn -0.6234898 -0.7818315 0
vn -0.7530715 -0.6579387 0
vn -0.7530715 -0.6579387 0
vn -0.8584488 -0.5128993 0
vn -0.8584488 -0.5128993 0
vn -0.9362349 -0.3513748 0
vn -0.9362349 -0.3513748 0
vn -0.9839296 -0.1785569 0
vn -0.9839296 -0.1785569 0
vn -1 0 0
vn -1 0 0
vn -0.9839296 0.1785569 0
vn -0.9839296 0.1785569 0
vn -0.9362349 0.3513748 0
vn -0.9362349 0.3513748 0
vn -0.8584488 0.5128993 0
vn -0.8584488 0.5128993 0
vn -0.7530715 0.6579387 0
vn -0.7530715 0.6579387 0
vn -0.6234898 0.7818315 0
vn -0.6234898 0.7818315 0
vn -0.4738687 0.8805956 0
vn -0.4738687 0.8805956 0
vn -0.309017 0.9510565 0
vn -0.309017 0.9510565 0
vn -0.1342333 0.9909499 0
vn -0.1342333 0.9909499 0
vn 0.04486483 0.9989932 0
vn 0.04486483 0.9989932 0
vn 0.222521 0.974928 0
vn 0.222521 0.974928 0
vn 0.393025 0.9195278 0
vn 0.393025 0.9195278 0
vn 0.550897 0.8345733 0
vn 0.550897 0.8345733 0
vn 0.6910626 0.7227949 0
vn 0.6910626 0.7227949 0
vn 0.809017 0.5877852 0
vn 0.809017 0.5877852 0
vn 0.900969 0.4338838 0
vn 0.900969 0.4338838 0
vn 0.9639629 0.2660368 0
vn 0.9639629 0.2660368 0
vn 0.9959743 0.08963931 0
vn 0.9959743 0.08963931 0
vn 1 1.224647E-16 0
vn 0 0 1
vn 0 0 1
vn 0 0 1
vn 0 0 1
vn 0 0 1
vn 0 0 1
vn 0 0 1
vn 0 0 1
vn 0 0 1
vn 0 0 1
vn 0 0 1
vn 0 0 1
vn 0 0 1
vn 0 0 1
vn 0 0 1
vn 0 0 1
vn 0 0 1
vn 0 0 1
vn 0 0 1
vn 0 0 1
vn 0 0 1
vn 0 0 1
vn 0 0 1
vn 0 0 1
vn 0 0 1
vn 0 0 1
vn 0 0 1
vn 0 0 1
vn 0 0 1
vn 0 0 1
vn 0 0 1
vn 0 0 1
vn 0 0 1
vn 0 0 1
vn 0 0 1
vn 0 0 1
vn 0 0 1
vn 0 0 1
vn 0 0 1
vn 0 0 1
vn 0 0 1
vn 0 0 1
vn 0 0 1
vn 0 0 1
vn 0 0 1
vn 0 0 1
vn 0 0 1
vn 0 0 1
vn 0 0 1
vn 0 0 1
vn 0 0 1
vn 0 0 1
vn 0 0 1
vn 0 0 1
vn 0 0 1
vn 0 0 1
vn 0 0 1
vn 0 0 1
vn 0 0 1
vn 0 0 1
vn 0 0 -1
vn 0 0 -1
vn 0 0 -1
vn 0 0 -1
vn 0 0 -1
vn 0 0 -1
vn 0 0 -1
vn 0 0 -1
vn 0 0 -1
vn 0 0 -1
vn 0 0 -1
vn 0 0 -1
vn 0 0 -1
vn 0 0 -1
vn 0 0 -1
vn 0 0 -1
vn 0 0 -1
vn 0 0 -1
vn 0 0 -1
vn 0 0 -1
vn 0 0 -1
vn 0 0 -1
vn 0 0 -1
vn 0 0 -1
vn 0 0 -1
vn 0 0 -1
vn 0 0 -1
vn 0 0 -1
vn 0 0 -1
vn 0 0 -1
vn 0 0 -1
vn 0 0 -1
vn 0 0 -1
vn 0 0 -1
vn 0 0 -1
vn 0 0 -1
vn 0 0 -1
vn 0 0 -1
vn 0 0 -1
vn 0 0 -1
vn 0 0 -1
vn 0 0 -1
vn 0 0 -1
vn 0 0 -1
vn 0 0 -1
vn 0 0 -1
vn 0 0 -1
vn 0 0 -1
vn 0 0 -1
vn 0 0 -1
vn 0 0 -1
vn 0 0 -1
vn 0 0 -1
vn 0 0 -1
vn 0 0 -1
vn 0 0 -1
vn 0 0 -1
vn 0 0 -1
vn 0 0 -1
vn 0 0 -1
usemtl white_low_gloss_plastic
f 599/599/599 600/600/600 601/601/601
f 602/602/602 603/603/603 604/604/604
f 605/605/605 606/606/606 607/607/607
f 606/606/606 608/608/608 607/607/607
f 607/607/607 608/608/608 609/609/609
f 608/608/608 610/610/610 609/609/609
f 609/609/609 610/610/610 611/611/611
f 610/610/610 612/612/612 611/611/611
f 611/611/611 612/612/612 613/613/613
f 612/612/612 614/614/614 613/613/613
f 613/613/613 614/614/614 615/615/615
f 614/614/614 616/616/616 615/615/615
f 615/615/615 616/616/616 617/617/617
f 616/616/616 618/618/618 617/617/617
f 617/617/617 618/618/618 619/619/619
f 618/618/618 620/620/620 619/619/619
f 619/619/619 620/620/620 621/621/621
f 620/620/620 622/622/622 621/621/621
f 621/621/621 622/622/622 623/623/623
f 622/622/622 624/624/624 623/623/623
f 623/623/623 624/624/624 625/625/625
f 624/624/624 626/626/626 625/625/625
f 625/625/625 626/626/626 627/627/627
f 626/626/626 628/628/628 627/627/627
f 627/627/627 628/628/628 629/629/629
f 628/628/628 630/630/630 629/629/629
f 629/629/629 630/630/630 631/631/631
f 630/630/630 632/632/632 631/631/631
f 631/631/631 632/632/632 633/633/633
f 632/632/632 634/634/634 633/633/633
f 633/633/633 634/634/634 635/635/635
f 634/634/634 636/636/636 635/635/635
f 635/635/635 636/636/636 637/637/637
f 636/636/636 638/638/638 637/637/637
f 637/637/637 638/638/638 639/639/639
f 638/638/638 640/640/640 639/639/639
f 639/639/639 640/640/640 641/641/641
f 640/640/640 642/642/642 641/641/641
f 641/641/641 642/642/642 643/643/643
f 642/642/642 644/644/644 643/643/643
f 643/643/643 644/644/644 645/645/645
f 644/644/644 646/646/646 645/645/645
f 645/645/645 646/646/646 647/647/647
f 646/646/646 648/648/648 647/647/647
f 647/647/647 648/648/648 649/649/649
f 648/648/648 650/650/650 649/649/649
f 649/649/649 650/650/650 651/651/651
f 650/650/650 652/652/652 651/651/651
f 651/651/651 652/652/652 653/653/653
f 652/652/652 654/654/654 653/653/653
f 653/653/653 654/654/654 655/655/655
f 654/654/654 656/656/656 655/655/655
f 655/655/655 656/656/656 657/657/657
f 656/656/656 658/658/658 657/657/657
f 657/657/657 658/658/658 659/659/659
f 658/658/658 660/660/660 659/659/659
f 659/659/659 660/660/660 661/661/661
f 660/660/660 662/662/662 661/661/661
f 661/661/661 662/662/662 663/663/663
f 662/662/662 664/664/664 663/663/663
f 663/663/663 664/664/664 665/665/665
f 664/664/664 666/666/666 665/665/665
f 665/665/665 666/666/666 667/667/667
f 666/666/666 668/668/668 667/667/667
f 667/667/667 668/668/668 669/669/669
f 668/668/668 670/670/670 669/669/669
f 669/669/669 670/670/670 671/671/671
f 670/670/670 672/672/672 671/671/671
f 671/671/671 672/672/672 673/673/673
f 672/672/672 674/674/674 673/673/673
f 673/673/673 674/674/674 675/675/675
f 674/674/674 676/676/676 675/675/675
f 677/677/677 678/678/678 679/679/679
f 678/678/678 680/680/680 679/679/679
f 679/679/679 680/680/680 681/681/681
f 682/682/682 683/683/683 684/684/684
f 683/683/683 685/685/685 684/684/684
f 684/684/684 685/685/685 686/686/686
f 687/687/687 688/688/688 689/689/689
f 688/688/688 690/690/690 689/689/689
f 689/689/689 690/690/690 691/691/691
f 692/692/692 693/693/693 694/694/694
f 693/693/693 695/695/695 694/694/694
f 694/694/694 695/695/695 696/696/696
f 697/697/697 698/698/698 699/699/699
f 698/698/698 700/700/700 699/699/699
f 699/699/699 700/700/700 701/701/701
f 702/702/702 703/703/703 704/704/704
f 703/703/703 705/705/705 704/704/704
f 704/704/704 705/705/705 706/706/706
f 707/707/707 708/708/708 709/709/709
f 708/708/708 710/710/710 709/709/709
f 709/709/709 710/710/710 711/711/711
f 712/712/712 713/713/713 714/714/714
f 713/713/713 715/715/715 714/714/714
f 714/714/714 715/715/715 716/716/716
f 717/717/717 718/718/718 719/719/719
f 718/718/718 720/720/720 719/719/719
f 719/719/719 720/720/720 721/721/721
f 722/722/722 723/723/723 724/724/724
f 723/723/723 725/725/725 724/724/724
f 724/724/724 725/725/725 726/726/726
f 727/727/727 728/728/728 729/729/729
f 728/728/728 730/730/730 729/729/729
f 729/729/729 730/730/730 731/731/731
f 732/732/732 733/733/733 734/734/734
f 733/733/733 735/735/735 734/734/734
f 734/734/734 735/735/735 736/736/736
f 737/737/737 738/738/738 739/739/739
f 738/738/738 740/740/740 739/739/739
f 739/739/739 740/740/740 741/741/741
f 742/742/742 743/743/743 744/744/744
f 743/743/743 745/745/745 744/744/744
f 744/744/744 745/745/745 746/746/746
f 747/747/747 748/748/748 749/749/749
f 748/748/748 750/750/750 749/749/749
f 749/749/749 750/750/750 751/751/751
f 752/752/752 753/753/753 754/754/754
f 753/753/753 755/755/755 754/754/754
f 754/754/754 755/755/755 756/756/756
f 757/757/757 758/758/758 759/759/759
f 758/758/758 760/760/760 759/759/759
f 759/759/759 760/760/760 761/761/761
f 762/762/762 763/763/763 764/764/764
f 763/763/763 765/765/765 764/764/764
f 764/764/764 765/765/765 766/766/766
f 767/767/767 768/768/768 769/769/769
f 768/768/768 770/770/770 769/769/769
f 769/769/769 770/770/770 771/771/771
f 772/772/772 773/773/773 774/774/774
f 773/773/773 775/775/775 774/774/774
f 774/774/774 775/775/775 776/776/776
f 777/777/777 778/778/778 779/779/779
f 778/778/778 780/780/780 779/779/779
f 779/779/779 780/780/780 781/781/781
f 782/782/782 783/783/783 784/784/784
f 783/783/783 785/785/785 784/784/784
f 784/784/784 785/785/785 786/786/786
f 787/787/787 788/788/788 789/789/789
f 788/788/788 790/790/790 789/789/789
f 789/789/789 790/790/790 791/791/791
f 792/792/792 793/793/793 794/794/794
f 793/793/793 795/795/795 794/794/794
f 794/794/794 795/795/795 796/796/796
##########################


##########################
g Root|Path_(Predeterminado)|Predeterminado|Saliente-Extruir5[2]|Saliente-Extruir5[2]_-_Part
##########################
v 0.9309105 0.01834649 0.15
v 0.9309772 0.01686051 0.15
v 0.9309772 0.01686051 -0.15
v 0.9309772 0.01686051 -0.15
v 0.9309772 0.01686051 0.15
v 0.9309105 0.01537454 -0.15
v 0.9309772 0.01686051 0.15
v 0.9309105 0.01537454 0.15
v 0.9309105 0.01537454 -0.15
v 0.9303799 0.01245037 0.15
v 0.9303799 0.01245037 -0.15
v 0.9293356 0.009667933 0.15
v 0.9293356 0.009667933 -0.15
v 0.9278113 0.007116675 0.15
v 0.9278113 0.007116675 -0.15
v 0.9258559 0.004878581 0.15
v 0.9258559 0.004878581 -0.15
v 0.9235324 0.003025591 0.15
v 0.9235324 0.003025591 -0.15
v 0.9209152 0.001617283 0.15
v 0.9209152 0.001617283 -0.15
v 0.9180888 0.0006989241 0.15
v 0.9180888 0.0006989241 -0.15
v 0.9151437 0.0002999902 0.15
v 0.9151437 0.0002999902 -0.15
v 0.9121748 0.0004333258 0.15
v 0.9121748 0.0004333258 -0.15
v 0.9092774 0.001094639 0.15
v 0.9092774 0.001094639 -0.15
v 0.9065446 0.002262682 0.15
v 0.9065446 0.002262682 -0.15
v 0.9040642 0.003899902 0.15
v 0.9040642 0.003899902 -0.15
v 0.9019161 0.005953699 0.15
v 0.9019161 0.005953699 -0.15
v 0.9001693 0.008358061 0.15
v 0.9001693 0.008358061 -0.15
v 0.8988798 0.01103571 0.15
v 0.8988798 0.01103571 -0.15
v 0.8980892 0.01390055 0.15
v 0.8980892 0.01390055 -0.15
v 0.8978227 0.01686051 0.15
v 0.8978227 0.01686051 -0.15
v 0.8980892 0.01982051 0.15
v 0.8980892 0.01982051 -0.15
v 0.8988798 0.02268535 0.15
v 0.8988798 0.02268535 -0.15
v 0.9001693 0.02536297 0.15
v 0.9001693 0.02536297 -0.15
v 0.9019161 0.02776733 0.15
v 0.9019161 0.02776733 -0.15
v 0.9040642 0.02982113 0.15
v 0.9040642 0.02982113 -0.15
v 0.9065446 0.03145835 0.15
v 0.9065446 0.03145835 -0.15
v 0.9092774 0.03262639 0.15
v 0.9092774 0.03262639 -0.15
v 0.9121748 0.03328773 0.15
v 0.9121748 0.03328773 -0.15
v 0.9151437 0.03342107 0.15
v 0.9151437 0.03342107 -0.15
v 0.9180888 0.03302214 0.15
v 0.9180888 0.03302214 -0.15
v 0.9209152 0.03210375 0.15
v 0.9209152 0.03210375 -0.15
v 0.9235324 0.03069544 0.15
v 0.9235324 0.03069544 -0.15
v 0.9258559 0.02884245 0.15
v 0.9258559 0.02884245 -0.15
v 0.9278113 0.02660438 0.15
v 0.9278113 0.02660438 -0.15
v 0.9293356 0.0240531 0.15
v 0.9293356 0.0240531 -0.15
v 0.9303799 0.02127066 0.15
v 0.9303799 0.02127066 -0.15
v 0.9309105 0.01834649 0.15
v 0.9309105 0.01834649 -0.15
v 0.9309772 0.01686051 -0.15
v 0.9303799 0.01245037 0.15
v 0.9309105 0.01537454 0.15
v 0.9144 0.01686051 0.15
v 0.9309772 0.01686051 0.15
v 0.9309105 0.01834649 0.15
v 0.9258559 0.004878581 0.15
v 0.9278113 0.007116675 0.15
v 0.9144 0.01686051 0.15
v 0.9293356 0.009667933 0.15
v 0.9303799 0.01245037 0.15
v 0.9180888 0.0006989241 0.15
v 0.9209152 0.001617283 0.15
v 0.9144 0.01686051 0.15
v 0.9235324 0.003025591 0.15
v 0.9258559 0.004878581 0.15
v 0.9092774 0.001094639 0.15
v 0.9121748 0.0004333258 0.15
v 0.9144 0.01686051 0.15
v 0.9151437 0.0002999902 0.15
v 0.9180888 0.0006989241 0.15
v 0.9019161 0.005953699 0.15
v 0.9040642 0.003899902 0.15
v 0.9144 0.01686051 0.15
v 0.9065446 0.002262682 0.15
v 0.9092774 0.001094639 0.15
v 0.8980892 0.01390055 0.15
v 0.8988798 0.01103571 0.15
v 0.9144 0.01686051 0.15
v 0.9001693 0.008358061 0.15
v 0.9019161 0.005953699 0.15
v 0.8988798 0.02268535 0.15
v 0.8980892 0.01982051 0.15
v 0.9144 0.01686051 0.15
v 0.8978227 0.01686051 0.15
v 0.8980892 0.01390055 0.15
v 0.9040642 0.02982113 0.15
v 0.9019161 0.02776733 0.15
v 0.9144 0.01686051 0.15
v 0.9001693 0.02536297 0.15
v 0.8988798 0.02268535 0.15
v 0.9121748 0.03328773 0.15
v 0.9092774 0.03262639 0.15
v 0.9144 0.01686051 0.15
v 0.9065446 0.03145835 0.15
v 0.9040642 0.02982113 0.15
v 0.9209152 0.03210375 0.15
v 0.9180888 0.03302214 0.15
v 0.9144 0.01686051 0.15
v 0.9151437 0.03342107 0.15
v 0.9121748 0.03328773 0.15
v 0.9278113 0.02660438 0.15
v 0.9258559 0.02884245 0.15
v 0.9144 0.01686051 0.15
v 0.9235324 0.03069544 0.15
v 0.9209152 0.03210375 0.15
v 0.9309105 0.01834649 0.15
v 0.9303799 0.02127066 0.15
v 0.9144 0.01686051 0.15
v 0.9293356 0.0240531 0.15
v 0.9278113 0.02660438 0.15
v 0.9303799 0.02127066 -0.15
v 0.9309105 0.01834649 -0.15
v 0.9144 0.01686051 -0.15
v 0.9309772 0.01686051 -0.15
v 0.9309105 0.01537454 -0.15
v 0.9258559 0.02884245 -0.15
v 0.9278113 0.02660438 -0.15
v 0.9144 0.01686051 -0.15
v 0.9293356 0.0240531 -0.15
v 0.9303799 0.02127066 -0.15
v 0.9180888 0.03302214 -0.15
v 0.9209152 0.03210375 -0.15
v 0.9144 0.01686051 -0.15
v 0.9235324 0.03069544 -0.15
v 0.9258559 0.02884245 -0.15
v 0.9092774 0.03262639 -0.15
v 0.9121748 0.03328773 -0.15
v 0.9144 0.01686051 -0.15
v 0.9151437 0.03342107 -0.15
v 0.9180888 0.03302214 -0.15
v 0.9019161 0.02776733 -0.15
v 0.9040642 0.02982113 -0.15
v 0.9144 0.01686051 -0.15
v 0.9065446 0.03145835 -0.15
v 0.9092774 0.03262639 -0.15
v 0.8980892 0.01982051 -0.15
v 0.8988798 0.02268535 -0.15
v 0.9144 0.01686051 -0.15
v 0.9001693 0.02536297 -0.15
v 0.9019161 0.02776733 -0.15
v 0.8988798 0.01103571 -0.15
v 0.8980892 0.01390055 -0.15
v 0.9144 0.01686051 -0.15
v 0.8978227 0.01686051 -0.15
v 0.8980892 0.01982051 -0.15
v 0.9040642 0.003899902 -0.15
v 0.9019161 0.005953699 -0.15
v 0.9144 0.01686051 -0.15
v 0.9001693 0.008358061 -0.15
v 0.8988798 0.01103571 -0.15
v 0.9121748 0.0004333258 -0.15
v 0.9092774 0.001094639 -0.15
v 0.9144 0.01686051 -0.15
v 0.9065446 0.002262682 -0.15
v 0.9040642 0.003899902 -0.15
v 0.9209152 0.001617283 -0.15
v 0.9180888 0.0006989241 -0.15
v 0.9144 0.01686051 -0.15
v 0.9151437 0.0002999902 -0.15
v 0.9121748 0.0004333258 -0.15
v 0.9278113 0.007116675 -0.15
v 0.9258559 0.004878581 -0.15
v 0.9144 0.01686051 -0.15
v 0.9235324 0.003025591 -0.15
v 0.9209152 0.001617283 -0.15
v 0.9309105 0.01537454 -0.15
v 0.9303799 0.01245037 -0.15
v 0.9144 0.01686051 -0.15
v 0.9293356 0.009667933 -0.15
v 0.9278113 0.007116675 -0.15
vt 2.980232E-08 0.5049531
vt 2.980232E-08 0.4999999
vt 1 0.4999999
vt 1 0.4999999
vt 2.980232E-08 0.4999999
vt 1 0.4950466
vt 2.980232E-08 0.4999999
vt 2.980232E-08 0.4950466
vt 1 0.4950466
vt 2.980232E-08 0.4852993
vt 1 0.4852993
vt 2.980232E-08 0.4760246
vt 1 0.4760246
vt 2.980232E-08 0.4675204
vt 1 0.4675204
vt 0.4618134 0
vt 0.4618134 1
vt 0.4695587 0
vt 0.4695587 1
vt 0.4782825 0
vt 0.4782825 1
vt 0.487704 0
vt 0.487704 1
vt 0.4975209 0
vt 0.4975209 1
vt 0.5074174 0
vt 0.5074174 1
vt 0.5170753 0
vt 0.5170753 1
vt 0.5261848 0
vt 0.5261848 1
vt 0.5344524 0
vt 0.5344524 1
vt 1 0.4636438
vt 2.980232E-08 0.4636438
vt 1 0.4716583
vt 2.980232E-08 0.4716583
vt 1 0.4805838
vt 2.980232E-08 0.4805838
vt 1 0.4901333
vt 2.980232E-08 0.4901333
vt 1 0.4999999
vt 2.980232E-08 0.4999999
vt 1 0.5098665
vt 2.980232E-08 0.5098665
vt 1 0.519416
vt 2.980232E-08 0.519416
vt 1 0.5283414
vt 2.980232E-08 0.5283414
vt 1 0.5363559
vt 2.980232E-08 0.5363559
vt 0.4655476 0
vt 0.4655476 1
vt 0.4738152 0
vt 0.4738152 1
vt 0.4829247 0
vt 0.4829247 1
vt 0.4925826 0
vt 0.4925826 1
vt 0.5024791 0
vt 0.5024791 1
vt 0.512296 0
vt 0.512296 1
vt 0.5217175 0
vt 0.5217175 1
vt 0.5304413 0
vt 0.5304413 1
vt 0.5381866 0
vt 0.5381866 1
vt 2.980232E-08 0.5324794
vt 1 0.5324794
vt 2.980232E-08 0.5239751
vt 1 0.5239751
vt 2.980232E-08 0.5147003
vt 1 0.5147003
vt 2.980232E-08 0.5049531
vt 1 0.5049531
vt 1 0.4999999
vt 0.5532663 0.4852993
vt 0.5550351 0.4950466
vt 0.5 0.4999999
vt 0.5552576 0.4999999
vt 0.5550351 0.5049531
vt 0.5381866 0.4600601
vt 0.5447042 0.4675204
vt 0.5 0.4999999
vt 0.5497854 0.4760246
vt 0.5532663 0.4852993
vt 0.512296 0.4461279
vt 0.5217175 0.4491891
vt 0.5 0.4999999
vt 0.5304413 0.4538834
vt 0.5381866 0.4600601
vt 0.4829247 0.4474469
vt 0.4925826 0.4452425
vt 0.5 0.4999999
vt 0.5024791 0.4447981
vt 0.512296 0.4461279
vt 0.4583871 0.4636438
vt 0.4655476 0.4567978
vt 0.5 0.4999999
vt 0.4738152 0.4513404
vt 0.4829247 0.4474469
vt 0.4456306 0.4901333
vt 0.4482663 0.4805838
vt 0.5 0.4999999
vt 0.4525645 0.4716583
vt 0.4583871 0.4636438
vt 0.4482663 0.519416
vt 0.4456306 0.5098665
vt 0.5 0.4999999
vt 0.4447424 0.4999999
vt 0.4456306 0.4901333
vt 0.4655476 0.5432019
vt 0.4583871 0.5363559
vt 0.5 0.4999999
vt 0.4525645 0.5283414
vt 0.4482663 0.519416
vt 0.4925826 0.5547572
vt 0.4829247 0.5525528
vt 0.5 0.4999999
vt 0.4738152 0.5486593
vt 0.4655476 0.5432019
vt 0.5217175 0.5508106
vt 0.512296 0.5538719
vt 0.5 0.4999999
vt 0.5024791 0.5552016
vt 0.4925826 0.5547572
vt 0.5447042 0.5324794
vt 0.5381866 0.5399396
vt 0.5 0.4999999
vt 0.5304413 0.5461162
vt 0.5217175 0.5508106
vt 0.5550351 0.5049531
vt 0.5532663 0.5147003
vt 0.5 0.4999999
vt 0.5497854 0.5239751
vt 0.5447042 0.5324794
vt 0.4467337 0.5147003
vt 0.4449649 0.5049531
vt 0.5 0.4999999
vt 0.4447424 0.4999999
vt 0.4449649 0.4950466
vt 0.4618134 0.5399396
vt 0.4552958 0.5324794
vt 0.5 0.4999999
vt 0.4502146 0.5239751
vt 0.4467337 0.5147003
vt 0.487704 0.5538719
vt 0.4782825 0.5508106
vt 0.5 0.4999999
vt 0.4695587 0.5461162
vt 0.4618134 0.5399396
vt 0.5170753 0.5525528
vt 0.5074174 0.5547572
vt 0.5 0.4999999
vt 0.4975209 0.5552016
vt 0.487704 0.5538719
vt 0.5416129 0.5363559
vt 0.5344524 0.5432019
vt 0.5 0.4999999
vt 0.5261848 0.5486593
vt 0.5170753 0.5525528
vt 0.5543694 0.5098665
vt 0.5517337 0.519416
vt 0.5 0.4999999
vt 0.5474355 0.5283414
vt 0.5416129 0.5363559
vt 0.5517337 0.4805838
vt 0.5543694 0.4901333
vt 0.5 0.4999999
vt 0.5552576 0.4999999
vt 0.5543694 0.5098665
vt 0.5344524 0.4567978
vt 0.5416129 0.4636438
vt 0.5 0.4999999
vt 0.5474355 0.4716583
vt 0.5517337 0.4805838
vt 0.5074174 0.4452425
vt 0.5170753 0.4474469
vt 0.5 0.4999999
vt 0.5261848 0.4513404
vt 0.5344524 0.4567978
vt 0.4782825 0.4491891
vt 0.487704 0.4461279
vt 0.5 0.4999999
vt 0.4975209 0.4447981
vt 0.5074174 0.4452425
vt 0.4552958 0.4675204
vt 0.4618134 0.4600601
vt 0.5 0.4999999
vt 0.4695587 0.4538834
vt 0.4782825 0.4491891
vt 0.4449649 0.4950466
vt 0.4467337 0.4852993
vt 0.5 0.4999999
vt 0.4502146 0.4760246
vt 0.4552958 0.4675204
vn 0.9959743 0.08963931 0
vn 1 3.67394E-16 0
vn 1 1.224647E-16 0
vn 1 1.224647E-16 0
vn 1 3.67394E-16 0
vn 0.9959743 -0.08963931 0
vn 1 3.67394E-16 0
vn 0.9959743 -0.08963931 0
vn 0.9959743 -0.08963931 0
vn 0.9639629 -0.2660368 0
vn 0.9639629 -0.2660368 0
vn 0.900969 -0.4338838 0
vn 0.900969 -0.4338838 0
vn 0.809017 -0.5877852 0
vn 0.809017 -0.5877852 0
vn 0.6910626 -0.7227949 0
vn 0.6910626 -0.7227949 0
vn 0.550897 -0.8345733 0
vn 0.550897 -0.8345733 0
vn 0.393025 -0.9195278 0
vn 0.393025 -0.9195278 0
vn 0.222521 -0.974928 0
vn 0.222521 -0.974928 0
vn 0.04486483 -0.9989932 0
vn 0.04486483 -0.9989932 0
vn -0.1342333 -0.9909499 0
vn -0.1342333 -0.9909499 0
vn -0.309017 -0.9510565 0
vn -0.309017 -0.9510565 0
vn -0.4738687 -0.8805956 0
vn -0.4738687 -0.8805956 0
vn -0.6234898 -0.7818315 0
vn -0.6234898 -0.7818315 0
vn -0.7530715 -0.6579387 0
vn -0.7530715 -0.6579387 0
vn -0.8584488 -0.5128993 0
vn -0.8584488 -0.5128993 0
vn -0.9362349 -0.3513748 0
vn -0.9362349 -0.3513748 0
vn -0.9839296 -0.1785569 0
vn -0.9839296 -0.1785569 0
vn -1 0 0
vn -1 0 0
vn -0.9839296 0.1785569 0
vn -0.9839296 0.1785569 0
vn -0.9362349 0.3513748 0
vn -0.9362349 0.3513748 0
vn -0.8584488 0.5128993 0
vn -0.8584488 0.5128993 0
vn -0.7530715 0.6579387 0
vn -0.7530715 0.6579387 0
vn -0.6234898 0.7818315 0
vn -0.6234898 0.7818315 0
vn -0.4738687 0.8805956 0
vn -0.4738687 0.8805956 0
vn -0.309017 0.9510565 0
vn -0.309017 0.9510565 0
vn -0.1342333 0.9909499 0
vn -0.1342333 0.9909499 0
vn 0.04486483 0.9989932 0
vn 0.04486483 0.9989932 0
vn 0.222521 0.974928 0
vn 0.222521 0.974928 0
vn 0.393025 0.9195278 0
vn 0.393025 0.9195278 0
vn 0.550897 0.8345733 0
vn 0.550897 0.8345733 0
vn 0.6910626 0.7227949 0
vn 0.6910626 0.7227949 0
vn 0.809017 0.5877852 0
vn 0.809017 0.5877852 0
vn 0.900969 0.4338838 0
vn 0.900969 0.4338838 0
vn 0.9639629 0.2660368 0
vn 0.9639629 0.2660368 0
vn 0.9959743 0.08963931 0
vn 0.9959743 0.08963931 0
vn 1 1.224647E-16 0
vn 0 0 1
vn 0 0 1
vn 0 0 1
vn 0 0 1
vn 0 0 1
vn 0 0 1
vn 0 0 1
vn 0 0 1
vn 0 0 1
vn 0 0 1
vn 0 0 1
vn 0 0 1
vn 0 0 1
vn 0 0 1
vn 0 0 1
vn 0 0 1
vn 0 0 1
vn 0 0 1
vn 0 0 1
vn 0 0 1
vn 0 0 1
vn 0 0 1
vn 0 0 1
vn 0 0 1
vn 0 0 1
vn 0 0 1
vn 0 0 1
vn 0 0 1
vn 0 0 1
vn 0 0 1
vn 0 0 1
vn 0 0 1
vn 0 0 1
vn 0 0 1
vn 0 0 1
vn 0 0 1
vn 0 0 1
vn 0 0 1
vn 0 0 1
vn 0 0 1
vn 0 0 1
vn 0 0 1
vn 0 0 1
vn 0 0 1
vn 0 0 1
vn 0 0 1
vn 0 0 1
vn 0 0 1
vn 0 0 1
vn 0 0 1
vn 0 0 1
vn 0 0 1
vn 0 0 1
vn 0 0 1
vn 0 0 1
vn 0 0 1
vn 0 0 1
vn 0 0 1
vn 0 0 1
vn 0 0 1
vn 0 0 -1
vn 0 0 -1
vn 0 0 -1
vn 0 0 -1
vn 0 0 -1
vn 0 0 -1
vn 0 0 -1
vn 0 0 -1
vn 0 0 -1
vn 0 0 -1
vn 0 0 -1
vn 0 0 -1
vn 0 0 -1
vn 0 0 -1
vn 0 0 -1
vn 0 0 -1
vn 0 0 -1
vn 0 0 -1
vn 0 0 -1
vn 0 0 -1
vn 0 0 -1
vn 0 0 -1
vn 0 0 -1
vn 0 0 -1
vn 0 0 -1
vn 0 0 -1
vn 0 0 -1
vn 0 0 -1
vn 0 0 -1
vn 0 0 -1
vn 0 0 -1
vn 0 0 -1
vn 0 0 -1
vn 0 0 -1
vn 0 0 -1
vn 0 0 -1
vn 0 0 -1
vn 0 0 -1
vn 0 0 -1
vn 0 0 -1
vn 0 0 -1
vn 0 0 -1
vn 0 0 -1
vn 0 0 -1
vn 0 0 -1
vn 0 0 -1
vn 0 0 -1
vn 0 0 -1
vn 0 0 -1
vn 0 0 -1
vn 0 0 -1
vn 0 0 -1
vn 0 0 -1
vn 0 0 -1
vn 0 0 -1
vn 0 0 -1
vn 0 0 -1
vn 0 0 -1
vn 0 0 -1
vn 0 0 -1
usemtl white_low_gloss_plastic
f 797/797/797 798/798/798 799/799/799
f 800/800/800 801/801/801 802/802/802
f 803/803/803 804/804/804 805/805/805
f 804/804/804 806/806/806 805/805/805
f 805/805/805 806/806/806 807/807/807
f 806/806/806 808/808/808 807/807/807
f 807/807/807 808/808/808 809/809/809
f 808/808/808 810/810/810 809/809/809
f 809/809/809 810/810/810 811/811/811
f 810/810/810 812/812/812 811/811/811
f 811/811/811 812/812/812 813/813/813
f 812/812/812 814/814/814 813/813/813
f 813/813/813 814/814/814 815/815/815
f 814/814/814 816/816/816 815/815/815
f 815/815/815 816/816/816 817/817/817
f 816/816/816 818/818/818 817/817/817
f 817/817/817 818/818/818 819/819/819
f 818/818/818 820/820/820 819/819/819
f 819/819/819 820/820/820 821/821/821
f 820/820/820 822/822/822 821/821/821
f 821/821/821 822/822/822 823/823/823
f 822/822/822 824/824/824 823/823/823
f 823/823/823 824/824/824 825/825/825
f 824/824/824 826/826/826 825/825/825
f 825/825/825 826/826/826 827/827/827
f 826/826/826 828/828/828 827/827/827
f 827/827/827 828/828/828 829/829/829
f 828/828/828 830/830/830 829/829/829
f 829/829/829 830/830/830 831/831/831
f 830/830/830 832/832/832 831/831/831
f 831/831/831 832/832/832 833/833/833
f 832/832/832 834/834/834 833/833/833
f 833/833/833 834/834/834 835/835/835
f 834/834/834 836/836/836 835/835/835
f 835/835/835 836/836/836 837/837/837
f 836/836/836 838/838/838 837/837/837
f 837/837/837 838/838/838 839/839/839
f 838/838/838 840/840/840 839/839/839
f 839/839/839 840/840/840 841/841/841
f 840/840/840 842/842/842 841/841/841
f 841/841/841 842/842/842 843/843/843
f 842/842/842 844/844/844 843/843/843
f 843/843/843 844/844/844 845/845/845
f 844/844/844 846/846/846 845/845/845
f 845/845/845 846/846/846 847/847/847
f 846/846/846 848/848/848 847/847/847
f 847/847/847 848/848/848 849/849/849
f 848/848/848 850/850/850 849/849/849
f 849/849/849 850/850/850 851/851/851
f 850/850/850 852/852/852 851/851/851
f 851/851/851 852/852/852 853/853/853
f 852/852/852 854/854/854 853/853/853
f 853/853/853 854/854/854 855/855/855
f 854/854/854 856/856/856 855/855/855
f 855/855/855 856/856/856 857/857/857
f 856/856/856 858/858/858 857/857/857
f 857/857/857 858/858/858 859/859/859
f 858/858/858 860/860/860 859/859/859
f 859/859/859 860/860/860 861/861/861
f 860/860/860 862/862/862 861/861/861
f 861/861/861 862/862/862 863/863/863
f 862/862/862 864/864/864 863/863/863
f 863/863/863 864/864/864 865/865/865
f 864/864/864 866/866/866 865/865/865
f 865/865/865 866/866/866 867/867/867
f 866/866/866 868/868/868 867/867/867
f 867/867/867 868/868/868 869/869/869
f 868/868/868 870/870/870 869/869/869
f 869/869/869 870/870/870 871/871/871
f 870/870/870 872/872/872 871/871/871
f 871/871/871 872/872/872 873/873/873
f 872/872/872 874/874/874 873/873/873
f 875/875/875 876/876/876 877/877/877
f 876/876/876 878/878/878 877/877/877
f 877/877/877 878/878/878 879/879/879
f 880/880/880 881/881/881 882/882/882
f 881/881/881 883/883/883 882/882/882
f 882/882/882 883/883/883 884/884/884
f 885/885/885 886/886/886 887/887/887
f 886/886/886 888/888/888 887/887/887
f 887/887/887 888/888/888 889/889/889
f 890/890/890 891/891/891 892/892/892
f 891/891/891 893/893/893 892/892/892
f 892/892/892 893/893/893 894/894/894
f 895/895/895 896/896/896 897/897/897
f 896/896/896 898/898/898 897/897/897
f 897/897/897 898/898/898 899/899/899
f 900/900/900 901/901/901 902/902/902
f 901/901/901 903/903/903 902/902/902
f 902/902/902 903/903/903 904/904/904
f 905/905/905 906/906/906 907/907/907
f 906/906/906 908/908/908 907/907/907
f 907/907/907 908/908/908 909/909/909
f 910/910/910 911/911/911 912/912/912
f 911/911/911 913/913/913 912/912/912
f 912/912/912 913/913/913 914/914/914
f 915/915/915 916/916/916 917/917/917
f 916/916/916 918/918/918 917/917/917
f 917/917/917 918/918/918 919/919/919
f 920/920/920 921/921/921 922/922/922
f 921/921/921 923/923/923 922/922/922
f 922/922/922 923/923/923 924/924/924
f 925/925/925 926/926/926 927/927/927
f 926/926/926 928/928/928 927/927/927
f 927/927/927 928/928/928 929/929/929
f 930/930/930 931/931/931 932/932/932
f 931/931/931 933/933/933 932/932/932
f 932/932/932 933/933/933 934/934/934
f 935/935/935 936/936/936 937/937/937
f 936/936/936 938/938/938 937/937/937
f 937/937/937 938/938/938 939/939/939
f 940/940/940 941/941/941 942/942/942
f 941/941/941 943/943/943 942/942/942
f 942/942/942 943/943/943 944/944/944
f 945/945/945 946/946/946 947/947/947
f 946/946/946 948/948/948 947/947/947
f 947/947/947 948/948/948 949/949/949
f 950/950/950 951/951/951 952/952/952
f 951/951/951 953/953/953 952/952/952
f 952/952/952 953/953/953 954/954/954
f 955/955/955 956/956/956 957/957/957
f 956/956/956 958/958/958 957/957/957
f 957/957/957 958/958/958 959/959/959
f 960/960/960 961/961/961 962/962/962
f 961/961/961 963/963/963 962/962/962
f 962/962/962 963/963/963 964/964/964
f 965/965/965 966/966/966 967/967/967
f 966/966/966 968/968/968 967/967/967
f 967/967/967 968/968/968 969/969/969
f 970/970/970 971/971/971 972/972/972
f 971/971/971 973/973/973 972/972/972
f 972/972/972 973/973/973 974/974/974
f 975/975/975 976/976/976 977/977/977
f 976/976/976 978/978/978 977/977/977
f 977/977/977 978/978/978 979/979/979
f 980/980/980 981/981/981 982/982/982
f 981/981/981 983/983/983 982/982/982
f 982/982/982 983/983/983 984/984/984
f 985/985/985 986/986/986 987/987/987
f 986/986/986 988/988/988 987/987/987
f 987/987/987 988/988/988 989/989/989
f 990/990/990 991/991/991 992/992/992
f 991/991/991 993/993/993 992/992/992
f 992/992/992 993/993/993 994/994/994
##########################

