<?xml version="1.0" encoding="UTF-8"?>
<COLLADA xmlns="http://www.collada.org/2005/11/COLLADASchema" version="1.4.1">
<!--
# File generated by ImageToStl.com - Free Image and 3D model conversion tools
-->
  <asset>
    <contributor>
      <author>ImageToStl.com</author>
      <authoring_tool>ImageToStl.com</authoring_tool>
    </contributor>
    <created>2026-01-03T05:22:59</created>
    <modified>2026-01-03T05:22:59</modified>
    <up_axis>Y_UP</up_axis>
  </asset>
  <library_effects>
    <effect id="effect_0">
        <profile_COMMON>
          <technique sid="common">
            <phong>
              <diffuse>
                <color>0.59894 0.64556 0.85917 1</color>
              </diffuse>
              <specular>
                <color>0.04 0.04 0.04 1</color>
              </specular>
              <shininess>
                <float>106.24</float>
              </shininess>
              <transparency>
                <float>1</float>
              </transparency>
            </phong>
          </technique>
        </profile_COMMON>
    </effect>
  </library_effects>
  <library_materials>
    <material id="mat_0">
      <instance_effect url="#effect_0"/>
    </material>
  </library_materials>
  <library_geometries>
    <geometry id="geometry_6eed1a22_a817_4de9_b33b_2b0dc0326135">
      <mesh>
        <source id="pos_0">
          <float_array id="pos_0-array" count="1302">0.30243003 -0.32251373 0.00586664 0.303175 -0.3228811 0.00549926 0.303175 0.303175 0.00549926 0.30634999 -0.32838038 0 0.30634999 0.30634999 -0 0.30629566 0.30629566 0.00082884 0.30613363 -0.32673687 0.0016435 0.30613363 0.30613363 0.0016435 0.30586663 0.30586663 0.00243004 0.30549926 -0.32520536 0.003175 0.30449012 0.30449012 0.00449013 0.30549926 0.30549926 0.003175 0.3050378 0.3050378 0.00386564 0.30449012 -0.32389024 0.00449013 0.30386564 -0.32334256 0.00503779 0.30164349 -0.32224673 0.00613363 0.30164349 0.30164349 0.00613363 0.30082884 -0.3220847 0.00629567 0.30000001 -0.30000001 0.00635 0.30000001 -0.32203037 0.00635 0.29917115 -0.3220847 0.00629567 0.2983565 -0.30164349 0.00613363 0.2983565 -0.32224673 0.00613363 0.29756996 -0.32251373 0.00586664 0.29682499 -0.303175 0.00549926 0.29682499 -0.3228811 0.00549926 0.29613435 -0.32334256 0.00503779 0.29550987 -0.30449012 0.00449013 0.29550987 -0.32389024 0.00449013 0.2949622 -0.3050378 0.00386564 0.29450074 -0.32520536 0.003175 0.29450074 -0.30549926 0.003175 0.29413337 -0.30586663 0.00243004 0.29386637 -0.32673687 0.0016435 0.29386637 -0.30613363 0.0016435 0.29370433 -0.30629566 0.00082884 0.29365 -0.32838038 0 0.29682499 -0.80000001 0.00549926 0.2983565 -0.80000001 0.00613363 0.2983565 -0.33451399 0.00613363 0.29613435 -0.33341816 0.00503779 0.29550987 -0.80000001 0.00449013 0.29682499 -0.33387962 0.00549926 0.29756996 -0.33424699 0.00586664 0.30000001 -0.80000001 0.00635 0.30164349 -0.80000001 0.00613363 0.30164349 -0.33451399 0.00613363 0.30082884 -0.33467603 0.00629567 0.30000001 -0.33473036 0.00635 0.29917115 -0.33467603 0.00629567 0.30449012 -0.33287048 0.00449013 0.30386564 -0.33341816 0.00503779 0.303175 -0.80000001 0.00549926 0.303175 -0.33387962 0.00549926 0.30243003 -0.33424699 0.00586664 0.30449012 -0.80000001 0.00449013 0.30549926 -0.80000001 0.003175 0.30549926 -0.33155537 0.003175 0.30613363 -0.80000001 0.0016435 0.30613363 -0.33002385 0.0016435 0.30634999 -0.80000001 -0 0.30613363 -0.80000001 -0.0016435 0.30549926 -0.80000001 -0.003175 0.30586663 0.30586663 -0.00243004 0.30613363 0.30613363 -0.0016435 0.30629566 0.30629566 -0.00082884 0.30449012 0.30449012 -0.00449013 0.3050378 0.3050378 -0.00386564 0.30549926 0.30549926 -0.003175 0.29550987 -0.29550987 -0.00449013 0.29682499 0.29682499 -0.00549926 0.29682499 -0.29682499 -0.00549926 0.2983565 0.2983565 -0.00613363 0.2983565 -0.2983565 -0.00613363 0.30000001 0.30000001 -0.00635 0.30000001 -0.30000001 -0.00635 0.30164349 0.30164349 -0.00613363 0.30164349 -0.80000001 -0.00613363 0.303175 0.303175 -0.00549926 0.303175 -0.80000001 -0.00549926 0.30449012 -0.80000001 -0.00449013 0.29450074 0.29450074 -0.003175 0.2949622 0.2949622 -0.00386564 0.29550987 0.29550987 -0.00449013 0.2949622 -0.2949622 -0.00386564 0.29450074 -0.29450074 -0.003175 0.29413337 0.29413337 -0.00243004 0.29386637 0.29386637 -0.0016435 0.29413337 -0.29413337 -0.00243004 0.29386637 -0.29386637 -0.0016435 0.29370433 0.29370433 -0.00082884 0.29365 0.29365 0 0.29370433 -0.29370433 -0.00082884 0.29365 -0.29365 0 0.29370433 0.29370433 0.00082884 0.29386637 0.29386637 0.0016435 0.29370433 -0.29370433 0.00082884 0.29386637 -0.29386637 0.0016435 0.29413337 0.29413337 0.00243004 0.29450074 0.29450074 0.003175 0.29450074 -0.29450074 0.003175 0.2949622 -0.2949622 0.00386564 0.29550987 0.29550987 0.00449013 0.29413337 -0.29413337 0.00243004 0.2949622 0.2949622 0.00386564 0.30000001 0.30000001 0.00635 0.2983565 0.2983565 0.00613363 0.2983565 -0.2983565 0.00613363 0.29682499 0.29682499 0.00549926 0.29682499 -0.29682499 0.00549926 0.29550987 -0.29550987 0.00449013 0.30000001 -0.80000001 -0.00635 0.2983565 -0.80000001 -0.00613363 0.2983565 -0.30164349 -0.00613363 0.29682499 -0.80000001 -0.00549926 0.29682499 -0.303175 -0.00549926 0.29550987 -0.80000001 -0.00449013 0.29550987 -0.30449012 -0.00449013 0.29450074 -0.80000001 -0.003175 0.29450074 -0.30549926 -0.003175 0.2949622 -0.3050378 -0.00386564 0.29365 -0.30634999 0 0.29370433 -0.30629566 -0.00082884 0.29386637 -0.80000001 -0.0016435 0.29386637 -0.30613363 -0.0016435 0.29413337 -0.30586663 -0.00243004 0.29550987 -0.33287048 0.00449013 0.29450074 -0.33155537 0.003175 0.29450074 -0.80000001 0.003175 0.29386637 -0.33002385 0.0016435 0.29386637 -0.80000001 0.0016435 0.29365 -0.80000001 0 -0.303175 -0.80000001 0.00549926 -0.30164349 -0.80000001 0.00613363 -0.30164349 -0.33451399 0.00613363 -0.30386564 -0.33341816 0.00503779 -0.30449012 -0.80000001 0.00449013 -0.303175 -0.33387962 0.00549926 -0.30243003 -0.33424699 0.00586664 -0.30000001 -0.80000001 0.00635 -0.2983565 -0.80000001 0.00613363 -0.2983565 -0.33451399 0.00613363 -0.29917115 -0.33467603 0.00629567 -0.30000001 -0.33473036 0.00635 -0.30082884 -0.33467603 0.00629567 -0.29550987 -0.33287048 0.00449013 -0.29613435 -0.33341816 0.00503779 -0.29682499 -0.80000001 0.00549926 -0.29682499 -0.33387962 0.00549926 -0.29756996 -0.33424699 0.00586664 -0.29450074 -0.32520536 0.003175 -0.29386637 -0.32673687 0.0016435 -0.29386637 -0.30613363 0.0016435 -0.29413337 -0.30586663 0.00243004 -0.29450074 -0.30549926 0.003175 -0.29550987 -0.32389024 0.00449013 -0.2949622 -0.3050378 0.00386564 -0.29550987 -0.30449012 0.00449013 -0.29682499 -0.303175 0.00549926 -0.2983565 -0.30164349 0.00613363 -0.2983565 -0.32224673 0.00613363 -0.29756996 -0.32251373 0.00586664 -0.29682499 -0.3228811 0.00549926 -0.29613435 -0.32334256 0.00503779 -0.30164349 -0.32224673 0.00613363 -0.30082884 -0.3220847 0.00629567 -0.30000001 -0.30000001 0.00635 -0.30000001 -0.32203037 0.00635 -0.29917115 -0.3220847 0.00629567 -0.30243003 -0.32251373 0.00586664 -0.30164349 0.30164349 0.00613363 -0.303175 -0.3228811 0.00549926 -0.303175 0.303175 0.00549926 -0.30386564 -0.32334256 0.00503779 -0.30449012 -0.32389024 0.00449013 -0.30449012 0.30449012 0.00449013 -0.30549926 -0.32520536 0.003175 -0.3050378 0.3050378 0.00386564 -0.30549926 0.30549926 0.003175 -0.30613363 -0.32673687 0.0016435 -0.30586663 0.30586663 0.00243004 -0.30613363 0.30613363 0.0016435 -0.30634999 -0.32838038 -0 -0.30629566 0.30629566 0.00082884 -0.30634999 0.30634999 -0 -0.29550987 -0.29550987 0.00449013 -0.29682499 0.29682499 0.00549926 -0.29682499 -0.29682499 0.00549926 -0.2983565 0.2983565 0.00613363 -0.2983565 -0.2983565 0.00613363 -0.30000001 0.30000001 0.00635 -0.29450074 0.29450074 0.003175 -0.2949622 0.2949622 0.00386564 -0.29550987 0.29550987 0.00449013 -0.2949622 -0.2949622 0.00386564 -0.29450074 -0.29450074 0.003175 -0.29413337 0.29413337 0.00243004 -0.29386637 0.29386637 0.0016435 -0.29413337 -0.29413337 0.00243004 -0.29386637 -0.29386637 0.0016435 -0.29370433 0.29370433 0.00082884 -0.29365 0.29365 0 -0.29370433 -0.29370433 0.00082884 -0.29365 -0.29365 0 -0.29370433 0.29370433 -0.00082884 -0.29386637 0.29386637 -0.0016435 -0.29370433 -0.29370433 -0.00082884 -0.29386637 -0.29386637 -0.0016435 -0.29413337 0.29413337 -0.00243004 -0.29450074 0.29450074 -0.003175 -0.29413337 -0.29413337 -0.00243004 -0.29450074 -0.29450074 -0.003175 -0.2949622 -0.2949622 -0.00386564 -0.29550987 0.29550987 -0.00449013 -0.2949622 0.2949622 -0.00386564 -0.29550987 -0.29550987 -0.00449013 -0.29682499 -0.29682499 -0.00549926 -0.29682499 0.29682499 -0.00549926 -0.2983565 -0.2983565 -0.00613363 -0.2983565 0.2983565 -0.00613363 -0.30000001 -0.30000001 -0.00635 -0.30000001 0.30000001 -0.00635 -0.30164349 0.30164349 -0.00613363 -0.30449012 -0.80000001 -0.00449013 -0.30549926 -0.80000001 -0.003175 -0.3050378 0.3050378 -0.00386564 -0.30449012 -0.33287048 0.00449013 -0.30549926 -0.33155537 0.003175 -0.30549926 -0.80000001 0.003175 -0.30613363 -0.33002385 0.0016435 -0.30613363 -0.80000001 0.0016435 -0.30634999 -0.80000001 -0 -0.30613363 -0.80000001 -0.0016435 -0.30629566 0.30629566 -0.00082884 -0.30613363 0.30613363 -0.0016435 -0.30586663 0.30586663 -0.00243004 -0.30549926 0.30549926 -0.003175 -0.29386637 -0.30613363 -0.0016435 -0.29370433 -0.30629566 -0.00082884 -0.29365 -0.32838038 0 -0.29365 -0.30634999 -0 -0.29370433 -0.30629566 0.00082884 -0.29550987 -0.80000001 0.00449013 -0.29450074 -0.80000001 0.003175 -0.29450074 -0.33155537 0.003175 -0.29386637 -0.80000001 0.0016435 -0.29386637 -0.33002385 0.0016435 -0.29365 -0.80000001 0 -0.29386637 -0.80000001 -0.0016435 -0.29550987 -0.30449012 -0.00449013 -0.2949622 -0.3050378 -0.00386564 -0.29450074 -0.80000001 -0.003175 -0.29450074 -0.30549926 -0.003175 -0.29413337 -0.30586663 -0.00243004 -0.30449012 0.30449012 -0.00449013 -0.303175 0.303175 -0.00549926 -0.303175 -0.80000001 -0.00549926 -0.30164349 -0.80000001 -0.00613363 -0.30000001 -0.80000001 -0.00635 -0.2983565 -0.30164349 -0.00613363 -0.2983565 -0.80000001 -0.00613363 -0.29682499 -0.303175 -0.00549926 -0.29682499 -0.80000001 -0.00549926 -0.29550987 -0.80000001 -0.00449013 -0.29365 -0.29365 0 0.29365 -0.29365 0 -0.29365 -0.30634999 -0 0.29365 -0.30634999 0 -0.30634999 0.30634999 0 -0.29365 0.29365 0 0.29365 0.29365 0 0.30634999 0.30634999 0 0.30000001 -0.80000001 0 0.30634999 -0.80000001 -0 -0.30000001 -0.80000001 0 -0.29365 -0.80000001 0 -0.303175 -0.3228811 0.40000001 -0.30164349 -0.32224673 0.40000001 -0.30449012 -0.32389024 0.40000001 -0.30000001 -0.32203037 0.40000001 -0.2983565 -0.32224673 0.40000001 -0.29682499 -0.3228811 0.40000001 -0.29550987 -0.32389024 0.40000001 -0.29450074 -0.32520536 0.40000001 -0.29386637 -0.32673687 0.40000001 -0.29365 -0.32838038 0.40000001 -0.29365 -0.32838038 0 -0.29386637 -0.33002385 0.40000001 -0.29450074 -0.33155537 0.40000001 -0.29550987 -0.33287048 0.40000001 -0.29682499 -0.33387962 0.40000001 -0.2983565 -0.33451399 0.40000001 -0.30000001 -0.33473036 0.40000001 -0.30164349 -0.33451399 0.40000001 -0.303175 -0.33387962 0.40000001 -0.30549926 -0.32520536 0.40000001 -0.30613363 -0.32673687 0.40000001 -0.30634999 -0.32838038 0 -0.30634999 -0.32838038 0.40000001 -0.30613363 -0.33002385 0.40000001 -0.30549926 -0.33155537 0.40000001 -0.30449012 -0.33287048 0.40000001 -0.30000001 -0.32838038 0.40000001 0.303175 -0.33387962 0.40000001 0.30164349 -0.33451399 0.40000001 0.30449012 -0.33287048 0.40000001 0.30000001 -0.33473036 0.40000001 0.2983565 -0.33451399 0.40000001 0.29682499 -0.33387962 0.40000001 0.29550987 -0.33287048 0.40000001 0.29450074 -0.33155537 0.40000001 0.29386637 -0.33002385 0.40000001 0.29365 -0.32838038 0.40000001 0.29365 -0.32838038 0 0.29386637 -0.32673687 0.40000001 0.29450074 -0.32520536 0.40000001 0.29550987 -0.32389024 0.40000001 0.29682499 -0.3228811 0.40000001 0.2983565 -0.32224673 0.40000001 0.30000001 -0.32203037 0.40000001 0.30164349 -0.32224673 0.40000001 0.303175 -0.3228811 0.40000001 0.30549926 -0.33155537 0.40000001 0.30613363 -0.33002385 0.40000001 0.30634999 -0.32838038 0 0.30634999 -0.32838038 0.40000001 0.30613363 -0.32673687 0.40000001 0.30549926 -0.32520536 0.40000001 0.30449012 -0.32389024 0.40000001 0.30000001 -0.32838038 0.40000001 -0.29365 -0.29365 0.0025 -0.29365 0.29365 0.0025 -0.29365 -0.29365 -0.0025 -0.29365 0.29365 -0.0025 0.29365 -0.29365 0.0025 0.29365 -0.29365 -0.0025 0.29365 0.29365 0.0025 0.29365 0.29365 -0.0025 0.01919034 0.0117888 0.0025 0.15730271 0.174519 0.0025 0.00662553 0.01013461 0.0025 0.14756709 0.16704859 0.0025 -0.00508302 0.00528477 0.0025 -0.01513737 -0.00243021 0.0025 0.13622971 0.1623525 0.0025 0.12406322 0.16075075 0.0025 0.09082372 0.240998 0.0025 0.10055934 0.2484684 0.0025 0.14756709 0.2484684 0.0025 0.15730271 0.240998 0.0025 0.16477312 0.23126237 0.0025 0.16946921 0.219925 0.0025 0.17107096 0.2077585 0.0025 0.16946921 0.195592 0.0025 0.16477312 0.18425462 0.0025 0.03175516 0.01013461 0.0025 0.04346371 0.00528477 0.0025 0.05351806 -0.00243021 0.0025 0.06123304 -0.01248456 0.0025 0.06608288 -0.02419311 0.0025 0.06773707 -0.03675793 0.0025 0.06608288 -0.04932274 0.0025 0.06123304 -0.06103129 0.0025 0.05351806 -0.07108565 0.0025 0.04346371 -0.07880062 0.0025 0.03175516 -0.08365046 0.0025 0.01919034 -0.08530465 0.0025 0.00662553 -0.08365046 0.0025 -0.00508302 -0.07880062 0.0025 0.07705546 0.2077585 0.0025 0.07865722 0.219925 0.0025 0.08335331 0.23126237 0.0025 0.11189672 0.2531645 0.0025 0.12406322 0.25476626 0.0025 0.13622971 0.2531645 0.0025 -0.01513737 -0.07108565 0.0025 -0.02285235 -0.06103129 0.0025 -0.02770219 -0.04932274 0.0025 -0.02935638 -0.03675793 0.0025 -0.02770219 -0.02419311 0.0025 -0.02285235 -0.01248456 0.0025 0.11189672 0.1623525 0.0025 0.10055934 0.16704859 0.0025 0.09082372 0.174519 0.0025 0.08335331 0.18425462 0.0025 0.07865722 0.195592 0.0025 0.10055934 0.2484684 -0.0025 0.09082372 0.240998 -0.0025 0.06608288 -0.02419311 -0.0025 0.07705546 0.2077585 -0.0025 0.06773707 -0.03675793 -0.0025 0.07865722 0.195592 -0.0025 0.08335331 0.18425462 -0.0025 0.16946921 0.219925 -0.0025 0.17107096 0.2077585 -0.0025 0.16946921 0.195592 -0.0025 0.11189672 0.1623525 -0.0025 0.06608288 -0.04932274 -0.0025 0.10055934 0.16704859 -0.0025 0.09082372 0.174519 -0.0025 -0.00508302 0.00528477 -0.0025 -0.01513737 -0.00243021 -0.0025 0.16477312 0.18425462 -0.0025 0.15730271 0.174519 -0.0025 0.16477312 0.23126237 -0.0025 0.15730271 0.240998 -0.0025 0.14756709 0.2484684 -0.0025 0.13622971 0.2531645 -0.0025 0.12406322 0.25476626 -0.0025 0.11189672 0.2531645 -0.0025 0.08335331 0.23126237 -0.0025 0.07865722 0.219925 -0.0025 0.06123304 -0.01248456 -0.0025 0.05351806 -0.00243021 -0.0025 0.04346371 0.00528477 -0.0025 -0.02285235 -0.01248456 -0.0025 -0.02770219 -0.02419311 -0.0025 -0.02935638 -0.03675793 -0.0025 -0.02770219 -0.04932274 -0.0025 -0.02285235 -0.06103129 -0.0025 0.00662553 -0.08365046 -0.0025 0.01919034 -0.08530465 -0.0025 0.03175516 -0.08365046 -0.0025 0.04346371 -0.07880062 -0.0025 -0.01513737 -0.07108565 -0.0025 -0.00508302 -0.07880062 -0.0025 0.05351806 -0.07108565 -0.0025 0.06123304 -0.06103129 -0.0025 0.03175516 0.01013461 -0.0025 0.01919034 0.0117888 -0.0025 0.00662553 0.01013461 -0.0025 0.12406322 0.16075075 -0.0025 0.13622971 0.1623525 -0.0025 0.14756709 0.16704859 -0.0025</float_array>
          <technique_common>
            <accessor source="#pos_0-array" count="1302" stride="3">
              <param name="X" type="float"/>
              <param name="Y" type="float"/>
              <param name="Z" type="float"/>
            </accessor>
          </technique_common>
        </source>
        <source id="norm_0">
          <float_array id="norm_0-array" count="660">0.38268 -0 0.92388 0.5 -0 0.86603 0.5 -0 0.86603 1 -0 0 1 -0 -0 0.99144 -0 0.13053 0.96593 -0 0.25882 0.96593 -0 0.25882 0.92388 -0 0.38268 0.86603 -0 0.5 0.70711 -0 0.70711 0.86603 -0 0.5 0.79335 -0 0.60876 0.70711 -0 0.70711 0.60876 -0 0.79335 0.25882 -0 0.96593 0.25882 -0 0.96593 0.13053 -0 0.99144 -0 -0 1 0 -0 1 -0.13053 -0 0.99144 -0.25882 -0 0.96593 -0.38268 -0 0.92388 -0.5 -0 0.86603 -0.60876 -0 0.79335 -0.70711 -0 0.70711 -0.79335 -0 0.60876 -0.86603 -0 0.5 -0.92388 -0 0.38268 -0.96593 -0 0.25882 -0.99144 -0 0.13053 -1 -0 0 -0.5 0 0.86603 -0.25882 0 0.96593 -0.70711 0 0.70711 0 0 1 0.25882 0 0.96593 0.5 0 0.86603 0.70711 0 0.70711 0.86603 0 0.5 0.96593 0 0.25882 1 0 -0 0.96593 0 -0.25882 0.86603 0 -0.5 0.92388 -0 -0.38268 0.96593 -0 -0.25882 0.99144 -0 -0.13053 0.70711 -0 -0.70711 0.79335 -0 -0.60876 0.86603 -0 -0.5 -0.70711 -0 -0.70711 -0.5 -0 -0.86603 -0.5 -0 -0.86603 -0.25882 -0 -0.96593 -0.25882 -0 -0.96593 0 -0 -1 0 -0 -1 0.25882 -0 -0.96593 0.25882 0 -0.96593 0.5 -0 -0.86603 0.5 0 -0.86603 0.70711 0 -0.70711 -0.86603 -0 -0.5 -0.79335 -0 -0.60876 -0.70711 -0 -0.70711 -0.79335 -0 -0.60876 -0.86603 -0 -0.5 -0.92388 -0 -0.38268 -0.96593 -0 -0.25882 -0.92388 -0 -0.38268 -0.96593 -0 -0.25882 -0.99144 -0 -0.13053 -1 -0 0 -0.99144 -0 -0.13053 -1 -0 0 -0.99144 -0 0.13053 -0.96593 -0 0.25882 -0.92388 -0 0.38268 -0.86603 -0 0.5 -0.70711 -0 0.70711 -0.79335 -0 0.60876 0 -0 1 -0.25882 -0 0.96593 -0.5 -0 0.86603 0 0 -1 -0.25882 0 -0.96593 -0.5 0 -0.86603 -0.70711 0 -0.70711 -0.86603 0 -0.5 -0.96593 0 -0.25882 -0.86603 0 0.5 -0.96593 0 0.25882 -1 0 0 -0.60876 0 0.79335 -0.38268 0 0.92388 0 0 1 0.13053 0 0.99144 -0.13053 0 0.99144 0.60876 0 0.79335 0.38268 0 0.92388 0.92388 0 0.38268 0.79335 0 0.60876 -0.79335 0 0.60876 -0.92388 0 0.38268 -1 0 -0 -0.99144 0 0.13053 -0 0 1 0.99144 0 0.13053 1 0 0 1 0 0 0.99144 0 -0.13053 0.92388 0 -0.38268 0.79335 0 -0.60876 0 0 -1 -0 0 -1 -0.79335 0 -0.60876 -1 0 -0 -0.99144 0 -0.13053 -0.92388 0 -0.38268 1 0 -0 1 0 0 0 0 -1 0 0.86603 0.5 0 0.79335 0.60876 0 0.70711 0.70711 0 0.92388 0.38268 0 0.96593 0.25882 0 0.99144 0.13053 0 1 -0 0 1 0 0 0.99144 -0.13053 0 0.96593 -0.25882 0 0.92388 -0.38268 0 0.86603 -0.5 0 0.79335 -0.60876 0 0.70711 -0.70711 0 -0.70711 -0.70711 0 -0.5 -0.86603 0 -0.25882 -0.96593 0 -0 -1 0 0.25882 -0.96593 0 0.5 -0.86603 0 -0.86603 -0.5 0 -0.79335 -0.60876 0 -0.92388 -0.38268 0 -0.96593 -0.25882 0 -0.99144 -0.13053 0 -1 -0 0 -1 0 0 -0.99144 0.13053 0 -0.96593 0.25882 0 -0.92388 0.38268 0 -0.86603 0.5 0 -0.79335 0.60876 0 -0.70711 0.70711 0 0.5 0.86603 0 0.25882 0.96593 0 -0 1 0 0 1 0 -0.25882 0.96593 0 -0.5 0.86603 -0 1 0 -0 0.99144 0.13053 -0 0.96593 0.25882 -0 0.92388 0.38268 -0 0.86603 0.5 -0 0.79335 0.60876 0 -0 1 0 -1 0 0 -0 -1 -0 0.79335 -0.60876 -0 0.86603 -0.5 -0 0.92388 -0.38268 0 1 0 -0 0.99144 -0.13053 -0 0.96593 -0.25882 0 -1 0 -0.5 0.86603 0 -0.25882 0.96593 0 -0.60876 0.79335 0 -0.70711 0.70711 0 -0.38268 0.92388 0 -0 1 0 0.25882 0.96593 0 0.13053 0.99144 0 -0.13053 0.99144 0 0.70711 0.70711 0 0.60876 0.79335 0 0.5 0.86603 0 0.38268 0.92388 0 0.86603 0.5 0 0.96593 0.25882 0 1 0 0 1 0 0 0.96593 -0.25882 0 0.86603 -0.5 0 0.70711 -0.70711 0 0.5 -0.86603 0 0.25882 -0.96593 0 0.38268 -0.92388 0 0.60876 -0.79335 0 0 -1 0 -0.25882 -0.96593 0 -0.13053 -0.99144 0 0 -1 0 0.13053 -0.99144 0 -0.70711 -0.70711 0 -0.60876 -0.79335 0 -0.5 -0.86603 0 -0.38268 -0.92388 0 -0.86603 0.5 0 -0.96593 0.25882 0 -1 0 0 -0.96593 -0.25882 0 -0.86603 -0.5 0 1 0 0 -1 0 0 -0 -1 0 1 -0 0 0 1 0</float_array>
          <technique_common>
            <accessor source="#norm_0-array" count="660" stride="3">
              <param name="X" type="float"/>
              <param name="Y" type="float"/>
              <param name="Z" type="float"/>
            </accessor>
          </technique_common>
        </source>
        <vertices id="vert_0">
          <input semantic="POSITION" source="#pos_0"/>
        </vertices>
        <triangles count="844" material="mat_0">
          <input semantic="VERTEX" source="#vert_0" offset="0"/>
          <input semantic="NORMAL" source="#norm_0" offset="1"/>
          <p>0 0 1 1 2 2 3 3 4 4 5 5 3 3 5 5 6 6 5 5 7 7 6 6 6 6 7 7 8 8 6 6 8 8 9 9 2 2 1 1 10 10 8 8 11 11 9 9 9 9 11 11 12 12 9 9 12 12 13 13 13 13 12 12 10 10 13 13 10 10 14 14 14 14 10 10 1 1 0 0 2 2 15 15 15 15 2 2 16 16 15 15 16 16 17 17 17 17 16 16 18 18 17 17 18 18 19 19 19 19 18 18 20 20 20 20 18 18 21 21 20 20 21 21 22 21 22 21 21 21 23 22 23 22 21 21 24 23 23 22 24 23 25 23 25 23 24 23 26 24 26 24 24 23 27 25 26 24 27 25 28 25 28 25 27 25 29 26 28 25 29 26 30 27 29 26 31 27 30 27 30 27 31 27 32 28 30 27 32 28 33 29 32 28 34 29 33 29 33 29 34 29 35 30 33 29 35 30 36 31 37 32 38 33 39 21 40 24 41 34 42 23 42 23 41 34 37 32 42 23 37 32 43 22 43 22 37 32 39 21 44 35 45 36 46 15 46 15 47 17 44 35 44 35 47 17 48 19 44 35 48 19 38 33 38 33 48 19 49 20 38 33 49 20 39 21 50 13 51 14 52 37 52 37 51 14 53 1 52 37 53 1 45 36 45 36 53 1 54 0 45 36 54 0 46 15 52 37 55 38 50 13 50 13 55 38 56 39 50 13 56 39 57 9 57 9 56 39 58 40 57 9 58 40 59 6 59 6 58 40 60 41 59 6 60 41 3 3 3 3 60 41 61 42 62 43 63 44 61 42 61 42 63 44 64 45 61 42 64 45 3 3 3 3 64 45 65 46 3 3 65 46 4 4 66 47 67 48 62 43 62 43 67 48 68 49 62 43 68 49 63 44 69 50 70 51 71 52 71 52 70 51 72 53 71 52 72 53 73 54 73 54 72 53 74 55 73 54 74 55 75 56 75 56 74 55 76 57 75 56 76 57 77 58 77 58 76 57 78 59 77 58 78 59 79 60 79 60 78 59 66 47 79 60 66 47 80 61 80 61 66 47 62 43 81 62 82 63 69 50 69 50 82 63 83 64 69 50 83 64 70 51 69 50 84 65 81 62 81 62 84 65 85 66 81 62 85 66 86 67 86 67 85 66 87 68 85 66 88 69 87 68 87 68 88 69 89 70 87 68 89 70 90 71 90 71 89 70 91 72 89 70 92 73 91 72 91 72 92 73 93 74 91 72 93 74 94 75 94 75 93 74 95 76 93 74 96 30 95 76 95 76 96 30 97 29 95 76 97 29 98 77 98 77 97 29 99 78 100 27 101 26 102 79 97 29 103 28 99 78 99 78 103 28 100 27 99 78 100 27 104 80 104 80 100 27 102 79 16 16 105 81 18 18 18 18 105 81 106 82 18 18 106 82 107 21 107 21 106 82 108 83 107 21 108 83 109 23 109 23 108 83 102 79 109 23 102 79 110 25 110 25 102 79 101 26 77 58 111 84 75 56 75 56 111 84 112 85 75 56 112 85 113 54 113 54 112 85 114 86 113 54 114 86 115 52 115 52 114 86 116 87 115 52 116 87 117 50 118 88 119 66 116 87 116 87 119 66 120 65 116 87 120 65 117 50 35 30 121 74 36 31 36 31 121 74 122 73 36 31 122 73 123 89 123 89 122 73 124 70 123 89 124 70 118 88 118 88 124 70 125 69 118 88 125 69 119 66 40 24 126 25 41 34 41 34 126 25 127 27 41 34 127 27 128 90 128 90 127 27 129 29 128 90 129 29 130 91 130 91 129 29 36 31 130 91 36 31 131 92 131 92 36 31 123 89 132 32 133 33 134 33 135 93 136 34 137 32 137 32 136 34 132 32 137 32 132 32 138 94 138 94 132 32 134 33 139 95 140 36 141 36 141 36 142 96 139 95 139 95 142 96 143 95 139 95 143 95 133 33 133 33 143 95 144 97 133 33 144 97 134 33 145 38 146 98 147 37 147 37 146 98 148 37 147 37 148 37 140 36 140 36 148 37 149 99 140 36 149 99 141 36 150 39 151 40 152 40 152 40 153 100 150 39 150 39 153 100 154 39 150 39 154 39 155 38 155 38 154 39 156 101 155 38 156 101 157 38 158 37 159 36 160 36 160 36 161 99 158 37 158 37 161 99 162 37 158 37 162 37 157 38 157 38 162 37 163 98 157 38 163 98 155 38 164 33 165 97 166 95 166 95 165 97 167 95 166 95 167 95 159 36 159 36 167 95 168 96 159 36 168 96 160 36 169 94 170 33 171 32 171 32 170 33 172 32 171 32 172 32 173 93 173 93 172 32 174 34 174 34 172 32 175 34 174 34 175 34 176 90 175 34 177 102 176 90 176 90 177 102 178 90 176 90 178 90 179 91 178 90 180 103 179 91 179 91 180 103 181 91 179 91 181 91 182 104 182 104 181 91 183 105 182 104 183 105 184 104 185 38 186 37 187 37 187 37 186 37 188 36 187 37 188 36 189 36 189 36 188 36 190 106 189 36 190 106 166 95 166 95 190 106 170 33 166 95 170 33 164 33 164 33 170 33 169 94 191 39 192 101 185 38 185 38 192 101 193 38 185 38 193 38 186 37 185 38 194 101 191 39 191 39 194 101 195 39 191 39 195 39 196 100 196 100 195 39 197 40 195 39 198 100 197 40 197 40 198 100 199 40 197 40 199 40 200 107 200 107 199 40 201 108 199 40 202 107 201 108 201 108 202 107 203 109 201 108 203 109 204 110 204 110 203 109 205 42 203 109 206 110 205 42 205 42 206 110 207 42 205 42 207 42 208 111 208 111 207 42 209 43 209 43 207 42 210 111 209 43 210 111 211 43 212 112 213 61 211 43 211 43 213 61 214 112 211 43 214 112 209 43 212 112 215 61 213 61 213 61 215 61 216 60 213 61 216 60 217 60 217 60 216 60 218 58 217 60 218 58 219 58 219 58 218 58 220 113 219 58 220 113 221 114 221 114 220 113 222 85 223 87 224 88 225 115 135 93 226 34 136 34 136 34 226 34 227 90 136 34 227 90 228 90 228 90 227 90 229 91 228 90 229 91 230 91 230 91 229 91 182 104 230 91 182 104 231 116 231 116 182 104 232 89 184 104 233 117 182 104 182 104 233 117 234 89 182 104 234 89 232 89 232 89 234 89 235 118 232 89 235 118 224 88 224 88 235 118 236 88 224 88 236 88 225 115 237 42 238 110 239 109 239 109 238 110 240 119 239 109 240 119 151 40 151 40 240 119 241 107 151 40 241 107 152 40 147 37 242 38 145 38 145 38 242 38 243 39 145 38 243 39 244 39 244 39 243 39 245 40 244 39 245 40 246 40 246 40 245 40 247 120 246 40 247 120 239 109 239 109 247 120 248 42 239 109 248 42 237 42 249 61 250 112 251 43 251 43 250 112 252 43 251 43 252 43 248 42 248 42 252 43 253 111 248 42 253 111 237 42 225 115 254 87 223 87 223 87 254 87 255 86 223 87 255 86 256 86 256 86 255 86 222 85 256 86 222 85 257 85 257 85 222 85 220 113 257 85 220 113 258 121 258 121 220 113 259 58 258 121 259 58 260 58 260 58 259 58 261 60 260 58 261 60 262 60 262 60 261 60 249 61 262 60 249 61 263 61 263 61 249 61 251 43 195 122 194 123 110 124 110 124 101 123 195 122 195 122 101 123 100 122 195 122 100 122 198 125 198 125 100 122 199 126 100 122 103 125 199 126 199 126 103 125 97 126 199 126 97 126 202 127 202 127 97 126 264 128 97 126 96 127 264 128 264 128 96 127 265 129 264 128 265 129 206 130 206 130 265 129 207 131 265 129 92 130 207 131 207 131 92 130 89 131 207 131 89 131 210 132 210 132 89 131 211 133 85 133 84 134 215 135 89 131 88 132 211 133 211 133 88 132 85 133 211 133 85 133 212 134 212 134 85 133 215 135 117 136 261 137 115 137 115 137 261 137 259 138 115 137 259 138 113 138 113 138 259 138 220 139 113 138 220 139 75 56 75 56 220 139 218 140 75 56 218 140 73 140 73 140 218 140 216 141 73 140 216 141 71 141 71 141 216 141 215 135 71 141 215 135 69 135 69 135 215 135 84 134 252 142 250 143 117 136 117 136 250 143 249 136 117 136 249 136 261 137 117 136 120 143 252 142 252 142 120 143 119 142 252 142 119 142 253 144 253 144 119 142 237 145 119 142 125 144 237 145 237 145 125 144 124 145 237 145 124 145 238 146 238 146 124 145 266 147 124 145 122 146 266 147 266 147 122 146 267 148 266 147 267 148 241 149 241 149 267 148 152 150 267 148 35 149 152 150 152 150 35 149 34 150 152 150 34 150 153 151 153 151 34 150 154 152 31 152 29 153 157 154 34 150 32 151 154 152 154 152 32 151 31 152 154 152 31 152 156 153 156 153 31 152 157 154 194 123 185 124 110 124 110 124 185 124 187 155 110 124 187 155 109 155 109 155 187 155 189 156 109 155 189 156 107 156 107 156 189 156 166 157 107 156 166 157 18 158 18 158 166 157 159 159 18 158 159 159 21 159 21 159 159 159 158 160 21 159 158 160 24 160 24 160 158 160 157 154 24 160 157 154 27 154 27 154 157 154 29 153 208 144 209 142 81 142 204 146 205 145 87 145 5 127 268 161 183 162 5 127 183 162 7 126 183 162 181 163 7 126 7 126 181 163 180 164 7 126 180 164 8 125 8 125 180 164 178 165 8 125 178 165 11 122 11 122 178 165 177 166 11 122 177 166 12 123 12 123 177 166 10 124 104 153 102 154 193 154 193 154 102 154 108 160 193 154 108 160 186 160 186 160 108 160 106 159 186 160 106 159 188 159 188 159 106 159 105 167 188 159 105 167 190 167 190 167 105 167 16 156 190 167 16 156 170 156 170 156 16 156 2 155 170 156 2 155 172 155 172 155 2 155 10 124 172 155 10 124 175 124 175 124 10 124 177 166 104 153 193 154 99 152 99 152 193 154 192 153 99 152 192 153 191 152 196 151 197 150 95 150 196 151 95 150 191 152 191 152 95 150 98 151 191 152 98 151 99 152 200 149 269 168 270 168 200 149 270 168 197 150 197 150 270 168 94 149 197 150 94 149 95 150 204 146 87 145 269 168 269 168 87 145 90 146 269 168 90 146 270 168 208 144 81 142 205 145 205 145 81 142 86 144 205 145 86 144 87 145 214 143 83 136 209 142 209 142 83 136 82 143 209 142 82 143 81 142 214 143 213 136 83 136 83 136 213 136 217 137 83 136 217 137 70 137 70 137 217 137 219 138 70 137 219 138 72 138 72 138 219 138 221 169 72 138 221 169 74 169 74 169 221 169 222 140 74 169 222 140 76 140 76 140 222 140 255 141 76 140 255 141 78 141 78 141 255 141 254 135 78 141 254 135 66 135 66 135 254 135 67 134 67 134 254 135 225 170 67 134 225 170 68 133 68 133 225 170 236 171 68 133 236 171 63 132 63 132 236 171 235 172 63 132 235 172 64 131 5 127 271 173 268 161 268 161 271 173 65 130 268 161 65 130 233 174 233 174 65 130 64 131 233 174 64 131 234 175 234 175 64 131 235 172 62 176 61 176 272 176 272 176 61 176 273 176 272 176 273 176 58 176 77 176 79 176 272 176 272 176 79 176 80 176 272 176 80 176 62 176 114 176 112 176 272 176 272 176 112 176 111 176 272 176 111 176 77 176 123 176 118 176 272 176 272 176 118 176 116 176 272 176 116 176 114 176 128 176 130 176 272 176 272 176 130 176 131 176 272 176 131 176 123 176 38 176 37 176 272 176 272 176 37 176 41 176 272 176 41 176 128 176 52 176 45 176 272 176 272 176 45 176 44 176 272 176 44 176 38 176 58 176 56 176 272 176 272 176 56 176 55 176 272 176 55 176 52 176 251 176 248 176 274 176 274 176 248 176 275 176 274 176 275 176 245 176 260 176 262 176 274 176 274 176 262 176 263 176 274 176 263 176 251 176 256 176 257 176 274 176 274 176 257 176 258 176 274 176 258 176 260 176 232 176 224 176 274 176 274 176 224 176 223 176 274 176 223 176 256 176 228 176 230 176 274 176 274 176 230 176 231 176 274 176 231 176 232 176 133 176 132 176 274 176 274 176 132 176 136 176 274 176 136 176 228 176 147 176 140 176 274 176 274 176 140 176 139 176 274 176 139 176 133 176 245 176 243 176 274 176 274 176 243 176 242 176 274 176 242 176 147 176 276 177 277 178 164 178 173 179 278 180 171 177 171 177 278 180 276 177 171 177 276 177 169 181 169 181 276 177 164 178 279 182 280 183 160 183 160 183 168 184 279 182 279 182 168 184 167 173 279 182 167 173 277 178 277 178 167 173 165 185 277 178 165 185 164 178 155 186 163 187 281 188 281 188 163 187 162 188 281 188 162 188 280 183 280 183 162 188 161 189 280 183 161 189 160 183 281 188 282 186 155 186 155 186 282 186 283 190 155 186 283 190 150 190 150 190 283 190 284 191 150 190 284 191 151 191 151 191 284 191 285 192 151 191 285 192 286 193 286 193 285 192 287 194 286 193 287 194 246 194 246 194 287 194 288 195 246 194 288 195 244 195 244 195 288 195 289 196 244 195 289 196 145 196 290 197 291 198 141 198 141 198 149 199 290 197 290 197 149 199 148 197 290 197 148 197 289 196 289 196 148 197 146 200 289 196 146 200 145 196 292 201 293 202 134 202 134 202 144 203 292 201 292 201 144 203 143 204 292 201 143 204 291 198 291 198 143 204 142 205 291 198 142 205 141 198 226 206 135 207 294 208 294 208 135 207 137 208 294 208 137 208 293 202 293 202 137 208 138 209 293 202 138 209 134 202 173 179 174 180 278 180 278 180 174 180 176 210 278 180 176 210 295 210 295 210 176 210 179 211 295 210 179 211 296 211 296 211 179 211 297 212 296 211 297 212 298 212 298 212 297 212 229 213 298 212 229 213 299 213 299 213 229 213 227 214 299 213 227 214 300 214 300 214 227 214 226 206 300 214 226 206 301 206 301 206 226 206 294 208 288 95 287 95 302 95 302 95 287 95 285 95 302 95 285 95 284 95 291 95 290 95 302 95 302 95 290 95 289 95 302 95 289 95 288 95 294 95 293 95 302 95 302 95 293 95 292 95 302 95 292 95 291 95 299 95 300 95 302 95 302 95 300 95 301 95 302 95 301 95 294 95 295 95 296 95 302 95 302 95 296 95 298 95 302 95 298 95 299 95 277 95 276 95 302 95 302 95 276 95 278 95 302 95 278 95 295 95 281 95 280 95 302 95 302 95 280 95 279 95 302 95 279 95 277 95 284 95 283 95 302 95 302 95 283 95 282 95 302 95 282 95 281 95 303 197 304 198 46 198 51 200 305 196 53 197 53 197 305 196 303 197 53 197 303 197 54 199 54 199 303 197 46 198 306 201 307 202 39 202 39 202 49 203 306 201 306 201 49 203 48 204 306 201 48 204 304 198 304 198 48 204 47 205 304 198 47 205 46 198 126 206 40 207 308 208 308 208 40 207 42 208 308 208 42 208 307 202 307 202 42 208 43 209 307 202 43 209 39 202 308 208 309 206 126 206 126 206 309 206 310 214 126 206 310 214 127 214 127 214 310 214 311 213 127 214 311 213 129 213 129 213 311 213 312 212 129 213 312 212 313 212 313 212 312 212 314 211 313 212 314 211 33 211 33 211 314 211 315 210 33 211 315 210 30 210 30 210 315 210 316 180 30 210 316 180 28 180 317 177 318 178 22 178 22 178 23 181 317 177 317 177 23 181 25 177 317 177 25 177 316 180 316 180 25 177 26 179 316 180 26 179 28 180 319 182 320 183 15 183 15 183 17 184 319 182 319 182 17 184 19 173 319 182 19 173 318 178 318 178 19 173 20 185 318 178 20 185 22 178 13 186 14 187 321 188 321 188 14 187 1 188 321 188 1 188 320 183 320 183 1 188 0 189 320 183 0 189 15 183 51 200 50 196 305 196 305 196 50 196 57 195 305 196 57 195 322 195 322 195 57 195 59 194 322 195 59 194 323 194 323 194 59 194 324 215 323 194 324 215 325 192 325 192 324 215 6 191 325 192 6 191 326 191 326 191 6 191 9 190 326 191 9 190 327 190 327 190 9 190 13 186 327 190 13 186 328 186 328 186 13 186 321 188 315 95 314 95 329 95 329 95 314 95 312 95 329 95 312 95 311 95 318 95 317 95 329 95 329 95 317 95 316 95 329 95 316 95 315 95 321 95 320 95 329 95 329 95 320 95 319 95 329 95 319 95 318 95 326 95 327 95 329 95 329 95 327 95 328 95 329 95 328 95 321 95 322 95 323 95 329 95 329 95 323 95 325 95 329 95 325 95 326 95 304 95 303 95 329 95 329 95 303 95 305 95 329 95 305 95 322 95 308 95 307 95 329 95 329 95 307 95 306 95 329 95 306 95 304 95 311 95 310 95 329 95 329 95 310 95 309 95 329 95 309 95 308 95 330 212 331 212 332 212 332 212 331 212 333 212 334 204 330 204 335 204 335 204 330 204 332 204 336 193 334 193 337 193 337 193 334 193 335 193 331 173 336 173 333 173 333 173 336 173 337 173 338 95 339 95 340 95 340 95 339 95 341 95 340 95 341 95 342 95 342 95 341 95 343 95 343 95 341 95 344 95 343 95 344 95 345 95 346 95 347 95 331 95 348 95 349 95 336 95 336 95 349 95 350 95 336 95 350 95 351 95 351 95 352 95 336 95 336 95 352 95 353 95 336 95 353 95 354 95 338 95 355 95 339 95 339 95 355 95 356 95 339 95 356 95 354 95 354 95 356 95 357 95 354 95 357 95 336 95 357 95 358 95 336 95 336 95 358 95 359 95 336 95 359 95 334 95 334 95 359 95 360 95 334 95 360 95 361 95 361 95 362 95 334 95 334 95 362 95 363 95 334 95 363 95 364 95 364 95 365 95 334 95 334 95 365 95 366 95 334 95 366 95 330 95 330 95 366 95 367 95 330 95 367 95 368 95 369 95 370 95 331 95 331 95 370 95 371 95 331 95 371 95 346 95 347 95 372 95 331 95 331 95 372 95 373 95 331 95 373 95 336 95 336 95 373 95 374 95 336 95 374 95 348 95 368 95 375 95 330 95 330 95 375 95 376 95 330 95 376 95 377 95 377 95 378 95 330 95 330 95 378 95 379 95 330 95 379 95 380 95 345 95 381 95 343 95 343 95 381 95 382 95 343 95 382 95 380 95 380 95 382 95 383 95 380 95 383 95 330 95 330 95 383 95 384 95 330 95 384 95 331 95 331 95 384 95 385 95 331 95 385 95 369 95 333 84 386 84 387 84 388 84 389 84 390 84 390 84 389 84 391 84 390 84 391 84 392 84 393 84 337 84 394 84 394 84 337 84 395 84 396 84 397 84 398 84 398 84 397 84 390 84 398 84 390 84 399 84 399 84 390 84 392 84 400 84 401 84 333 84 395 84 337 84 402 84 402 84 337 84 335 84 402 84 335 84 403 84 393 84 404 84 337 84 337 84 404 84 405 84 337 84 405 84 406 84 406 84 407 84 337 84 337 84 407 84 408 84 337 84 408 84 333 84 333 84 408 84 409 84 333 84 409 84 386 84 387 84 410 84 333 84 333 84 410 84 411 84 333 84 411 84 389 84 388 84 412 84 389 84 389 84 412 84 413 84 389 84 413 84 414 84 401 84 415 84 333 84 333 84 415 84 416 84 333 84 416 84 332 84 416 84 417 84 332 84 332 84 417 84 418 84 332 84 418 84 419 84 335 84 332 84 420 84 420 84 421 84 335 84 335 84 421 84 422 84 335 84 422 84 423 84 419 84 424 84 332 84 332 84 424 84 425 84 332 84 425 84 420 84 423 84 426 84 335 84 335 84 426 84 427 84 335 84 427 84 397 84 414 84 428 84 389 84 389 84 428 84 429 84 389 84 429 84 333 84 333 84 429 84 430 84 333 84 430 84 400 84 396 84 431 84 397 84 397 84 431 84 432 84 397 84 432 84 335 84 335 84 432 84 433 84 335 84 433 84 403 84 394 216 352 216 393 213 393 213 352 216 351 213 393 213 351 213 404 214 404 214 351 213 350 214 404 214 350 214 405 206 405 206 350 214 349 206 405 206 349 206 406 208 406 208 349 206 348 208 406 208 348 208 407 202 407 202 348 208 374 202 407 202 374 202 408 217 408 217 374 202 373 217 408 217 373 217 409 198 409 198 373 217 372 198 409 198 372 198 386 197 386 197 372 198 347 197 386 197 347 197 387 196 387 196 347 197 346 196 387 196 346 196 410 195 410 195 346 196 371 195 410 195 371 195 411 194 411 194 371 195 370 194 411 194 370 194 389 218 389 218 370 194 369 218 389 218 369 218 391 191 391 191 369 218 385 191 391 191 385 191 392 190 392 190 385 191 384 190 392 190 384 190 399 186 399 186 384 190 383 186 399 186 383 186 398 188 398 188 383 186 382 188 398 188 382 188 396 183 396 183 382 188 381 183 396 183 381 183 431 219 431 219 381 183 345 219 431 219 345 219 432 178 432 178 345 219 344 178 432 178 344 178 433 177 433 177 344 178 341 177 433 177 341 177 403 180 403 180 341 177 339 180 403 180 339 180 402 210 402 210 339 180 354 210 402 210 354 210 395 211 395 211 354 210 353 211 395 211 353 211 394 216 394 216 353 211 352 216 390 216 360 216 388 213 388 213 360 216 359 213 388 213 359 213 412 214 412 214 359 213 358 214 412 214 358 214 413 206 413 206 358 214 357 206 413 206 357 206 414 208 414 208 357 206 356 208 414 208 356 208 428 202 428 202 356 208 355 202 428 202 355 202 429 217 429 217 355 202 338 217 429 217 338 217 430 198 430 198 338 217 340 198 430 198 340 198 400 197 400 197 340 198 342 197 400 197 342 197 401 196 401 196 342 197 343 196 401 196 343 196 415 195 415 195 343 196 380 195 415 195 380 195 416 194 416 194 380 195 379 194 416 194 379 194 417 218 417 218 379 194 378 218 417 218 378 218 418 191 418 191 378 218 377 191 418 191 377 191 419 190 419 190 377 191 376 190 419 190 376 190 424 186 424 186 376 190 375 186 424 186 375 186 425 188 425 188 375 186 368 188 425 188 368 188 420 183 420 183 368 188 367 183 420 183 367 183 421 219 421 219 367 183 366 219 421 219 366 219 422 178 422 178 366 219 365 178 422 178 365 178 423 177 423 177 365 178 364 177 423 177 364 177 426 180 426 180 364 177 363 180 426 180 363 180 427 210 427 210 363 180 362 210 427 210 362 210 397 211 397 211 362 210 361 211 397 211 361 211 390 216 390 216 361 211 360 216</p>
        </triangles>
      </mesh>
    </geometry>
  </library_geometries>
  <library_visual_scenes>
    <visual_scene id="DefaultScene">
      <node id="node_e04dfad2_40a6_4cda_806b_d491fef7cd81" type="NODE">
        <matrix>1 0 0 0 0 1 0 0 0 0 1 0 0 0 0 1</matrix>
        <node id="node_f18fa197_4588_4c2f_ac59_e51e49db42b1" type="NODE">
          <matrix>1 0 0 0 0 1 0 0 0 0 1 0 0 0 0 1</matrix>
          <node id="node_773516bd_7b7f_4670_8d41_aa75af88735b" type="NODE">
            <matrix>0.9515700936317444 0.2605361044406891 0.163203164935112 0.4652358293533325 -0.2933464050292969 0.9283150434494019 0.2284274399280548 0.4043426811695099 -0.09199035167694092 -0.26523977518081665 0.9597841501235962 2.932837963104248 0 0 0 1</matrix>
          </node>
          <node id="node_4cb09e95_25b2_4c98_b2ac_ae7f659c1bf8" type="NODE">
            <matrix>1 0 0 0 0 1 0 0 0 0 1 0 0 0 0 1</matrix>
            <node id="node_4cb09e95_25b2_4c98_b2ac_ae7f659c1bf8_mesh0" type="NODE">
              <matrix>1 0 0 0 0 1 0 0 0 0 1 0 0 0 0 1</matrix>
              <instance_geometry url="#geometry_6eed1a22_a817_4de9_b33b_2b0dc0326135">
                <bind_material>
                  <technique_common>
                    <instance_material symbol="mat_0" target="#mat_0"/>
                  </technique_common>
                </bind_material>
              </instance_geometry>
            </node>
          </node>
        </node>
      </node>
    </visual_scene>
  </library_visual_scenes>
  <scene>
    <instance_visual_scene url="#DefaultScene"/>
  </scene>
</COLLADA>
