<?xml version="1.0" encoding="UTF-8"?>
<COLLADA xmlns="http://www.collada.org/2005/11/COLLADASchema" version="1.4.1">
<!--
# File generated by ImageToStl.com - Free Image and 3D model conversion tools
-->
  <asset>
    <contributor>
      <author>ImageToStl.com</author>
      <authoring_tool>ImageToStl.com</authoring_tool>
    </contributor>
    <created>2026-01-03T05:22:25</created>
    <modified>2026-01-03T05:22:25</modified>
    <up_axis>Y_UP</up_axis>
  </asset>
  <library_effects>
    <effect id="effect_0">
        <profile_COMMON>
          <technique sid="common">
            <phong>
              <diffuse>
                <color>1 0.35374 0.05637 1</color>
              </diffuse>
              <specular>
                <color>0.04 0.04 0.04 1</color>
              </specular>
              <shininess>
                <float>106.24</float>
              </shininess>
              <transparency>
                <float>1</float>
              </transparency>
            </phong>
          </technique>
        </profile_COMMON>
    </effect>
    <effect id="effect_1">
        <profile_COMMON>
          <technique sid="common">
            <phong>
              <diffuse>
                <color>1 1 1 1</color>
              </diffuse>
              <specular>
                <color>0.04 0.04 0.04 1</color>
              </specular>
              <shininess>
                <float>38.4</float>
              </shininess>
              <transparency>
                <float>1</float>
              </transparency>
            </phong>
          </technique>
        </profile_COMMON>
    </effect>
  </library_effects>
  <library_materials>
    <material id="mat_0">
      <instance_effect url="#effect_0"/>
    </material>
    <material id="mat_1">
      <instance_effect url="#effect_1"/>
    </material>
  </library_materials>
  <library_geometries>
    <geometry id="geometry_d4f52aa5_b037_464f_84bf_c8715e84f976">
      <mesh>
        <source id="pos_0">
          <float_array id="pos_0-array" count="534">-0 0.01 -0.075 -0 0 -0.075 -0.01559338 0 -0.07336107 -0.01559338 0.01 -0.07336107 -0.03050525 0 -0.06851591 -0.03050525 0.01 -0.06851591 -0.04408389 0 -0.06067627 -0.04408389 0.01 -0.06067627 -0.05573586 0 -0.05018479 -0.05573586 0.01 -0.05018479 -0.0649519 0 -0.0375 -0.0649519 0.01 -0.0375 -0.07132924 0 -0.02317628 -0.07132924 0.01 -0.02317628 -0.07458914 0 -0.00783964 -0.07458914 0.01 -0.00783964 -0.07458914 0 0.00783964 -0.07458914 0.01 0.00783964 -0.07132924 0 0.02317628 -0.07132924 0.01 0.02317628 -0.0649519 0 0.0375 -0.0649519 0.01 0.0375 -0.05573586 0 0.05018479 -0.05573586 0.01 0.05018479 -0.04408389 0 0.06067627 -0.04408389 0.01 0.06067627 -0.03050525 0 0.06851591 -0.03050525 0.01 0.06851591 -0.01559338 0 0.07336107 -0.01559338 0.01 0.07336107 0 0 0.075 0 0.01 0.075 0.45719999 0.01 0.075 0.45719999 0 0.075 0.47279337 0 0.07336107 0.47279337 0.01 0.07336107 0.48770526 0 0.06851591 0.48770526 0.01 0.06851591 0.50128388 0 0.06067627 0.50128388 0.01 0.06067627 0.51293588 0 0.05018479 0.51293588 0.01 0.05018479 0.52215189 0 0.0375 0.52215189 0.01 0.0375 0.52852923 0 0.02317628 0.52852923 0.01 0.02317628 0.53178912 0 0.00783964 0.53178912 0.01 0.00783964 0.53178912 0 -0.00783964 0.53178912 0.01 -0.00783964 0.52852923 0 -0.02317628 0.52852923 0.01 -0.02317628 0.52215189 0 -0.0375 0.52215189 0.01 -0.0375 0.51293588 0 -0.05018479 0.51293588 0.01 -0.05018479 0.50128388 0 -0.06067627 0.50128388 0.01 -0.06067627 0.48770526 0 -0.06851591 0.48770526 0.01 -0.06851591 0.47279337 0 -0.07336107 0.47279337 0.01 -0.07336107 0.45719999 0 -0.075 0.45719999 0.01 -0.075 0 0.01 -0.075 0 0 -0.075 0.42669475 0.01 0.06851591 0 0.01 0.075 0.44160661 0.01 0.07336107 0.4131161 0.01 0.06067627 0.40146413 0.01 0.05018479 0.39224809 0.01 0.0375 0.4131161 0.01 -0.06067627 0.40146413 0.01 -0.05018479 0.39224809 0.01 -0.0375 0.38261086 0.01 0.00783964 0.38587075 0.01 0.02317628 0.38261086 0.01 -0.00783964 0.42669475 0.01 -0.06851591 0.44160661 0.01 -0.07336107 0.38587075 0.01 -0.02317628 -0.0042905 0 0.01601238 -0 0 0.01657723 0 0 0.075 0.01601238 0 -0.0042905 0.01435631 0 -0.00828862 0.01172187 0 -0.01172187 0.00828862 0 -0.01435631 0.0042905 0 -0.01601238 0 0 -0.01657723 -0.0042905 0 -0.01601238 -0.00828862 0 -0.01435631 -0.01172187 0 -0.01172187 -0.01601238 0 0.0042905 -0.01657723 0 -0 -0.01601238 0 -0.0042905 -0.01435631 0 -0.00828862 0.0042905 0 0.01601238 0.00828862 0 0.01435631 0.01172187 0 0.01172187 0.01435631 0 0.00828862 0.01657723 0 0 -0.00828862 0 0.01435631 -0.01172187 0 0.01172187 -0.01435631 0 0.00828862 0.01601238 0 0.0042905 0.91439998 0.01 -0.075 0.9186905 0.01 -0.01601238 0.91439998 0.01 -0.01657723 0.91010952 0.01 -0.01601238 0.93041235 0.01 -0.0042905 0.98898911 0.01 -0.00783964 0.93097723 0.01 0 0.98898911 0.01 0.00783964 0.93041235 0.01 0.0042905 0.98572922 0.01 0.02317628 0.9287563 0.01 0.00828862 0.97935188 0.01 0.0375 0.92612189 0.01 0.01172187 0.92999339 0.01 -0.07336107 0.94490522 0.01 -0.06851591 0.9226886 0.01 -0.01435631 0.95848387 0.01 -0.06067627 0.92612189 0.01 -0.01172187 0.97013587 0.01 -0.05018479 0.9287563 0.01 -0.00828862 0.97935188 0.01 -0.0375 0.98572922 0.01 -0.02317628 0.89838761 0.01 -0.0042905 0.89838761 0.01 0.0042905 0.90004367 0.01 0.00828862 0.90267813 0.01 0.01172187 0.90611136 0.01 0.01435631 0.91439998 0.01 0.075 0.90611136 0.01 -0.01435631 0.90267813 0.01 -0.01172187 0.90004367 0.01 -0.00828862 0.89782274 0.01 -0 0.91010952 0.01 0.01601238 0.91439998 0.01 0.01657723 0.92999339 0.01 0.07336107 0.9186905 0.01 0.01601238 0.94490522 0.01 0.06851591 0.9226886 0.01 0.01435631 0.95848387 0.01 0.06067627 0.97013587 0.01 0.05018479 0.45719999 0.02 -0.075 0.44160661 0.02 -0.07336107 0.42669475 0.02 -0.06851591 0.4131161 0.02 -0.06067627 0.40146413 0.02 -0.05018479 0.39224809 0.02 -0.0375 0.38587075 0.02 -0.02317628 0.38261086 0.02 -0.00783964 0.38261086 0.02 0.00783964 0.38587075 0.02 0.02317628 0.39224809 0.02 0.0375 0.40146413 0.02 0.05018479 0.4131161 0.02 0.06067627 0.42669475 0.02 0.06851591 0.44160661 0.02 0.07336107 0.45719999 0.02 0.075 0.91439998 0.02 0.075 0.92999339 0.02 0.07336107 0.94490522 0.02 0.06851591 0.95848387 0.02 0.06067627 0.97013587 0.02 0.05018479 0.97935188 0.02 0.0375 0.98572922 0.02 0.02317628 0.98898911 0.02 0.00783964 0.98898911 0.02 -0.00783964 0.98572922 0.02 -0.02317628 0.97935188 0.02 -0.0375 0.97013587 0.02 -0.05018479 0.95848387 0.02 -0.06067627 0.94490522 0.02 -0.06851591 0.92999339 0.02 -0.07336107 0.91439998 0.02 -0.075</float_array>
          <technique_common>
            <accessor source="#pos_0-array" count="534" stride="3">
              <param name="X" type="float"/>
              <param name="Y" type="float"/>
              <param name="Z" type="float"/>
            </accessor>
          </technique_common>
        </source>
        <source id="norm_0">
          <float_array id="norm_0-array" count="114">-0 0 -1 -0.20791 0 -0.97815 -0.40674 0 -0.91355 -0.58779 0 -0.80902 -0.74314 0 -0.66913 -0.86603 0 -0.5 -0.95106 0 -0.30902 -0.99452 0 -0.10453 -0.99452 0 0.10453 -0.95106 0 0.30902 -0.86603 0 0.5 -0.74314 0 0.66913 -0.58779 0 0.80902 -0.40674 0 0.91355 -0.20791 0 0.97815 0 0 1 0 0 1 0.20791 0 0.97815 0.40674 0 0.91355 0.58779 0 0.80902 0.74314 0 0.66913 0.86603 0 0.5 0.95106 0 0.30902 0.99452 0 0.10453 0.99452 0 -0.10453 0.95106 0 -0.30902 0.86603 0 -0.5 0.74314 0 -0.66913 0.58779 0 -0.80902 0.40674 0 -0.91355 0.20791 0 -0.97815 0 0 -1 0 1 0 0 -1 0 -0 0 -1 -0 0 1 0 0 1 -0 0 -1</float_array>
          <technique_common>
            <accessor source="#norm_0-array" count="114" stride="3">
              <param name="X" type="float"/>
              <param name="Y" type="float"/>
              <param name="Z" type="float"/>
            </accessor>
          </technique_common>
        </source>
        <vertices id="vert_0">
          <input semantic="POSITION" source="#pos_0"/>
        </vertices>
        <triangles count="300" material="mat_0">
          <input semantic="VERTEX" source="#vert_0" offset="0"/>
          <input semantic="NORMAL" source="#norm_0" offset="1"/>
          <p>0 0 1 0 2 1 0 0 2 1 3 1 3 1 2 1 4 2 3 1 4 2 5 2 5 2 4 2 6 3 5 2 6 3 7 3 7 3 6 3 8 4 7 3 8 4 9 4 9 4 8 4 10 5 9 4 10 5 11 5 11 5 10 5 12 6 11 5 12 6 13 6 13 6 12 6 14 7 13 6 14 7 15 7 15 7 14 7 16 8 15 7 16 8 17 8 17 8 16 8 18 9 17 8 18 9 19 9 19 9 18 9 20 10 19 9 20 10 21 10 21 10 20 10 22 11 21 10 22 11 23 11 23 11 22 11 24 12 23 11 24 12 25 12 25 12 24 12 26 13 25 12 26 13 27 13 27 13 26 13 28 14 27 13 28 14 29 14 29 14 28 14 30 15 29 14 30 15 31 15 32 16 31 16 33 16 33 16 31 16 30 16 32 15 33 15 34 17 32 15 34 17 35 17 35 17 34 17 36 18 35 17 36 18 37 18 37 18 36 18 38 19 37 18 38 19 39 19 39 19 38 19 40 20 39 19 40 20 41 20 41 20 40 20 42 21 41 20 42 21 43 21 43 21 42 21 44 22 43 21 44 22 45 22 45 22 44 22 46 23 45 22 46 23 47 23 47 23 46 23 48 24 47 23 48 24 49 24 49 24 48 24 50 25 49 24 50 25 51 25 51 25 50 25 52 26 51 25 52 26 53 26 53 26 52 26 54 27 53 26 54 27 55 27 55 27 54 27 56 28 55 27 56 28 57 28 57 28 56 28 58 29 57 28 58 29 59 29 59 29 58 29 60 30 59 29 60 30 61 30 61 30 60 30 62 31 61 30 62 31 63 31 64 31 63 31 65 31 65 31 63 31 62 31 66 32 67 32 68 32 68 32 67 32 32 32 66 32 69 32 67 32 67 32 69 32 70 32 67 32 70 32 71 32 72 32 0 32 73 32 73 32 0 32 74 32 75 32 25 32 27 32 27 32 29 32 75 32 75 32 29 32 67 32 75 32 67 32 76 32 76 32 67 32 71 32 77 32 21 32 75 32 75 32 21 32 23 32 75 32 23 32 25 32 3 32 5 32 77 32 77 32 5 32 7 32 77 32 7 32 9 32 72 32 78 32 0 32 0 32 78 32 79 32 0 32 79 32 63 32 9 32 11 32 77 32 77 32 11 32 13 32 77 32 13 32 15 32 15 32 17 32 77 32 77 32 17 32 19 32 77 32 19 32 21 32 3 32 77 32 0 32 0 32 77 32 80 32 0 32 80 32 74 32 81 33 82 33 83 33 84 33 85 33 62 33 62 33 85 33 86 33 62 33 86 33 65 33 65 33 86 33 87 33 87 33 88 33 65 33 65 33 88 33 89 33 65 33 89 33 2 33 2 33 89 33 90 33 2 33 90 33 4 33 4 33 90 33 91 33 4 33 91 33 6 33 6 33 91 33 92 33 93 33 16 33 94 33 94 33 16 33 14 33 94 33 14 33 95 33 95 33 14 33 12 33 95 33 12 33 96 33 96 33 12 33 10 33 96 33 10 33 92 33 92 33 10 33 8 33 92 33 8 33 6 33 82 33 97 33 83 33 83 33 97 33 98 33 83 33 98 33 33 33 33 33 98 33 99 33 33 33 99 33 100 33 52 33 50 33 101 33 83 33 28 33 81 33 81 33 28 33 26 33 81 33 26 33 102 33 102 33 26 33 24 33 102 33 24 33 103 33 103 33 24 33 22 33 103 33 22 33 104 33 104 33 22 33 20 33 104 33 20 33 93 33 93 33 20 33 18 33 93 33 18 33 16 33 101 33 44 33 42 33 36 33 34 33 101 33 101 33 34 33 33 33 101 33 33 33 105 33 105 33 33 33 100 33 84 33 62 33 101 33 101 33 62 33 60 33 101 33 60 33 58 33 50 33 48 33 101 33 101 33 48 33 46 33 101 33 46 33 44 33 58 33 56 33 101 33 101 33 56 33 54 33 101 33 54 33 52 33 42 33 40 33 101 33 101 33 40 33 38 33 101 33 38 33 36 33 61 33 63 33 106 33 107 33 108 33 106 33 106 33 108 33 109 33 110 33 111 33 112 33 112 33 111 33 113 33 112 33 113 33 114 33 114 33 113 33 115 33 114 33 115 33 116 33 116 33 115 33 117 33 116 33 117 33 118 33 106 33 119 33 107 33 107 33 119 33 120 33 107 33 120 33 121 33 121 33 120 33 122 33 121 33 122 33 123 33 123 33 122 33 124 33 123 33 124 33 125 33 125 33 124 33 126 33 125 33 126 33 110 33 110 33 126 33 127 33 110 33 127 33 111 33 128 33 53 33 55 33 55 33 57 33 128 33 128 33 57 33 59 33 128 33 59 33 61 33 37 33 129 33 35 33 35 33 129 33 130 33 35 33 130 33 131 33 37 33 39 33 129 33 129 33 39 33 41 33 129 33 41 33 43 33 131 33 132 33 35 33 35 33 132 33 133 33 35 33 133 33 32 33 109 33 134 33 106 33 106 33 134 33 135 33 106 33 135 33 61 33 61 33 135 33 136 33 61 33 136 33 128 33 43 33 45 33 129 33 129 33 45 33 47 33 129 33 47 33 137 33 137 33 47 33 49 33 137 33 49 33 128 33 128 33 49 33 51 33 128 33 51 33 53 33 132 33 138 33 133 33 133 33 138 33 139 33 133 33 139 33 140 33 140 33 139 33 141 33 140 33 141 33 142 33 142 33 141 33 143 33 142 33 143 33 144 33 144 33 143 33 118 33 144 33 118 33 145 33 145 33 118 33 117 33 146 34 63 34 79 1 146 34 79 1 147 1 147 1 79 1 78 2 147 1 78 2 148 2 148 2 78 2 72 3 148 2 72 3 149 3 149 3 72 3 73 4 149 3 73 4 150 4 150 4 73 4 74 5 150 4 74 5 151 5 151 5 74 5 80 6 151 5 80 6 152 6 152 6 80 6 77 7 152 6 77 7 153 7 153 7 77 7 75 8 153 7 75 8 154 8 154 8 75 8 76 9 154 8 76 9 155 9 155 9 76 9 71 10 155 9 71 10 156 10 156 10 71 10 70 11 156 10 70 11 157 11 157 11 70 11 69 12 157 11 69 12 158 12 158 12 69 12 66 13 158 12 66 13 159 13 159 13 66 13 68 14 159 13 68 14 160 14 160 14 68 14 32 35 160 14 32 35 161 35 162 36 161 36 133 36 133 36 161 36 32 36 162 15 133 15 140 17 162 15 140 17 163 17 163 17 140 17 142 18 163 17 142 18 164 18 164 18 142 18 144 19 164 18 144 19 165 19 165 19 144 19 145 20 165 19 145 20 166 20 166 20 145 20 117 21 166 20 117 21 167 21 167 21 117 21 115 22 167 21 115 22 168 22 168 22 115 22 113 23 168 22 113 23 169 23 169 23 113 23 111 24 169 23 111 24 170 24 170 24 111 24 127 25 170 24 127 25 171 25 171 25 127 25 126 26 171 25 126 26 172 26 172 26 126 26 124 27 172 26 124 27 173 27 173 27 124 27 122 28 173 27 122 28 174 28 174 28 122 28 120 29 174 28 120 29 175 29 175 29 120 29 119 30 175 29 119 30 176 30 176 30 119 30 106 31 176 30 106 31 177 31 146 37 177 37 63 37 63 37 177 37 106 37 162 32 177 32 161 32 161 32 177 32 146 32 168 32 169 32 177 32 162 32 163 32 177 32 177 32 163 32 164 32 177 32 164 32 165 32 150 32 151 32 152 32 165 32 166 32 177 32 177 32 166 32 167 32 177 32 167 32 168 32 155 32 146 32 154 32 154 32 146 32 147 32 154 32 147 32 148 32 175 32 171 32 174 32 174 32 171 32 172 32 174 32 172 32 173 32 152 32 153 32 150 32 150 32 153 32 154 32 150 32 154 32 149 32 149 32 154 32 148 32 155 32 156 32 146 32 146 32 156 32 157 32 146 32 157 32 158 32 158 32 159 32 146 32 146 32 159 32 160 32 146 32 160 32 161 32 169 32 170 32 177 32 177 32 170 32 171 32 177 32 171 32 176 32 176 32 171 32 175 32</p>
        </triangles>
      </mesh>
    </geometry>
    <geometry id="geometry_a127fff7_fd3c_4e2d_8bfe_289c9ceec70d">
      <mesh>
        <source id="pos_1">
          <float_array id="pos_1-array" count="741">0.91439998 0.01 0.01657723 0.9186905 -0.34 0.01601238 0.9186905 0.01 0.01601238 0.9226886 -0.34 0.01435631 0.9226886 0.01 0.01435631 0.92612189 -0.34 0.01172187 0.92612189 0.01 0.01172187 0.9287563 -0.34 0.00828862 0.9287563 0.01 0.00828862 0.93041235 -0.34 0.0042905 0.93041235 0.01 0.0042905 0.93097723 -0.34 0 0.93097723 0.01 0 0.93041235 -0.34 -0.0042905 0.93041235 0.01 -0.0042905 0.9287563 -0.34 -0.00828862 0.9287563 0.01 -0.00828862 0.92612189 -0.34 -0.01172187 0.92612189 0.01 -0.01172187 0.9226886 -0.34 -0.01435631 0.9226886 0.01 -0.01435631 0.9186905 -0.34 -0.01601238 0.9186905 0.01 -0.01601238 0.91439998 -0.34 -0.01657723 0.91439998 0.01 -0.01657723 0.91010952 -0.34 -0.01601238 0.91010952 0.01 -0.01601238 0.90611136 -0.34 -0.01435631 0.90611136 0.01 -0.01435631 0.90267813 -0.34 -0.01172187 0.90267813 0.01 -0.01172187 0.90004367 -0.34 -0.00828862 0.90004367 0.01 -0.00828862 0.89838761 -0.34 -0.0042905 0.89838761 0.01 -0.0042905 0.89782274 -0.34 -0 0.89782274 0.01 -0 0.89838761 -0.34 0.0042905 0.89838761 0.01 0.0042905 0.90004367 -0.34 0.00828862 0.90004367 0.01 0.00828862 0.90267813 -0.34 0.01172187 0.90267813 0.01 0.01172187 0.90611136 -0.34 0.01435631 0.90611136 0.01 0.01435631 0.91010952 -0.34 0.01601238 0.91010952 0.01 0.01601238 0.91439998 -0.34 0.01657723 0.91439998 -0.34 0 0 0 0.01657723 0.0042905 -0.34 0.01601238 0.0042905 0 0.01601238 0.00828862 -0.34 0.01435631 0.00828862 0 0.01435631 0.01172187 -0.34 0.01172187 0.01172187 0 0.01172187 0.01435631 -0.34 0.00828862 0.01435631 0 0.00828862 0.01601238 -0.34 0.0042905 0.01601238 0 0.0042905 0.01657723 -0.34 0 0.01657723 0 0 0.01601238 -0.34 -0.0042905 0.01601238 0 -0.0042905 0.01435631 -0.34 -0.00828862 0.01435631 0 -0.00828862 0.01172187 -0.34 -0.01172187 0.01172187 0 -0.01172187 0.00828862 -0.34 -0.01435631 0.00828862 0 -0.01435631 0.0042905 -0.34 -0.01601238 0.0042905 0 -0.01601238 0 -0.34 -0.01657723 0 0 -0.01657723 -0.0042905 -0.34 -0.01601238 -0.0042905 0 -0.01601238 -0.00828862 -0.34 -0.01435631 -0.00828862 0 -0.01435631 -0.01172187 -0.34 -0.01172187 -0.01172187 0 -0.01172187 -0.01435631 -0.34 -0.00828862 -0.01435631 0 -0.00828862 -0.01601238 -0.34 -0.0042905 -0.01601238 0 -0.0042905 -0.01657723 -0.34 -0 -0.01657723 0 -0 -0.01601238 -0.34 0.0042905 -0.01601238 0 0.0042905 -0.01435631 -0.34 0.00828862 -0.01435631 0 0.00828862 -0.01172187 -0.34 0.01172187 -0.01172187 0 0.01172187 -0.00828862 -0.34 0.01435631 -0.00828862 0 0.01435631 -0.0042905 -0.34 0.01601238 -0.0042905 0 0.01601238 0 -0.34 0.01657723 0 -0.34 0 0 -0.34 -0.01657723 0.0165105 -0.33851403 0.15000001 0.01657723 -0.34 0.15000001 0.01657723 -0.34 -0.15000001 0.0165105 -0.34148598 -0.15000001 0.0165105 -0.34148598 0.15000001 0.01597984 -0.34441015 0.15000001 0.01597984 -0.34441015 -0.15000001 0.01493557 -0.34719259 0.15000001 0.01493557 -0.34719259 -0.15000001 0.01341126 -0.34974384 0.15000001 0.01341126 -0.34974384 -0.15000001 0.01145591 -0.35198194 0.15000001 0.01145591 -0.35198194 -0.15000001 0.00913235 -0.35383493 0.15000001 0.00913235 -0.35383493 -0.15000001 0.00651527 -0.35524324 0.15000001 0.00651527 -0.35524324 -0.15000001 0.00368878 -0.35616159 0.15000001 0.00368878 -0.35616159 -0.15000001 0.00074373 -0.35656053 0.15000001 0.00074373 -0.35656053 -0.15000001 -0.00222522 -0.35642719 0.15000001 -0.00222522 -0.35642719 -0.15000001 -0.00512265 -0.35576588 0.15000001 -0.00512265 -0.35576588 -0.15000001 -0.00785543 -0.35459784 0.15000001 -0.00785543 -0.35459784 -0.15000001 -0.01033574 -0.35296062 0.15000001 -0.01033574 -0.35296062 -0.15000001 -0.01248384 -0.35090682 0.15000001 -0.01248384 -0.35090682 -0.15000001 -0.01423071 -0.34850246 0.15000001 -0.01423071 -0.34850246 -0.15000001 -0.01552018 -0.34582481 0.15000001 -0.01552018 -0.34582481 -0.15000001 -0.01631083 -0.34295997 0.15000001 -0.01631083 -0.34295997 -0.15000001 -0.01657723 -0.34 0.15000001 -0.01657723 -0.34 -0.15000001 -0.01631083 -0.33704001 0.15000001 -0.01631083 -0.33704001 -0.15000001 -0.01552018 -0.33417517 0.15000001 -0.01552018 -0.33417517 -0.15000001 -0.01423071 -0.33149755 0.15000001 -0.01423071 -0.33149755 -0.15000001 -0.01248384 -0.32909319 0.15000001 -0.01248384 -0.32909319 -0.15000001 -0.01033574 -0.32703939 0.15000001 -0.01033574 -0.32703939 -0.15000001 -0.00785543 -0.32540217 0.15000001 -0.00785543 -0.32540217 -0.15000001 -0.00512265 -0.32423413 0.15000001 -0.00512265 -0.32423413 -0.15000001 -0.00222522 -0.32357278 0.15000001 -0.00222522 -0.32357278 -0.15000001 0.00074373 -0.32343945 0.15000001 0.00074373 -0.32343945 -0.15000001 0.00368878 -0.32383838 0.15000001 0.00368878 -0.32383838 -0.15000001 0.00651527 -0.32475677 0.15000001 0.00651527 -0.32475677 -0.15000001 0.00913235 -0.32616508 0.15000001 0.00913235 -0.32616508 -0.15000001 0.01145591 -0.32801807 0.15000001 0.01145591 -0.32801807 -0.15000001 0.01341126 -0.33025613 0.15000001 0.01341126 -0.33025613 -0.15000001 0.01493557 -0.33280742 0.15000001 0.01493557 -0.33280742 -0.15000001 0.01597984 -0.33558986 0.15000001 0.01597984 -0.33558986 -0.15000001 0.0165105 -0.33851403 -0.15000001 0 -0.34 0.15000001 0 -0.34 -0.15000001 0.93091053 -0.33851403 0.15000001 0.93097723 -0.34 0.15000001 0.93097723 -0.34 -0.15000001 0.93091053 -0.34148598 -0.15000001 0.93091053 -0.34148598 0.15000001 0.93037987 -0.34441015 0.15000001 0.93037987 -0.34441015 -0.15000001 0.92933559 -0.34719259 0.15000001 0.92933559 -0.34719259 -0.15000001 0.92781126 -0.34974384 0.15000001 0.92781126 -0.34974384 -0.15000001 0.92585593 -0.35198194 0.15000001 0.92585593 -0.35198194 -0.15000001 0.92353237 -0.35383493 0.15000001 0.92353237 -0.35383493 -0.15000001 0.92091525 -0.35524324 0.15000001 0.92091525 -0.35524324 -0.15000001 0.91808879 -0.35616159 0.15000001 0.91808879 -0.35616159 -0.15000001 0.91514373 -0.35656053 0.15000001 0.91514373 -0.35656053 -0.15000001 0.91217476 -0.35642719 0.15000001 0.91217476 -0.35642719 -0.15000001 0.90927738 -0.35576588 0.15000001 0.90927738 -0.35576588 -0.15000001 0.90654457 -0.35459784 0.15000001 0.90654457 -0.35459784 -0.15000001 0.90406424 -0.35296062 0.15000001 0.90406424 -0.35296062 -0.15000001 0.90191615 -0.35090682 0.15000001 0.90191615 -0.35090682 -0.15000001 0.90016931 -0.34850246 0.15000001 0.90016931 -0.34850246 -0.15000001 0.89887983 -0.34582481 0.15000001 0.89887983 -0.34582481 -0.15000001 0.89808917 -0.34295997 0.15000001 0.89808917 -0.34295997 -0.15000001 0.89782274 -0.34 0.15000001 0.89782274 -0.34 -0.15000001 0.89808917 -0.33704001 0.15000001 0.89808917 -0.33704001 -0.15000001 0.89887983 -0.33417517 0.15000001 0.89887983 -0.33417517 -0.15000001 0.90016931 -0.33149755 0.15000001 0.90016931 -0.33149755 -0.15000001 0.90191615 -0.32909319 0.15000001 0.90191615 -0.32909319 -0.15000001 0.90406424 -0.32703939 0.15000001 0.90406424 -0.32703939 -0.15000001 0.90654457 -0.32540217 0.15000001 0.90654457 -0.32540217 -0.15000001 0.90927738 -0.32423413 0.15000001 0.90927738 -0.32423413 -0.15000001 0.91217476 -0.32357278 0.15000001 0.91217476 -0.32357278 -0.15000001 0.91514373 -0.32343945 0.15000001 0.91514373 -0.32343945 -0.15000001 0.91808879 -0.32383838 0.15000001 0.91808879 -0.32383838 -0.15000001 0.92091525 -0.32475677 0.15000001 0.92091525 -0.32475677 -0.15000001 0.92353237 -0.32616508 0.15000001 0.92353237 -0.32616508 -0.15000001 0.92585593 -0.32801807 0.15000001 0.92585593 -0.32801807 -0.15000001 0.92781126 -0.33025613 0.15000001 0.92781126 -0.33025613 -0.15000001 0.92933559 -0.33280742 0.15000001 0.92933559 -0.33280742 -0.15000001 0.93037987 -0.33558986 0.15000001 0.93037987 -0.33558986 -0.15000001 0.93091053 -0.33851403 -0.15000001 0.91439998 -0.34 0.15000001 0.91439998 -0.34 -0.15000001</float_array>
          <technique_common>
            <accessor source="#pos_1-array" count="741" stride="3">
              <param name="X" type="float"/>
              <param name="Y" type="float"/>
              <param name="Z" type="float"/>
            </accessor>
          </technique_common>
        </source>
        <source id="norm_1">
          <float_array id="norm_1-array" count="192">0 0 1 0.25882 0 0.96593 0.5 0 0.86603 0.70711 0 0.70711 0.86603 0 0.5 0.96593 0 0.25882 1 0 0 0.96593 0 -0.25882 0.86603 0 -0.5 0.70711 0 -0.70711 0.5 0 -0.86603 0.25882 0 -0.96593 0 0 -1 -0.25882 0 -0.96593 -0.5 0 -0.86603 -0.70711 0 -0.70711 -0.86603 0 -0.5 -0.96593 0 -0.25882 -1 0 -0 -0.96593 0 0.25882 -0.86603 0 0.5 -0.70711 0 0.70711 -0.5 0 0.86603 -0.25882 0 0.96593 0 -1 0 0 0 -1 0.99597 0.08964 0 1 0 0 1 0 0 0.99597 -0.08964 0 0.96396 -0.26604 0 0.90097 -0.43388 0 0.80902 -0.58779 0 0.69106 -0.72279 0 0.5509 -0.83457 0 0.39303 -0.91953 0 0.22252 -0.97493 0 0.04486 -0.99899 0 -0.13423 -0.99095 0 -0.30902 -0.95106 0 -0.47387 -0.8806 0 -0.62349 -0.78183 0 -0.75307 -0.65794 0 -0.85845 -0.5129 0 -0.93623 -0.35137 0 -0.98393 -0.17856 0 -1 0 0 -0.98393 0.17856 0 -0.93623 0.35137 0 -0.85845 0.5129 0 -0.75307 0.65794 0 -0.62349 0.78183 0 -0.47387 0.8806 0 -0.30902 0.95106 0 -0.13423 0.99095 0 0.04486 0.99899 0 0.22252 0.97493 0 0.39303 0.91953 0 0.5509 0.83457 0 0.69106 0.72279 0 0.80902 0.58779 0 0.90097 0.43388 0 0.96396 0.26604 0 0 0 -1</float_array>
          <technique_common>
            <accessor source="#norm_1-array" count="192" stride="3">
              <param name="X" type="float"/>
              <param name="Y" type="float"/>
              <param name="Z" type="float"/>
            </accessor>
          </technique_common>
        </source>
        <vertices id="vert_1">
          <input semantic="POSITION" source="#pos_1"/>
        </vertices>
        <triangles count="432" material="mat_1">
          <input semantic="VERTEX" source="#vert_1" offset="0"/>
          <input semantic="NORMAL" source="#norm_1" offset="1"/>
          <p>0 0 1 1 2 1 2 1 1 1 3 2 2 1 3 2 4 2 4 2 3 2 5 3 4 2 5 3 6 3 6 3 5 3 7 4 6 3 7 4 8 4 8 4 7 4 9 5 8 4 9 5 10 5 10 5 9 5 11 6 10 5 11 6 12 6 12 6 11 6 13 7 12 6 13 7 14 7 14 7 13 7 15 8 14 7 15 8 16 8 16 8 15 8 17 9 16 8 17 9 18 9 18 9 17 9 19 10 18 9 19 10 20 10 20 10 19 10 21 11 20 10 21 11 22 11 22 11 21 11 23 12 22 11 23 12 24 12 24 12 23 12 25 13 24 12 25 13 26 13 26 13 25 13 27 14 26 13 27 14 28 14 28 14 27 14 29 15 28 14 29 15 30 15 30 15 29 15 31 16 30 15 31 16 32 16 32 16 31 16 33 17 32 16 33 17 34 17 34 17 33 17 35 18 34 17 35 18 36 18 36 18 35 18 37 19 36 18 37 19 38 19 38 19 37 19 39 20 38 19 39 20 40 20 40 20 39 20 41 21 40 20 41 21 42 21 42 21 41 21 43 22 42 21 43 22 44 22 44 22 43 22 45 23 44 22 45 23 46 23 46 23 45 23 47 0 46 23 47 0 0 0 0 0 47 0 1 1 27 24 25 24 48 24 48 24 25 24 23 24 48 24 23 24 21 24 33 24 31 24 48 24 48 24 31 24 29 24 48 24 29 24 27 24 39 24 37 24 48 24 48 24 37 24 35 24 48 24 35 24 33 24 45 24 43 24 48 24 48 24 43 24 41 24 48 24 41 24 39 24 3 24 1 24 48 24 48 24 1 24 47 24 48 24 47 24 45 24 9 24 7 24 48 24 48 24 7 24 5 24 48 24 5 24 3 24 15 24 13 24 48 24 48 24 13 24 11 24 48 24 11 24 9 24 21 24 19 24 48 24 48 24 19 24 17 24 48 24 17 24 15 24 49 0 50 1 51 1 51 1 50 1 52 2 51 1 52 2 53 2 53 2 52 2 54 3 53 2 54 3 55 3 55 3 54 3 56 4 55 3 56 4 57 4 57 4 56 4 58 5 57 4 58 5 59 5 59 5 58 5 60 6 59 5 60 6 61 6 61 6 60 6 62 7 61 6 62 7 63 7 63 7 62 7 64 8 63 7 64 8 65 8 65 8 64 8 66 9 65 8 66 9 67 9 67 9 66 9 68 10 67 9 68 10 69 10 69 10 68 10 70 11 69 10 70 11 71 11 71 11 70 11 72 25 71 11 72 25 73 25 73 25 72 25 74 13 73 25 74 13 75 13 75 13 74 13 76 14 75 13 76 14 77 14 77 14 76 14 78 15 77 14 78 15 79 15 79 15 78 15 80 16 79 15 80 16 81 16 81 16 80 16 82 17 81 16 82 17 83 17 83 17 82 17 84 18 83 17 84 18 85 18 85 18 84 18 86 19 85 18 86 19 87 19 87 19 86 19 88 20 87 19 88 20 89 20 89 20 88 20 90 21 89 20 90 21 91 21 91 21 90 21 92 22 91 21 92 22 93 22 93 22 92 22 94 23 93 22 94 23 95 23 95 23 94 23 96 0 95 23 96 0 49 0 49 0 96 0 50 1 76 24 74 24 97 24 97 24 74 24 98 24 97 24 98 24 70 24 82 24 80 24 97 24 97 24 80 24 78 24 97 24 78 24 76 24 88 24 86 24 97 24 97 24 86 24 84 24 97 24 84 24 82 24 94 24 92 24 97 24 97 24 92 24 90 24 97 24 90 24 88 24 52 24 50 24 97 24 97 24 50 24 96 24 97 24 96 24 94 24 58 24 56 24 97 24 97 24 56 24 54 24 97 24 54 24 52 24 64 24 62 24 97 24 97 24 62 24 60 24 97 24 60 24 58 24 70 24 68 24 97 24 97 24 68 24 66 24 97 24 66 24 64 24 99 26 100 27 101 28 101 28 100 27 102 29 100 27 103 29 102 29 102 29 103 29 104 30 102 29 104 30 105 30 105 30 104 30 106 31 105 30 106 31 107 31 107 31 106 31 108 32 107 31 108 32 109 32 109 32 108 32 110 33 109 32 110 33 111 33 111 33 110 33 112 34 111 33 112 34 113 34 113 34 112 34 114 35 113 34 114 35 115 35 115 35 114 35 116 36 115 35 116 36 117 36 117 36 116 36 118 37 117 36 118 37 119 37 119 37 118 37 120 38 119 37 120 38 121 38 121 38 120 38 122 39 121 38 122 39 123 39 123 39 122 39 124 40 123 39 124 40 125 40 125 40 124 40 126 41 125 40 126 41 127 41 127 41 126 41 128 42 127 41 128 42 129 42 129 42 128 42 130 43 129 42 130 43 131 43 131 43 130 43 132 44 131 43 132 44 133 44 133 44 132 44 134 45 133 44 134 45 135 45 135 45 134 45 136 46 135 45 136 46 137 46 137 46 136 46 138 47 137 46 138 47 139 47 139 47 138 47 140 48 139 47 140 48 141 48 141 48 140 48 142 49 141 48 142 49 143 49 143 49 142 49 144 50 143 49 144 50 145 50 145 50 144 50 146 51 145 50 146 51 147 51 147 51 146 51 148 52 147 51 148 52 149 52 149 52 148 52 150 53 149 52 150 53 151 53 151 53 150 53 152 54 151 53 152 54 153 54 153 54 152 54 154 55 153 54 154 55 155 55 155 55 154 55 156 56 155 55 156 56 157 56 157 56 156 56 158 57 157 56 158 57 159 57 159 57 158 57 160 58 159 57 160 58 161 58 161 58 160 58 162 59 161 58 162 59 163 59 163 59 162 59 164 60 163 59 164 60 165 60 165 60 164 60 166 61 165 60 166 61 167 61 167 61 166 61 168 62 167 61 168 62 169 62 169 62 168 62 99 26 169 62 99 26 170 26 170 26 99 26 101 28 104 0 103 0 171 0 171 0 103 0 100 0 171 0 100 0 99 0 110 0 108 0 171 0 171 0 108 0 106 0 171 0 106 0 104 0 116 0 114 0 171 0 171 0 114 0 112 0 171 0 112 0 110 0 122 0 120 0 171 0 171 0 120 0 118 0 171 0 118 0 116 0 128 0 126 0 171 0 171 0 126 0 124 0 171 0 124 0 122 0 134 0 132 0 171 0 171 0 132 0 130 0 171 0 130 0 128 0 140 0 138 0 171 0 171 0 138 0 136 0 171 0 136 0 134 0 146 0 144 0 171 0 171 0 144 0 142 0 171 0 142 0 140 0 152 0 150 0 171 0 171 0 150 0 148 0 171 0 148 0 146 0 158 0 156 0 171 0 171 0 156 0 154 0 171 0 154 0 152 0 164 0 162 0 171 0 171 0 162 0 160 0 171 0 160 0 158 0 99 0 168 0 171 0 171 0 168 0 166 0 171 0 166 0 164 0 169 63 170 63 172 63 172 63 170 63 101 63 172 63 101 63 102 63 163 63 165 63 172 63 172 63 165 63 167 63 172 63 167 63 169 63 157 63 159 63 172 63 172 63 159 63 161 63 172 63 161 63 163 63 151 63 153 63 172 63 172 63 153 63 155 63 172 63 155 63 157 63 145 63 147 63 172 63 172 63 147 63 149 63 172 63 149 63 151 63 139 63 141 63 172 63 172 63 141 63 143 63 172 63 143 63 145 63 133 63 135 63 172 63 172 63 135 63 137 63 172 63 137 63 139 63 127 63 129 63 172 63 172 63 129 63 131 63 172 63 131 63 133 63 121 63 123 63 172 63 172 63 123 63 125 63 172 63 125 63 127 63 115 63 117 63 172 63 172 63 117 63 119 63 172 63 119 63 121 63 109 63 111 63 172 63 172 63 111 63 113 63 172 63 113 63 115 63 102 63 105 63 172 63 172 63 105 63 107 63 172 63 107 63 109 63 173 26 174 27 175 28 175 28 174 27 176 29 174 27 177 29 176 29 176 29 177 29 178 30 176 29 178 30 179 30 179 30 178 30 180 31 179 30 180 31 181 31 181 31 180 31 182 32 181 31 182 32 183 32 183 32 182 32 184 33 183 32 184 33 185 33 185 33 184 33 186 34 185 33 186 34 187 34 187 34 186 34 188 35 187 34 188 35 189 35 189 35 188 35 190 36 189 35 190 36 191 36 191 36 190 36 192 37 191 36 192 37 193 37 193 37 192 37 194 38 193 37 194 38 195 38 195 38 194 38 196 39 195 38 196 39 197 39 197 39 196 39 198 40 197 39 198 40 199 40 199 40 198 40 200 41 199 40 200 41 201 41 201 41 200 41 202 42 201 41 202 42 203 42 203 42 202 42 204 43 203 42 204 43 205 43 205 43 204 43 206 44 205 43 206 44 207 44 207 44 206 44 208 45 207 44 208 45 209 45 209 45 208 45 210 46 209 45 210 46 211 46 211 46 210 46 212 47 211 46 212 47 213 47 213 47 212 47 214 48 213 47 214 48 215 48 215 48 214 48 216 49 215 48 216 49 217 49 217 49 216 49 218 50 217 49 218 50 219 50 219 50 218 50 220 51 219 50 220 51 221 51 221 51 220 51 222 52 221 51 222 52 223 52 223 52 222 52 224 53 223 52 224 53 225 53 225 53 224 53 226 54 225 53 226 54 227 54 227 54 226 54 228 55 227 54 228 55 229 55 229 55 228 55 230 56 229 55 230 56 231 56 231 56 230 56 232 57 231 56 232 57 233 57 233 57 232 57 234 58 233 57 234 58 235 58 235 58 234 58 236 59 235 58 236 59 237 59 237 59 236 59 238 60 237 59 238 60 239 60 239 60 238 60 240 61 239 60 240 61 241 61 241 61 240 61 242 62 241 61 242 62 243 62 243 62 242 62 173 26 243 62 173 26 244 26 244 26 173 26 175 28 178 0 177 0 245 0 245 0 177 0 174 0 245 0 174 0 173 0 184 0 182 0 245 0 245 0 182 0 180 0 245 0 180 0 178 0 190 0 188 0 245 0 245 0 188 0 186 0 245 0 186 0 184 0 196 0 194 0 245 0 245 0 194 0 192 0 245 0 192 0 190 0 202 0 200 0 245 0 245 0 200 0 198 0 245 0 198 0 196 0 208 0 206 0 245 0 245 0 206 0 204 0 245 0 204 0 202 0 214 0 212 0 245 0 245 0 212 0 210 0 245 0 210 0 208 0 220 0 218 0 245 0 245 0 218 0 216 0 245 0 216 0 214 0 226 0 224 0 245 0 245 0 224 0 222 0 245 0 222 0 220 0 232 0 230 0 245 0 245 0 230 0 228 0 245 0 228 0 226 0 238 0 236 0 245 0 245 0 236 0 234 0 245 0 234 0 232 0 173 0 242 0 245 0 245 0 242 0 240 0 245 0 240 0 238 0 243 63 244 63 246 63 246 63 244 63 175 63 246 63 175 63 176 63 237 63 239 63 246 63 246 63 239 63 241 63 246 63 241 63 243 63 231 63 233 63 246 63 246 63 233 63 235 63 246 63 235 63 237 63 225 63 227 63 246 63 246 63 227 63 229 63 246 63 229 63 231 63 219 63 221 63 246 63 246 63 221 63 223 63 246 63 223 63 225 63 213 63 215 63 246 63 246 63 215 63 217 63 246 63 217 63 219 63 207 63 209 63 246 63 246 63 209 63 211 63 246 63 211 63 213 63 201 63 203 63 246 63 246 63 203 63 205 63 246 63 205 63 207 63 195 63 197 63 246 63 246 63 197 63 199 63 246 63 199 63 201 63 189 63 191 63 246 63 246 63 191 63 193 63 246 63 193 63 195 63 183 63 185 63 246 63 246 63 185 63 187 63 246 63 187 63 189 63 176 63 179 63 246 63 246 63 179 63 181 63 246 63 181 63 183 63</p>
        </triangles>
      </mesh>
    </geometry>
  </library_geometries>
  <library_visual_scenes>
    <visual_scene id="DefaultScene">
      <node id="node_f6625e35_f539_40b2_8020_3ce7be106032" type="NODE">
        <matrix>1 0 0 0 0 1 0 0 0 0 1 0 0 0 0 1</matrix>
        <node id="node_6110e98f_fab1_4e6f_a41e_aba94b57ac93" type="NODE">
          <matrix>1 0 0 0 0 1 0 0 0 0 1 0 0 0 0 1</matrix>
          <node id="node_83fbcd4f_eb5d_4da4_a4d6_6c27fa665042" type="NODE">
            <matrix>0.5898539423942566 -0.4783386290073395 0.650587797164917 1.9229214191436768 0.18313860893249512 0.8639215230941772 0.46914806962013245 0.8886637687683105 -0.7864684462547302 -0.15758107602596283 0.5971897840499878 1.3454198837280273 0 0 0 1</matrix>
          </node>
          <node id="node_74a74a50_99ea_4232_9940_870072a25c05" type="NODE">
            <matrix>1 0 0 0 0 1 0 0 0 0 1 0 0 0 0 1</matrix>
            <node id="node_74a74a50_99ea_4232_9940_870072a25c05_mesh0" type="NODE">
              <matrix>1 0 0 0 0 1 0 0 0 0 1 0 0 0 0 1</matrix>
              <instance_geometry url="#geometry_d4f52aa5_b037_464f_84bf_c8715e84f976">
                <bind_material>
                  <technique_common>
                    <instance_material symbol="mat_0" target="#mat_0"/>
                  </technique_common>
                </bind_material>
              </instance_geometry>
            </node>
            <node id="node_74a74a50_99ea_4232_9940_870072a25c05_mesh1" type="NODE">
              <matrix>1 0 0 0 0 1 0 0 0 0 1 0 0 0 0 1</matrix>
              <instance_geometry url="#geometry_a127fff7_fd3c_4e2d_8bfe_289c9ceec70d">
                <bind_material>
                  <technique_common>
                    <instance_material symbol="mat_1" target="#mat_1"/>
                  </technique_common>
                </bind_material>
              </instance_geometry>
            </node>
          </node>
        </node>
      </node>
    </visual_scene>
  </library_visual_scenes>
  <scene>
    <instance_visual_scene url="#DefaultScene"/>
  </scene>
</COLLADA>
