<?xml version="1.0" encoding="UTF-8"?>
<COLLADA xmlns="http://www.collada.org/2005/11/COLLADASchema" version="1.4.1">
<!--
# File generated by ImageToStl.com - Free Image and 3D model conversion tools
-->
  <asset>
    <contributor>
      <author>ImageToStl.com</author>
      <authoring_tool>ImageToStl.com</authoring_tool>
    </contributor>
    <created>2026-01-03T05:22:06</created>
    <modified>2026-01-03T05:22:06</modified>
    <up_axis>Y_UP</up_axis>
  </asset>
  <library_effects>
    <effect id="effect_0">
        <profile_COMMON>
          <technique sid="common">
            <phong>
              <diffuse>
                <color>1 1 1 1</color>
              </diffuse>
              <specular>
                <color>0.04 0.04 0.04 1</color>
              </specular>
              <shininess>
                <float>38.4</float>
              </shininess>
              <transparency>
                <float>1</float>
              </transparency>
            </phong>
          </technique>
        </profile_COMMON>
    </effect>
  </library_effects>
  <library_materials>
    <material id="mat_0">
      <instance_effect url="#effect_0"/>
    </material>
  </library_materials>
  <library_geometries>
    <geometry id="geometry_fef8ba3a_3e32_4337_812e_999b174d6b8c">
      <mesh>
        <source id="pos_0">
          <float_array id="pos_0-array" count="888">0.55675828 -0.00243004 1.34413338 0.55691046 -0.003175 1.34450078 -0.55691046 -0.003175 1.34450078 -0.55655807 0 1.34364998 -0.55658054 0.00082884 1.34370434 0.55664766 0.0016435 1.34386635 -0.55664766 0.0016435 1.34386635 0.55675828 0.00243004 1.34413338 0.55691046 0.003175 1.34450078 -0.55675828 0.00243004 1.34413338 -0.55691046 0.003175 1.34450078 -0.55710161 0.00386564 1.34496224 0.55732846 0.00449013 1.34550989 0.55710161 0.00386564 1.34496224 -0.55732846 0.00449013 1.34550989 -0.55787319 0.00549926 1.346825 0.55787319 0.00549926 1.346825 -0.55850756 0.00613363 1.34835649 0.55850756 0.00613363 1.34835649 -0.55918831 0.00635 1.35000002 0.55918831 0.00635 1.35000002 -0.55986905 0.00613363 1.35164344 0.55986905 0.00613363 1.35164344 -0.56050342 0.00549926 1.35317504 0.56050342 0.00549926 1.35317504 -0.56104821 0.00449013 1.35449016 0.56104821 0.00449013 1.35449016 -0.56127501 0.00386564 1.35503781 0.56127501 0.00386564 1.35503781 -0.56146616 0.003175 1.35549927 0.56146616 0.003175 1.35549927 -0.56161833 0.00243004 1.35586667 0.56161833 0.00243004 1.35586667 -0.56172895 0.0016435 1.35613358 0.56172895 0.0016435 1.35613358 0.56179607 0.00082884 1.3562957 -0.56179607 0.00082884 1.3562957 0.56181854 0 1.35634995 -0.56181854 0 1.35634995 -0.56179607 -0.00082884 1.3562957 0.56179607 -0.00082884 1.3562957 -0.56172895 -0.0016435 1.35613358 0.56172895 -0.0016435 1.35613358 0.56161833 -0.00243004 1.35586667 -0.56161833 -0.00243004 1.35586667 0.56146616 -0.003175 1.35549927 -0.56146616 -0.003175 1.35549927 0.56127501 -0.00386564 1.35503781 -0.56127501 -0.00386564 1.35503781 0.56104821 -0.00449013 1.35449016 -0.56104821 -0.00449013 1.35449016 -0.56050342 -0.00549926 1.35317504 0.56050342 -0.00549926 1.35317504 -0.55986905 -0.00613363 1.35164344 0.55986905 -0.00613363 1.35164344 -0.55918831 -0.00635 1.35000002 0.55918831 -0.00635 1.35000002 -0.55850756 -0.00613363 1.34835649 0.55850756 -0.00613363 1.34835649 -0.55787319 -0.00549926 1.346825 0.55787319 -0.00549926 1.346825 -0.55732846 -0.00449013 1.34550989 0.55732846 -0.00449013 1.34550989 -0.55710161 -0.00386564 1.34496224 0.55710161 -0.00386564 1.34496224 0.55664766 -0.0016435 1.34386635 -0.55675828 -0.00243004 1.34413338 -0.55664766 -0.0016435 1.34386635 0.55658054 0.00082884 1.34370434 0.55655807 0 1.34364998 -0.55658054 -0.00082884 1.34370434 0.55658054 -0.00082884 1.34370434 1.34386635 0.0016435 0.55664766 1.34413338 0.00243004 0.55675828 1.34450078 0.003175 0.55691046 1.34550989 0.00449013 0.55732846 1.34496224 0.00386564 0.55710161 1.346825 0.00549926 0.55787319 1.34835649 0.00613363 0.55850756 1.35000002 0.00635 0.55918831 1.35164344 0.00613363 0.55986905 1.35317504 0.00549926 0.56050342 1.35449016 0.00449013 0.56104821 1.35503781 0.00386564 0.56127501 1.35549927 0.003175 0.56146616 1.35586667 0.00243004 0.56161833 1.35613358 0.0016435 0.56172895 1.3562957 0.00082884 0.56179607 1.35634995 0 0.56181854 1.3562957 -0.00082884 0.56179607 1.35613358 -0.0016435 0.56172895 1.35586667 -0.00243004 0.56161833 1.35549927 -0.003175 0.56146616 1.35503781 -0.00386564 0.56127501 1.35449016 -0.00449013 0.56104821 1.35317504 -0.00549926 0.56050342 1.35164344 -0.00613363 0.55986905 1.35000002 -0.00635 0.55918831 1.34835649 -0.00613363 0.55850756 1.346825 -0.00549926 0.55787319 1.34550989 -0.00449013 0.55732846 1.34450078 -0.003175 0.55691046 1.34496224 -0.00386564 0.55710161 1.34386635 -0.0016435 0.55664766 1.34413338 -0.00243004 0.55675828 1.34370434 0.00082884 0.55658054 1.34364998 0 0.55655807 1.34370434 -0.00082884 0.55658054 -1.35634995 0 0.56181854 -1.3562957 -0.00082884 0.56179607 -1.34550989 -0.00449013 0.55732846 -1.346825 -0.00549926 0.55787319 -1.34835649 -0.00613363 0.55850756 -1.35000002 -0.00635 0.55918831 -1.35164344 -0.00613363 0.55986905 -1.35317504 -0.00549926 0.56050342 -1.35449016 -0.00449013 0.56104821 -1.35503781 -0.00386564 0.56127501 -1.35549927 -0.003175 0.56146616 -1.35586667 -0.00243004 0.56161833 -1.35613358 -0.0016435 0.56172895 -1.34496224 -0.00386564 0.55710161 -1.34450078 -0.003175 0.55691046 -1.34413338 -0.00243004 0.55675828 -1.34386635 -0.0016435 0.55664766 -1.34370434 -0.00082884 0.55658054 -1.34364998 0 0.55655807 -1.34370434 0.00082884 0.55658054 -1.34386635 0.0016435 0.55664766 -1.34450078 0.003175 0.55691046 -1.34496224 0.00386564 0.55710161 -1.34413338 0.00243004 0.55675828 -1.34550989 0.00449013 0.55732846 -1.346825 0.00549926 0.55787319 -1.34835649 0.00613363 0.55850756 -1.35000002 0.00635 0.55918831 -1.35164344 0.00613363 0.55986905 -1.35317504 0.00549926 0.56050342 -1.35449016 0.00449013 0.56104821 -1.35503781 0.00386564 0.56127501 -1.35549927 0.003175 0.56146616 -1.35586667 0.00243004 0.56161833 -1.3562957 0.00082884 0.56179607 -1.35613358 0.0016435 0.56172895 1.34386635 0.0016435 -0.55664766 1.34413338 0.00243004 -0.55675828 1.34450078 0.003175 -0.55691046 1.34550989 0.00449013 -0.55732846 1.34496224 0.00386564 -0.55710161 1.346825 0.00549926 -0.55787319 1.34835649 0.00613363 -0.55850756 1.35000002 0.00635 -0.55918831 1.35164344 0.00613363 -0.55986905 1.35317504 0.00549926 -0.56050342 1.35449016 0.00449013 -0.56104821 1.35503781 0.00386564 -0.56127501 1.35549927 0.003175 -0.56146616 1.35586667 0.00243004 -0.56161833 1.35613358 0.0016435 -0.56172895 1.3562957 0.00082884 -0.56179607 1.35634995 0 -0.56181854 1.3562957 -0.00082884 -0.56179607 1.35613358 -0.0016435 -0.56172895 1.35586667 -0.00243004 -0.56161833 1.35549927 -0.003175 -0.56146616 1.35503781 -0.00386564 -0.56127501 1.35449016 -0.00449013 -0.56104821 1.35317504 -0.00549926 -0.56050342 1.35164344 -0.00613363 -0.55986905 1.35000002 -0.00635 -0.55918831 1.34835649 -0.00613363 -0.55850756 1.346825 -0.00549926 -0.55787319 1.34550989 -0.00449013 -0.55732846 1.34450078 -0.003175 -0.55691046 1.34496224 -0.00386564 -0.55710161 1.34386635 -0.0016435 -0.55664766 1.34413338 -0.00243004 -0.55675828 1.34370434 0.00082884 -0.55658054 1.34364998 0 -0.55655807 1.34370434 -0.00082884 -0.55658054 -1.34550989 -0.00449013 -0.55732846 -1.346825 -0.00549926 -0.55787319 -1.34835649 -0.00613363 -0.55850756 -1.35000002 -0.00635 -0.55918831 -1.35164344 -0.00613363 -0.55986905 -1.35317504 -0.00549926 -0.56050342 -1.35449016 -0.00449013 -0.56104821 -1.35503781 -0.00386564 -0.56127501 -1.35549927 -0.003175 -0.56146616 -1.35586667 -0.00243004 -0.56161833 -1.35613358 -0.0016435 -0.56172895 -1.3562957 -0.00082884 -0.56179607 -1.34496224 -0.00386564 -0.55710161 -1.34450078 -0.003175 -0.55691046 -1.34413338 -0.00243004 -0.55675828 -1.34386635 -0.0016435 -0.55664766 -1.34370434 -0.00082884 -0.55658054 -1.34364998 0 -0.55655807 -1.34370434 0.00082884 -0.55658054 -1.34386635 0.0016435 -0.55664766 -1.34413338 0.00243004 -0.55675828 -1.34450078 0.003175 -0.55691046 -1.34496224 0.00386564 -0.55710161 -1.34550989 0.00449013 -0.55732846 -1.346825 0.00549926 -0.55787319 -1.34835649 0.00613363 -0.55850756 -1.35000002 0.00635 -0.55918831 -1.35164344 0.00613363 -0.55986905 -1.35317504 0.00549926 -0.56050342 -1.35449016 0.00449013 -0.56104821 -1.35503781 0.00386564 -0.56127501 -1.35549927 0.003175 -0.56146616 -1.35586667 0.00243004 -0.56161833 -1.35613358 0.0016435 -0.56172895 -1.3562957 0.00082884 -0.56179607 -1.35634995 0 -0.56181854 0.55658054 -0.00082884 -1.34370434 0.55664766 -0.0016435 -1.34386635 0.55658054 0.00082884 -1.34370434 0.55655807 0 -1.34364998 0.55664766 0.0016435 -1.34386635 0.55675828 0.00243004 -1.34413338 0.55691046 0.003175 -1.34450078 0.55732846 0.00449013 -1.34550989 0.55710161 0.00386564 -1.34496224 0.55787319 0.00549926 -1.346825 0.55850756 0.00613363 -1.34835649 0.55918831 0.00635 -1.35000002 0.55986905 0.00613363 -1.35164344 0.56050342 0.00549926 -1.35317504 0.56104821 0.00449013 -1.35449016 0.56127501 0.00386564 -1.35503781 0.56146616 0.003175 -1.35549927 0.56161833 0.00243004 -1.35586667 0.56172895 0.0016435 -1.35613358 0.56179607 0.00082884 -1.3562957 0.56181854 0 -1.35634995 0.56179607 -0.00082884 -1.3562957 0.56172895 -0.0016435 -1.35613358 0.56161833 -0.00243004 -1.35586667 0.56146616 -0.003175 -1.35549927 0.56127501 -0.00386564 -1.35503781 0.56104821 -0.00449013 -1.35449016 0.56050342 -0.00549926 -1.35317504 0.55986905 -0.00613363 -1.35164344 0.55918831 -0.00635 -1.35000002 0.55850756 -0.00613363 -1.34835649 0.55787319 -0.00549926 -1.346825 0.55732846 -0.00449013 -1.34550989 0.55691046 -0.003175 -1.34450078 0.55710161 -0.00386564 -1.34496224 0.55675828 -0.00243004 -1.34413338 -0.56181854 0 -1.35634995 -0.56179607 -0.00082884 -1.3562957 -0.55732846 -0.00449013 -1.34550989 -0.55787319 -0.00549926 -1.346825 -0.55850756 -0.00613363 -1.34835649 -0.55918831 -0.00635 -1.35000002 -0.55986905 -0.00613363 -1.35164344 -0.56050342 -0.00549926 -1.35317504 -0.56104821 -0.00449013 -1.35449016 -0.56127501 -0.00386564 -1.35503781 -0.56146616 -0.003175 -1.35549927 -0.56161833 -0.00243004 -1.35586667 -0.56172895 -0.0016435 -1.35613358 -0.55710161 -0.00386564 -1.34496224 -0.55691046 -0.003175 -1.34450078 -0.55675828 -0.00243004 -1.34413338 -0.55664766 -0.0016435 -1.34386635 -0.55658054 -0.00082884 -1.34370434 -0.55655807 0 -1.34364998 -0.55658054 0.00082884 -1.34370434 -0.55664766 0.0016435 -1.34386635 -0.55691046 0.003175 -1.34450078 -0.55710161 0.00386564 -1.34496224 -0.55675828 0.00243004 -1.34413338 -0.55732846 0.00449013 -1.34550989 -0.55787319 0.00549926 -1.346825 -0.55850756 0.00613363 -1.34835649 -0.55918831 0.00635 -1.35000002 -0.55986905 0.00613363 -1.35164344 -0.56050342 0.00549926 -1.35317504 -0.56104821 0.00449013 -1.35449016 -0.56127501 0.00386564 -1.35503781 -0.56146616 0.003175 -1.35549927 -0.56161833 0.00243004 -1.35586667 -0.56179607 0.00082884 -1.3562957 -0.56172895 0.0016435 -1.35613358 1.35249996 -0.31134999 0.1525 1.35249996 -0.00635 0.1525 1.34749997 -0.31134999 0.1525 1.34749997 -0.00635 0.1525 1.35249996 -0.31134999 -0.1525 1.34749997 -0.31134999 -0.1525 1.35249996 -0.00635 -0.1525 1.34749997 -0.00635 -0.1525</float_array>
          <technique_common>
            <accessor source="#pos_0-array" count="888" stride="3">
              <param name="X" type="float"/>
              <param name="Y" type="float"/>
              <param name="Z" type="float"/>
            </accessor>
          </technique_common>
        </source>
        <source id="norm_0">
          <float_array id="norm_0-array" count="1137">0 -0.38268 -0.92388 0 -0.5 -0.86603 0 -0.5 -0.86603 0 0 -1 0 0.13053 -0.99144 0 0.25882 -0.96593 0 0.25882 -0.96593 0 0.38268 -0.92388 0 0.5 -0.86603 0 0.38268 -0.92388 0 0.5 -0.86603 0 0.60876 -0.79335 0 0.70711 -0.70711 0 0.60876 -0.79335 0 0.70711 -0.70711 0 0.86603 -0.5 0 0.86603 -0.5 0 0.96593 -0.25882 0 0.96593 -0.25882 0 1 -0 0 1 0 0 0.96593 0.25882 0 0.96593 0.25882 0 0.86603 0.5 0 0.86603 0.5 0 0.70711 0.70711 0 0.70711 0.70711 0 0.60876 0.79335 0 0.60876 0.79335 0 0.5 0.86603 0 0.5 0.86603 0 0.38268 0.92388 0 0.38268 0.92388 0 0.25882 0.96593 0 0.25882 0.96593 0 0.13053 0.99144 0 0.13053 0.99144 0 0 1 0 0 1 0 -0.13053 0.99144 0 -0.13053 0.99144 0 -0.25882 0.96593 0 -0.25882 0.96593 0 -0.38268 0.92388 0 -0.38268 0.92388 0 -0.5 0.86603 0 -0.5 0.86603 0 -0.60876 0.79335 0 -0.60876 0.79335 0 -0.70711 0.70711 0 -0.70711 0.70711 0 -0.86603 0.5 0 -0.86603 0.5 0 -0.96593 0.25882 0 -0.96593 0.25882 0 -1 0 0 -1 0 0 -0.96593 -0.25882 0 -0.96593 -0.25882 0 -0.86603 -0.5 0 -0.86603 -0.5 0 -0.70711 -0.70711 0 -0.70711 -0.70711 0 -0.60876 -0.79335 0 -0.60876 -0.79335 0 -0.25882 -0.96593 0 -0.38268 -0.92388 0 -0.25882 -0.96593 0 0.13053 -0.99144 0 0 -1 0 -0.13053 -0.99144 0 -0.13053 -0.99144 -0.70711 0 -0.70711 -0.70106 0.13053 -0.70106 -0.68301 0.25882 -0.68301 -0.65328 0.38268 -0.65328 -0.61237 0.5 -0.61237 -0.56099 0.60876 -0.56099 -0.5 0.70711 -0.5 -0.35355 0.86603 -0.35355 -0.18301 0.96593 -0.18301 -0 1 -0 -0 1 0 0.18301 0.96593 0.18301 0.35355 0.86603 0.35355 0.5 0.70711 0.5 0.56099 0.60876 0.56099 0.61237 0.5 0.61237 0.65328 0.38268 0.65328 0.68301 0.25882 0.68301 0.70106 0.13053 0.70106 0.70711 0 0.70711 0.70106 -0.13053 0.70106 0.68301 -0.25882 0.68301 0.65328 -0.38268 0.65328 0.61237 -0.5 0.61237 0.56099 -0.60876 0.56099 0.5 -0.70711 0.5 0.35355 -0.86603 0.35355 0.18301 -0.96593 0.18301 -0 -1 -0 -0 -1 0 -0.18301 -0.96593 -0.18301 -0.35355 -0.86603 -0.35355 -0.5 -0.70711 -0.5 -0.56099 -0.60876 -0.56099 -0.61237 -0.5 -0.61237 -0.65328 -0.38268 -0.65328 -0.68301 -0.25882 -0.68301 -0.70106 -0.13053 -0.70106 -0.70106 -0.13053 0.70106 -0.70711 0 0.70711 -0.68301 -0.25882 0.68301 0.5 -0.70711 -0.5 0.35355 -0.86603 -0.35355 0.18301 -0.96593 -0.18301 -0 -1 0 -0 -1 0 -0.18301 -0.96593 0.18301 -0.35355 -0.86603 0.35355 -0.5 -0.70711 0.5 -0.56099 -0.60876 0.56099 -0.61237 -0.5 0.61237 -0.65328 -0.38268 0.65328 0.61237 -0.5 -0.61237 0.56099 -0.60876 -0.56099 0.65328 -0.38268 -0.65328 0.68301 -0.25882 -0.68301 0.70106 -0.13053 -0.70106 0.70711 0 -0.70711 0.70106 0.13053 -0.70106 0.68301 0.25882 -0.68301 0.65328 0.38268 -0.65328 0.61237 0.5 -0.61237 0.56099 0.60876 -0.56099 0.5 0.70711 -0.5 0.35355 0.86603 -0.35355 0.18301 0.96593 -0.18301 -0 1 0 0 1 0 -0.18301 0.96593 0.18301 -0.35355 0.86603 0.35355 -0.5 0.70711 0.5 -0.56099 0.60876 0.56099 -0.61237 0.5 0.61237 -0.65328 0.38268 0.65328 -0.68301 0.25882 0.68301 -0.70106 0.13053 0.70106 -1 0 0 -0.99144 0.13053 0 -0.96593 0.25882 -0 -0.96593 0.25882 0 -0.92388 0.38268 -0 -0.86603 0.5 -0 -0.86603 0.5 0 -0.79335 0.60876 0 -0.70711 0.70711 -0 -0.92388 0.38268 0 -0.79335 0.60876 -0 -0.70711 0.70711 0 -0.5 0.86603 -0 -0.5 0.86603 -0 -0.25882 0.96593 0 -0.25882 0.96593 -0 0 1 -0 0 1 -0 0.25882 0.96593 -0 0.25882 0.96593 -0 0.5 0.86603 -0 0.5 0.86603 -0 0.70711 0.70711 -0 0.70711 0.70711 -0 0.79335 0.60876 -0 0.79335 0.60876 -0 0.86603 0.5 -0 0.86603 0.5 -0 0.92388 0.38268 -0 0.92388 0.38268 -0 0.96593 0.25882 -0 0.96593 0.25882 -0 0.99144 0.13053 -0 0.99144 0.13053 -0 1 0 -0 1 0 -0 0.99144 -0.13053 -0 0.99144 -0.13053 -0 0.96593 -0.25882 -0 0.96593 -0.25882 -0 0.92388 -0.38268 -0 0.92388 -0.38268 -0 0.86603 -0.5 -0 0.86603 -0.5 -0 0.79335 -0.60876 -0 0.79335 -0.60876 -0 0.70711 -0.70711 -0 0.70711 -0.70711 -0 0.5 -0.86603 -0 0.5 -0.86603 -0 0.25882 -0.96593 -0 0.25882 -0.96593 -0 0 -1 -0 0 -1 -0 -0.25882 -0.96593 0 -0.25882 -0.96593 -0 -0.5 -0.86603 -0 -0.5 -0.86603 -0 -0.70711 -0.70711 0 -0.70711 -0.70711 -0 -0.79335 -0.60876 0 -0.86603 -0.5 0 -0.86603 -0.5 -0 -0.79335 -0.60876 -0 -0.92388 -0.38268 0 -0.96593 -0.25882 0 -0.96593 -0.25882 -0 -0.92388 -0.38268 -0 -0.99144 0.13053 -0 -1 0 -0 -0.99144 -0.13053 0 -0.99144 -0.13053 -0 0.70711 -0.70711 0 0.5 -0.86603 0 0.5 -0.86603 0 0.25882 -0.96593 0 0.25882 -0.96593 0 0 -1 0 0 -1 0 -0.25882 -0.96593 0 -0.25882 -0.96593 0 -0.5 -0.86603 0 -0.5 -0.86603 0 -0.70711 -0.70711 0 -0.70711 -0.70711 0 -0.79335 -0.60876 0 -0.79335 -0.60876 0 -0.86603 -0.5 0 -0.86603 -0.5 0 -0.92388 -0.38268 0 -0.92388 -0.38268 0 -0.96593 -0.25882 0 -0.96593 -0.25882 0 -0.99144 -0.13053 0 -0.99144 -0.13053 0 -1 0 0 0.86603 -0.5 0 0.79335 -0.60876 0 0.70711 -0.70711 0 0.79335 -0.60876 0 0.86603 -0.5 0 0.92388 -0.38268 0 0.96593 -0.25882 0 0.92388 -0.38268 0 0.96593 -0.25882 0 0.99144 -0.13053 0 1 0 0 0.99144 -0.13053 0 1 0 0 0.99144 0.13053 0 0.96593 0.25882 0 0.99144 0.13053 0 0.96593 0.25882 0 0.92388 0.38268 0 0.86603 0.5 0 0.92388 0.38268 0 0.86603 0.5 0 0.79335 0.60876 0 0.70711 0.70711 0 0.79335 0.60876 0 0.70711 0.70711 0 0.5 0.86603 0 0.5 0.86603 0 0.25882 0.96593 0 0.25882 0.96593 0 0 1 0 0 1 0 -0.25882 0.96593 0 -0.25882 0.96593 0 -0.5 0.86603 0 -0.5 0.86603 0 -0.70711 0.70711 0 -0.70711 0.70711 0 -0.79335 0.60876 0 -0.79335 0.60876 0 -0.86603 0.5 0 -0.86603 0.5 0 -0.92388 0.38268 0 -0.92388 0.38268 0 -0.96593 0.25882 0 -0.96593 0.25882 0 -0.99144 0.13053 0 -0.99144 0.13053 0 -1 0 0 -0.70711 0 0.70711 -0 1 0 0 1 0 0.70711 0 -0.70711 0 -1 -0 0 -1 0 -0.70711 0 -0.70711 -0 -1 0 -0 -1 0 0.70711 0 0.70711 -0 1 0 -0 1 0 0 -0.70711 0.70711 0 -0.86603 0.5 0 -0.86603 0.5 0 -0.96593 0.25882 0 -0.96593 0.25882 0 -1 -0 0 -1 -0 0 -0.96593 -0.25882 -0 -0.96593 -0.25882 0 -0.86603 -0.5 -0 -0.86603 -0.5 0 -0.70711 -0.70711 -0 -0.70711 -0.70711 0 -0.60876 -0.79335 -0 -0.60876 -0.79335 0 -0.5 -0.86603 -0 -0.5 -0.86603 0 -0.38268 -0.92388 -0 -0.38268 -0.92388 0 -0.25882 -0.96593 -0 -0.25882 -0.96593 0 -0.13053 -0.99144 -0 -0.13053 -0.99144 0 0 -1 0 -0.5 0.86603 0 -0.60876 0.79335 0 -0.70711 0.70711 0 -0.60876 0.79335 0 -0.5 0.86603 0 -0.38268 0.92388 0 -0.25882 0.96593 0 -0.38268 0.92388 0 -0.25882 0.96593 0 -0.13053 0.99144 0 0 1 0 -0.13053 0.99144 0 0 1 0 0.13053 0.99144 0 0.25882 0.96593 0 0.13053 0.99144 0 0.25882 0.96593 0 0.38268 0.92388 0 0.5 0.86603 0 0.38268 0.92388 0 0.5 0.86603 0 0.60876 0.79335 0 0.70711 0.70711 0 0.60876 0.79335 0 0.70711 0.70711 0 0.86603 0.5 0 0.86603 0.5 0 0.96593 0.25882 0 0.96593 0.25882 0 1 -0 -0 0.96593 -0.25882 0 0.96593 -0.25882 -0 0.86603 -0.5 0 0.86603 -0.5 -0 0.70711 -0.70711 0 0.70711 -0.70711 0 0.60876 -0.79335 -0 0.60876 -0.79335 0 0.5 -0.86603 -0 0.5 -0.86603 0 0.38268 -0.92388 -0 0.38268 -0.92388 0 0.25882 -0.96593 -0 0.25882 -0.96593 0 0.13053 -0.99144 -0 0.13053 -0.99144 -0 0 -1 0 -1 -0 0 0 -1 1 0 0 -1 0 0</float_array>
          <technique_common>
            <accessor source="#norm_0-array" count="1137" stride="3">
              <param name="X" type="float"/>
              <param name="Y" type="float"/>
              <param name="Z" type="float"/>
            </accessor>
          </technique_common>
        </source>
        <vertices id="vert_0">
          <input semantic="POSITION" source="#pos_0"/>
        </vertices>
        <triangles count="588" material="mat_0">
          <input semantic="VERTEX" source="#vert_0" offset="0"/>
          <input semantic="NORMAL" source="#norm_0" offset="1"/>
          <p>0 0 1 1 2 2 3 3 4 4 5 5 5 5 4 4 6 6 5 5 6 6 7 7 7 7 6 6 8 8 8 8 6 6 9 9 8 8 9 9 10 10 11 11 12 12 10 10 10 10 12 12 13 13 10 10 13 13 8 8 11 11 14 14 12 12 12 12 14 14 15 15 12 12 15 15 16 16 16 16 15 15 17 17 16 16 17 17 18 18 18 18 17 17 19 19 18 18 19 19 20 20 20 20 19 19 21 21 20 20 21 21 22 22 22 22 21 21 23 23 22 22 23 23 24 24 24 24 23 23 25 25 24 24 25 25 26 26 26 26 25 25 27 27 26 26 27 27 28 28 28 28 27 27 29 29 28 28 29 29 30 30 30 30 29 29 31 31 30 30 31 31 32 32 32 32 31 31 33 33 32 32 33 33 34 34 34 34 33 33 35 35 35 35 33 33 36 36 35 35 36 36 37 37 36 36 38 38 37 37 37 37 38 38 39 39 37 37 39 39 40 40 40 40 39 39 41 41 40 40 41 41 42 42 42 42 41 41 43 43 43 43 41 41 44 44 43 43 44 44 45 45 45 45 44 44 46 46 45 45 46 46 47 47 47 47 46 46 48 48 47 47 48 48 49 49 48 48 50 50 49 49 49 49 50 50 51 51 49 49 51 51 52 52 52 52 51 51 53 53 52 52 53 53 54 54 54 54 53 53 55 55 54 54 55 55 56 56 56 56 55 55 57 57 56 56 57 57 58 58 58 58 57 57 59 59 58 58 59 59 60 60 60 60 59 59 61 61 60 60 61 61 62 62 2 2 1 1 63 63 63 63 1 1 61 61 61 61 1 1 64 64 61 61 64 64 62 62 0 0 2 2 65 65 65 65 2 2 66 66 65 65 66 66 67 67 5 5 68 68 3 3 3 3 68 68 69 69 3 3 69 69 70 70 70 70 69 69 67 67 67 67 69 69 71 71 67 67 71 71 65 65 69 72 68 73 72 74 72 74 68 73 5 74 72 74 5 74 73 75 73 75 5 74 74 76 8 76 13 77 75 78 5 74 7 75 74 76 74 76 7 75 8 76 74 76 8 76 76 77 76 77 8 76 75 78 13 77 12 78 75 78 75 78 12 78 16 79 75 78 16 79 77 79 77 79 16 79 18 80 77 79 18 80 78 80 78 80 18 80 20 81 78 80 20 81 79 82 79 82 20 81 22 83 79 82 22 83 80 83 80 83 22 83 24 84 80 83 24 84 81 84 81 84 24 84 26 85 81 84 26 85 82 85 82 85 26 85 83 86 83 86 26 85 28 86 83 86 28 86 84 87 84 87 28 86 30 87 84 87 30 87 85 88 85 88 30 87 32 88 85 88 32 88 86 89 32 88 34 89 86 89 86 89 34 89 35 90 86 89 35 90 87 90 87 90 35 90 37 91 87 90 37 91 88 91 88 91 37 91 89 92 89 92 37 91 40 92 89 92 40 92 90 93 40 92 42 93 90 93 90 93 42 93 43 94 90 93 43 94 91 94 91 94 43 94 45 95 91 94 45 95 92 95 92 95 45 95 93 96 93 96 45 95 47 96 93 96 47 96 94 97 47 96 49 97 94 97 94 97 49 97 52 98 94 97 52 98 95 98 95 98 52 98 54 99 95 98 54 99 96 99 96 99 54 99 56 100 96 99 56 100 97 101 97 101 56 100 58 102 97 101 58 102 98 102 98 102 58 102 60 103 98 102 60 103 99 103 99 103 60 103 62 104 99 103 62 104 100 104 64 105 1 106 101 106 64 105 101 106 62 104 62 104 101 106 102 105 62 104 102 105 100 104 0 107 65 108 103 108 0 107 103 108 1 106 1 106 103 108 104 107 1 106 104 107 101 106 72 74 105 73 69 72 69 72 105 73 106 72 69 72 106 72 71 109 71 109 106 72 65 108 65 108 106 72 107 109 65 108 107 109 103 108 39 110 108 111 109 110 39 110 109 110 41 112 110 113 59 114 111 114 111 114 59 114 57 115 111 114 57 115 112 115 112 115 57 115 55 116 112 115 55 116 113 117 113 117 55 116 53 118 113 117 53 118 114 118 114 118 53 118 51 119 114 118 51 119 115 119 115 119 51 119 50 120 115 119 50 120 116 120 116 120 50 120 48 121 116 120 48 121 117 121 117 121 48 121 46 122 117 121 46 122 118 122 118 122 46 122 44 123 118 122 44 123 119 123 119 123 44 123 41 112 119 123 41 112 120 112 120 112 41 112 109 110 2 124 63 125 110 113 110 113 63 125 61 113 110 113 61 113 59 114 110 113 121 125 2 124 2 124 121 125 122 124 2 124 122 124 66 126 66 126 122 124 67 127 122 124 123 126 67 127 67 127 123 126 124 127 67 127 124 127 70 128 70 128 124 127 3 129 124 127 125 128 3 129 3 129 125 128 126 129 3 129 126 129 4 130 4 130 126 129 6 131 126 129 127 130 6 131 6 131 127 130 128 131 6 131 128 131 9 132 9 132 128 131 10 133 129 133 130 134 14 135 128 131 131 132 10 133 10 133 131 132 129 133 10 133 129 133 11 134 11 134 129 133 14 135 130 134 132 135 14 135 14 135 132 135 133 136 14 135 133 136 15 136 15 136 133 136 134 137 15 136 134 137 17 137 17 137 134 137 135 138 17 137 135 138 19 139 19 139 135 138 136 140 19 139 136 140 21 140 21 140 136 140 137 141 21 140 137 141 23 141 23 141 137 141 138 142 23 141 138 142 25 142 25 142 138 142 139 143 25 142 139 143 27 143 27 143 139 143 140 144 27 143 140 144 29 144 29 144 140 144 31 145 31 145 140 144 141 145 31 145 141 145 33 146 39 110 38 111 108 111 108 111 38 111 36 147 108 111 36 147 142 147 142 147 36 147 33 146 142 147 33 146 143 146 143 146 33 146 141 145 106 148 105 149 144 150 144 150 105 149 72 151 144 150 72 151 145 152 145 152 72 151 146 153 74 154 76 155 147 156 72 151 73 157 146 153 146 153 73 157 74 154 146 153 74 154 148 158 148 158 74 154 147 156 76 155 75 159 147 156 147 156 75 159 77 160 147 156 77 160 149 161 149 161 77 160 78 162 149 161 78 162 150 163 150 163 78 162 79 164 150 163 79 164 151 165 151 165 79 164 80 166 151 165 80 166 152 167 152 167 80 166 81 168 152 167 81 168 153 169 153 169 81 168 82 170 153 169 82 170 154 171 154 171 82 170 83 172 154 171 83 172 155 173 155 173 83 172 84 174 155 173 84 174 156 175 156 175 84 174 85 176 156 175 85 176 157 177 157 177 85 176 86 178 157 177 86 178 158 179 158 179 86 178 87 180 158 179 87 180 159 181 159 181 87 180 88 182 159 181 88 182 160 183 160 183 88 182 161 184 161 184 88 182 89 185 161 184 89 185 162 186 162 186 89 185 90 187 162 186 90 187 163 188 163 188 90 187 91 189 163 188 91 189 164 190 164 190 91 189 92 191 164 190 92 191 165 192 165 192 92 191 93 193 165 192 93 193 166 194 93 193 94 195 166 194 166 194 94 195 95 196 166 194 95 196 167 197 167 197 95 196 96 198 167 197 96 198 168 199 168 199 96 198 97 200 168 199 97 200 169 201 169 201 97 200 98 202 169 201 98 202 170 203 170 203 98 202 99 204 170 203 99 204 171 205 171 205 99 204 100 206 171 205 100 206 172 207 102 208 101 209 173 210 102 208 173 210 100 206 100 206 173 210 174 211 100 206 174 211 172 207 104 212 103 213 175 214 104 212 175 214 101 209 101 209 175 214 176 215 101 209 176 215 173 210 144 150 177 216 106 148 106 148 177 216 178 217 106 148 178 217 107 218 107 218 178 217 103 213 103 213 178 217 179 219 103 213 179 219 175 214 180 220 111 221 181 222 181 222 111 221 112 223 181 222 112 223 182 224 182 224 112 223 113 225 182 224 113 225 183 226 183 226 113 225 114 227 183 226 114 227 184 228 184 228 114 227 115 229 184 228 115 229 185 230 185 230 115 229 116 231 185 230 116 231 186 232 186 232 116 231 117 233 186 232 117 233 187 234 187 234 117 233 118 235 187 234 118 235 188 236 188 236 118 235 119 237 188 236 119 237 189 238 189 238 119 237 120 239 189 238 120 239 190 240 190 240 120 239 109 241 190 240 109 241 191 242 191 242 109 241 108 243 122 244 121 245 180 220 180 220 121 245 110 246 180 220 110 246 111 221 180 220 192 247 122 244 122 244 192 247 193 248 122 244 193 248 123 249 123 249 193 248 124 250 193 248 194 251 124 250 124 250 194 251 195 252 124 250 195 252 125 253 125 253 195 252 126 254 195 252 196 255 126 254 126 254 196 255 197 256 126 254 197 256 127 257 127 257 197 256 128 258 197 256 198 259 128 258 128 258 198 259 199 260 128 258 199 260 131 261 131 261 199 260 129 262 129 262 199 260 200 263 129 262 200 263 201 264 202 265 132 266 201 264 201 264 132 266 130 267 201 264 130 267 129 262 202 265 203 268 132 266 132 266 203 268 204 269 132 266 204 269 133 270 133 270 204 269 205 271 133 270 205 271 134 272 134 272 205 271 206 273 134 272 206 273 135 274 135 274 206 273 207 275 135 274 207 275 136 276 136 276 207 275 208 277 136 276 208 277 137 278 137 278 208 277 209 279 137 278 209 279 138 280 138 280 209 279 139 281 139 281 209 279 210 282 139 281 210 282 140 283 140 283 210 282 211 284 140 283 211 284 141 285 141 285 211 284 212 286 141 285 212 286 143 287 143 287 212 286 213 288 143 287 213 288 142 289 142 289 213 288 214 290 142 289 214 290 108 243 108 243 214 290 215 291 108 243 215 291 191 242 216 110 217 112 175 112 218 147 219 292 178 292 218 147 178 292 220 146 178 292 177 147 220 146 220 146 177 147 144 146 220 146 144 146 221 145 221 145 144 146 222 144 146 144 148 143 223 142 144 146 145 145 222 144 222 144 145 145 146 144 222 144 146 144 224 143 224 143 146 144 223 142 148 143 147 142 223 142 223 142 147 142 149 141 223 142 149 141 225 141 225 141 149 141 150 140 225 141 150 140 226 140 226 140 150 140 151 293 226 140 151 293 227 294 227 294 151 293 152 137 227 294 152 137 228 137 228 137 152 137 153 136 228 137 153 136 229 136 229 136 153 136 154 135 229 136 154 135 230 135 230 135 154 135 155 134 230 135 155 134 231 134 231 134 155 134 156 133 231 134 156 133 232 133 232 133 156 133 157 132 232 133 157 132 233 132 233 132 157 132 158 131 233 132 158 131 234 131 234 131 158 131 159 130 234 131 159 130 235 130 235 130 159 130 160 295 235 130 160 295 236 295 236 295 160 295 237 128 237 128 160 295 161 128 237 128 161 128 238 127 161 128 162 127 238 127 238 127 162 127 163 126 238 127 163 126 239 126 239 126 163 126 164 124 239 126 164 124 240 124 240 124 164 124 241 125 241 125 164 124 165 125 241 125 165 125 242 113 165 125 166 113 242 113 242 113 166 113 167 114 242 113 167 114 243 114 243 114 167 114 168 115 243 114 168 115 244 115 244 115 168 115 169 296 244 115 169 296 245 297 245 297 169 296 170 118 245 297 170 118 246 118 246 118 170 118 171 119 246 118 171 119 247 119 247 119 171 119 172 120 247 119 172 120 248 120 174 121 173 122 249 122 174 121 249 122 172 120 172 120 249 122 250 121 172 120 250 121 248 120 175 112 217 112 176 123 176 123 217 112 173 122 173 122 217 112 251 123 173 122 251 123 249 122 216 110 175 112 219 292 219 292 175 112 179 110 219 292 179 110 178 292 191 109 252 298 253 109 191 109 253 109 190 108 254 97 181 98 255 98 255 98 181 98 182 99 255 98 182 99 256 99 256 99 182 99 183 299 256 99 183 299 257 300 257 300 183 299 184 102 257 300 184 102 258 102 258 102 184 102 185 103 258 102 185 103 259 103 259 103 185 103 186 104 259 103 186 104 260 104 260 104 186 104 187 105 260 104 187 105 261 105 261 105 187 105 188 106 261 105 188 106 262 106 262 106 188 106 189 107 262 106 189 107 263 107 263 107 189 107 190 108 263 107 190 108 264 108 264 108 190 108 253 109 193 95 192 96 254 97 254 97 192 96 180 97 254 97 180 97 181 98 254 97 265 96 193 95 193 95 265 96 266 95 193 95 266 95 194 94 194 94 266 95 195 93 266 95 267 94 195 93 195 93 267 94 268 93 195 93 268 93 196 92 196 92 268 93 197 301 268 93 269 92 197 301 197 301 269 92 270 301 197 301 270 301 198 90 198 90 270 301 199 89 270 301 271 90 199 89 199 89 271 90 272 89 199 89 272 89 200 88 200 88 272 89 201 87 273 87 274 86 203 85 272 89 275 88 201 87 201 87 275 88 273 87 201 87 273 87 202 86 202 86 273 87 203 85 274 86 276 85 203 85 203 85 276 85 277 84 203 85 277 84 204 84 204 84 277 84 278 83 204 84 278 83 205 83 205 83 278 83 279 302 205 83 279 302 206 303 206 303 279 302 280 80 206 303 280 80 207 80 207 80 280 80 281 79 207 80 281 79 208 79 208 79 281 79 282 78 208 79 282 78 209 78 209 78 282 78 210 77 210 77 282 78 283 77 210 77 283 77 211 76 211 76 283 77 284 76 211 76 284 76 212 75 212 75 284 76 285 75 212 75 285 75 213 74 191 109 215 298 252 298 252 298 215 298 214 73 252 298 214 73 286 73 286 73 214 73 213 74 286 73 213 74 287 74 287 74 213 74 285 75 248 304 255 305 247 306 247 306 255 305 256 307 247 306 256 307 246 308 246 308 256 307 257 309 246 308 257 309 245 310 245 310 257 309 258 311 245 310 258 311 244 312 244 312 258 311 259 313 244 312 259 313 243 314 243 314 259 313 260 315 243 314 260 315 242 316 242 316 260 315 261 317 242 316 261 317 241 318 241 318 261 317 262 319 241 318 262 319 240 320 240 320 262 319 263 321 240 320 263 321 239 322 239 322 263 321 264 323 239 322 264 323 238 324 238 324 264 323 253 325 238 324 253 325 237 326 237 326 253 325 252 327 266 328 265 329 248 304 248 304 265 329 254 330 248 304 254 330 255 305 248 304 250 331 266 328 266 328 250 331 249 332 266 328 249 332 267 333 267 333 249 332 268 334 249 332 251 335 268 334 268 334 251 335 217 336 268 334 217 336 269 337 269 337 217 336 270 338 217 336 216 339 270 338 270 338 216 339 219 340 270 338 219 340 271 341 271 341 219 340 272 342 219 340 218 343 272 342 272 342 218 343 220 344 272 342 220 344 275 345 275 345 220 344 273 346 273 346 220 344 221 347 273 346 221 347 222 348 224 349 276 350 222 348 222 348 276 350 274 351 222 348 274 351 273 346 224 349 223 352 276 350 276 350 223 352 225 353 276 350 225 353 277 354 277 354 225 353 226 355 277 354 226 355 278 356 278 356 226 355 227 357 278 356 227 357 279 357 279 357 227 357 228 358 279 357 228 358 280 359 280 359 228 358 229 360 280 359 229 360 281 361 281 361 229 360 230 362 281 361 230 362 282 363 282 363 230 362 283 364 283 364 230 362 231 365 283 364 231 365 284 366 284 366 231 365 232 367 284 366 232 367 285 368 285 368 232 367 233 369 285 368 233 369 287 370 287 370 233 369 234 371 287 370 234 371 286 372 286 372 234 371 235 373 286 372 235 373 252 327 252 327 235 373 236 374 252 327 236 374 237 326 288 338 289 338 290 338 290 338 289 338 291 338 292 375 288 375 293 375 293 375 288 375 290 375 294 376 292 376 295 376 295 376 292 376 293 376 289 139 294 139 291 139 291 139 294 139 295 139 292 377 294 377 288 377 288 377 294 377 289 377 295 378 293 378 291 378 291 378 293 378 290 378</p>
        </triangles>
      </mesh>
    </geometry>
    <geometry id="geometry_625aadc9_a066_4b8c_a386_f05bf560663f">
      <mesh>
        <source id="pos_1">
          <float_array id="pos_1-array" count="24">-1.34749997 -0.31134999 0.1525 -1.34749997 -0.00635 0.1525 -1.35249996 -0.31134999 0.1525 -1.35249996 -0.00635 0.1525 -1.34749997 -0.31134999 -0.1525 -1.35249996 -0.31134999 -0.1525 -1.34749997 -0.00635 -0.1525 -1.35249996 -0.00635 -0.1525</float_array>
          <technique_common>
            <accessor source="#pos_1-array" count="24" stride="3">
              <param name="X" type="float"/>
              <param name="Y" type="float"/>
              <param name="Z" type="float"/>
            </accessor>
          </technique_common>
        </source>
        <source id="norm_1">
          <float_array id="norm_1-array" count="18">0 0 1 0 -1 0 0 0 -1 0 1 0 1 0 0 -1 0 0</float_array>
          <technique_common>
            <accessor source="#norm_1-array" count="18" stride="3">
              <param name="X" type="float"/>
              <param name="Y" type="float"/>
              <param name="Z" type="float"/>
            </accessor>
          </technique_common>
        </source>
        <vertices id="vert_1">
          <input semantic="POSITION" source="#pos_1"/>
        </vertices>
        <triangles count="12" material="mat_0">
          <input semantic="VERTEX" source="#vert_1" offset="0"/>
          <input semantic="NORMAL" source="#norm_1" offset="1"/>
          <p>0 0 1 0 2 0 2 0 1 0 3 0 4 1 0 1 5 1 5 1 0 1 2 1 6 2 4 2 7 2 7 2 4 2 5 2 1 3 6 3 3 3 3 3 6 3 7 3 4 4 6 4 0 4 0 4 6 4 1 4 7 5 5 5 3 5 3 5 5 5 2 5</p>
        </triangles>
      </mesh>
    </geometry>
  </library_geometries>
  <library_visual_scenes>
    <visual_scene id="DefaultScene">
      <node id="node_249a1eae_7764_41b9_8ab6_b97b73328cf9" type="NODE">
        <matrix>1 0 0 0 0 1 0 0 0 0 1 0 0 0 0 1</matrix>
        <node id="node_6dfc2d8a_0a51_44d6_951d_998878f4406f" type="NODE">
          <matrix>1 0 0 0 0 1 0 0 0 0 1 0 0 0 0 1</matrix>
          <node id="node_a0d92418_e97b_4a6a_b934_deae575af334" type="NODE">
            <matrix>0.9019922614097595 0.09925483912229538 0.42018863558769226 3.5798256397247314 -0.17179511487483978 0.9753644466400146 0.13838599622249603 1.0264889001846313 -0.39610156416893005 -0.19700944423675537 0.8968226313591003 7.6405415534973145 0 0 0 1</matrix>
          </node>
          <node id="node_f5221e44_b4a7_4c8b_ab6e_87659c2af070" type="NODE">
            <matrix>1 0 0 0 0 1 0 0 0 0 1 0 0 0 0 1</matrix>
            <node id="node_f5221e44_b4a7_4c8b_ab6e_87659c2af070_mesh0" type="NODE">
              <matrix>1 0 0 0 0 1 0 0 0 0 1 0 0 0 0 1</matrix>
              <instance_geometry url="#geometry_fef8ba3a_3e32_4337_812e_999b174d6b8c">
                <bind_material>
                  <technique_common>
                    <instance_material symbol="mat_0" target="#mat_0"/>
                  </technique_common>
                </bind_material>
              </instance_geometry>
            </node>
            <node id="node_f5221e44_b4a7_4c8b_ab6e_87659c2af070_mesh1" type="NODE">
              <matrix>1 0 0 0 0 1 0 0 0 0 1 0 0 0 0 1</matrix>
              <instance_geometry url="#geometry_625aadc9_a066_4b8c_a386_f05bf560663f">
                <bind_material>
                  <technique_common>
                    <instance_material symbol="mat_0" target="#mat_0"/>
                  </technique_common>
                </bind_material>
              </instance_geometry>
            </node>
          </node>
        </node>
      </node>
    </visual_scene>
  </library_visual_scenes>
  <scene>
    <instance_visual_scene url="#DefaultScene"/>
  </scene>
</COLLADA>
